<?xml version="1.0" encoding="utf-8"?>
<!-- Generator: Adobe Illustrator 17.0.0, SVG Export Plug-In . SVG Version: 6.00 Build 0)  -->
<!DOCTYPE svg PUBLIC "-//W3C//DTD SVG 1.1//EN" "http://www.w3.org/Graphics/SVG/1.1/DTD/svg11.dtd">
<svg version="1.1" id="Layer_1" xmlns="http://www.w3.org/2000/svg" xmlns:xlink="http://www.w3.org/1999/xlink" x="0px" y="0px"
	 width="997.4px" height="142.2px" viewBox="0 0 997.4 142.2" enable-background="new 0 0 997.4 142.2" xml:space="preserve">
<path fill="#CCA770" d="M65.211,35.013c-0.122-2.688-1.181-8.018-1.916-7.933c-0.685,0.079-0.788,5.429-0.667,8.075
	c0.257,4.397,0.539,10.371,0.517,15.247c0.028,4.877-0.347,8.641,0.004,8.711c0.349,0.075,1.379-3.668,1.824-8.62
	C65.466,45.551,65.472,39.469,65.211,35.013z"/>
<path fill="#CCA770" d="M37.64,49.122c1.817-0.457,5.516-1.18,5.59-1.793c0.076-0.82-4.093-1.246-6.093-0.745
	c-3.329,0.613-7.615,2.354-10.695,4.391c-3.113,2.001-5.071,4.085-4.861,4.337c0.238,0.302,2.566-1.238,5.752-2.739
	C30.502,51.026,34.573,49.687,37.64,49.122z"/>
<path fill="#CCA770" d="M657.288,31.366c2.383,1.401,6.716,4.921,6.287,5.548c-0.401,0.584-5.31-1.89-7.655-3.27
	c-3.87-2.344-9.162-5.468-13.602-7.788c-4.417-2.366-8.017-3.832-7.911-4.185c0.099-0.353,3.994,0.508,8.706,2.48
	C647.839,26.076,653.366,28.991,657.288,31.366z"/>
<path fill="#CCA770" d="M299.372,44.234c-1.897-2.01-5.077-6.599-4.489-7.082c0.548-0.449,4.572,3.297,6.439,5.276
	c3.062,3.331,7.272,7.807,10.889,11.274c3.581,3.505,6.629,5.917,6.429,6.226c-0.193,0.311-3.693-1.602-7.668-4.811
	C306.97,51.951,302.475,47.61,299.372,44.234z"/>
<path fill="#CCA770" d="M631.24,49.64c1.287-1.431,3.719-4.444,4.311-4.217c0.781,0.325-0.832,4.316-2.247,5.893
	c-2.155,2.729-5.793,5.788-9.122,7.608c-3.312,1.867-6.144,2.646-6.273,2.334c-0.16-0.361,2.356-1.736,5.249-3.911
	C626.084,55.21,629.254,52.154,631.24,49.64z"/>
<path fill="#CCA770" d="M198.072,84.868c0.773,1.763,2.515,5.221,2.064,5.667c-0.618,0.578-3.589-2.538-4.441-4.478
	c-1.598-3.089-2.884-7.664-3.169-11.448c-0.335-3.787,0.124-6.688,0.461-6.677c0.395,0.003,0.61,2.862,1.398,6.394
	C195.124,77.874,196.601,82.023,198.072,84.868z"/>
<path fill="#CCA770" d="M208.015,29.994c-1.519,0.069-4.531,0.667-4.484,1.083c0.045,0.387,3.068,0.445,4.564,0.377
	c2.485-0.146,5.861-0.305,8.617-0.292c2.757-0.016,4.884,0.196,4.923-0.002c0.043-0.197-2.073-0.779-4.872-1.031
	C213.97,29.849,210.533,29.846,208.015,29.994z"/>
<path fill="#CCA770" d="M215.988,45.576c-0.258-1.027-0.667-3.117-1.013-3.159c-0.463-0.043-0.704,2.313-0.421,3.444
	c0.347,1.881,1.33,4.304,2.482,6.045c1.131,1.759,2.309,2.866,2.451,2.747c0.171-0.134-0.7-1.45-1.548-3.251
	C217.065,49.61,216.308,47.309,215.988,45.576z"/>
<g>
	<path fill="#CCA770" d="M151.761,4.025c0.26-0.263-1.01-1.983-2.745-4.025h-2.893C148.817,2.336,151.437,4.354,151.761,4.025z"/>
	<path fill="#CCA770" d="M142.632,0c4.616,4.508,10.749,10.02,11.187,9.591c0.385-0.378-3.74-5.232-7.75-9.591H142.632z"/>
	<path fill="#CCA770" d="M139.658,0h-3.001c0.047,0.082,0.099,0.175,0.144,0.251c2.111,3.486,4.962,8.228,7.066,12.207
		c2.165,3.954,3.339,7.218,3.669,7.151c0.376-0.07-0.22-3.67-2.012-7.922C143.969,7.83,141.665,3.42,139.658,0z"/>
	<path fill="#CCA770" d="M134.314,0h-2.532c0.196,0.886,0.408,1.722,0.606,2.38c2.599,8.666,7.614,23.375,8.299,23.169
		c0.684-0.204-3.221-15.243-5.821-23.908C134.722,1.162,134.531,0.598,134.314,0z"/>
	<path fill="#CCA770" d="M152.562,0c1.066,0.586,1.831,0.9,1.978,0.711c0.082-0.105-0.033-0.356-0.292-0.711H152.562z"/>
	<path fill="#CCA770" d="M132.316,3.004c-0.252-0.851-0.668-1.923-1.145-3.004h-2.376c0.357,1.376,0.755,2.768,1.056,3.784
		c1.496,4.633,3.253,11.016,4.138,16.336c0.964,5.311,0.993,9.519,1.363,9.542c0.34,0.036,0.97-4.248,0.451-9.773
		C135.365,14.366,133.847,7.737,132.316,3.004z"/>
	<path fill="#CCA770" d="M128.997,3.661c-0.272-1.02-0.775-2.37-1.337-3.661h-2.21c0.332,1.551,0.75,3.214,1.06,4.373
		c1.319,4.513,2.86,10.719,3.616,15.873c0.83,5.146,0.82,9.211,1.189,9.239c0.341,0.039,1.01-4.087,0.63-9.432
		C131.643,14.711,130.346,8.274,128.997,3.661z"/>
	<path fill="#CCA770" d="M119.497,7.776c-0.288-2.157-1.12-5.697-1.857-7.776h-1.279c-0.048,2.166,0.278,5.928,0.574,8.137
		c0.102,0.712,0.209,1.464,0.318,2.237c-0.12-0.653-0.242-1.289-0.365-1.894c-0.476-2.523-1.906-6.96-2.821-8.48h-0.747
		c-0.172,1.584,0.543,6.397,1.033,8.986c1.04,5.11,2.309,12.076,2.919,17.81c0.68,5.731,0.497,10.2,0.84,10.247
		c0.09-0.886,0.138-1.773,0.187-2.659c-0.041,0.887-0.099,1.774-0.187,2.659c0.365,0.059,1.206-4.479,0.985-10.37
		c-0.022-0.836-0.064-1.701-0.118-2.578c0.088,0.847,0.17,1.681,0.243,2.487c0.593,5.912,0.548,10.508,0.889,10.543
		c0.369,0.045,1.068-4.612,0.938-10.638C120.977,20.467,120.265,13.133,119.497,7.776z"/>
	<path fill="#CCA770" d="M110.333,0.942c0.896-0.321,1.795-0.634,2.696-0.942h-5.109c0.302,0.116,0.586,0.22,0.83,0.297
		c-0.733,0.278-1.469,0.551-2.198,0.839c-0.283-0.31-0.758-0.705-1.342-1.136h-7.769c1.834,0.963,4.098,2.24,5.281,2.698
		c-0.726,0.306-1.447,0.626-2.17,0.942C99.774,2.731,97.486,1.138,95.448,0H85.363c1.757,0.682,3.409,1.406,4.829,2.126
		c1.954,0.85,5.35,2.638,6.825,3.096c-0.695,0.322-1.384,0.656-2.075,0.988c-0.824-1.202-4.492-3.633-6.767-4.298
		C86.066,1.131,83.528,0.481,80.896,0H64.052c0.961,0.181,3.02,0.336,5.611,0.612c0.274,0.068,0.539,0.131,0.821,0.205
		c4.645,1.152,10.14,3.154,14.036,4.941c1.749,0.715,4.774,2.01,6.409,2.447c-0.65,0.334-1.304,0.659-1.95,1.002
		c-0.568-0.988-4.363-3.321-6.565-4.143C78.36,3.41,72.595,1.759,67.76,1.166c-4.836-0.646-8.612-0.263-8.599,0.08
		c0.001,0.371,3.684,0.641,8.276,1.72c4.603,1.031,10.079,2.894,14.015,4.499c1.88,0.701,5.278,1.915,6.809,2.128
		c-0.692,0.372-1.376,0.76-2.063,1.142c-0.928-1.049-4.111-2.967-6.013-3.7c-3.827-1.584-9.238-3.27-13.801-3.978
		c-4.562-0.775-8.166-0.5-8.162-0.153c0.929,0.055,1.853,0.14,2.773,0.252c-0.922-0.101-1.843-0.202-2.773-0.252
		C58.219,3.271,61.69,3.644,66,4.846c1.719,0.452,3.568,1.027,5.406,1.65c-2.277-0.619-4.632-1.142-6.785-1.449
		c-4.35-0.686-7.78-0.428-7.778-0.08c-0.001,0.058,0.107,0.118,0.262,0.18c-0.989,0.021-1.6,0.134-1.598,0.288
		c0.904,0.081,1.799,0.201,2.689,0.347c-0.892-0.136-1.786-0.267-2.689-0.347c-0.006,0.35,3.148,0.815,7.046,2.13
		c0.614,0.197,1.25,0.416,1.893,0.642c-1.167-0.3-2.323-0.554-3.427-0.735c-4.128-0.745-7.396-0.436-7.385-0.09
		c0.838,0.047,1.67,0.123,2.498,0.227c-0.83-0.093-1.66-0.186-2.498-0.227c-0.004,0.369,3.123,0.71,6.975,1.873
		c0.082,0.023,0.168,0.052,0.251,0.075c-0.381-0.074-0.762-0.148-1.134-0.204c-3.96-0.685-7.089-0.148-7.041,0.202
		C53.546,9.32,54.4,9.364,55.249,9.44c-0.851-0.065-1.703-0.121-2.564-0.113c0.023,0.361,3,0.487,6.648,1.584
		c1.607,0.447,3.337,1.055,5.038,1.718c-2.434-0.729-5.05-1.314-7.408-1.552c-4.019-0.46-7.128,0.043-7.1,0.386
		c0.017,0.369,3.043,0.524,6.795,1.417c3.763,0.839,8.211,2.438,11.402,3.815c1.567,0.614,4.465,1.666,5.706,1.75
		c-0.559,0.385-1.122,0.762-1.675,1.154c-0.54-0.883-3.593-2.631-5.354-3.239c-3.317-1.214-7.986-2.497-11.93-2.903
		c-3.952-0.482-7.047,0.147-6.982,0.511c0.044,0.345,2.989,0.38,6.676,1.292c0.509,0.116,1.034,0.246,1.566,0.385
		c-1.113-0.179-2.213-0.308-3.258-0.364c-3.911-0.269-6.895,0.421-6.845,0.759c0.034,0.331,2.389,0.351,5.499,0.86
		c-3.667-0.263-6.46,0.343-6.417,0.679c0.032,0.37,2.807,0.42,6.255,1.138c0.471,0.092,0.955,0.198,1.445,0.313
		c-0.983-0.17-1.955-0.295-2.883-0.354c-3.613-0.309-6.371,0.444-6.303,0.781c0.738-0.065,1.473-0.091,2.206-0.086
		c-0.734,0.007-1.469,0.017-2.206,0.086c0.054,0.366,2.728,0.287,6.052,1.028c3.334,0.67,7.282,2.06,10.134,3.227
		c1.416,0.53,4.055,1.373,5.157,1.344c-0.6,0.485-1.2,0.97-1.792,1.466c-0.452-0.881-3.202-2.586-4.843-3.102
		c-3.07-1.098-7.469-2.006-11.11-1.992c-3.648-0.036-6.37,0.794-6.3,1.126c0.06,0.366,2.771,0.206,6.174,0.698
		c2.855,0.371,6.16,1.223,8.875,2.101c-0.017-0.005-0.036-0.012-0.054-0.017c-3.155-1.06-7.678-1.683-11.324-1.431
		c-3.657,0.193-6.354,1.054-6.292,1.38c0.051,0.313,1.971,0.227,4.606,0.348c-0.154,0.013-0.315,0.017-0.465,0.033
		c-3.663,0.326-6.319,1.332-6.242,1.649c0.078,0.379,2.817,0.026,6.288,0.179c3.476,0.098,7.629,0.889,10.53,1.906
		c1.556,0.429,4.448,1.407,5.397,1.314c-0.672,0.619-1.352,1.23-2.011,1.862c0.218-0.731-3.017-2.695-4.87-3.137
		c-3.064-0.896-7.457-1.355-10.97-0.863c-3.53,0.44-6.017,1.638-5.904,1.951c0.111,0.362,2.698-0.174,6.012-0.126
		c3.32-0.006,7.313,0.697,10.166,1.529c1.607,0.382,4.724,1.13,5.421,0.784c-0.672,0.647-1.32,1.317-1.977,1.978
		c-0.572-0.803-3.519-2.09-5.208-2.374c-3.174-0.648-7.637-0.968-11.232-0.415c-3.62,0.482-6.153,1.834-6.011,2.145
		c0.708-0.228,1.423-0.417,2.142-0.574c-0.718,0.169-1.435,0.34-2.142,0.574c0.131,0.349,2.737-0.33,6.153-0.321
		c3.411-0.067,7.566,0.513,10.59,1.13c1.395,0.233,3.9,0.567,5.11,0.431c-0.562,0.573-1.118,1.15-1.669,1.733
		c0.113-0.738-3.276-2.15-5.1-2.372c-3.041-0.484-7.284-0.569-10.659,0.1c-3.396,0.613-5.763,1.899-5.63,2.215
		c0.13,0.345,2.609-0.28,5.842-0.4c3.23-0.176,7.18,0.185,10.059,0.642c1.516,0.182,4.42,0.419,5.268,0.053
		c-0.66,0.703-1.318,1.407-1.962,2.125c-0.313-0.758-3.816-1.862-5.721-1.939c-3.351-0.273-7.982,0.029-11.587,1.088
		c-3.63,1.005-6.068,2.643-5.902,2.939c0.164,0.335,2.782-0.656,6.288-1.153c3.497-0.552,7.839-0.552,11.017-0.295
		c1.558,0.062,4.406,0.123,5.501-0.201c-0.531,0.599-1.037,1.219-1.556,1.828c0.048-0.775-3.838-1.512-5.784-1.315
		c-3.242,0.185-7.58,1.098-10.915,2.38c-3.352,1.246-5.694,2.725-5.551,3.03c0.154,0.342,2.722-0.522,6.078-1.279
		c0.853-0.203,1.759-0.391,2.685-0.562c-1.912,0.521-3.817,1.219-5.436,2.026c-3.244,1.563-5.381,3.345-5.202,3.623
		c0.197,0.327,2.632-0.867,5.888-1.928c3.244-1.106,7.328-1.91,10.35-2.099c1.668-0.21,4.899-0.478,5.498-0.993
		c-1.368,1.713-2.682,3.469-3.952,5.259c-0.006,0.004-0.011,0.008-0.017,0.012c-0.183-0.738-4.101-0.391-5.916,0.309
		c-3.068,1.035-7.031,3.005-9.93,5.097c-2.927,2.061-4.814,4.09-4.597,4.343c0.24,0.293,2.499-1.197,5.551-2.782
		c1.502-0.804,3.21-1.603,4.905-2.325c-5.38,3.837-10.94,10.728-10.46,11.138c0.284,0.281,2.907-2.037,6.089-4.642
		c-3.552,3.935-6.338,8.197-5.92,8.486c0.465,0.362,6.215-6.098,11.066-10.029c-4.422,4.919-11.362,13.459-10.84,13.933
		c0.279,0.251,2.624-1.843,5.422-4.59c-2.073,3.284-3.602,5.981-3.299,6.199c0.327,0.236,2.718-2.47,5.43-5.832
		c-2.097,4.416-3.77,8.346-3.392,8.548c0.33,0.177,2.159-2.528,4.289-6.008c-1.434,3.921-2.42,7.035-2.089,7.178
		c0.359,0.155,2.193-3.217,4.258-7.41c-1.376,4.337-2.308,7.738-1.975,7.864c0.398,0.148,2.507-4.409,4.761-9.749
		c-1.247,5.051-2.114,9.199-1.744,9.31c0.423,0.126,2.355-5.03,4.33-10.882c-0.951,4.927-1.568,8.911-1.202,9
		c0.545,0.131,3.08-8.311,5.099-15.88c-0.974,6.259-1.674,12.103-1.194,12.191c0.666,0.12,3.851-13.398,5.406-21.34
		c0.459-2.356,0.824-7.164,0.159-7.421c0.557-0.677,1.126-1.343,1.697-2.008c-0.592,1.406-1.21,4.476-1.413,6.237
		c-0.428,3.915-0.962,9.233-1.496,13.554c-0.498,4.332-1.135,7.633-0.807,7.741c0.262,0.089,1.045-1.686,1.829-4.386
		c-0.17,1.665-0.236,2.734-0.116,2.774c0.699,0.189,2.644-7.322,3.919-14.491c-0.154,1.629-0.311,3.238-0.471,4.732
		c-0.451,4.541-1.018,8.024-0.683,8.119c0.352,0.102,1.567-3.301,2.488-7.834c0.198-0.937,0.386-1.926,0.566-2.933
		c-0.03,0.319-0.06,0.645-0.09,0.956c-0.394,4.649-0.994,8.159-0.709,8.264c0.391,0.138,1.659-3.371,2.519-7.997
		c0.916-4.62,1.668-10.325,2.069-14.535c0.248-2.477,0.106-7.436-0.574-7.71c0.569-0.559,1.134-1.123,1.713-1.672
		c-0.416,1.375-0.581,5.124-0.615,7.176c0.035,4.201-0.176,9.909-0.733,14.542c-0.518,4.635-1.341,8.183-0.991,8.296
		c0.326,0.112,1.792-3.307,2.796-7.995c1.037-4.672,1.552-10.537,1.513-14.848c0.04-2.426-0.762-7.09-1.487-7.638
		c0.643-0.603,1.307-1.183,1.963-1.773c-0.435,1.036-0.411,4.901-0.304,6.944c0.29,3.894,0.497,9.199,0.366,13.532
		c-0.1,4.334-0.514,7.692-0.156,7.77c0.33,0.079,1.355-3.074,1.937-7.34c-0.007,4.227-0.339,7.384-0.028,7.461
		c0.364,0.097,1.426-3.465,1.856-8.17c0.488-4.694,0.55-10.459,0.387-14.689c-0.077-2.548-0.973-7.624-1.701-7.566
		c-0.029,0.002-0.055,0.026-0.083,0.045c1.436-1.233,2.901-2.43,4.388-3.603c-0.412,1.238-0.339,5.45-0.152,7.696
		c0.407,4.367,0.928,10.295,1.089,15.139c0.219,4.847-0.097,8.582,0.24,8.651c0.363,0.08,1.34-3.681,1.589-8.626
		c0.308-4.937,0.071-10.98-0.341-15.398c-0.208-2.489-1.291-7.247-2.026-7.772c0.67-0.525,1.337-1.055,2.017-1.567
		c-0.461,0.828,0.014,5.583,0.409,8.014c0.765,4.363,1.745,10.297,2.208,15.167c0.54,4.87,0.302,8.642,0.632,8.706
		c0.107-0.781,0.175-1.563,0.241-2.345c-0.058,0.783-0.133,1.565-0.241,2.345c0.371,0.083,1.274-3.774,1.193-8.796
		c0-0.041-0.002-0.084-0.002-0.125c0.335,4.71,0.228,8.305,0.575,8.347c0.345,0.049,1.141-3.89,1.209-9.043
		c0.058-2.319-0.024-4.869-0.189-7.39c0.255,2.203,0.478,4.4,0.632,6.422c0.443,5.171,0.279,9.188,0.625,9.237
		c0.362,0.059,1.183-4.001,1.203-9.296c0.045-3.239-0.153-6.91-0.469-10.35c1.216,8.958,2.412,18.957,2.843,18.954
		c0.573-0.015,0.483-7.161-0.067-14.809c0.123,1.123,0.238,2.229,0.337,3.281c0.539,5.165,0.551,9.175,0.891,9.213
		c0.371,0.046,1.011-4.033,0.936-9.304c-0.022-5.266-0.571-11.682-1.184-16.373c-0.343-2.802-1.751-8.297-2.478-8.274
		c0.629-0.402,1.252-0.815,1.887-1.207c-0.238,1.384,0.437,6.063,0.921,8.543c0.997,4.786,2.251,11.31,2.966,16.675
		c0.77,5.361,0.879,9.56,1.235,9.581c0.356,0.03,0.901-4.241,0.586-9.747c-0.217-4.678-0.964-10.191-1.802-14.72
		c0.882,4.327,1.833,9.363,2.444,13.673c0.826,5.43,0.965,9.686,1.317,9.706c0.361,0.028,0.873-4.308,0.504-9.887
		c-0.315-5.577-1.359-12.335-2.401-17.243c-0.51-2.554-2.063-7.173-2.942-8.287c0.742-0.437,1.486-0.871,2.235-1.295
		c-0.414,0.996,0.21,6.248,0.701,8.949c0.936,4.9,2.174,11.559,2.964,17.023c0.837,5.46,1.089,9.729,1.438,9.741
		c0.367,0.017,0.76-4.337,0.382-9.928c-0.332-5.589-1.299-12.371-2.243-17.315c-0.515-2.837-2.208-8.246-2.989-8.617
		c1.592-0.897,3.195-1.772,4.814-2.612c-0.314,1.219-0.019,5.454,0.3,8.258c-0.717-3.096-2.029-7.131-2.623-7.003
		c-0.681,0.148-0.067,6.209,0.43,9.189c0.868,4.943,2.037,11.66,2.741,17.165c0.776,5.505,0.82,9.785,1.15,9.822
		c0.051-0.888,0.068-1.775,0.083-2.662c-0.008,0.887-0.031,1.774-0.083,2.662c0.355,0.043,0.895-3.756,0.717-8.806
		c0.422,4.905,0.504,8.542,0.828,8.564c0.356,0.028,0.947-4.466,0.853-10.289c-0.045-5.817-0.688-12.916-1.424-18.101
		c-0.373-2.845-1.756-8.186-2.549-9.016c0.84-0.433,1.689-0.846,2.536-1.263c-0.295,1.449,0.201,6.42,0.617,9.061
		c0.85,5.111,1.965,12.056,2.661,17.749c0.738,5.69,0.946,10.129,1.299,10.144c0.36,0.019,0.801-4.488,0.524-10.293
		c-0.234-5.803-1.073-12.864-1.932-18.017c-0.434-2.77-1.868-7.906-2.685-8.886c0.879-0.43,1.762-0.85,2.647-1.264
		c-0.393,1.125,0.183,6.689,0.611,9.576c0.85,5.285,1.894,12.48,2.435,18.383c0.597,5.901,0.592,10.503,0.951,10.529
		c0.353,0.033,1.01-4.609,0.875-10.628c-0.034-2.669-0.209-5.596-0.463-8.494c0.326,2.491,0.643,4.971,0.912,7.252
		c0.755,5.885,0.953,10.439,1.263,10.467c0.402,0.036,0.854-4.638,0.56-10.61c-0.236-5.973-0.954-13.251-1.653-18.582
		c-0.368-2.914-1.636-8.406-2.402-9.314c0.803-0.356,1.615-0.69,2.423-1.033c-0.439,1.277-0.218,6.761,0.089,9.639
		c0.602,5.391,1.466,12.707,2.041,18.684c0.631,5.976,0.748,10.603,1.075,10.633c0.386,0.036,0.919-4.68,0.752-10.737
		c-0.113-6.059-0.692-13.446-1.297-18.863c-0.319-2.998-1.522-8.696-2.272-9.521c0.803-0.339,1.606-0.679,2.414-1.007
		c-0.36,1.588-0.178,6.584,0.089,9.276c0.556,5.324,1.338,12.548,1.818,18.452c0.532,5.903,0.567,10.476,0.904,10.509
		c0.376,0.039,0.99-4.599,0.923-10.586c-0.014-5.982-0.512-13.286-1.074-18.638c-0.278-2.8-1.335-7.988-2.082-9.241
		c0.914-0.367,1.83-0.731,2.749-1.082c-0.34,1.257,0.299,6.71,0.757,9.557c0.919,5.3,2.062,12.516,2.582,18.437
		c0.603,5.925,0.331,10.519,0.666,10.573c0.111-0.948,0.18-1.896,0.247-2.845c-0.059,0.949-0.135,1.898-0.247,2.845
		c0.37,0.07,1.304-4.598,1.163-10.665c-0.059-6.06-0.932-13.421-1.861-18.78c-0.475-2.945-2.086-8.444-2.918-9.277
		c0.897-0.34,1.801-0.661,2.703-0.987c-0.128,1.541,0.771,6.593,1.244,9.307c1.067,5.252,2.084,12.472,2.323,18.418
		c0.292,5.942-0.125,10.569,0.246,10.624c0.334,0.06,1.406-4.545,1.584-10.635c0.228-6.079-0.522-13.529-1.615-18.902
		C113.07,7.151,111.296,2.134,110.333,0.942z M38.372,54.206c-0.019-0.008-0.044-0.002-0.066-0.003c0-0.012,0.018-0.033,0.016-0.044
		c-0.076-0.28-0.535-0.332-1.173-0.233c0.113-0.066,0.23-0.137,0.34-0.199c0.765-0.451,1.396-0.699,1.684-0.936
		C38.912,53.214,38.64,53.695,38.372,54.206z M40.547,51.097c-0.045,0.066-0.093,0.129-0.138,0.194
		c-0.256,0.086-0.644,0.565-1.078,1.244c-0.011-0.271-0.592-0.543-1.39-0.599c1.106-0.464,2.3-1.014,2.977-1.477
		C40.799,50.645,40.675,50.859,40.547,51.097z M41.832,49.931c-0.038-0.103-0.086-0.18-0.152-0.199
		c-0.016-0.005-0.035,0.006-0.052,0.006c0.255-0.349,0.506-0.7,0.764-1.046C42.211,49.05,42.022,49.472,41.832,49.931z
		 M43.624,48.848c-0.005-0.74-0.093-1.244-0.303-1.295c-0.031-0.007-0.066,0.006-0.101,0.017c0.513-0.669,1.052-1.317,1.579-1.975
		C44.403,46.439,43.981,47.639,43.624,48.848z M45.529,44.401c0.118-0.596-2.043-1.244-3.977-1.436
		c0.217-0.016,0.44-0.034,0.647-0.046c1.583-0.161,4.55-0.5,5.389-1.003C46.893,42.738,46.202,43.562,45.529,44.401z M48.427,42.918
		c-0.106-0.624-0.253-1.043-0.443-1.125c0.405-0.463,0.801-0.935,1.213-1.392C48.935,41.018,48.667,41.932,48.427,42.918z
		 M50.416,42.39c-0.064-1.399-0.235-2.536-0.541-2.737c0.509-0.556,1.035-1.096,1.554-1.642C51.051,39.046,50.675,40.8,50.416,42.39
		z M52.738,40.028c-0.093-1.357-0.275-2.488-0.551-2.818c0.567-0.586,1.142-1.165,1.72-1.74
		C53.49,36.349,53.047,38.252,52.738,40.028z M56.233,28.124c1.429,0.397,3.155,0.852,4.022,0.852
		c-0.535,0.474-1.057,0.962-1.584,1.444C58.63,29.908,57.516,28.93,56.233,28.124z M60.071,33.53
		c-0.394-1.47-0.866-2.648-1.243-2.693c0.643-0.575,1.284-1.151,1.938-1.714C60.395,29.562,60.169,31.54,60.071,33.53z
		 M60.78,28.526c-0.36-0.838-2.819-2.463-4.538-3.065c0.409,0.135,0.804,0.27,1.179,0.404c1.397,0.438,3.934,1.155,5.111,1.157
		C61.944,27.519,61.359,28.019,60.78,28.526z M71.914,15.881c1.311,0.525,2.832,1.067,3.781,1.235
		c-0.462,0.308-0.912,0.632-1.37,0.944C74.141,17.559,73.112,16.686,71.914,15.881z M71.379,20.106
		c-0.544,0.391-1.076,0.798-1.614,1.196c-0.332-0.542-1.417-1.373-2.61-2.097C68.606,19.634,70.376,20.064,71.379,20.106z
		 M65.388,24.672c-0.164-0.576-1.498-1.629-2.871-2.448c1.458,0.511,3.461,1.132,4.466,1.176
		C66.446,23.818,65.918,24.247,65.388,24.672z M67.568,22.934c-0.241-0.514-1.225-1.332-2.335-2.057
		c1.341,0.43,2.886,0.868,3.814,0.957C68.555,22.202,68.054,22.559,67.568,22.934z M67.791,23.468
		c0.694-0.522,1.404-1.023,2.107-1.532c-0.398,0.603-0.188,3.977,0.09,6.593C69.311,26.067,68.318,23.443,67.791,23.468z
		 M70.022,21.847c0.695-0.501,1.382-1.013,2.086-1.502c-0.356,0.801-0.178,4.169,0.085,6.773
		C71.541,24.534,70.552,21.766,70.022,21.847z M72.352,20.181c0.667-0.461,1.345-0.905,2.02-1.355
		c-0.298,1.137-0.15,4.547,0.099,7.09C73.866,23.298,72.914,20.374,72.352,20.181z M76.693,24.245
		c-0.543-2.482-1.343-5.184-1.887-5.71c0.657-0.435,1.328-0.849,1.991-1.274C76.355,17.875,76.46,21.52,76.693,24.245z M76.493,16.6
		c-0.337-0.562-1.358-1.434-2.489-2.223c1.415,0.541,3.043,1.094,4.015,1.245C77.51,15.947,76.998,16.268,76.493,16.6z
		 M78.774,15.137c-0.337-0.563-1.457-1.472-2.694-2.291c1.538,0.559,3.362,1.125,4.378,1.231
		C79.893,14.424,79.335,14.783,78.774,15.137z M81.997,22.752c-0.684-2.699-2.002-6.375-2.73-7.063
		c0.598-0.367,1.196-0.734,1.799-1.092C80.92,16.126,81.522,20.283,81.997,22.752z M81.175,13.651
		c-0.261-0.488-1.285-1.292-2.471-2.06c1.466,0.461,3.135,0.916,4.177,1.043C82.31,12.97,81.741,13.307,81.175,13.651z
		 M83.749,12.116c-0.39-0.524-1.543-1.324-2.829-2.059c1.445,0.507,3.108,1.035,4.233,1.257
		C84.685,11.58,84.216,11.845,83.749,12.116z M91.862,7.725c-0.604-0.82-2.479-2.232-4.258-3.286
		c1.921,0.597,4.855,1.774,6.421,2.207C93.301,6.999,92.581,7.361,91.862,7.725z M95.362,7.073c0.777-0.361,1.552-0.727,2.333-1.075
		c-0.35,1.254-0.131,5.686,0.175,8.582C97.219,11.532,96.026,7.611,95.362,7.073z M97.699,4.899
		c-0.214-0.49-0.973-1.294-1.951-2.136c1.373,0.55,2.758,1.071,3.737,1.348C98.89,4.375,98.291,4.628,97.699,4.899z M103.484,2.388
		c-0.207-0.481-0.847-1.232-1.686-2.038c1.33,0.518,2.656,0.991,3.618,1.25C104.771,1.859,104.126,2.121,103.484,2.388z"/>
	<path fill="#CCA770" d="M122.136,6.661c-0.287-1.809-0.974-4.619-1.642-6.661h-1.595c0.063,2.164,0.385,5.199,0.683,7.076
		c0.86,5.205,2.047,12.267,2.877,18.048c0.87,5.775,1.274,10.278,1.624,10.278c0.365,0.002,0.607-4.585,0.197-10.469
		C123.908,19.051,123.001,11.894,122.136,6.661z"/>
	<path fill="#CCA770" d="M125.64,5.313c-0.296-1.444-0.912-3.531-1.555-5.313h-1.905c0.222,1.961,0.616,4.312,0.93,5.851
		c1.086,5.013,2.477,11.835,3.3,17.449c0.879,5.607,1.027,10,1.375,10.022c0.365,0.029,0.869-4.455,0.444-10.216
		C127.86,17.35,126.738,10.379,125.64,5.313z"/>
</g>
<g>
	<path fill="#CCA770" d="M173.975,0c-0.899,1.395-1.355,2.448-1.231,2.52c0.156,0.096,1.019-1.051,2.328-2.52H173.975z"/>
	<path fill="#CCA770" d="M178.904,0h-1.58c-0.624,1.003-1.195,2.027-1.661,3c-1.291,2.637-1.925,4.816-1.751,4.884
		c0.2,0.082,1.168-1.942,2.658-4.387C177.248,2.362,178.059,1.156,178.904,0z"/>
	<path fill="#CCA770" d="M227.526,47.176c2.854,0.705,5.199,1.195,5.262,0.986c0.071-0.239-2.843-1.331-6.15-2.447
		c2.784,0.537,5.036,0.886,5.087,0.679c0.074-0.308-4.697-1.741-8.975-2.882c3.538,0.551,6.84,0.946,6.89,0.675
		c0.068-0.377-7.572-2.176-12.061-3.056c-1.332-0.259-4.049-0.466-4.194-0.09c-0.383-0.315-0.759-0.636-1.135-0.959
		c0.795,0.334,2.529,0.684,3.525,0.798c2.213,0.242,5.218,0.543,7.66,0.846c2.448,0.282,4.314,0.641,4.375,0.456
		c0.05-0.148-0.953-0.591-2.479-1.034c0.941,0.096,1.545,0.134,1.568,0.065c0.107-0.395-4.138-1.494-8.19-2.215
		c0.921,0.087,1.83,0.176,2.674,0.266c2.566,0.255,4.535,0.575,4.589,0.386c0.058-0.199-1.866-0.886-4.427-1.406
		c-0.53-0.112-1.089-0.218-1.658-0.32c0.18,0.017,0.365,0.034,0.54,0.051c2.627,0.223,4.611,0.562,4.67,0.401
		c0.078-0.221-1.905-0.937-4.52-1.423c-2.611-0.518-5.835-0.943-8.215-1.169c-1.4-0.14-4.203-0.06-4.358,0.324
		c-0.316-0.322-0.635-0.641-0.945-0.968c0.777,0.235,2.896,0.328,4.056,0.347c2.374-0.02,5.6,0.1,8.218,0.414
		c2.619,0.293,4.625,0.758,4.689,0.56c0.064-0.184-1.869-1.013-4.519-1.58c-2.64-0.586-5.955-0.877-8.392-0.855
		c-1.371-0.023-4.007,0.431-4.317,0.84c-0.341-0.364-0.669-0.739-1.002-1.109c0.585,0.246,2.77,0.232,3.925,0.172
		c2.201-0.164,5.199-0.281,7.648-0.207c2.449,0.056,4.347,0.291,4.391,0.088c0.045-0.186-1.737-0.766-4.148-1.095
		c2.389,0.004,4.173,0.191,4.217,0.016c0.055-0.205-1.958-0.806-4.618-1.049c-2.653-0.276-5.911-0.311-8.302-0.219
		c-1.44,0.044-4.309,0.55-4.276,0.961c0.001,0.016,0.015,0.031,0.025,0.047c-0.697-0.811-1.374-1.64-2.036-2.48
		c0.7,0.233,3.08,0.192,4.349,0.086c2.468-0.23,5.819-0.524,8.556-0.615c2.739-0.124,4.85,0.055,4.889-0.136
		c0.045-0.205-2.08-0.757-4.875-0.898c-2.791-0.174-6.205-0.04-8.703,0.193c-1.407,0.117-4.096,0.73-4.393,1.145
		c-0.297-0.379-0.596-0.755-0.886-1.14c0.468,0.26,3.155-0.008,4.529-0.231c2.466-0.432,5.82-0.986,8.572-1.248
		c2.752-0.305,4.884-0.171,4.92-0.357c0.047-0.21-2.133-0.72-4.971-0.674c-0.023,0-0.048,0.001-0.071,0.001
		c2.662-0.189,4.694-0.129,4.717-0.325c0.028-0.195-2.198-0.645-5.111-0.683c-1.311-0.033-2.752,0.013-4.177,0.107
		c1.245-0.144,2.487-0.27,3.63-0.357c2.923-0.25,5.193-0.158,5.22-0.353c0.034-0.205-2.261-0.669-5.254-0.68
		c-1.83-0.025-3.905,0.086-5.85,0.265c5.063-0.687,10.714-1.363,10.712-1.607c-0.008-0.324-4.047-0.273-8.369,0.038
		c0.635-0.069,1.26-0.135,1.854-0.19c2.919-0.305,5.185-0.311,5.207-0.504c0.026-0.21-2.279-0.572-5.258-0.529
		c-2.976,0.012-6.602,0.323-9.253,0.669c-1.584,0.194-4.689,0.99-4.676,1.401c-0.227-0.356-0.46-0.708-0.682-1.067
		c0.782,0.134,3.427-0.247,4.828-0.52c2.705-0.564,6.392-1.272,9.424-1.676c3.03-0.435,5.403-0.497,5.415-0.698
		c0.017-0.201-2.397-0.509-5.509-0.331c-2.644,0.123-5.76,0.545-8.319,1.019c2.445-0.498,5.292-1.036,7.728-1.381
		c3.069-0.467,5.474-0.545,5.486-0.744c0.016-0.204-2.435-0.494-5.588-0.285c-3.152,0.178-6.971,0.768-9.745,1.357
		c-1.444,0.288-4.054,1.166-4.684,1.663c-0.247-0.419-0.492-0.84-0.732-1.263c0.563,0.234,3.531-0.118,5.058-0.396
		c2.77-0.529,6.533-1.228,9.621-1.675c3.086-0.473,5.498-0.616,5.506-0.813c0.01-0.207-2.451-0.429-5.611-0.216
		c-3.158,0.188-6.992,0.734-9.786,1.267c-1.603,0.291-4.66,1.248-4.87,1.689c-0.261-0.463-0.506-0.933-0.759-1.399
		c0.142,0.369,3.517,0.026,5.186-0.252c2.794-0.491,6.59-1.151,9.701-1.549c3.111-0.438,5.53-0.464,5.551-0.65
		c0.024-0.201-2.123-0.506-4.977-0.405c2.772-0.238,4.828-0.285,4.84-0.468c0.016-0.201-2.524-0.535-5.815-0.482
		c-3.288,0.025-7.3,0.389-10.23,0.805c-1.608,0.211-4.626,0.992-5.095,1.44c-0.245-0.475-0.478-0.955-0.714-1.433
		c0.819,0.167,3.629-0.114,5.121-0.348c2.888-0.481,6.814-1.111,10.031-1.504c3.216-0.417,5.725-0.535,5.733-0.734
		c0.011-0.204-2.537-0.453-5.817-0.296c-3.279,0.132-7.27,0.607-10.182,1.092c-1.566,0.246-4.468,1.056-5.022,1.518
		c-0.243-0.497-0.48-0.996-0.714-1.496c0.636,0.222,3.78-0.104,5.412-0.345c2.987-0.481,7.053-1.07,10.39-1.376
		c3.335-0.337,5.936-0.335,5.951-0.538c0.019-0.2-2.605-0.571-6.007-0.495c-1.509,0.019-3.163,0.118-4.801,0.262
		c1.408-0.184,2.809-0.363,4.099-0.516c3.326-0.427,5.9-0.538,5.915-0.714c0.02-0.228-2.621-0.483-5.997-0.317
		c-3.376,0.133-7.489,0.539-10.502,0.934c-1.647,0.208-4.751,0.925-5.264,1.357c-0.201-0.454-0.39-0.913-0.584-1.369
		c0.722,0.248,3.821,0.123,5.447-0.05c3.047-0.34,7.182-0.828,10.56-1.153c3.377-0.357,5.993-0.423,6.009-0.607
		c0.02-0.218-2.645-0.519-6.068-0.425c-3.424,0.064-7.599,0.391-10.661,0.733c-1.694,0.181-4.915,0.86-5.381,1.284
		c-0.192-0.454-0.384-0.908-0.569-1.364c0.897,0.204,3.721,0.101,5.243-0.05c3.009-0.314,7.092-0.756,10.428-1.028
		c3.336-0.301,5.921-0.321,5.939-0.511c0.022-0.212-2.599-0.56-5.983-0.522c-3.381,0.008-7.509,0.289-10.534,0.607
		c-1.583,0.157-4.515,0.755-5.223,1.177c-0.207-0.517-0.413-1.034-0.612-1.554c0.711,0.192,3.792-0.169,5.402-0.428
		c2.995-0.519,7.074-1.166,10.42-1.459c3.348-0.341,5.945-0.187,5.976-0.376c0.04-0.209-2.599-0.737-6.028-0.657
		c-3.425,0.033-7.585,0.527-10.614,1.052c-1.665,0.268-4.773,1.179-5.243,1.649c-0.192-0.507-0.373-1.018-0.558-1.528
		c0.871,0.072,3.726-0.436,5.26-0.703c2.968-0.603,7.049-1.178,10.409-1.313c3.358-0.165,5.973,0.071,6.004-0.139
		c0.034-0.189-2.569-0.794-6.01-0.895c-3.436-0.129-7.646,0.295-10.683,0.913c-1.585,0.276-4.42,1.279-5.094,1.823
		c-0.202-0.563-0.399-1.127-0.591-1.693c0.834,0.121,3.644-0.296,5.137-0.578c2.888-0.587,6.825-1.305,10.066-1.649
		c3.239-0.384,5.765-0.281,5.792-0.475c0.005-0.028-0.042-0.061-0.129-0.097h-19.634c-0.856,0.235-1.595,0.487-1.928,0.689
		C187.398,0.46,187.33,0.23,187.261,0h-1.378c-0.902,0.826-2.259,2.48-2.871,3.596c-1.578,2.61-3.253,6.42-4.132,9.67
		c-0.92,3.241-1.145,5.842-0.962,5.87c0.214,0.04,0.798-2.467,1.945-5.551c1.109-3.098,2.879-6.717,4.406-9.242
		c0.637-1.163,1.831-3.16,2.289-4.192c0.103,0.32,0.2,0.641,0.305,0.96c-0.714,0.509-2.367,2.724-3.057,4.051
		c-1.418,2.565-3.035,6.234-3.891,9.384c-0.904,3.142-1.005,5.69-0.813,5.705c0.21,0.026,0.668-2.413,1.796-5.386
		c1.082-2.989,2.803-6.491,4.19-9.002c0.59-1.136,1.61-3.141,1.971-4.185c0.137,0.405,0.278,0.809,0.42,1.212
		c-0.698,0.549-2.27,2.835-2.922,4.19c-1.342,2.63-2.873,6.363-3.686,9.548c-0.859,3.179-0.942,5.747-0.748,5.76
		c0.208,0.022,0.648-2.438,1.737-5.458c0.492-1.431,1.119-2.981,1.78-4.492c-0.645,1.651-1.216,3.396-1.586,4.99
		c-0.71,2.931-0.79,5.27-0.6,5.289c0.21,0.028,0.651-2.224,1.594-5.004c0.914-2.789,2.376-6.073,3.603-8.411
		c0.519-1.068,1.436-2.95,1.741-3.917c0.157,0.414,0.311,0.83,0.474,1.242c-0.671,0.612-2.032,2.786-2.596,4.068
		c-1.186,2.557-2.545,6.158-3.282,9.209c-0.78,3.045-0.865,5.498-0.67,5.513c0.166,0.018,0.49-1.505,1.135-3.604
		c-0.262,2.163-0.2,3.721-0.048,3.73c0.218,0.02,0.524-2.171,1.256-4.89c0.707-2.728,1.959-5.931,3.18-8.119
		c0.512-1.072,1.581-2.897,1.909-3.742c0.173,0.411,0.354,0.818,0.532,1.226c-0.684,0.586-2.055,2.685-2.589,3.95
		c-1.155,2.516-2.35,6.11-2.867,9.141c-0.545,3.031-0.44,5.421-0.248,5.423c0.162,0.008,0.355-1.359,0.789-3.294
		c-0.193,2.16-0.079,3.709,0.073,3.712c0.219,0.012,0.452-2.174,1.097-4.898c0.618-2.732,1.761-5.955,2.889-8.178
		c0.48-1.104,1.491-3.024,1.75-3.857c0.182,0.393,0.371,0.782,0.558,1.173c-0.679,0.466-2.053,2.539-2.429,3.824
		c-0.919,2.48-1.522,6.012-1.592,8.889c-0.009,0.26-0.011,0.507-0.014,0.755c-0.007,0.047-0.018,0.097-0.025,0.144
		c-0.439,2.748-0.352,4.901-0.164,4.91c0.105,0.007,0.226-0.493,0.4-1.302c0.062,0.357,0.127,0.575,0.183,0.573
		c0.176-0.005,0.261-1.468,0.478-3.506c0.039-0.155,0.074-0.305,0.116-0.464c0.651-2.625,1.782-5.731,2.793-7.933
		c0.404-0.988,1.136-2.698,1.383-3.622c0.189,0.367,0.373,0.737,0.566,1.102c-0.559,0.321-1.877,2.466-2.341,3.71
		c-0.935,2.292-1.868,5.55-2.203,8.282c-0.365,2.733-0.148,4.867,0.045,4.86c0.209-0.001,0.362-2.082,0.972-4.677
		c0.583-2.602,1.635-5.696,2.543-7.921c0.396-1.062,1.082-2.983,1.203-3.848c0.21,0.391,0.43,0.778,0.646,1.166
		c-0.593,0.525-1.677,2.323-2.091,3.398c-0.895,2.163-1.848,5.221-2.248,7.8c-0.438,2.578-0.282,4.615-0.086,4.613
		c0.207,0.003,0.418-1.959,1.098-4.395c0.256-0.972,0.58-2.016,0.932-3.055c-0.35,1.287-0.645,2.618-0.819,3.835
		c-0.388,2.459-0.242,4.397-0.045,4.396c0.033,0.001,0.067-0.061,0.102-0.148c0.012,0.559,0.076,0.904,0.163,0.903
		c0.198,0.003,0.461-1.779,1.204-3.982c0.112-0.347,0.235-0.706,0.363-1.07c-0.17,0.659-0.313,1.313-0.415,1.937
		c-0.421,2.333-0.246,4.18-0.051,4.174c0.208,0.002,0.401-1.765,1.058-3.942c0.013-0.046,0.029-0.095,0.043-0.142
		c-0.042,0.215-0.084,0.431-0.115,0.641c-0.387,2.238-0.084,4.007,0.114,3.979c-0.004-0.486,0.021-0.969,0.064-1.449
		c-0.037,0.481-0.068,0.962-0.064,1.449c0.204-0.013,0.275-1.695,0.895-3.757c0.253-0.908,0.596-1.886,0.971-2.847
		c-0.412,1.376-0.743,2.854-0.877,4.187c-0.26,2.271,0.024,4.029,0.218,4.013c0.209-0.009,0.296-1.72,0.801-3.84
		c0.474-2.127,1.378-4.641,2.156-6.444c0.347-0.886,0.942-2.523,0.989-3.225c0.217,0.316,0.431,0.634,0.652,0.947
		c-0.499,0.305-1.487,2.03-1.831,3.026c-0.686,1.875-1.411,4.513-1.641,6.742c-0.272,2.233,0.083,3.983,0.289,3.946
		c0.195-0.025,0.215-1.689,0.73-3.773c0.065-0.288,0.139-0.585,0.217-0.885c-0.101,0.629-0.174,1.251-0.206,1.842
		c-0.152,2.211,0.238,3.897,0.429,3.869c0.187-0.019,0.198-1.35,0.486-3.108c-0.148,2.072,0.194,3.651,0.384,3.627
		c0.209-0.018,0.237-1.586,0.643-3.535c0.052-0.266,0.112-0.54,0.177-0.817c-0.096,0.555-0.167,1.105-0.2,1.629
		c-0.175,2.042,0.251,3.601,0.442,3.562c0.207-0.03,0.162-1.542,0.581-3.42c0.379-1.884,1.164-4.116,1.824-5.727
		c0.3-0.8,0.776-2.292,0.759-2.915c0.274,0.339,0.549,0.678,0.828,1.013c-0.498,0.256-1.461,1.81-1.753,2.737
		c-0.621,1.735-1.134,4.221-1.126,6.279c-0.02,2.062,0.449,3.6,0.637,3.561c0.207-0.034,0.117-1.566,0.394-3.489
		c0.25-1.926,0.888-4.221,1.475-5.871c0.248-0.79,0.653-2.223,0.654-2.889c0.281,0.332,0.564,0.663,0.85,0.99
		c-0.51,0.219-1.538,1.817-1.802,2.783c-0.599,1.783-0.951,4.339-0.809,6.4c0.109,2.067,0.596,3.591,0.78,3.556
		c0.177-0.029,0.128-1.114,0.197-2.603c0.007,0.087,0.01,0.178,0.019,0.263c0.184,2.07,0.753,3.571,0.932,3.528
		c0.214-0.044,0.015-1.592,0.101-3.554c0.055-1.965,0.502-4.312,1.077-5.951c0.243-0.879,0.795-2.514,0.742-3.05
		c0.35,0.38,0.695,0.764,1.053,1.137c-0.413-0.123-1.523,1.705-1.773,2.752c-0.506,1.732-0.766,4.214-0.488,6.2
		c0.249,1.995,0.926,3.401,1.103,3.337c0.204-0.063-0.098-1.525-0.071-3.398c-0.003-1.876,0.394-4.133,0.864-5.745
		c0.216-0.908,0.639-2.67,0.443-3.064c0.366,0.38,0.744,0.746,1.118,1.118c-0.454,0.323-1.181,1.989-1.342,2.943
		c-0.366,1.794-0.547,4.316-0.235,6.348c0.272,2.046,1.036,3.478,1.212,3.397c0.197-0.074-0.186-1.547-0.181-3.478
		c-0.038-1.928,0.29-4.276,0.639-5.985c0.132-0.788,0.32-2.204,0.244-2.888c0.324,0.317,0.65,0.632,0.98,0.943
		c-0.417-0.064-1.215,1.851-1.341,2.882c-0.273,1.719-0.322,4.117,0.057,6.024c0.346,1.919,1.073,3.257,1.252,3.182
		c0.195-0.074-0.158-1.475-0.226-3.302c-0.099-1.825,0.104-4.058,0.363-5.685c0.103-0.857,0.237-2.498,0.03-2.977
		c0.397,0.373,0.795,0.745,1.201,1.109c-0.429,0.177-1.052,2.157-1.096,3.233c-0.154,1.894,0.017,4.511,0.615,6.549
		c0.568,2.052,1.494,3.429,1.661,3.336c0.19-0.093-0.371-1.572-0.652-3.554c-0.312-1.976-0.312-4.43-0.167-6.226
		c0.035-0.88,0.069-2.49-0.114-3.109c0.338,0.3,0.689,0.586,1.033,0.879c-0.438-0.027-0.855,2.169-0.743,3.269
		c0.104,1.832,0.62,4.284,1.345,6.169c0.704,1.894,1.54,3.218,1.713,3.137c0.193-0.087-0.295-1.539-0.723-3.435
		c-0.115-0.482-0.221-0.994-0.318-1.518c0.295,1.081,0.689,2.157,1.145,3.072c0.883,1.834,1.89,3.041,2.047,2.94
		c0.185-0.112-0.49-1.488-1.089-3.328c-0.625-1.834-1.079-4.141-1.186-5.85c-0.119-0.943-0.27-2.769-0.561-3.107
		c0.968,0.773,1.96,1.516,2.972,2.234c0.002,0.003,0.005,0.006,0.007,0.01c-0.417,0.103-0.221,2.318,0.174,3.344
		c0.585,1.734,1.698,3.974,2.881,5.612c1.165,1.654,2.311,2.721,2.455,2.598c0.165-0.136-0.676-1.412-1.573-3.137
		c-0.454-0.849-0.906-1.814-1.314-2.772c2.168,3.041,6.063,6.183,6.295,5.912c0.159-0.161-1.151-1.643-2.623-3.441
		c2.224,2.008,4.633,3.582,4.796,3.346c0.205-0.263-3.446-3.512-5.668-6.254c2.78,2.499,7.607,6.421,7.874,6.126
		c0.142-0.158-1.042-1.483-2.594-3.065c1.856,1.171,3.38,2.036,3.504,1.864c0.133-0.185-1.396-1.536-3.296-3.069
		c2.496,1.185,4.717,2.131,4.831,1.917c0.1-0.186-1.429-1.22-3.395-2.424c2.216,0.81,3.976,1.368,4.057,1.18
		c0.088-0.203-1.818-1.24-4.188-2.406c2.451,0.778,4.373,1.304,4.444,1.116C233.119,49.642,230.544,48.449,227.526,47.176z
		 M192.825,0.761c0.403-0.058,0.827-0.118,1.264-0.18c-0.369,0.068-0.729,0.137-1.07,0.207c-1.53,0.289-4.306,1.198-4.954,1.703
		c-0.163-0.484-0.328-0.967-0.484-1.453C188.499,1.193,191.31,0.963,192.825,0.761z M185.886,7.691
		c0.556-1.158,1.471-3.138,1.802-4.2c0.163,0.456,0.335,0.909,0.505,1.363C187.672,5.188,186.619,6.52,185.886,7.691z
		 M188.424,9.315c0.293-0.752,0.56-1.501,0.706-2.045c0.147,0.365,0.295,0.729,0.446,1.092
		C189.304,8.48,188.879,8.842,188.424,9.315z M189.788,12.735c0.311-0.776,0.605-1.559,0.762-2.112
		c0.149,0.336,0.292,0.675,0.445,1.01C190.718,11.753,190.263,12.182,189.788,12.735z M191.616,11.634
		c0.709,0.198,3.213,0.074,4.85-0.099c-1.722,0.368-3.938,1.042-4.243,1.418C192.02,12.514,191.813,12.076,191.616,11.634z
		 M190.735,17.338c0.338-1.086,1.003-2.744,1.248-3.629c0.199,0.409,0.404,0.816,0.61,1.222
		C192.128,15.272,191.331,16.332,190.735,17.338z M201.489,28.535c-0.295-0.392-0.578-0.793-0.866-1.191
		c0.341,0.225,2.248,0.106,3.726-0.051C202.959,27.676,201.475,28.238,201.489,28.535z M200.574,27.275
		c-0.283-0.393-0.572-0.781-0.849-1.179c0.453,0.201,2.356,0.1,3.828-0.048C202.092,26.416,200.528,26.975,200.574,27.275z
		 M201.085,20.506c-1.525,0.387-3.603,1.131-3.992,1.543c-0.207-0.338-0.415-0.676-0.617-1.016
		C197.34,21.115,199.689,20.775,201.085,20.506z M193.994,16.575c0.689,0.177,3.083,0.01,4.667-0.17
		c-1.744,0.404-4.014,1.141-3.957,1.479C194.467,17.448,194.222,17.016,193.994,16.575z M193.91,21.115
		c0.287-0.817,0.585-1.756,0.71-2.392c0.15,0.265,0.3,0.53,0.453,0.794C194.778,19.736,194.325,20.388,193.91,21.115z
		 M194.777,22.368c0.26-0.829,0.518-1.772,0.589-2.361c0.19,0.322,0.381,0.644,0.575,0.964
		C195.665,21.119,195.211,21.697,194.777,22.368z M195.487,23.85c0.316-0.869,0.636-1.9,0.696-2.475
		c0.196,0.32,0.399,0.635,0.599,0.952C196.463,22.518,195.95,23.151,195.487,23.85z M197.055,22.754
		c0.184,0.288,0.366,0.577,0.553,0.863c-0.317,0.19-0.811,0.768-1.257,1.406C196.657,24.223,196.97,23.304,197.055,22.754z
		 M197.202,26.205c0.297-0.741,0.603-1.601,0.698-2.137c0.174,0.261,0.357,0.515,0.534,0.774
		C198.15,24.946,197.657,25.528,197.202,26.205z M197.982,23.445c0.347,0.25,2.407,0.19,3.947,0.059
		c-1.403,0.307-2.93,0.759-3.227,1.067C198.456,24.199,198.222,23.82,197.982,23.445z M198.866,24.816
		c0.643,0.168,2.57,0.085,4.007-0.056c-1.48,0.342-3.132,0.88-3.241,1.197C199.371,25.581,199.121,25.197,198.866,24.816z
		 M199.08,28.895c0.243-0.82,0.486-1.82,0.509-2.387c0.221,0.307,0.451,0.608,0.676,0.912
		C199.959,27.608,199.489,28.221,199.08,28.895z M200.566,27.826c0.208,0.278,0.41,0.561,0.622,0.836
		c-0.29,0.136-0.753,0.692-1.162,1.32C200.268,29.223,200.516,28.35,200.566,27.826z M200.787,31.516
		c0.289-0.824,0.64-1.956,0.665-2.524c0.236,0.303,0.478,0.602,0.719,0.901C201.845,29.986,201.25,30.74,200.787,31.516z
		 M204.121,35.068c0.224-0.808,0.481-1.783,0.482-2.273c0.268,0.303,0.544,0.597,0.816,0.895
		C205.129,33.713,204.577,34.343,204.121,35.068z M205.654,33.601c-0.325-0.363-0.651-0.726-0.968-1.095
		c0.248,0.21,1.366,0.337,2.491,0.393C206.346,33.12,205.68,33.388,205.654,33.601z M209.256,37.354
		c-0.331-0.321-0.658-0.645-0.983-0.972c0.496,0.236,1.572,0.486,2.576,0.661C210.082,37.095,209.443,37.198,209.256,37.354z
		 M210.637,38.66c-0.314-0.288-0.62-0.585-0.928-0.878c0.585,0.214,1.576,0.426,2.475,0.573
		C211.393,38.391,210.751,38.488,210.637,38.66z M211.846,39.73c-0.262-0.229-0.528-0.453-0.787-0.685
		c0.349,0.147,0.865,0.299,1.423,0.435C212.13,39.539,211.893,39.623,211.846,39.73z M212.509,43.364
		c-0.009-0.122-0.019-0.249-0.026-0.366c-0.091-0.894-0.283-2.572-0.567-3.045c0.464,0.393,0.93,0.784,1.404,1.164
		C212.984,41.05,212.617,42.271,212.509,43.364z M215.111,42.422c-0.378-0.29-0.744-0.594-1.116-0.892
		c0.477,0.224,1.155,0.462,1.838,0.664c-0.418,0.003-0.703,0.052-0.732,0.171C215.097,42.382,215.105,42.402,215.111,42.422z
		 M216.333,43.292c-0.003,0.009,0.003,0.02,0.004,0.029c-0.197-0.144-0.396-0.286-0.591-0.432c0.202,0.102,0.441,0.209,0.7,0.316
		C216.388,43.228,216.344,43.255,216.333,43.292z M217.579,45.406c-0.262-0.625-0.573-1.3-0.835-1.682
		c0.105,0.067,0.226,0.137,0.36,0.209c0.037,0.026,0.073,0.053,0.11,0.078c0.049,0.145,0.319,0.364,0.703,0.609
		C217.764,44.626,217.611,44.955,217.579,45.406z M218.86,45.199c-0.007,0-0.019-0.01-0.025-0.009
		c-0.158,0.043-0.188,0.302-0.132,0.663c-0.037-0.064-0.078-0.13-0.112-0.192c-0.255-0.432-0.395-0.789-0.529-0.951
		c0.24,0.147,0.512,0.3,0.8,0.452C218.857,45.173,218.861,45.187,218.86,45.199z"/>
	<path fill="#CCA770" d="M182.649,0.1c0.025-0.031,0.056-0.068,0.082-0.1h-3.238c-1.22,1.784-2.398,3.824-3.216,5.697
		c-1.255,2.782-1.786,5.085-1.607,5.141c0.185,0.063,0.92-1.701,2.137-3.954c-0.079,0.196-0.165,0.395-0.236,0.588
		c-1.121,2.905-1.439,5.294-1.265,5.331c0.216,0.055,0.889-2.215,2.214-4.919C178.803,5.161,180.857,2.103,182.649,0.1z"/>
	<path fill="#CCA770" d="M183.654,2.345c0.377-0.629,0.936-1.516,1.434-2.345h-1.512c-0.457,0.541-0.875,1.093-1.149,1.551
		c-1.61,2.451-3.357,6.042-4.369,9.112c-1.043,3.061-1.438,5.535-1.257,5.577c0.21,0.055,0.956-2.304,2.221-5.205
		C180.259,8.121,182.098,4.715,183.654,2.345z"/>
</g>
<path fill="#CCA770" d="M940.688,31.366c2.383,1.401,6.716,4.921,6.287,5.548c-0.401,0.584-5.31-1.89-7.655-3.27
	c-3.87-2.344-9.162-5.468-13.602-7.788c-4.417-2.366-8.017-3.832-7.911-4.185c0.099-0.353,3.994,0.508,8.706,2.48
	C931.239,26.076,936.766,28.991,940.688,31.366z"/>
<path fill="#CCA770" d="M914.639,49.64c1.287-1.431,3.719-4.444,4.311-4.217c0.781,0.325-0.832,4.316-2.247,5.893
	c-2.155,2.729-5.793,5.788-9.122,7.608c-3.312,1.867-6.144,2.646-6.273,2.334c-0.16-0.361,2.356-1.736,5.249-3.911
	C909.484,55.21,912.654,52.154,914.639,49.64z"/>
<g>
	<path fill="#CCA770" d="M997.4,0.272c-0.086-0.091-0.168-0.178-0.26-0.272h-3.087c1.251,0.771,2.466,1.468,3.347,1.879V0.272z"/>
	<path fill="#CCA770" d="M997.4,27.771c-0.085,0.787-0.179,1.559-0.283,2.306c-0.712,5.736-2.046,10.045-1.687,10.181
		c0.416-1.195,0.765-2.407,1.106-3.621c-0.33,1.216-0.694,2.424-1.106,3.621c0.202,0.087,1.059-1.514,1.97-4.146V27.771z"/>
	<path fill="#CCA770" d="M997.4,22.105V8.185c-0.196-1.284-0.438-2.377-0.69-2.945c0.231-0.214,0.46-0.43,0.69-0.644V2.868
		c-0.43,0.411-0.858,0.824-1.289,1.234c-0.367-0.812-1.829-2.499-3.418-4.102h-3.777c2.261,1.738,5.523,4.069,6.767,4.511
		c-0.789,0.747-1.586,1.485-2.388,2.219c-0.566-1.32-3.695-4.774-5.996-6.73h-4.238c0.673,0.527,1.32,1.044,1.926,1.541
		c2.239,1.732,6.396,4.974,7.858,5.597c-0.729,0.663-1.454,1.33-2.194,1.982c-0.357-1.155-4.579-5.258-7.026-7.103
		c-0.835-0.645-1.736-1.322-2.685-2.017h-4.373c1.953,1.451,3.81,2.866,5.44,4.125c2.367,1.783,7.013,4.98,8.319,5.275
		c-0.761,0.667-1.531,1.323-2.303,1.978c-0.779-1.279-4.984-4.73-7.395-6.326c-2.304-1.545-5.062-3.311-7.924-5.051h-4.437
		c3.815,2.51,7.735,5.15,10.888,7.261c2.317,1.535,6.769,4.098,8.384,4.533c-0.685,0.577-1.379,1.143-2.073,1.71
		c-0.389-1.078-4.988-4.904-7.558-6.633C974.85,4.792,971.008,2.312,967.182,0h-4.123c4.538,3.033,9.51,6.454,13.356,9.07
		c2.466,1.66,7.342,4.493,8.713,4.707c-0.7,0.569-1.393,1.146-2.101,1.705c-0.457-1.131-4.838-4.919-7.308-6.652
		c-3.77-2.672-8.77-6.007-13.414-8.83h-3.675c1.942,1.34,4.042,2.816,6.147,4.307c-2.395-1.547-4.843-3.034-7.154-4.307h-3.494
		c0.703,0.448,1.434,0.92,2.188,1.421c5.103,3.325,11.138,7.726,15.531,11.035c2.418,1.774,7.195,4.968,8.406,5.15
		c-0.801,0.606-1.606,1.206-2.418,1.798c-0.498-1.213-4.475-4.98-6.783-6.704c-4.268-3.253-10.28-7.404-15.439-10.402
		c-1.492-0.882-2.908-1.652-4.178-2.298h-2.55c1.524,1.014,3.527,2.335,5.718,3.883c4.838,3.365,10.612,7.711,14.846,10.936
		c2.2,1.645,6.477,4.481,7.935,4.909c-0.786,0.569-1.568,1.142-2.365,1.697c-0.373-1.118-4.561-4.938-6.967-6.642
		c-4.357-3.157-10.497-7.148-15.76-9.981c-5.245-2.88-9.611-4.5-9.756-4.163c-0.136,0.304,3.129,2.125,7.382,4.862
		c-4.502-2.585-8.212-3.918-8.343-3.575c0.831,0.378,1.648,0.784,2.458,1.202c-0.813-0.412-1.627-0.822-2.458-1.202
		c-0.124,0.317,3.743,2.412,8.371,5.759c4.662,3.282,10.203,7.567,14.277,10.728c2.468,1.881,7.679,5.348,8.141,4.801
		c0.402-0.477-2.634-3.606-5.102-5.743c2.394,1.635,6.099,3.936,7.357,4.236c-1.541,1.068-3.105,2.104-4.684,3.12
		c0.037-0.887-4.063-5.021-6.393-6.851c-4.038-3.23-9.735-7.364-14.652-10.347c-4.898-3.027-9.042-4.759-9.202-4.418
		c-0.156,0.323,3.601,2.601,8.159,5.982c4.584,3.34,10.039,7.661,14.041,10.863c2.218,1.743,6.689,4.83,7.793,4.932
		c-0.745,0.477-1.496,0.944-2.249,1.409c-0.59-1.333-4.041-4.96-6.116-6.65c-3.958-3.302-9.596-7.494-14.511-10.457
		c-4.891-3.013-9.076-4.629-9.223-4.288c-0.151,0.329,3.649,2.498,8.185,5.854c3.622,2.623,7.741,5.905,11.248,8.782
		c-3.712-2.935-8.362-6.26-12.507-8.702c-4.851-2.929-8.992-4.484-9.136-4.146c-0.152,0.333,3.61,2.447,8.111,5.72
		c4.53,3.224,9.855,7.494,13.724,10.697c2.021,1.629,5.947,4.488,7.319,4.937c-0.661,0.389-1.335,0.756-2.002,1.135
		c0.37-0.649-3.946-4.565-6.327-6.222c-3.967-2.808-9.532-6.386-14.305-8.933c-4.752-2.598-8.764-3.974-8.901-3.615
		c-0.129,0.327,3.508,2.263,7.942,5.231c0.908,0.594,1.857,1.23,2.819,1.881c-6.683-4.17-13.132-7.682-13.42-7.168
		c-0.21,0.39,8.3,6.276,15.853,11.679c-2.973-1.939-6.213-3.88-9.177-5.394c-4.819-2.523-8.902-3.725-9.022-3.368
		c-0.121,0.338,3.606,2.116,8.091,5.001c1.764,1.11,3.652,2.368,5.531,3.656c-2.211-1.36-4.488-2.658-6.622-3.719
		c-4.714-2.411-8.674-3.579-8.795-3.242c-0.128,0.335,3.189,1.964,7.307,4.528c-0.037-0.02-0.076-0.042-0.113-0.062
		c-4.523-2.484-8.46-3.515-8.563-3.138c0.761,0.277,1.507,0.584,2.246,0.907c-0.742-0.316-1.486-0.629-2.246-0.907
		c-0.101,0.331,3.44,1.926,7.605,4.753c4.201,2.758,9.122,6.497,12.718,9.285c2.019,1.526,6.11,4.239,7.083,4.218
		c-0.792,0.372-1.593,0.723-2.392,1.08c-0.124-0.919-3.926-4.187-6.088-5.57c-3.816-2.495-9.191-5.61-13.824-7.7
		c-4.612-2.147-8.497-3.065-8.598-2.697c-0.099,0.34,3.445,1.845,7.743,4.37c4.323,2.472,9.458,5.79,13.23,8.255
		c1.95,1.249,5.742,3.336,7.064,3.556c-1.779,0.788-3.57,1.544-5.379,2.257c0.03-0.016,0.064-0.029,0.08-0.054
		c0.403-0.633-3.779-3.883-6.056-5.176c-3.765-2.178-9.031-4.889-13.529-6.698c-4.481-1.867-8.226-2.612-8.313-2.235
		c-0.079,0.32,2.947,1.533,6.791,3.556c-4.155-1.519-7.511-2.1-7.598-1.763c-0.102,0.363,3.148,1.598,7.133,3.587
		c3.999,1.96,8.718,4.695,12.117,6.827c1.805,1.078,5.304,2.954,6.454,3.057c-0.85,0.312-1.696,0.637-2.552,0.932
		c-0.149-0.922-4.001-3.888-6.224-5.016c-3.897-2.104-9.473-4.451-14.214-5.752c-4.74-1.338-8.551-1.647-8.605-1.297
		c-0.066,0.372,3.552,1.328,8.012,3.082c4.475,1.718,9.762,4.266,13.561,6.314c1.88,0.954,5.365,2.603,6.814,2.886
		c-0.776,0.263-1.559,0.505-2.341,0.754c0.077-0.749-4.36-3.258-6.729-4.222c-4.017-1.657-9.56-3.712-14.197-5.097
		c-4.615-1.439-8.411-1.971-8.473-1.55c-0.042,0.309,3.435,1.449,7.847,3.322c0.296,0.122,0.607,0.251,0.911,0.377
		c-1.001-0.32-1.99-0.624-2.936-0.893c-4.56-1.338-8.235-1.868-8.31-1.499c-0.074,0.351,3.362,1.507,7.703,3.277
		c1.433,0.572,2.971,1.201,4.525,1.843c-7.125-2.283-14.881-4.121-15.045-3.396c-0.022,0.128,0.981,0.582,2.575,1.226
		c-2.828-0.584-4.817-0.724-4.862-0.443c-0.059,0.35,3.245,1.356,7.42,2.982c4.181,1.588,9.269,3.655,13.03,5.146
		c1.698,0.661,4.783,1.573,6.344,1.71c-0.878,0.2-1.756,0.397-2.638,0.578c0.086-0.727-4.456-2.703-6.817-3.417
		c-7.962-2.399-21.769-5.994-21.98-5.331c-0.15,0.479,5.494,2.648,11.648,4.767c-7.845-1.798-16.73-3.547-16.872-2.989
		c-0.094,0.376,3.821,1.727,8.753,3.228c-6.265-1.015-11.875-1.734-11.964-1.29c-0.077,0.389,4.108,1.593,9.294,2.884
		c-5.932-0.516-11.085-0.787-11.141-0.354c-0.046,0.362,3.491,1.148,8.091,1.98c-4.8-0.137-8.743-0.089-8.775,0.312
		c-0.029,0.37,3.273,0.968,7.523,1.548c-4.183,0.265-7.519,0.628-7.516,1.013c0.002,0.441,4.375,0.807,9.393,1.022
		c-4.356,0.85-7.961,1.723-7.904,2.133c0.053,0.38,3.237,0.286,7.215-0.021c-3.838,1.224-6.866,2.349-6.772,2.723
		c0.179,0.702,11.268-1.504,17.859-3.16c-5.9,2.52-14.527,4.642-14.422,5.239c0.062,0.519,5.27,0.033,10.55-1.305
		c-3.893,1.64-7.258,2.91-7.139,3.303c0.142,0.632,9.07-1.111,15.138-4.156c-1.469,1.194-3.015,2.362-4.466,3.34
		c-2.905,2.011-5.343,3.348-5.192,3.707c0.126,0.319,2.875-0.421,6.152-2.091c3.293-1.63,6.984-4.284,9.396-6.574
		c1.506-1.313,3.702-4.706,3.12-5.226c0.006-0.003,0.013-0.006,0.019-0.009c2.236-0.295,4.462-0.645,6.674-1.066
		c-0.756,0.297-2.55,3.102-3.541,4.517c-1.622,2.655-4.312,5.979-6.874,8.395c-2.526,2.449-4.78,4.088-4.577,4.424
		c0.167,0.296,2.81-0.79,5.787-2.987c1.51-1.083,3.058-2.479,4.45-3.966c-0.6,0.759-1.206,1.491-1.799,2.169
		c-2.299,2.685-4.316,4.603-4.079,4.907c0.209,0.277,2.676-1.141,5.417-3.588c2.766-2.414,5.677-5.917,7.401-8.773
		c1.114-1.672,2.309-5.556,1.582-5.885c0.802-0.179,1.608-0.341,2.407-0.536c-0.82,0.839-2.132,3.455-2.823,4.9
		c-1.292,3.01-3.376,6.954-5.556,9.866c-2.135,2.947-4.291,4.849-4.065,5.159c0.189,0.292,2.847-1.136,5.502-3.951
		c2.692-2.766,5.19-6.828,6.55-10.003c0.844-1.767,1.522-5.479,0.984-6.127c0.961-0.24,1.917-0.5,2.872-0.762
		c-0.74,0.594-1.918,3.346-2.48,4.81c-0.967,2.834-2.535,6.596-4.245,9.446c-1.66,2.879-3.418,4.83-3.167,5.115
		c0.223,0.273,2.528-1.26,4.714-4.051c2.228-2.745,4.187-6.64,5.207-9.634c0.674-1.763,1.018-5.519,0.293-5.771
		c0.794-0.22,1.586-0.449,2.376-0.684c-0.704,1.034-1.603,3.47-2.061,4.849c-0.891,3.043-2.358,7.096-4.056,10.162
		c-1.632,3.108-3.5,5.149-3.245,5.436c0.552-0.53,1.052-1.099,1.55-1.671c-0.488,0.578-1.003,1.137-1.55,1.671
		c0.214,0.279,2.658-1.373,4.833-4.43c2.227-3,4.079-7.208,5.013-10.402c0.553-1.67,0.798-4.965,0.343-5.87
		c0.916-0.28,1.836-0.547,2.746-0.847c-0.649,0.467-1.466,3.658-1.89,5.301c-0.614,2.99-1.892,6.955-3.49,9.968
		c-1.547,3.034-3.275,5.126-3,5.401c0.23,0.253,2.512-1.432,4.606-4.427c2.133-2.954,3.824-7.165,4.481-10.379
		c0.488-1.895,0.256-5.777-0.512-5.93c0.891-0.295,1.772-0.62,2.657-0.933c-0.54,0.818-1.04,3.914-1.397,5.534
		c-0.468,3.123-1.743,7.275-3.322,10.48c-1.527,3.226-3.162,5.545-2.856,5.797c0.251,0.222,2.44-1.707,4.494-4.878
		c0.087-0.129,0.168-0.273,0.254-0.407c-1.155,2.451-2.155,4.154-1.895,4.351c0.266,0.212,2.343-1.824,4.273-5.053
		c1.978-3.191,3.583-7.599,4.135-10.974c0.004-0.018,0.007-0.038,0.01-0.056c-0.506,2.888-1.318,6.298-2.351,9.069
		c-1.187,3.327-2.633,5.713-2.33,5.943c0.269,0.223,2.329-1.851,4.047-5.183c1.76-3.301,3.047-7.732,3.523-11.048
		c0.319-1.738,0.09-5.054-0.493-5.888c0.734-0.3,1.462-0.612,2.191-0.924c-0.555,0.988-1.057,3.789-1.255,5.33
		c-0.308,3.151-0.94,7.404-1.932,10.755c-0.922,3.376-2.277,5.767-1.971,5.991c0.417-0.637,0.779-1.299,1.137-1.963
		c-0.348,0.668-0.724,1.324-1.137,1.963c0.274,0.224,2.282-1.92,3.735-5.35c0.391-0.872,0.745-1.815,1.062-2.789
		c-0.13,0.5-0.266,0.991-0.409,1.463c-1.003,3.477-2.289,6.021-1.968,6.228c0.284,0.2,2.175-2.046,3.696-5.504
		c-1.031,3.07-2.143,5.218-1.859,5.408c0.284,0.207,2.342-2.172,3.975-5.854c0.451-0.976,0.862-2.038,1.234-3.134
		c-0.129,0.55-0.263,1.089-0.402,1.608c-0.941,3.787-2.322,6.479-2.03,6.685c0.3,0.235,2.357-2.275,3.815-6.097
		c1.524-3.778,2.599-8.634,3.088-12.23c0.293-1.892,0.17-5.503-0.373-6.418c0.622-0.314,1.235-0.645,1.853-0.967
		c-0.519,1.168-0.954,4.305-1.148,6.023c-0.28,3.559-0.964,8.367-2.007,12.188c-0.99,3.837-2.302,6.66-1.974,6.853
		c0.298,0.19,2.248-2.393,3.759-6.265c0.916-2.257,1.64-4.913,2.146-7.475c-0.214,1.863-0.492,3.726-0.857,5.401
		c-0.755,3.841-2.069,6.605-1.752,6.799c0.421-0.778,0.779-1.579,1.128-2.383c-0.338,0.808-0.708,1.604-1.128,2.383
		c0.295,0.212,2.285-2.373,3.563-6.299c0.127-0.364,0.243-0.746,0.358-1.128c-0.018,0.086-0.034,0.178-0.052,0.264
		c-0.793,4.057-1.984,7.061-1.647,7.235c0.365-0.781,0.679-1.58,0.993-2.378c-0.303,0.802-0.633,1.595-0.993,2.378
		c0.309,0.175,2.158-2.645,3.463-6.752c0.366-1.089,0.69-2.262,0.977-3.465c-0.103,0.693-0.21,1.375-0.325,2.028
		c-0.676,4.172-1.767,7.26-1.447,7.423c0.361-0.859,0.671-1.734,0.975-2.61c-0.294,0.879-0.615,1.75-0.975,2.61
		c0.139,0.075,0.535-0.425,1.028-1.314c-0.018,0.171-0.016,0.298,0.038,0.325c0.315,0.168,2.196-2.823,3.66-7.104
		c0.754-2.103,1.41-4.493,1.94-6.859c-0.316,1.969-0.682,3.924-1.096,5.703c-0.977,4.493-2.304,7.825-1.968,7.996
		c0.401-0.868,0.751-1.754,1.102-2.64c-0.34,0.889-0.706,1.77-1.102,2.64c0.313,0.171,2.293-2.971,3.778-7.487
		c1.546-4.484,2.612-10.209,3.01-14.446c0.247-2.079,0.032-5.892-0.476-7.238c0.677-0.44,1.358-0.876,2.028-1.326
		c-0.542,1.493-1.07,5.163-1.335,7.207c-0.431,4.346-1.367,10.214-2.64,14.891c-1.224,4.689-2.746,8.164-2.41,8.343
		c0.305,0.177,2.465-3.069,4.2-7.773c1.782-4.676,3.049-10.705,3.493-15.183c0.311-2.394,0.013-6.961-0.612-7.952
		c0.622-0.422,1.231-0.86,1.846-1.291c-0.389,1.695-0.664,5.064-0.854,6.996c-0.246,4.397-1.066,10.35-2.248,15.122
		c-0.068,0.291-0.138,0.562-0.208,0.844c-1.383,3.461-2.488,5.885-2.21,6.041c0.089,0.051,0.379-0.244,0.781-0.765
		c-0.408,1.449-0.638,2.354-0.464,2.432c0.308,0.146,2.278-3.241,3.905-8.031c0.029-0.081,0.054-0.17,0.083-0.252
		c0.206-0.401,0.412-0.8,0.618-1.225c2.331-4.683,4.36-10.873,4.99-15.64c0.487-2.386,0.04-6.884-0.657-8.21
		c0.633-0.469,1.268-0.934,1.893-1.411c-0.291,1.56-0.297,5.503-0.463,7.686c-0.075,4.532-0.974,10.682-2.302,15.599
		c-1.276,4.926-2.758,8.638-2.396,8.805c0.247,0.123,1.747-2.269,3.27-5.905c-0.946,3.479-1.796,5.84-1.53,5.965
		c0.466-1.043,0.874-2.107,1.281-3.171c-0.396,1.067-0.822,2.125-1.281,3.171c0.31,0.16,2.508-3.593,4.206-8.928
		c1.744-5.31,2.875-12.101,3.155-17.127c0.216-2.485-0.205-7.024-0.807-8.547c0.634-0.505,1.271-1.006,1.897-1.519
		c-0.192,1.637-0.022,5.477-0.11,7.636c0.106,4.554-0.603,10.765-1.783,15.751c-1.134,4.992-2.503,8.773-2.135,8.926
		c0.253,0.116,1.675-2.335,3.09-6.035c-0.747,3.922-1.519,6.644-1.237,6.756c0.394-1.115,0.733-2.244,1.07-3.374
		c-0.326,1.132-0.68,2.258-1.07,3.374c0.327,0.142,2.274-3.873,3.605-9.429c1.406-5.53,2.279-12.471,2.545-17.589
		c0.181-2.541-0.159-7.191-0.718-8.744c0.612-0.525,1.212-1.062,1.817-1.594c-0.332,1.813-0.455,5.617-0.529,7.775
		c-0.013,4.799-0.452,11.318-1.352,16.578c-0.844,5.268-2.049,9.262-1.687,9.396c0.321,0.132,2.179-3.697,3.526-9.01
		c0.761-2.877,1.325-6.167,1.689-9.368c-0.22,2.99-0.529,6.014-0.954,8.731c-0.814,5.778-2.197,10.106-1.843,10.247
		c0.428-1.196,0.792-2.408,1.149-3.621c-0.346,1.216-0.725,2.425-1.149,3.621c0.323,0.143,2.371-4.055,3.69-9.893
		C996.466,29.598,997.041,25.774,997.4,22.105z M910.384,47.568c-0.109,0.07-0.229,0.142-0.344,0.213
		c0.396-0.533,0.569-0.975,0.351-1.178c-0.009-0.007-0.036-0.002-0.048-0.007c0.01-0.02,0.027-0.04,0.029-0.061
		c0.592,0.001,1.16-0.015,1.67-0.047C911.689,46.636,911.161,47.09,910.384,47.568z M912.227,48.017
		c0.332-0.752,0.364-1.411,0.123-1.55c0.826-0.069,1.446-0.19,1.648-0.382c0.081-0.009,0.162-0.023,0.243-0.032
		c0.277-0.002,0.532-0.012,0.757-0.03C914.252,46.414,913.179,47.234,912.227,48.017z M915.994,45.721
		c0.008-0.015,0.028-0.028,0.031-0.044c0.014-0.069-0.033-0.149-0.108-0.234c0.508,0.048,0.982,0.079,1.394,0.086
		C916.873,45.598,916.433,45.657,915.994,45.721z M918.727,45.316c0.027-0.026,0.056-0.052,0.064-0.083
		c0.055-0.216-0.361-0.537-1.031-0.897c1.27,0.255,2.562,0.448,3.518,0.493C920.428,44.993,919.582,45.171,918.727,45.316z
		 M922.462,48.474c-0.11,0.183-0.234,0.377-0.352,0.566c0.753-1.849,1.202-4.123,0.604-4.302c1.086-0.208,2.166-0.441,3.245-0.678
		C925.101,44.581,923.368,47.114,922.462,48.474z M926.262,43.762c0.016-0.212-0.294-0.547-0.81-0.943
		c1.011,0.255,1.97,0.45,2.656,0.509C927.495,43.483,926.877,43.616,926.262,43.762z M929.114,43.07
		c-0.037-0.374-0.987-1.076-2.227-1.805c1.569,0.528,3.343,1.029,4.465,1.181C930.606,42.656,929.863,42.874,929.114,43.07z
		 M932.442,42.143c-0.167-0.409-1.107-1.117-2.295-1.853c1.762,0.571,3.703,1.083,4.702,1.125
		C934.048,41.665,933.246,41.909,932.442,42.143z M942.637,42.828c-0.116-1.552-0.47-3.034-0.916-3.317
		c0.691-0.248,1.385-0.487,2.072-0.746C943.378,39.553,942.963,41.339,942.637,42.828z M941.419,39.169
		c0.14-0.364-0.704-1.359-1.85-2.422c1.855,0.866,3.76,1.611,4.337,1.484C943.081,38.555,942.25,38.86,941.419,39.169z
		 M945.26,42.833c-0.059,0.405-0.125,0.828-0.199,1.265c0.278-1.851-0.018-4.865-0.607-5.593c0.739-0.282,1.474-0.575,2.208-0.87
		C946.099,38.705,945.533,41.354,945.26,42.833z M951.013,39.952c-0.085-1.64-0.401-3.358-0.846-3.783
		c0.641-0.278,1.284-0.551,1.921-0.838C951.646,36.265,951.249,38.381,951.013,39.952z M953.54,38.131
		c-0.126-1.356-0.397-2.642-0.748-3.108c0.574-0.262,1.138-0.546,1.709-0.816C954.137,35.093,953.793,36.706,953.54,38.131z
		 M952.415,34.564c0.276-0.467-1.632-2.628-3.543-4.426c2.243,1.508,5.207,3.319,5.946,3.246
		C954.017,33.78,953.222,34.184,952.415,34.564z M955.982,37.187c-0.085-1.431-0.319-2.815-0.652-3.377
		c0.62-0.298,1.245-0.585,1.861-0.892C956.747,33.849,956.288,35.663,955.982,37.187z M954.958,33.315
		c0.328-0.443-1.712-2.67-3.746-4.502c2.239,1.489,5.213,3.268,6.112,3.328C956.541,32.545,955.746,32.925,954.958,33.315z
		 M957.589,31.998c0.094-0.603-2.105-2.871-4.193-4.677c2.191,1.446,5.218,3.218,6.393,3.493
		C959.057,31.21,958.328,31.613,957.589,31.998z M961.285,34.46c-0.156-1.476-0.456-2.829-0.823-3.236
		c0.504-0.266,1.015-0.519,1.516-0.791C961.675,31.375,961.437,33.017,961.285,34.46z M960.262,30.559
		c-0.216-0.747-2.287-2.77-4.281-4.455c2.364,1.519,5.624,3.364,6.394,3.257C961.671,29.76,960.973,30.171,960.262,30.559z
		 M963.656,33.282c-0.174-1.405-0.477-2.752-0.825-3.328c0.544-0.3,1.081-0.611,1.621-0.917
		C964.123,29.993,963.844,31.737,963.656,33.282z M959.883,22.003c2.015,1.616,5.502,4.159,6.961,4.76
		c-0.615,0.376-1.235,0.742-1.855,1.11C964.713,26.88,962.007,23.92,959.883,22.003z M966.041,32.131
		c-0.15-1.517-0.437-2.971-0.788-3.547c0.591-0.34,1.184-0.674,1.771-1.021C966.633,28.537,966.271,30.466,966.041,32.131z
		 M968.441,30.351c-0.128-1.446-0.367-2.761-0.685-3.233c0.584-0.35,1.164-0.705,1.743-1.062
		C969.114,27.063,968.726,28.798,968.441,30.351z M970.898,29.073c-0.05-1.52-0.223-2.952-0.512-3.558
		c0.47-0.294,0.936-0.592,1.402-0.891C971.45,25.753,971.131,27.517,970.898,29.073z M979.209,25.699
		c-0.103-2.122-0.486-4.503-0.941-5.445c0.676-0.479,1.35-0.959,2.018-1.447C979.928,20.437,979.589,23.667,979.209,25.699z
		 M980.541,17.387c-0.17-0.862-3.159-3.827-5.615-5.881c2.484,1.668,6.404,3.994,7.712,4.278
		C981.946,16.326,981.241,16.854,980.541,17.387z M984.641,19.105c-0.295-1.292-0.661-2.367-1.004-2.797
		c0.53-0.408,1.047-0.831,1.573-1.244C984.992,16.085,984.8,17.593,984.641,19.105z M989.737,14.767
		c-0.33-1.149-0.706-2.09-1.043-2.509c0.551-0.456,1.098-0.915,1.644-1.377C990.111,11.879,989.905,13.31,989.737,14.767z
		 M993.897,7.791c0.658-0.585,1.318-1.168,1.968-1.762c-0.37,1.99-0.58,5.949-0.67,8.282
		C995.012,11.807,994.451,8.771,993.897,7.791z"/>
</g>
</svg>
