<?xml version="1.0" encoding="utf-8"?>
<!-- Generator: Adobe Illustrator 17.0.0, SVG Export Plug-In . SVG Version: 6.00 Build 0)  -->
<!DOCTYPE svg PUBLIC "-//W3C//DTD SVG 1.1//EN" "http://www.w3.org/Graphics/SVG/1.1/DTD/svg11.dtd">
<svg version="1.1" id="Layer_1" xmlns="http://www.w3.org/2000/svg" xmlns:xlink="http://www.w3.org/1999/xlink" x="0px" y="0px"
	 width="200px" height="100px" viewBox="0 0 200 100" enable-background="new 0 0 200 100" xml:space="preserve">
<g>
	<path fill="#cca770" d="M129.931,51.672c-1.316,2.259-3.259,7.17-2.614,7.489c0.601,0.296,3.503-4.019,4.798-6.243
		c2.106-3.726,5.023-8.754,7.61-12.725c2.547-3.998,4.836-6.874,4.586-7.117c-0.245-0.245-3.058,2.269-6.031,6.079
		C135.273,42.932,132.065,47.896,129.931,51.672z"/>
	<path fill="#cca770" d="M185.896,43.454c-0.095-0.352-3.114,0.123-6.846,0.892c3.423-1.59,6.092-2.988,5.96-3.325
		c-0.143-0.365-3.52,0.585-7.507,1.903c4.039-2.502,7.476-4.83,7.273-5.194c-0.176-0.318-3.095,0.927-6.668,2.647
		c3.236-2.447,5.682-4.47,5.487-4.762c-0.212-0.316-3.486,1.472-7.381,3.809c3.409-2.817,5.961-5.104,5.756-5.381
		c-0.247-0.331-4.37,2.28-9.024,5.454c3.679-3.468,6.573-6.399,6.329-6.684c-0.279-0.326-4.573,2.867-9.269,6.606
		c3.372-3.523,5.975-6.451,5.723-6.718c-0.376-0.394-6.894,5.165-12.53,10.282c4.093-4.599,7.743-9.003,7.397-9.328
		c-0.481-0.449-10.203,8.913-15.657,14.58c-1.616,1.683-4.447,5.417-4.039,5.977c-0.811,0.26-1.627,0.504-2.444,0.746
		c1.224-0.837,3.346-3.018,4.44-4.35c2.412-2.972,5.649-7.034,8.362-10.281c2.689-3.275,4.948-5.636,4.737-5.897
		c-0.167-0.211-1.742,0.826-3.804,2.618c1.016-1.27,1.633-2.109,1.556-2.204c-0.471-0.523-6.016,4.587-10.834,9.771
		c0.984-1.25,1.96-2.481,2.878-3.616c2.76-3.471,5.059-6.017,4.835-6.271c-0.233-0.269-3.019,1.871-6.159,5.087
		c-0.656,0.661-1.33,1.37-2.008,2.097c0.193-0.245,0.389-0.495,0.577-0.733c2.771-3.589,5.11-6.14,4.933-6.375
		c-0.246-0.319-3.13,1.879-6.27,5.204c-3.182,3.291-6.801,7.553-9.347,10.781c-1.507,1.892-4.004,6.017-3.593,6.599
		c-0.759,0.157-1.517,0.32-2.28,0.463c1.064-0.904,3.174-3.879,4.283-5.537c2.184-3.45,5.364-8,8.259-11.49
		c2.865-3.512,5.406-5.977,5.179-6.253c-0.207-0.264-3.206,1.757-6.495,5.057c-3.308,3.269-6.818,7.788-9.058,11.329
		c-1.311,1.961-3.113,6.192-2.809,7.021c-0.843,0.153-1.691,0.278-2.537,0.414c0.901-0.617,2.917-3.786,3.906-5.511
		c1.815-3.333,4.44-7.775,6.83-11.244c2.365-3.487,4.472-6.011,4.22-6.263c-0.228-0.238-2.726,1.796-5.449,4.974
		c2.232-3.449,4.166-5.852,3.953-6.079c-0.246-0.27-2.99,2.079-5.82,5.695c-2.872,3.577-5.959,8.252-8.054,11.793
		c-1.279,2.122-3.222,6.739-2.597,7.075c0.025,0.013,0.059,0.008,0.091,0.007c-1.822,0.251-3.65,0.456-5.482,0.631
		c0.988-0.794,3.148-4.272,4.178-6.205c1.969-3.781,4.666-8.897,7.086-12.938c2.375-4.074,4.601-6.958,4.361-7.192
		c-0.254-0.257-3.033,2.3-5.842,6.208c-2.852,3.87-5.842,8.93-7.833,12.756c-1.142,2.143-2.763,6.599-2.44,7.415
		c-0.824,0.075-1.647,0.157-2.473,0.218c0.813-0.434,2.93-4.567,3.888-6.761c1.674-3.966,3.999-9.329,6.187-13.55
		c2.125-4.261,4.306-7.217,4.07-7.443c-0.498,0.581-0.966,1.184-1.432,1.789c0.46-0.609,0.933-1.208,1.432-1.789
		c-0.26-0.263-3.028,2.411-5.608,6.555c-0.021,0.033-0.043,0.07-0.064,0.103c2.208-4.023,4.189-6.903,3.928-7.12
		c-0.256-0.222-2.981,2.576-5.751,6.749c-1.269,1.864-2.546,3.989-3.739,6.135c0.953-1.933,1.927-3.845,2.868-5.578
		c2.362-4.457,4.612-7.65,4.356-7.873c-0.264-0.239-3.074,2.644-5.88,6.958c-1.743,2.621-3.516,5.724-5.069,8.7
		c3.726-7.956,8.017-16.753,7.663-16.977c-0.475-0.29-4.167,5.594-7.747,12.129c0.492-0.982,0.98-1.946,1.453-2.857
		c2.281-4.502,4.384-7.783,4.126-7.994c-0.279-0.233-2.951,2.761-5.666,7.105c-2.756,4.312-5.688,9.842-7.659,13.995
		c-1.206,2.491-2.975,7.797-2.322,8.078c0.524,0.225,2.563-3.123,3.911-5.663c-0.864,2.313-1.634,4.941-1.467,5.657
		c-1.545,0.019-3.09,0.012-4.634-0.018c0.923-1.005,2.837-5.182,3.749-7.462c1.707-4.434,4.12-10.422,6.362-15.181
		c2.195-4.784,4.318-8.27,4.039-8.475c-0.275-0.213-2.97,2.989-5.614,7.652c-2.287,3.935-4.582,8.831-6.283,12.971
		c1.559-3.998,3.436-8.612,5.207-12.454c2.186-4.87,4.315-8.419,4.038-8.62c-0.28-0.213-2.983,3.058-5.62,7.809
		c-2.681,4.721-5.388,10.79-7.123,15.347c-0.929,2.355-2.094,6.945-1.963,8.318c-0.836-0.034-1.672-0.072-2.508-0.12
		c0.863-0.595,3.12-5.213,4.142-7.678c1.817-4.495,4.314-10.586,6.547-15.464c2.193-4.9,4.235-8.519,3.957-8.713
		c-0.29-0.207-2.905,3.141-5.542,7.907c-2.673,4.739-5.456,10.787-7.29,15.322c-1.074,2.589-2.54,7.898-2.099,8.612
		c-1.772-0.106-3.542-0.236-5.308-0.403c0.898-0.831,2.888-4.445,4.105-6.902c-1.046,2.906-2.1,6.893-1.547,7.101
		c0.634,0.238,3.326-5.036,4.49-7.731c1.895-4.494,4.479-10.596,6.804-15.463c2.266-4.904,4.484-8.423,4.236-8.628
		c-0.509,0.698-0.99,1.414-1.47,2.13c0.474-0.72,0.96-1.433,1.47-2.13c-0.267-0.222-2.709,2.596-5.225,6.814
		c2.239-4.228,4.088-7.242,3.835-7.43c-0.276-0.21-3.126,3.149-6.117,7.954c-3.028,4.775-6.242,10.911-8.373,15.533
		c-1.195,2.52-2.878,7.61-2.668,8.706c-0.914-0.089-1.825-0.199-2.736-0.304c1.004-1.028,3.218-5.349,4.27-7.725
		c1.998-4.622,4.746-10.881,7.177-15.898c2.394-5.036,4.564-8.771,4.283-8.969c-0.284-0.205-3.019,3.244-5.85,8.13
		c-2.866,4.863-5.9,11.071-7.913,15.732c-1.104,2.491-2.64,7.441-2.488,8.672c-0.944-0.112-1.886-0.234-2.828-0.363
		c0.914-0.711,3.374-5.559,4.546-8.142c2.09-4.764,5.027-11.19,7.696-16.296c2.621-5.134,5.049-8.889,4.77-9.1
		c-0.271-0.213-3.253,3.232-6.313,8.219c-1.379,2.198-2.777,4.68-4.097,7.181c1.046-2.206,2.094-4.398,3.076-6.404
		c2.483-5.204,4.722-9.028,4.482-9.214c-0.31-0.241-3.141,3.337-6.047,8.37c-2.954,5.002-6.202,11.324-8.439,16.047
		c-1.234,2.574-3.092,7.727-2.945,8.872c-0.844-0.133-1.682-0.288-2.523-0.433c1.031-0.812,3.74-5.407,5.005-7.919
		c2.348-4.72,5.497-11.15,8.176-16.334c2.633-5.213,4.975-9.054,4.724-9.25c-0.296-0.232-3.215,3.338-6.271,8.373
		c-3.1,5.007-6.518,11.346-8.878,16.088c-1.318,2.617-3.338,7.903-3.16,8.973c-0.835-0.146-1.67-0.291-2.502-0.45
		c1.131-1.107,3.614-5.283,4.814-7.623c2.35-4.641,5.518-10.953,8.235-16.027c2.675-5.101,5.055-8.855,4.798-9.059
		c-0.287-0.23-3.232,3.234-6.331,8.159c-3.14,4.893-6.581,11.12-8.942,15.787c-1.248,2.433-3.118,7.228-3.168,8.643
		c-0.94-0.182-1.879-0.367-2.816-0.564c0.94-0.848,3.291-5.637,4.417-8.204c2.042-4.812,4.909-11.308,7.604-16.418
		c2.629-5.156,5.271-8.765,5.026-8.986c-0.59,0.715-1.146,1.454-1.7,2.194c0.548-0.744,1.11-1.479,1.7-2.194
		c-0.265-0.252-3.488,3.069-6.568,8.097c-3.144,4.98-6.309,11.452-8.373,16.318c-1.164,2.655-2.745,7.995-2.504,9.113
		c-0.912-0.195-1.819-0.409-2.727-0.618c0.916-1.191,2.843-5.791,3.887-8.257c1.895-4.851,4.869-11.284,7.805-16.266
		c2.892-5.007,5.67-8.566,5.396-8.806c-0.242-0.225-3.542,2.971-6.896,7.851c-3.389,4.844-6.701,11.324-8.639,16.288
		c-1.078,2.547-2.272,7.58-2.114,9.061c-1.001-0.233-2-0.473-2.997-0.724c0.952-1.092,2.969-5.541,3.953-7.963
		c1.843-4.721,4.476-11.079,6.999-16.083c2.464-5.039,4.967-8.592,4.712-8.812c-0.54,0.676-1.046,1.375-1.554,2.073
		c0.501-0.703,1.015-1.396,1.554-2.073c-0.267-0.241-3.344,3.023-6.268,7.95c-0.423,0.694-0.844,1.423-1.262,2.168
		c0.374-0.738,0.746-1.463,1.112-2.159c2.63-5.141,5.088-8.87,4.828-9.079c-0.278-0.232-3.302,3.204-6.37,8.194
		c-3.114,4.955-6.396,11.32-8.59,16.099c-1.15,2.444-2.771,7.207-2.812,8.726c-0.615-0.168-1.226-0.35-1.84-0.524
		c1.087-1.291,3.198-5.374,4.213-7.675c2.04-4.704,4.791-11.097,7.158-16.255c2.331-5.175,4.373-9.065,4.088-9.25
		c-0.297-0.193-2.911,3.425-5.675,8.446c-2.794,5-5.824,11.324-7.875,16.053c-1.041,2.359-2.503,6.873-2.592,8.487
		c-0.771-0.222-1.543-0.441-2.311-0.672c0.989-1.335,2.797-5.398,3.68-7.667c1.754-4.666,4.212-10.971,6.497-15.989
		c2.236-5.042,4.429-8.709,4.157-8.909c-0.283-0.216-3.057,3.181-5.745,8.109c-2.731,4.896-5.486,11.179-7.259,15.896
		c-0.896,2.304-2.025,6.681-2.04,8.339c-0.692-0.212-1.383-0.427-2.073-0.646c0.809-1.187,2.201-5.196,2.906-7.383
		c1.3-4.381,3.311-10.26,5.408-14.868c2.033-4.64,4.183-7.954,3.896-8.171c-0.258-0.212-2.978,2.806-5.484,7.371
		c-2.565,4.522-4.898,10.462-6.226,14.94c-0.711,2.207-1.354,6.409-1.153,7.908c-0.743-0.239-1.483-0.488-2.223-0.735
		c0.783-1.274,2.079-5.448,2.744-7.723c1.219-4.572,3.147-10.711,5.226-15.522c2.01-4.845,4.204-8.297,3.913-8.511
		c-0.259-0.209-3.029,2.958-5.517,7.744c-2.551,4.741-4.804,10.954-6.047,15.626c-0.666,2.274-1.21,6.561-0.998,8.156
		c-0.768-0.26-1.539-0.511-2.304-0.78c0.878-1.201,2.319-4.843,2.914-6.904c2.443-8.447,6.096-23.101,5.428-23.294
		c-0.666-0.193-5.4,14.145-7.841,22.592c-0.589,2.038-1.307,5.823-1.224,7.343c-0.664-0.236-1.324-0.482-1.985-0.725
		c0.469-1.401,0.825-4.665,0.897-6.502c0.112-3.959,0.282-9.334,0.66-13.692c0.315-4.37,1.075-7.654,0.771-7.773
		c-0.344-0.141-1.753,3.113-2.53,7.529c-0.846,4.398-1.3,9.847-1.413,13.857c-0.068,1.716,0.195,4.655,0.608,6.213
		c-0.711-0.265-1.42-0.537-2.128-0.809c0.267-1.141,0.067-3.861-0.239-5.337c-1.281-6.198-4.027-16.721-4.707-16.581
		c-0.523,0.108,0.328,6.468,1.329,12.222c-0.993-3.456-2.128-6.695-2.581-6.593c-0.677,0.15,0.436,7.733,1.404,12.081
		c0.171,0.771,0.637,1.951,1.13,2.765c-0.482-0.196-0.96-0.401-1.44-0.6c0.153-0.86-0.06-2.373-0.348-3.195
		c-1.316-3.763-4.105-10.037-4.761-9.808c-0.656,0.23,1.072,6.874,2.388,10.636c0.154,0.441,0.451,1.026,0.793,1.564
		c-9.136-3.886-18.023-8.369-26.614-13.301c-0.419-0.236-0.971-0.051-1.233,0.414c-0.265,0.465-0.138,1.034,0.279,1.272
		c9.08,5.064,18.481,9.627,28.14,13.531c-0.705,0.434-1.573,1.384-1.957,2.034c-1.863,3.162-4.575,8.877-3.976,9.229
		c0.598,0.352,4.279-4.789,6.143-7.952c0.412-0.7,0.865-2.071,0.839-2.889c0.568,0.226,1.132,0.46,1.701,0.682
		c-0.692,0.836-1.488,2.312-1.829,3.257c-1.718,4.759-4.138,13.118-3.483,13.353c0.652,0.236,4.129-7.738,5.847-12.497
		c0.339-0.939,0.668-2.571,0.675-3.657c0.505,0.193,1.012,0.383,1.519,0.572c-0.773,1.011-1.787,3.638-2.033,5.206
		c-0.628,3.327-0.937,7.994-0.324,11.759c0.529,3.795,2.081,6.406,2.375,6.242c0.326-0.145-0.556-2.824-0.605-6.41
		c-0.137-3.572,0.426-7.952,1.027-11.14c0.228-1.453,0.552-4.056,0.43-5.33c0.814,0.3,1.631,0.591,2.449,0.882
		c-0.553,1.234-0.919,4.77-0.694,6.706c0.3,3.96,1.411,9.274,2.975,13.379c1.515,4.126,3.327,7.012,3.615,6.864
		c0.332-0.159-0.881-3.267-1.918-7.394c-1.088-4.115-1.878-9.254-2.168-13.057c-0.202-1.733-0.545-4.804-0.972-6.203
		c0.596,0.209,1.19,0.424,1.788,0.627c-0.391,1.514-0.209,5.593,0.456,7.737c1.108,4.473,3.591,10.221,6.229,14.52
		c2.607,4.324,5.165,7.271,5.426,7.082c0.305-0.213-1.718-3.499-3.863-7.93c-2.18-4.416-4.303-10.041-5.358-14.299
		c-0.582-1.878-1.374-5.208-1.972-6.8c0.701,0.235,1.405,0.458,2.108,0.685c-0.296,1.42,0.288,5.836,1.102,8.106
		c1.411,4.531,4.126,10.416,7.026,14.784c2.849,4.407,5.684,7.322,5.931,7.115c0.263-0.209-1.6-2.915-3.722-6.774
		c0.21,0.298,0.417,0.606,0.629,0.89c3.152,4.328,6.308,7.014,6.524,6.797c0.282-0.261-2.373-3.349-5.044-7.783
		c-2.737-4.394-5.242-10.212-6.465-14.668c-0.695-2.033-1.633-5.728-2.283-7.31c0.659,0.199,1.318,0.398,1.98,0.59
		c-0.106,1.539,1.064,6.103,2.193,8.392c2.04,4.611,5.602,10.484,9.095,14.806c3.452,4.361,6.658,7.236,6.887,7.014
		c0.275-0.252-2.438-3.529-5.451-8.061c-3.059-4.504-6.266-10.336-8.241-14.793c-0.973-1.974-2.567-5.496-3.545-7.079
		c0.702,0.2,1.408,0.382,2.112,0.574c-0.013,1.618,1.384,6.275,2.644,8.599c2.3,4.712,6.246,10.685,10.122,14.984
		c3.827,4.35,7.375,7.1,7.586,6.862c0.257-0.272-2.821-3.453-6.208-7.985c-3.442-4.491-7.023-10.421-9.248-14.981
		c-1.088-2.004-2.859-5.592-3.925-7.215c0.558,0.149,1.112,0.309,1.672,0.453c0.07,1.506,1.729,5.959,3.005,8.193
		c2.385,4.44,6.179,10.196,9.933,14.369c3.698,4.235,7.285,6.756,7.487,6.492c-0.894-0.796-1.754-1.624-2.59-2.474
		c0.844,0.843,1.693,1.681,2.59,2.474c0.233-0.279-2.864-3.214-6.109-7.615c-3.31-4.35-6.766-10.101-9.103-14.445
		c-1.091-1.912-3.038-5.254-4.211-6.75c0.713,0.18,1.428,0.351,2.143,0.523c0.142,1.52,1.981,5.923,3.33,8.127
		c2.55,4.391,6.517,10.082,10.362,14.226c3.792,4.205,7.427,6.717,7.627,6.45c-0.904-0.79-1.776-1.612-2.625-2.454
		c0.857,0.835,1.718,1.666,2.625,2.454c0.226-0.28-2.919-3.209-6.267-7.597c-1.609-2.044-3.265-4.395-4.832-6.759
		c1.784,2.471,3.773,4.923,5.733,6.943c3.573,3.758,6.879,6.054,7.083,5.797c0.237-0.278-2.607-3.014-5.744-6.968
		c-3.179-3.921-6.561-9.094-8.796-13.046c-1.061-1.745-2.924-4.825-4.038-6.167c0.746,0.159,1.49,0.324,2.237,0.473
		c0.259,1.54,2.132,5.533,3.459,7.544c2.59,4.097,6.527,9.417,10.248,13.327c3.672,3.966,7.138,6.375,7.342,6.106
		c-0.839-0.74-1.652-1.504-2.446-2.287c0.801,0.776,1.604,1.55,2.446,2.287c0.181-0.223-1.717-2.111-4.15-4.999
		c2.882,2.396,5.19,3.758,5.345,3.545c0.232-0.297-2.648-2.781-5.896-6.373c-3.283-3.565-6.745-8.359-8.768-12.164
		c-1.073-1.739-2.712-4.985-3.629-6.246c0.754,0.133,1.512,0.251,2.268,0.374c0.21,1.535,1.965,5.473,3.294,7.423
		c2.56,4.015,6.639,9.092,10.537,12.663c3.872,3.613,7.424,5.69,7.605,5.414c-0.863-0.649-1.705-1.325-2.526-2.021
		c0.829,0.689,1.659,1.377,2.526,2.021c0.162-0.226-1.633-1.78-4.025-4.21c2.941,2.293,5.286,3.57,5.433,3.355
		c0.221-0.305-2.721-2.68-6.056-6.151c-3.372-3.44-6.963-8.095-9.125-11.798c-1.148-1.723-2.98-4.973-3.942-6.124
		c0.737,0.103,1.476,0.193,2.215,0.287c0.04,1.416,1.755,5.334,3.262,7.075c2.727,3.639,7.269,7.804,11.361,10.586
		c0.367,0.255,0.722,0.489,1.077,0.724c0.062,0.055,0.124,0.116,0.185,0.17c3.561,3.196,6.755,5.077,6.942,4.814
		c0.108-0.145-0.502-0.785-1.509-1.791c0.574,0.243,0.949,0.352,0.999,0.269c0.157-0.258-1.878-1.745-4.621-3.959
		c-0.188-0.2-0.371-0.391-0.562-0.599c-3.186-3.388-6.619-7.917-8.86-11.43c-1.051-1.506-2.839-4.157-3.945-5.374
		c0.707,0.07,1.412,0.149,2.121,0.209c-0.056,1.107,1.814,5.011,3.179,6.841c2.44,3.487,6.278,7.872,9.915,10.903
		c3.609,3.076,6.895,4.752,7.065,4.465c0.194-0.303-2.671-2.464-5.853-5.764c-3.216-3.267-6.707-7.673-9.076-11.057
		c-1.166-1.563-3.301-4.344-4.44-5.325c0.761,0.061,1.524,0.104,2.287,0.154c0.206,1.345,1.794,4.589,2.961,6.19
		c2.291,3.31,5.822,7.537,9.175,10.519c3.317,3.037,6.406,4.71,6.585,4.424c-0.73-0.534-1.44-1.09-2.132-1.666
		c0.7,0.568,1.399,1.136,2.132,1.666c0.197-0.297-2.441-2.43-5.328-5.683c-1.166-1.275-2.373-2.718-3.546-4.195
		c1.533,1.705,3.181,3.373,4.778,4.758c3.191,2.852,6.128,4.448,6.31,4.163c0.032-0.047-0.025-0.153-0.119-0.285
		c0.818,0.504,1.377,0.733,1.457,0.607c-0.695-0.542-1.364-1.112-2.013-1.7c0.657,0.581,1.318,1.159,2.013,1.7
		c0.189-0.283-2.142-2.324-4.632-5.451c-0.397-0.485-0.802-0.998-1.208-1.522c0.795,0.86,1.605,1.676,2.411,2.405
		c2.979,2.783,5.81,4.252,5.984,3.964c-0.659-0.479-1.299-0.981-1.921-1.502c0.629,0.513,1.258,1.027,1.921,1.502
		c0.197-0.299-2.177-2.225-4.71-5.204c-0.055-0.062-0.11-0.131-0.165-0.194c0.272,0.261,0.545,0.523,0.818,0.764
		c2.873,2.646,5.712,3.855,5.857,3.544c-0.707-0.448-1.381-0.933-2.034-1.443c0.66,0.501,1.327,0.996,2.034,1.443
		c0.171-0.307-2.194-1.978-4.595-4.796c-1.077-1.212-2.17-2.62-3.209-4.057c1.604,1.878,3.432,3.733,5.233,5.17
		c3.04,2.493,5.844,3.72,6.002,3.425c0.181-0.311-2.209-2.031-4.803-4.737c-2.631-2.668-5.422-6.316-7.302-9.122
		c-0.956-1.327-2.769-3.713-3.738-4.435c0.659-0.02,1.318-0.031,1.976-0.06c-0.024,1.005,1.548,4.041,2.666,5.466
		c2.07,2.739,5.207,6.246,8.214,8.656c2.974,2.476,5.832,3.593,5.971,3.26c0.145-0.305-2.241-1.885-4.771-4.572
		c-0.355-0.363-0.715-0.746-1.077-1.14c0.815,0.732,1.645,1.418,2.469,2.014c3.053,2.28,5.852,3.289,5.99,2.986
		c0.146-0.288-1.766-1.545-4.038-3.599c2.856,2.146,5.456,3.123,5.598,2.826c0.169-0.319-2.071-1.822-4.509-4.224
		c-0.336-0.323-0.675-0.665-1.015-1.017c0.713,0.657,1.441,1.271,2.168,1.808c2.788,2.156,5.437,2.994,5.559,2.682
		c-0.636-0.336-1.251-0.702-1.847-1.092c0.603,0.381,1.208,0.76,1.847,1.092c0.149-0.328-2.076-1.671-4.401-4.028
		c-2.37-2.304-4.862-5.518-6.576-7.974c-0.877-1.179-2.588-3.257-3.504-3.814c0.746-0.08,1.491-0.16,2.235-0.253
		c-0.095,0.958,1.253,3.799,2.321,5.084c1.928,2.514,5.043,5.573,8.024,7.479c2.961,1.951,5.62,2.708,5.739,2.399
		c0.144-0.331-2.154-1.628-4.675-3.822c-2.55-2.157-5.273-5.217-7.108-7.604c-0.91-1.094-2.604-3.016-3.565-3.638
		c0.742-0.097,1.484-0.196,2.224-0.306c-0.159,0.942,1.191,3.917,2.342,5.198c2.018,2.528,5.384,5.419,8.494,7.134
		c3.088,1.769,5.744,2.486,5.865,2.188c0.124-0.282-1.49-1.224-3.578-2.71c0.132,0.071,0.266,0.152,0.398,0.218
		c3.163,1.664,5.862,2.241,5.966,1.941c0.136-0.351-2.287-1.506-5.041-3.458c-2.787-1.911-5.762-4.745-7.596-7.104
		c-1.044-1.17-2.891-3.492-3.716-3.916c0.875-0.151,1.752-0.292,2.624-0.461c-0.563,0.482,1.044,3.79,2.325,5.127
		c2.03,2.346,5.376,5.035,8.504,6.483c3.114,1.5,5.777,1.832,5.85,1.517c0.1-0.354-2.294-1.279-4.976-3.064
		c-2.714-1.744-5.605-4.422-7.497-6.604c-1.111-1.158-3.263-3.412-4.014-3.497c0.889-0.175,1.772-0.38,2.657-0.574
		c0.044,0.957,1.773,3.561,3.003,4.682c2.25,2.201,5.727,4.813,8.954,6.256c3.21,1.514,5.991,1.744,6.039,1.415
		c-0.698-0.186-1.382-0.409-2.052-0.66c0.675,0.24,1.352,0.478,2.052,0.66c0.077-0.354-2.409-1.173-5.195-2.979
		c-2.821-1.742-5.909-4.404-8.053-6.502c-1.017-0.925-2.887-2.517-3.946-3.044c0.761-0.172,1.519-0.35,2.276-0.536
		c-0.481,0.544,1.542,3.482,2.915,4.624c2.229,1.997,5.649,4.302,8.758,5.533c3.096,1.289,5.707,1.485,5.765,1.157
		c0.075-0.351-2.279-1.146-4.982-2.751c-2.73-1.558-5.767-3.934-7.877-5.823c-1.142-0.948-3.389-2.671-4.274-2.818
		c0.909-0.226,1.818-0.455,2.722-0.702c-0.144,0.784,2.135,3.531,3.65,4.597c2.593,1.988,6.534,4.181,10.036,5.215
		c3.494,1.091,6.348,1.038,6.368,0.709c0.043-0.36-2.617-0.93-5.743-2.371c-3.146-1.391-6.692-3.679-9.153-5.562
		c-1.24-0.871-3.534-2.421-4.599-2.733c0.749-0.209,1.489-0.449,2.233-0.673c-0.448,0.608,2.338,3.257,4.031,4.12
		c2.745,1.557,6.768,3.097,10.168,3.807c3.394,0.748,6.086,0.774,6.13,0.449c0.054-0.361-2.498-1.008-5.638-2.157
		c-0.804-0.284-1.643-0.608-2.489-0.955c1.836,0.582,3.76,1.015,5.507,1.209c3.473,0.432,6.156,0.103,6.157-0.218
		c0.011-0.371-2.607-0.678-5.824-1.528c-3.232-0.805-6.99-2.301-9.558-3.739c-1.58-0.759-4.664-2.411-5.147-2.038
		c2.065-0.69,4.108-1.45,6.132-2.26c0.006,0,0.013-0.001,0.02-0.001c-0.239,0.699,3.144,2.48,4.994,2.865
		c3.051,0.771,7.325,1.25,10.795,1.068c3.476-0.141,6.086-0.804,6.042-1.125c-0.042-0.366-2.671-0.339-5.999-0.652
		c-1.65-0.135-3.466-0.382-5.231-0.685c6.415-0.299,14.586-2.998,14.41-3.586c-0.084-0.379-3.447,0.132-7.418,0.583
		c4.974-1.343,9.495-3.355,9.305-3.812c-0.189-0.541-8.288,1.706-14.321,2.361C175.906,47.434,186.073,44.115,185.896,43.454z
		 M162.813,51.011c-0.128-0.006-0.26-0.009-0.382-0.017c-0.862-0.035-1.508-0.164-1.868-0.122c0.435-0.209,0.91-0.46,1.399-0.735
		c0.012,0.017,0.035,0.025,0.053,0.037c-0.007,0.01-0.032,0.018-0.036,0.028C161.892,50.47,162.239,50.755,162.813,51.011z
		 M156.902,52.048c0.01,0.012,0.032,0.014,0.046,0.022c-0.392,0.151-0.782,0.305-1.175,0.451c0.336-0.197,0.713-0.442,1.11-0.717
		C156.859,51.909,156.858,51.997,156.902,52.048z M157.908,51.856c0.194-0.089,0.408-0.199,0.638-0.326
		c0.071-0.03,0.144-0.056,0.215-0.086c0.255,0.065,0.823-0.123,1.536-0.449c-0.134,0.227,0.197,0.755,0.82,1.222
		C159.97,52.014,158.705,51.834,157.908,51.856z M154.505,53.002c-0.772,0.276-1.553,0.522-2.33,0.781
		c0.768-0.48,1.744-1.238,2.673-2.037c-0.386,0.607-0.58,1.065-0.435,1.218C154.435,52.985,154.471,52.993,154.505,53.002z
		 M142.759,54.148c-0.639,1.157-1.086,2.177-1.034,2.591c-0.772,0.18-1.546,0.35-2.322,0.515
		C140.207,56.756,141.571,55.435,142.759,54.148z M145.9,53.441c-0.685,1.176-1.143,2.195-1.001,2.52
		c-0.709,0.186-1.423,0.35-2.134,0.523C143.619,55.839,144.85,54.604,145.9,53.441z M147.802,54.059
		c-0.242,0.565-0.343,0.985-0.231,1.153c-0.575,0.165-1.146,0.341-1.723,0.498C146.386,55.343,147.087,54.738,147.802,54.059z
		 M133.346,55.591c-0.453,1.408-0.687,2.619-0.404,2.855c-0.828,0.131-1.655,0.264-2.486,0.379
		C130.992,58.662,132.218,57.165,133.346,55.591z M133.634,62.028c-0.958-1.077-2.128-2.358-2.836-2.815
		c0.687-0.105,1.37-0.229,2.055-0.345C132.616,59.309,133.011,60.694,133.634,62.028z M101.159,60.521
		c0.523,0.03,1.046,0.06,1.569,0.085c0.042,0.633,0.563,1.895,1.226,3.171C103.041,62.602,101.961,61.295,101.159,60.521z
		 M103.71,60.641c0.643,0.026,1.286,0.05,1.929,0.068c-0.044,0.537,0.369,1.732,0.933,2.984
		C105.618,62.545,104.494,61.293,103.71,60.641z M106.449,60.738c0.645,0.015,1.289,0.016,1.934,0.022
		c-0.022,0.637,0.415,1.969,0.994,3.29C108.415,62.783,107.223,61.36,106.449,60.738z M106.226,59.994
		c0.925-1.172,2.623-4.884,3.536-7.151c-0.863,2.565-1.723,6.261-1.492,7.206C107.589,60.034,106.907,60.019,106.226,59.994z
		 M109.254,60.762c0.587,0.002,1.175,0.01,1.762,0.005c-0.021,0.636,0.354,1.887,0.861,3.127
		C111.006,62.706,109.968,61.397,109.254,60.762z M111.94,60.766c0.539-0.008,1.078-0.036,1.617-0.049
		c-0.114,0.506,0.266,1.761,0.821,3.05C113.584,62.647,112.627,61.403,111.94,60.766z M121.741,59.742
		c-0.842,0.06-1.685,0.096-2.528,0.141c0.643-0.282,2.249-3.149,3.4-5.432C121.87,56.819,121.298,59.485,121.741,59.742z
		 M119.855,60.415c0.596-0.042,1.193-0.07,1.787-0.119c-0.074,0.547,0.298,1.733,0.823,2.91
		C121.597,62.148,120.566,60.977,119.855,60.415z M116.571,60.018c0.713-0.466,2.341-3.311,3.498-5.576
		c-0.829,2.453-1.479,5.235-1.004,5.449C118.234,59.934,117.403,59.99,116.571,60.018z M117.04,60.598
		c0.65-0.033,1.299-0.085,1.948-0.127c-0.014,0.618,0.434,1.868,1.027,3.087C119.056,62.444,117.837,61.16,117.04,60.598z
		 M122.366,60.223c0.658-0.058,1.315-0.131,1.972-0.198c-0.17,0.556,0.365,2.119,1.055,3.512
		C124.472,62.351,123.164,60.789,122.366,60.223z M116.285,60.023c-0.788,0.025-1.576,0.03-2.363,0.043
		c0.842-0.771,2.518-3.634,3.655-5.842C116.691,56.681,115.928,59.57,116.285,60.023z M91.455,59.66
		c0.777,0.093,1.555,0.177,2.334,0.259c0.061,0.988,0.849,3.129,1.747,4.927C94.282,63.346,92.506,60.839,91.455,59.66z
		 M90.587,58.607c-0.825-0.115-1.65-0.224-2.472-0.351c0.946-0.84,3.102-4.575,4.378-7.101
		C91.42,53.987,90.328,57.818,90.587,58.607z M88.001,61.924c-0.832-1.173-1.688-2.328-2.342-3.069
		c0.625,0.097,1.248,0.207,1.874,0.298C87.45,59.665,87.646,60.722,88.001,61.924z M79.492,57.781
		c0.664,0.128,1.328,0.254,1.994,0.374c-0.084,0.502,0.043,1.453,0.303,2.553C80.975,59.584,80.142,58.499,79.492,57.781z
		 M75.126,56.882c-0.003,1.064,0.941,3.828,1.95,5.979c-1.155-1.883-3.163-5.05-4.39-6.52
		C73.498,56.529,74.312,56.704,75.126,56.882z M73.749,46.119c-1.009,2.479-2.282,7.338-2.158,8.746
		c-0.851-0.216-1.703-0.427-2.551-0.656c1.082-1.182,3.37-5.458,4.489-7.836c0.292-0.636,0.6-1.305,0.919-1.994
		C74.203,44.976,73.967,45.56,73.749,46.119z M59.957,57.483c-0.655-1.884-1.43-4.089-1.999-5.21
		c0.673,0.214,1.347,0.426,2.022,0.634C59.754,53.773,59.76,55.624,59.957,57.483z M47.933,47.21
		c-0.397-0.156-0.795-0.308-1.191-0.465c0.172-0.426,0.242-1.145,0.231-1.904C47.259,45.701,47.601,46.569,47.933,47.21z
		 M152.888,57.338c-1.377-0.702-3.98-1.988-4.929-2.02c1-0.304,1.999-0.613,2.991-0.944c-0.411,0.425,1.013,2.092,2.491,3.268
		C153.256,57.54,153.064,57.437,152.888,57.338z"/>
	<path fill="#cca770" d="M159.88,54.675c-1.724-0.584-5.126-1.942-5.51-1.481c-0.494,0.63,2.686,3.174,4.584,3.819
		c3.042,1.253,7.459,2.09,11.048,2.048c3.597,0.006,6.293-0.665,6.255-0.982c-0.035-0.372-2.747-0.34-6.141-0.794
		C166.713,56.88,162.682,55.828,159.88,54.675z"/>
</g>
</svg>
