<?xml version="1.0" encoding="utf-8"?>
<!-- Generator: Adobe Illustrator 17.0.0, SVG Export Plug-In . SVG Version: 6.00 Build 0)  -->
<!DOCTYPE svg PUBLIC "-//W3C//DTD SVG 1.1//EN" "http://www.w3.org/Graphics/SVG/1.1/DTD/svg11.dtd">
<svg version="1.1" id="Layer_1" xmlns="http://www.w3.org/2000/svg" xmlns:xlink="http://www.w3.org/1999/xlink" x="0px" y="0px"
	 width="997.4px" height="142.2px" viewBox="0 0 997.4 142.2" enable-background="new 0 0 997.4 142.2" xml:space="preserve">
<path fill="#CCA770" d="M527.915,84.62c-0.662,0.909-1.707,2.925-1.445,3.09c0.244,0.153,1.674-1.567,2.325-2.462
	c1.063-1.502,2.53-3.526,3.81-5.112c1.264-1.599,2.368-2.73,2.272-2.844c-0.094-0.116-1.407,0.837-2.845,2.338
	C530.581,81.114,528.992,83.098,527.915,84.62z"/>
<path fill="#CCA770" d="M703.273,77.86c-1.502,0.378-4.561,0.976-4.622,1.482c-0.063,0.678,3.384,1.03,5.038,0.616
	c2.752-0.507,6.297-1.946,8.843-3.631c2.574-1.655,4.193-3.377,4.019-3.586c-0.197-0.25-2.121,1.024-4.756,2.264
	C709.175,76.285,705.808,77.392,703.273,77.86z"/>
<path fill="#CCA770" d="M593.916,92.153c1.97,1.158,5.554,4.069,5.198,4.588c-0.331,0.483-4.391-1.563-6.33-2.704
	c-3.2-1.938-7.576-4.521-11.247-6.439c-3.652-1.956-6.629-3.169-6.542-3.46c0.082-0.292,3.302,0.42,7.199,2.051
	C586.103,87.779,590.673,90.189,593.916,92.153z"/>
<path fill="#CCA770" d="M666.232,106.035c1.569,1.662,4.198,5.457,3.712,5.856c-0.453,0.371-3.78-2.726-5.324-4.363
	c-2.532-2.754-6.013-6.456-9.003-9.322c-2.961-2.898-5.481-4.892-5.316-5.148c0.16-0.257,3.054,1.325,6.34,3.978
	C659.949,99.655,663.666,103.244,666.232,106.035z"/>
<path fill="#CCA770" d="M511.8,93.069c1.064-1.183,3.075-3.675,3.565-3.487c0.646,0.268-0.688,3.569-1.858,4.872
	c-1.782,2.257-4.79,4.786-7.543,6.291c-2.739,1.544-5.08,2.188-5.187,1.93c-0.133-0.298,1.948-1.436,4.34-3.234
	C507.537,97.674,510.158,95.148,511.8,93.069z"/>
<path fill="#CCA770" d="M406.922,80.549c0.797,0.468,2.245,1.645,2.101,1.855c-0.134,0.195-1.775-0.632-2.559-1.093
	c-1.294-0.784-3.063-1.828-4.547-2.603c-1.476-0.791-2.68-1.281-2.644-1.399c0.033-0.118,1.335,0.17,2.91,0.829
	C403.764,78.781,405.611,79.755,406.922,80.549z"/>
<path fill="#CCA770" d="M452.986,73.761c0.634,0.672,1.697,2.206,1.5,2.367c-0.183,0.15-1.528-1.102-2.152-1.764
	c-1.024-1.113-2.431-2.61-3.64-3.769c-1.197-1.171-2.216-1.978-2.149-2.081c0.065-0.104,1.234,0.536,2.563,1.608
	C450.446,71.181,451.949,72.632,452.986,73.761z"/>
<path fill="#CCA770" d="M255.164,91.857c0.43-0.478,1.243-1.486,1.441-1.41c0.261,0.108-0.278,1.443-0.751,1.97
	c-0.72,0.912-1.936,1.935-3.049,2.543c-1.107,0.624-2.054,0.884-2.097,0.78c-0.054-0.121,0.788-0.58,1.754-1.307
	C253.441,93.719,254.5,92.698,255.164,91.857z"/>
<path fill="#CCA770" d="M772.2,88.473c-0.639-1.457-2.08-4.317-1.707-4.686c0.511-0.478,2.967,2.099,3.672,3.702
	c1.321,2.554,2.384,6.337,2.62,9.466c0.277,3.132-0.102,5.53-0.381,5.521c-0.327-0.002-0.504-2.367-1.156-5.287
	C774.637,94.256,773.416,90.826,772.2,88.473z"/>
<path fill="#CCA770" d="M862.962,116.805c1.256-0.057,3.747-0.552,3.707-0.896c-0.037-0.32-2.537-0.368-3.773-0.312
	c-2.055,0.12-4.847,0.252-7.125,0.242c-2.279,0.013-4.038-0.162-4.071,0.002c-0.035,0.163,1.714,0.644,4.028,0.852
	C858.038,116.925,860.88,116.927,862.962,116.805z"/>
<path fill="#CCA770" d="M856.369,103.921c0.213,0.849,0.551,2.578,0.838,2.612c0.383,0.036,0.582-1.913,0.348-2.847
	c-0.287-1.556-1.1-3.559-2.052-4.998c-0.935-1.455-1.909-2.37-2.027-2.272c-0.141,0.111,0.579,1.199,1.28,2.688
	C855.479,100.585,856.105,102.488,856.369,103.921z"/>
<g>
	<path fill="#CCA770" d="M784.09,141.606c-0.743-1.154-1.12-2.024-1.018-2.083c0.129-0.079,0.843,0.869,1.925,2.083H784.09z"/>
	<path fill="#CCA770" d="M788.165,141.606h-1.306c-0.516-0.83-0.988-1.676-1.374-2.48c-1.068-2.18-1.592-3.982-1.448-4.038
		c0.166-0.068,0.966,1.606,2.198,3.628C786.797,139.652,787.466,140.65,788.165,141.606z"/>
	<path fill="#CCA770" d="M832.925,100.373c-0.059-0.155-1.648,0.28-3.675,0.923c1.96-0.965,3.535-1.822,3.463-1.99
		c-0.067-0.155-1.522,0.306-3.354,0.976c1.626-0.995,2.89-1.85,2.807-2.004c-0.094-0.177-1.931,0.605-3.995,1.585
		c1.571-1.267,2.836-2.385,2.725-2.537c-0.102-0.142-1.363,0.573-2.897,1.542c1.283-1.308,2.262-2.404,2.145-2.534
		c-0.221-0.244-4.212,2.999-6.511,5.065c1.837-2.267,4.856-4.954,4.687-5.171c-0.135-0.196-2.127,1.106-3.966,2.766
		c1.217-1.487,2.301-2.713,2.169-2.845c-0.192-0.224-3.412,2.374-5.205,4.888c0.337-0.792,0.711-1.591,1.086-2.292
		c0.741-1.426,1.437-2.482,1.3-2.594c-0.118-0.101-1.067,0.78-2.03,2.148c-0.978,1.355-1.899,3.207-2.382,4.641
		c-0.327,0.848-0.489,2.679-0.144,2.765c-0.002,0.003-0.004,0.005-0.006,0.008c-0.837,0.594-1.657,1.208-2.458,1.847
		c0.241-0.28,0.366-1.79,0.464-2.569c0.088-1.412,0.464-3.321,0.981-4.837c0.495-1.522,1.054-2.66,0.901-2.752
		c-0.13-0.084-0.962,0.915-1.693,2.431c-0.377,0.757-0.703,1.647-0.947,2.54c0.08-0.433,0.168-0.856,0.263-1.255
		c0.354-1.568,0.758-2.768,0.598-2.84c-0.143-0.067-0.834,1.028-1.416,2.594c-0.599,1.559-1.026,3.586-1.112,5.101
		c-0.093,0.909,0.252,2.725,0.614,2.703c-0.285,0.243-0.574,0.479-0.854,0.727c0.151-0.512,0.123-1.843,0.094-2.571
		c-0.12-1.485-0.12-3.514,0.138-5.148c0.232-1.639,0.696-2.862,0.539-2.938c-0.138-0.077-0.904,1.062-1.373,2.758
		c-0.495,1.684-0.636,3.849-0.509,5.415c0.036,0.89,0.552,2.527,0.906,2.673c-0.336,0.301-0.665,0.608-0.993,0.917
		c0.171-0.396,0.06-1.753-0.025-2.462c-0.214-1.345-0.382-3.191-0.3-4.701c0.056-1.511,0.348-2.669,0.187-2.73
		c-0.148-0.063-0.749,1.044-1.035,2.631c-0.313,1.577-0.273,3.56-0.047,4.981c0.104,0.852,0.763,2.436,1.108,2.383
		c-0.273,0.257-0.542,0.517-0.81,0.78c0.063-0.565-0.093-1.736-0.202-2.388c-0.289-1.413-0.559-3.355-0.528-4.949
		c-0.004-1.596,0.313-2.815,0.15-2.876c-0.145-0.067-0.777,1.117-1.002,2.809c-0.258,1.68-0.109,3.766,0.194,5.249
		c0.132,0.789,0.734,2.166,1.109,2.434c-0.309,0.307-0.622,0.61-0.924,0.924c0.162-0.326-0.188-1.783-0.367-2.534
		c-0.388-1.333-0.717-3.199-0.714-4.75c-0.022-1.549,0.228-2.757,0.059-2.81c-0.146-0.053-0.706,1.11-0.912,2.759
		c-0.23,1.642-0.015,3.694,0.403,5.126c0.207,0.866,1.124,2.378,1.466,2.276c-0.296,0.308-0.581,0.626-0.87,0.94
		c0.044-0.444-0.413-1.795-0.614-2.522c-0.475-1.356-0.845-3.296-0.891-4.921c-0.071-1.622,0.094-2.902-0.083-2.938
		c-0.148-0.036-0.619,1.205-0.771,2.917c-0.007,0.07-0.01,0.146-0.016,0.218c-0.056-1.231-0.016-2.129-0.163-2.152
		c-0.152-0.029-0.555,1.231-0.645,2.94c-0.118,1.704,0.173,3.817,0.669,5.292c0.218,0.799,1.068,2.12,1.49,2.301
		c-0.237,0.27-0.471,0.544-0.703,0.819c-0.001-0.55-0.336-1.736-0.541-2.388c-0.486-1.364-1.013-3.261-1.22-4.854
		c-0.23-1.59-0.155-2.857-0.326-2.885c-0.156-0.033-0.543,1.239-0.526,2.944c-0.007,1.702,0.417,3.757,0.931,5.192
		c0.241,0.767,1.038,2.052,1.449,2.263c-0.231,0.276-0.458,0.557-0.685,0.837c0.014-0.515-0.38-1.748-0.628-2.41
		c-0.546-1.333-1.195-3.178-1.508-4.736c-0.347-1.554-0.309-2.803-0.481-2.828c-0.158-0.032-0.51,1.257-0.365,2.945
		c0.028,0.434,0.086,0.888,0.166,1.347c-0.054-0.229-0.104-0.455-0.146-0.675c-0.336-1.611-0.359-2.908-0.532-2.923
		c-0.157-0.02-0.44,1.285-0.317,2.999c-0.238-1.454-0.247-2.554-0.402-2.57c-0.158-0.023-0.48,1.371-0.355,3.199
		c0.026,0.488,0.086,1.003,0.17,1.523c-0.065-0.249-0.126-0.494-0.18-0.732c-0.427-1.723-0.443-3.099-0.604-3.12
		c-0.17-0.031-0.464,1.416-0.239,3.263c0.19,1.843,0.789,4.025,1.357,5.575c0.284,0.823,1.101,2.249,1.514,2.502
		c-0.183,0.258-0.36,0.522-0.54,0.783c-0.039-0.58-0.531-1.934-0.818-2.667c-0.644-1.491-1.39-3.57-1.783-5.328
		c-0.417-1.754-0.49-3.168-0.662-3.176c-0.16-0.013-0.396,1.44-0.18,3.318c0.111,1.102,0.385,2.324,0.725,3.462
		c-0.31-0.795-0.594-1.603-0.803-2.354c-0.513-1.705-0.571-3.096-0.74-3.107c-0.004,0.402,0.022,0.801,0.053,1.198
		c-0.035-0.397-0.056-0.796-0.053-1.198c-0.164-0.022-0.415,1.44-0.095,3.29c0.026,0.173,0.061,0.352,0.095,0.53
		c-0.011-0.039-0.024-0.079-0.035-0.117c-0.543-1.8-0.703-3.261-0.875-3.26c-0.162-0.005-0.306,1.522,0.042,3.451
		c0.084,0.516,0.203,1.056,0.343,1.601c-0.106-0.301-0.208-0.598-0.3-0.885c-0.615-1.822-0.832-3.295-0.995-3.293
		c-0.072-0.001-0.125,0.285-0.134,0.747c-0.029-0.073-0.057-0.123-0.084-0.123c-0.162-0.001-0.283,1.602,0.038,3.635
		c0.144,1.006,0.388,2.107,0.677,3.171c-0.291-0.859-0.56-1.723-0.771-2.526c-0.562-2.014-0.736-3.636-0.907-3.634
		c-0.162-0.002-0.291,1.682,0.071,3.814c0.331,2.132,1.119,4.661,1.859,6.449c0.343,0.889,1.239,2.376,1.729,2.81
		c-0.179,0.321-0.36,0.641-0.534,0.964c-0.099-0.716-0.667-2.304-0.994-3.182c-0.75-1.839-1.621-4.398-2.102-6.549
		c-0.504-2.146-0.631-3.867-0.804-3.867c-0.16-0.006-0.339,1.758-0.037,4.018c0.277,2.259,1.048,4.953,1.821,6.848
		c0.384,1.029,1.474,2.802,1.936,3.068c-0.16,0.302-0.312,0.608-0.468,0.911c-0.204-0.764-0.809-2.178-1.143-2.995
		c-0.835-1.821-1.771-4.389-2.309-6.559c-0.034-0.131-0.064-0.255-0.096-0.383c-0.179-1.686-0.25-2.895-0.395-2.899
		c-0.047-0.002-0.101,0.178-0.152,0.474c-0.144-0.669-0.244-1.082-0.33-1.077c-0.155,0.007-0.227,1.788,0.136,4.06
		c0.006,0.039,0.014,0.08,0.02,0.119c0.002,0.205,0.004,0.409,0.012,0.624c0.058,2.379,0.557,5.299,1.316,7.35
		c0.311,1.063,1.447,2.777,2.009,3.162c-0.155,0.323-0.311,0.645-0.462,0.97c-0.214-0.689-1.05-2.276-1.447-3.189
		c-0.933-1.839-1.878-4.503-2.389-6.762c-0.533-2.252-0.726-4.06-0.907-4.05c-0.126,0.003-0.22,1.284-0.061,3.07
		c-0.359-1.6-0.519-2.73-0.652-2.724c-0.159,0.002-0.245,1.978,0.205,4.484c0.427,2.506,1.415,5.478,2.37,7.558
		c0.441,1.045,1.575,2.781,2.141,3.266c-0.148,0.338-0.297,0.675-0.44,1.014c-0.271-0.699-1.155-2.207-1.578-3.094
		c-1.01-1.809-2.045-4.457-2.63-6.713c-0.605-2.249-0.858-4.06-1.038-4.044c-0.126,0.007-0.177,1.295,0.04,3.084
		c-0.533-1.736-0.801-2.995-0.938-2.98c-0.162,0.012-0.092,2.041,0.554,4.558c0.61,2.523,1.733,5.5,2.714,7.615
		c0.467,1.06,1.592,2.858,2.147,3.364c-0.135,0.341-0.262,0.685-0.392,1.027c-0.252-0.8-1.011-2.356-1.439-3.239
		c-1.015-1.933-2.223-4.648-2.979-6.954c-0.78-2.298-1.144-4.16-1.318-4.137c-0.157,0.015-0.091,1.95,0.496,4.373
		c0.305,1.319,0.778,2.762,1.311,4.126c-0.547-1.249-1.065-2.531-1.472-3.714c-0.9-2.497-1.264-4.531-1.436-4.513
		c-0.16,0.011-0.092,2.134,0.618,4.763c0.672,2.634,1.938,5.72,3.047,7.895c0.539,1.12,1.839,3.011,2.416,3.464
		c-0.117,0.334-0.234,0.667-0.347,1.002c-0.299-0.864-1.142-2.522-1.63-3.461c-1.146-2.076-2.569-4.972-3.464-7.443
		c-0.933-2.458-1.311-4.474-1.485-4.453c-0.159,0.013-0.076,2.119,0.672,4.717c0.708,2.605,2.045,5.638,3.217,7.759
		c0.57,1.098,1.937,2.929,2.527,3.35c-0.088,0.263-0.167,0.529-0.253,0.794c-0.378-0.854-1.366-2.505-1.892-3.467
		c-1.263-2.088-2.726-5.08-3.643-7.642c-0.949-2.55-1.431-4.623-1.609-4.59c-0.151,0.023,0.035,2.174,0.796,4.854
		c0.727,2.687,2.112,5.838,3.417,7.996c0.506,0.923,1.628,2.291,2.374,2.974h1.139c0.057-0.19,0.114-0.38,0.173-0.57
		c0.275,0.167,0.887,0.375,1.594,0.57h16.235c0.071-0.029,0.11-0.057,0.107-0.08c-0.022-0.16-2.11-0.075-4.789-0.393
		c-2.68-0.285-5.935-0.878-8.323-1.364c-1.235-0.234-3.558-0.578-4.248-0.478c0.159-0.468,0.322-0.934,0.489-1.4
		c0.557,0.45,2.902,1.279,4.212,1.508c2.511,0.511,5.993,0.861,8.833,0.755c2.846-0.083,4.998-0.584,4.97-0.74
		c-0.025-0.174-2.188,0.021-4.965-0.115c-2.778-0.112-6.153-0.587-8.607-1.086c-1.269-0.221-3.629-0.641-4.35-0.581
		c0.152-0.421,0.302-0.844,0.461-1.263c0.389,0.389,2.959,1.142,4.335,1.364c2.504,0.434,5.944,0.842,8.776,0.87
		c2.835,0.066,5.017-0.371,4.984-0.543c-0.025-0.156-2.172-0.03-4.941-0.311c-2.767-0.243-6.139-0.777-8.616-1.207
		c-1.331-0.214-3.879-0.513-4.466-0.354c0.164-0.43,0.334-0.857,0.506-1.285c0.585,0.349,3.01,0.843,4.318,0.973
		c2.501,0.263,5.914,0.495,8.71,0.502c2.798,0.031,4.965-0.256,4.947-0.431c-0.015-0.157-2.152-0.174-4.911-0.423
		c-2.759-0.224-6.135-0.59-8.623-0.85c-1.258-0.125-3.593-0.21-4.335-0.042c0.153-0.378,0.312-0.753,0.47-1.128
		c0.386,0.351,3.048,0.913,4.449,1.062c2.531,0.282,5.984,0.553,8.815,0.606c2.831,0.078,5.034-0.171,5.018-0.352
		c-0.014-0.153-2.176-0.207-4.969-0.502c-2.793-0.269-6.212-0.672-8.731-0.954c-1.345-0.143-3.907-0.247-4.504-0.042
		c0.16-0.378,0.316-0.757,0.483-1.132c0.424,0.358,2.991,0.95,4.353,1.122c2.491,0.327,5.892,0.663,8.684,0.773
		c2.791,0.137,4.975-0.074,4.958-0.262c-0.013-0.145-2.141-0.238-4.891-0.59c-1.066-0.126-2.225-0.274-3.389-0.426
		c1.355,0.119,2.722,0.201,3.969,0.216c2.813,0.063,4.982-0.244,4.967-0.409c-0.012-0.168-2.163-0.166-4.92-0.445
		c-2.759-0.253-6.121-0.741-8.591-1.138c-1.349-0.2-3.949-0.469-4.475-0.285c0.193-0.414,0.39-0.826,0.59-1.237
		c0.458,0.382,2.858,1.052,4.153,1.255c2.408,0.401,5.708,0.793,8.419,0.903c2.713,0.13,4.819-0.076,4.81-0.245
		c-0.007-0.165-2.082-0.262-4.74-0.607c-2.66-0.325-5.906-0.846-8.295-1.244c-1.234-0.194-3.557-0.426-4.235-0.288
		c0.195-0.396,0.388-0.792,0.59-1.185c0.388,0.37,2.884,1.017,4.213,1.191c2.423,0.344,5.741,0.644,8.459,0.665
		c2.721,0.044,4.821-0.232,4.808-0.399c-0.01-0.151-1.71-0.19-4.002-0.387c2.36,0.083,4.135-0.169,4.115-0.335
		c-0.018-0.154-2.018-0.175-4.59-0.537c-2.572-0.329-5.711-0.875-8.021-1.281c-1.38-0.23-4.171-0.513-4.288-0.208
		c0.209-0.386,0.412-0.774,0.628-1.157c0.174,0.365,2.701,1.156,4.027,1.397c2.31,0.441,5.48,0.893,8.091,1.048
		c2.613,0.177,4.648-0.007,4.64-0.178c-0.006-0.163-2.001-0.281-4.552-0.672c-2.553-0.369-5.665-0.948-7.955-1.385
		c-1.262-0.23-3.717-0.521-4.182-0.328c0.198-0.35,0.401-0.698,0.605-1.045c0.52,0.411,2.679,1.136,3.873,1.375
		c2.294,0.487,5.451,0.975,8.058,1.122c2.607,0.173,4.634-0.067,4.621-0.236c-0.009-0.165-1.998-0.229-4.536-0.615
		c-2.014-0.286-4.368-0.73-6.39-1.142c2.116,0.392,4.693,0.741,6.879,0.842c2.573,0.147,4.569-0.107,4.555-0.274
		c-0.01-0.166-1.972-0.217-4.477-0.577c-2.507-0.334-5.556-0.92-7.792-1.386c-1.159-0.226-3.346-0.541-3.992-0.43
		c0.183-0.297,0.376-0.588,0.564-0.882c-0.011,0.34,2.557,0.998,3.866,1.158c2.192,0.286,5.191,0.543,7.651,0.553
		c2.463,0.035,4.369-0.264,4.348-0.437c-0.018-0.159-1.892-0.165-4.305-0.416c-0.491-0.046-1.008-0.1-1.533-0.158
		c3.574,0.257,6.914,0.299,6.92,0.031c0.001-0.201-4.671-0.76-8.858-1.328c1.608,0.148,3.323,0.24,4.837,0.219
		c2.474-0.009,4.372-0.393,4.344-0.562c-0.023-0.162-1.9-0.085-4.316-0.292c-0.945-0.072-1.972-0.176-3.001-0.295
		c1.178,0.077,2.37,0.115,3.454,0.088c2.408-0.032,4.249-0.404,4.226-0.565c-0.02-0.162-1.7-0.112-3.901-0.269
		c0.019,0,0.039,0.001,0.058,0.001c2.347,0.038,4.149-0.384,4.11-0.558c-0.03-0.154-1.793-0.043-4.069-0.296
		c-2.276-0.216-5.049-0.674-7.088-1.032c-1.136-0.185-3.358-0.407-3.745-0.191c0.24-0.318,0.487-0.629,0.732-0.942
		c0.245,0.343,2.469,0.849,3.632,0.947c2.065,0.193,4.889,0.303,7.196,0.159c2.311-0.116,4.069-0.573,4.031-0.742
		c-0.032-0.158-1.778-0.01-4.043-0.112c-2.264-0.075-5.034-0.319-7.075-0.509c-1.05-0.088-3.018-0.121-3.596,0.071
		c0.548-0.695,1.108-1.38,1.684-2.051c-0.009,0.013-0.02,0.025-0.021,0.039c-0.027,0.34,2.345,0.759,3.536,0.795
		c1.977,0.076,4.671,0.047,6.864-0.181c2.199-0.201,3.863-0.698,3.818-0.867c-0.036-0.145-1.511,0.01-3.487,0.013
		c1.994-0.272,3.467-0.751,3.43-0.905c-0.036-0.167-1.606,0.026-3.631,0.073c-2.025,0.061-4.504-0.036-6.324-0.171
		c-0.955-0.05-2.761-0.061-3.245,0.142c0.276-0.306,0.547-0.617,0.828-0.917c0.256,0.339,2.435,0.714,3.569,0.695
		c2.014,0.018,4.755-0.223,6.939-0.707c2.191-0.469,3.789-1.154,3.736-1.307c-0.053-0.164-1.711,0.221-3.877,0.463
		c-2.165,0.26-4.832,0.359-6.795,0.342c-0.959,0.016-2.711,0.093-3.354,0.287c0.256-0.271,0.52-0.535,0.781-0.8
		c0.128,0.317,2.446,0.384,3.603,0.268c1.968-0.187,4.634-0.539,6.793-0.967c2.162-0.402,3.802-0.994,3.737-1.177
		c-0.049-0.133-1.689,0.147-3.862,0.331c-0.145,0.014-0.297,0.028-0.447,0.042c0.471-0.084,0.933-0.172,1.371-0.265
		c2.118-0.431,3.709-0.999,3.661-1.163c-0.045-0.157-1.672,0.108-3.794,0.319c-0.698,0.075-1.45,0.148-2.211,0.22
		c3.35-0.596,6.86-1.505,6.772-1.831c-0.018-0.056-0.518-0.025-1.296,0.054c1.262-0.366,2.091-0.732,2.05-0.855
		c-0.05-0.153-1.593,0.144-3.618,0.377c-2.019,0.25-4.504,0.499-6.334,0.699c-0.823,0.095-2.258,0.384-2.915,0.66
		c0.311-0.267,0.622-0.533,0.938-0.793c0.12,0.311,2.367,0.14,3.468-0.074c3.712-0.727,10.028-2.215,9.973-2.527
		c-0.041-0.225-2.772,0.102-5.697,0.558c3.537-0.944,7.482-2.128,7.421-2.383c-0.042-0.171-1.904,0.117-4.206,0.562
		c2.735-0.923,5.144-1.826,5.085-2.023c-0.052-0.173-1.99,0.232-4.351,0.815C830.864,101.545,832.994,100.559,832.925,100.373z
		 M795.34,140.748c0.129-0.402,0.266-0.802,0.4-1.202c0.537,0.417,2.832,1.169,4.097,1.408c0.283,0.057,0.58,0.115,0.885,0.171
		c-0.361-0.051-0.712-0.101-1.045-0.148C798.424,140.809,796.099,140.619,795.34,140.748z M795.846,137.593
		c-0.14,0.375-0.282,0.75-0.417,1.127c-0.274-0.879-1.031-2.516-1.49-3.473C794.545,136.215,795.416,137.316,795.846,137.593z
		 M796.989,134.691c-0.125,0.3-0.247,0.601-0.369,0.903c-0.121-0.45-0.342-1.069-0.584-1.691
		C796.414,134.295,796.765,134.594,796.989,134.691z M798.163,131.988c-0.127,0.277-0.245,0.557-0.368,0.835
		c-0.129-0.457-0.373-1.105-0.63-1.746C797.558,131.533,797.934,131.888,798.163,131.988z M799.179,130.896
		c0.252,0.31,2.084,0.868,3.508,1.172c-1.353-0.143-3.424-0.245-4.01-0.082C798.839,131.621,799.01,131.259,799.179,130.896z
		 M799.484,129.26c-0.17,0.336-0.339,0.672-0.504,1.011c-0.202-0.732-0.752-2.103-1.032-3.001
		C798.441,128.101,799.1,128.978,799.484,129.26z M809.206,119.038c-1.223-0.13-2.799-0.228-3.081-0.042
		c0.238-0.329,0.472-0.66,0.716-0.985C806.829,118.257,808.055,118.721,809.206,119.038z M808.546,120.068
		c-1.217-0.123-2.791-0.206-3.165-0.04c0.229-0.329,0.467-0.65,0.702-0.975C806.045,119.301,807.339,119.764,808.546,120.068z
		 M802.695,124.215c0.167-0.282,0.339-0.561,0.51-0.84c0.322,0.34,2.039,0.956,3.301,1.276
		C805.352,124.428,803.41,124.146,802.695,124.215z M801.23,126.818c-0.047,0.279,1.83,0.889,3.272,1.223
		c-1.31-0.149-3.289-0.287-3.859-0.14C800.832,127.536,801.034,127.179,801.23,126.818z M801.536,125.469
		c-0.126,0.218-0.25,0.437-0.375,0.656c-0.104-0.526-0.35-1.303-0.587-1.978C800.917,124.748,801.291,125.287,801.536,125.469z
		 M802.253,124.266c-0.16,0.265-0.318,0.531-0.475,0.797c-0.059-0.487-0.272-1.267-0.487-1.952
		C801.649,123.665,802.025,124.143,802.253,124.266z M802.947,123.144c-0.166,0.262-0.333,0.523-0.495,0.787
		c-0.05-0.475-0.314-1.328-0.575-2.046C802.26,122.463,802.684,122.987,802.947,123.144z M802.592,120.915
		c0.369,0.528,0.777,1.005,1.039,1.163c-0.155,0.236-0.305,0.475-0.457,0.713C803.103,122.337,802.845,121.576,802.592,120.915z
		 M804.314,121.064c-0.146,0.214-0.298,0.424-0.441,0.64c-0.079-0.444-0.332-1.155-0.577-1.767
		C803.671,120.498,804.079,120.979,804.314,121.064z M804.535,121.289c0.246,0.255,1.508,0.628,2.668,0.882
		c-1.273-0.109-2.977-0.158-3.263,0.049C804.139,121.91,804.332,121.596,804.535,121.289z M805.305,120.143
		c0.09,0.262,1.457,0.707,2.68,0.99c-1.189-0.116-2.782-0.185-3.313-0.046C804.882,120.771,805.089,120.454,805.305,120.143z
		 M805.828,118.933c-0.186,0.252-0.376,0.5-0.559,0.754c-0.019-0.469-0.22-1.296-0.421-1.974
		C805.187,118.271,805.575,118.778,805.828,118.933z M805.63,116.816c0.339,0.519,0.721,0.978,0.961,1.091
		c-0.175,0.228-0.342,0.461-0.514,0.691C806.035,118.164,805.831,117.442,805.63,116.816z M807.403,116.888
		c-0.199,0.248-0.399,0.494-0.594,0.745c-0.021-0.47-0.311-1.405-0.55-2.087C806.642,116.188,807.134,116.812,807.403,116.888z
		 M810.09,113.749c-0.225,0.246-0.453,0.49-0.675,0.74c0-0.405-0.213-1.212-0.398-1.88
		C809.393,113.209,809.85,113.73,810.09,113.749z M811.543,114.404c-0.93,0.046-1.854,0.151-2.059,0.325
		c0.263-0.306,0.532-0.605,0.801-0.906C810.305,113.999,810.856,114.22,811.543,114.404z M814.579,110.977
		c-0.83,0.145-1.719,0.351-2.13,0.546c0.269-0.27,0.539-0.539,0.813-0.804C813.417,110.848,813.945,110.933,814.579,110.977z
		 M815.683,109.892c-0.743,0.121-1.563,0.297-2.047,0.474c0.255-0.243,0.508-0.488,0.768-0.726
		C814.498,109.782,815.03,109.862,815.683,109.892z M815.93,108.962c-0.461,0.112-0.888,0.238-1.176,0.359
		c0.214-0.192,0.434-0.377,0.65-0.567C815.442,108.844,815.638,108.912,815.93,108.962z M816.623,107.608
		c-0.392,0.314-0.777,0.638-1.161,0.962c0.235-0.392,0.393-1.779,0.469-2.518c0.006-0.097,0.014-0.201,0.021-0.303
		C816.042,106.653,816.345,107.663,816.623,107.608z M818.096,106.576c0.024,0.098,0.259,0.139,0.605,0.142
		c-0.565,0.167-1.126,0.364-1.52,0.549c0.307-0.246,0.61-0.498,0.923-0.738C818.099,106.545,818.092,106.561,818.096,106.576z
		 M819.207,105.88c-0.214,0.089-0.412,0.177-0.579,0.262c0.162-0.121,0.326-0.238,0.489-0.357c0,0.008-0.005,0.017-0.003,0.024
		C819.123,105.84,819.159,105.862,819.207,105.88z M820.424,104.711c-0.317,0.203-0.541,0.384-0.582,0.504
		c-0.031,0.021-0.06,0.044-0.091,0.065c-0.111,0.06-0.211,0.118-0.298,0.173c0.216-0.316,0.474-0.874,0.69-1.391
		C820.17,104.435,820.297,104.706,820.424,104.711z M821.205,104.263c-0.238,0.126-0.463,0.252-0.661,0.374
		c0.111-0.135,0.227-0.429,0.438-0.787c0.029-0.051,0.062-0.106,0.093-0.159c-0.046,0.298-0.022,0.513,0.109,0.548
		c0.005,0.001,0.015-0.007,0.021-0.007C821.204,104.242,821.201,104.254,821.205,104.263z"/>
	<path fill="#CCA770" d="M791.262,141.523c0.02,0.026,0.046,0.056,0.067,0.083h-2.677c-1.009-1.475-1.983-3.162-2.659-4.711
		c-1.038-2.3-1.477-4.205-1.329-4.251c0.153-0.052,0.761,1.406,1.767,3.27c-0.066-0.162-0.136-0.326-0.195-0.486
		c-0.927-2.402-1.19-4.377-1.046-4.408c0.179-0.046,0.735,1.832,1.83,4.067C788.082,137.338,789.78,139.867,791.262,141.523z"/>
	<path fill="#CCA770" d="M792.093,139.667c0.312,0.52,0.774,1.254,1.186,1.939h-1.25c-0.378-0.447-0.723-0.904-0.95-1.282
		c-1.331-2.026-2.776-4.996-3.612-7.535c-0.863-2.531-1.189-4.576-1.039-4.611c0.174-0.045,0.79,1.905,1.836,4.303
		C789.286,134.891,790.807,137.707,792.093,139.667z"/>
</g>
<path fill="#CCA770" d="M950.507,115.858c1.97-1.158,5.554-4.069,5.198-4.588c-0.331-0.483-4.391,1.563-6.33,2.704
	c-3.2,1.938-7.576,4.521-11.247,6.439c-3.652,1.956-6.629,3.169-6.542,3.46c0.082,0.292,3.302-0.42,7.199-2.051
	C942.694,120.232,947.265,117.822,950.507,115.858z"/>
<path fill="#CCA770" d="M928.969,100.748c1.064,1.183,3.075,3.675,3.565,3.487c0.646-0.268-0.688-3.569-1.858-4.872
	c-1.782-2.257-4.79-4.786-7.543-6.291c-2.739-1.544-5.08-2.188-5.187-1.93c-0.133,0.298,1.948,1.436,4.34,3.234
	C924.706,96.142,927.327,98.669,928.969,100.748z"/>
<g>
	<path fill="#CCA770" d="M997.4,141.568c-0.071,0.075-0.139,0.148-0.215,0.225h-2.552c1.035-0.638,2.039-1.213,2.768-1.554
		L997.4,141.568L997.4,141.568z"/>
	<path fill="#CCA770" d="M997.4,118.83c-0.07-0.651-0.148-1.289-0.234-1.907c-0.588-4.743-1.692-8.306-1.395-8.418
		c0.344,0.988,0.632,1.991,0.914,2.994c-0.273-1.006-0.574-2.005-0.914-2.994c0.167-0.072,0.876,1.252,1.629,3.428V118.83z"/>
	<path fill="#CCA770" d="M995.964,114.563c-1.09-4.828-2.784-8.299-3.051-8.18c0.351,0.989,0.664,1.989,0.95,2.994
		c-0.296-1.003-0.596-2.006-0.95-2.994c-0.292,0.117,0.851,3.695,1.524,8.473c0.351,2.247,0.607,4.747,0.789,7.219
		c-0.302-2.647-0.768-5.367-1.397-7.746c-1.114-4.393-2.651-7.559-2.916-7.45c-0.299,0.111,0.697,3.413,1.395,7.769
		c0.744,4.349,1.107,9.739,1.118,13.707c0.061,1.784,0.163,4.929,0.437,6.429c-0.5-0.44-0.997-0.884-1.503-1.318
		c0.462-1.284,0.744-5.129,0.594-7.23c-0.22-4.231-0.942-9.971-2.105-14.544c-1.101-4.595-2.71-7.914-2.981-7.797
		c0.323,0.923,0.615,1.853,0.885,2.79c-0.279-0.934-0.559-1.868-0.885-2.79c-0.233,0.092,0.405,2.344,1.023,5.586
		c-1.171-3.059-2.347-5.086-2.555-4.99c-0.304,0.126,0.827,3.253,1.765,7.381c0.976,4.123,1.562,9.258,1.474,13.024
		c0.073,1.785-0.067,4.96,0.091,6.314c-0.518-0.424-1.045-0.839-1.569-1.256c0.497-1.259,0.846-5.012,0.667-7.067
		c-0.232-4.156-1.167-9.771-2.609-14.162c-1.404-4.411-3.221-7.514-3.478-7.382c0.38,0.865,0.732,1.739,1.06,2.622
		c-0.337-0.88-0.675-1.759-1.06-2.622c-0.221,0.103,0.482,2.055,1.265,4.932c-1.26-3.007-2.5-4.984-2.704-4.882
		c-0.299,0.138,0.926,3.207,1.981,7.28c1.098,4.065,1.841,9.15,1.903,12.898c0.137,1.805,0.142,5.065,0.383,6.355
		c-0.517-0.394-1.042-0.779-1.566-1.167c0.576-1.096,0.946-4.816,0.543-6.789c-0.52-3.941-2.198-9.059-4.126-12.932
		c-0.171-0.352-0.341-0.682-0.511-1.013c-0.023-0.068-0.045-0.141-0.068-0.209c-1.346-3.96-2.974-6.761-3.229-6.64
		c-0.144,0.065,0.046,0.813,0.383,2.011c-0.333-0.431-0.573-0.675-0.646-0.632c-0.23,0.13,0.684,2.134,1.827,4.995
		c0.057,0.233,0.116,0.457,0.172,0.698c0.978,3.946,1.655,8.868,1.859,12.504c0.157,1.598,0.384,4.383,0.706,5.785
		c-0.509-0.356-1.013-0.718-1.527-1.067c0.517-0.819,0.763-4.595,0.506-6.575c-0.367-3.702-1.414-8.687-2.888-12.554
		c-1.434-3.889-3.22-6.573-3.472-6.427c-0.278,0.148,0.98,3.021,1.993,6.899c1.052,3.867,1.826,8.719,2.183,12.312
		c0.219,1.69,0.656,4.724,1.104,5.959c-0.554-0.372-1.117-0.732-1.677-1.096c0.419-1.113,0.597-4.266,0.393-5.985
		c-0.329-3.503-1.21-8.237-2.489-11.945c-1.228-3.734-2.865-6.332-3.124-6.191c0.327,0.719,0.63,1.447,0.911,2.183
		c-0.29-0.732-0.58-1.465-0.911-2.183c-0.277,0.142,0.82,2.897,1.628,6.612c0.343,1.471,0.645,3.087,0.906,4.715
		c-0.438-1.956-0.98-3.932-1.604-5.671c-1.211-3.54-2.766-6.013-3.027-5.874c-0.044,0.022-0.046,0.127-0.031,0.268
		c-0.408-0.734-0.736-1.148-0.85-1.086c0.298,0.711,0.563,1.431,0.806,2.158c-0.252-0.724-0.508-1.447-0.806-2.158
		c-0.265,0.135,0.637,2.688,1.196,6.138c0.095,0.539,0.184,1.104,0.269,1.677c-0.238-0.995-0.506-1.965-0.808-2.865
		c-1.079-3.396-2.608-5.728-2.863-5.583c0.297,0.648,0.57,1.304,0.821,1.967c-0.26-0.66-0.519-1.321-0.821-1.967
		c-0.279,0.143,0.706,2.628,1.362,5.982c0.015,0.071,0.028,0.147,0.043,0.218c-0.096-0.316-0.191-0.631-0.296-0.933
		c-1.057-3.246-2.702-5.383-2.946-5.208c0.347,0.644,0.653,1.303,0.932,1.97c-0.289-0.665-0.585-1.327-0.932-1.97
		c-0.262,0.16,0.825,2.446,1.449,5.622c0.302,1.385,0.532,2.926,0.709,4.466c-0.418-2.118-1.017-4.314-1.774-6.18
		c-1.249-3.201-2.861-5.337-3.108-5.18c-0.271,0.159,0.814,2.493,1.632,5.666c0.863,3.16,1.428,7.135,1.66,10.078
		c0.161,1.421,0.52,4.015,0.95,4.981c-0.511-0.267-1.018-0.54-1.532-0.8c0.449-0.756,0.55-3.743,0.308-5.307
		c-0.405-2.974-1.294-6.989-2.554-10.113c-1.206-3.16-2.907-5.235-3.155-5.041c-0.241,0.17,0.901,2.396,1.679,5.527
		c0.115,0.429,0.226,0.875,0.333,1.329c-0.307-0.907-0.647-1.785-1.02-2.592c-1.351-3.045-3.052-5.012-3.287-4.84
		c-0.235,0.157,0.685,1.933,1.537,4.472c-1.258-2.859-2.821-4.716-3.056-4.551c-0.265,0.171,0.799,2.275,1.628,5.15
		c0.118,0.39,0.23,0.796,0.338,1.21c-0.262-0.806-0.554-1.586-0.878-2.306c-1.201-2.836-2.862-4.609-3.088-4.424
		c0.341,0.528,0.653,1.07,0.94,1.623c-0.297-0.549-0.595-1.097-0.94-1.623c-0.254,0.186,0.867,2.163,1.629,4.954
		c0.82,2.77,1.343,6.287,1.598,8.893c0.164,1.274,0.578,3.59,1.037,4.407c-0.603-0.258-1.205-0.516-1.812-0.764
		c0.482-0.689,0.671-3.431,0.408-4.868c-0.393-2.742-1.457-6.406-2.913-9.135c-1.421-2.754-3.124-4.47-3.346-4.285
		c-0.251,0.191,0.945,2.163,1.926,4.914c0.854,2.291,1.526,5.111,1.944,7.499c-0.003-0.015-0.005-0.031-0.009-0.046
		c-0.456-2.791-1.783-6.435-3.419-9.074c-1.596-2.67-3.313-4.354-3.533-4.178c-0.215,0.162,0.612,1.571,1.567,3.597
		c-0.071-0.111-0.138-0.229-0.21-0.336c-1.698-2.622-3.508-4.217-3.716-4.034c-0.254,0.209,1.098,2.126,2.361,4.794
		c1.306,2.65,2.36,6.083,2.747,8.666c0.295,1.339,0.708,3.899,1.155,4.575c-0.732-0.259-1.46-0.528-2.197-0.772
		c0.635-0.126,0.827-3.336,0.423-4.903c-0.543-2.657-1.941-6.139-3.705-8.582c-1.731-2.477-3.618-3.869-3.808-3.66
		c-0.227,0.227,1.201,1.957,2.48,4.466c1.322,2.491,2.378,5.769,2.886,8.242c0.351,1.358,1.026,3.997,1.562,4.383
		c-0.753-0.248-1.513-0.469-2.271-0.7c0.376-0.748,0.174-3.473-0.284-4.854c-0.772-2.641-2.304-6.12-4.146-8.601
		c-1.799-2.528-3.819-3.894-3.996-3.663c0.452,0.441,0.878,0.903,1.282,1.381c-0.412-0.472-0.825-0.943-1.282-1.381
		c-0.211,0.237,1.334,1.925,2.683,4.495c1.404,2.535,2.617,5.886,3.354,8.403c0.379,1.14,1.122,3.154,1.704,4.01
		c-0.653-0.195-1.308-0.384-1.964-0.566c0.599-0.208,0.315-3.314-0.242-4.772c-0.843-2.476-2.463-5.697-4.305-7.966
		c-1.808-2.307-3.714-3.575-3.898-3.349c-0.208,0.235,1.246,1.849,2.619,4.229c1.414,2.356,2.711,5.467,3.51,7.81
		c0.465,1.211,1.439,3.486,2.051,3.978c-0.79-0.217-1.58-0.432-2.375-0.63c0.445-0.536-0.116-3.605-0.814-5.066
		c-1.125-2.625-3.19-5.984-5.416-8.271c-2.196-2.328-4.393-3.509-4.55-3.267c-0.187,0.256,1.596,1.829,3.361,4.265
		c1.802,2.408,3.525,5.669,4.594,8.158c0.572,1.195,1.657,3.358,2.334,4.052c-0.66-0.161-1.327-0.295-1.99-0.443
		c0.601-0.272-0.387-3.483-1.308-4.866c-1.425-2.362-3.832-5.258-6.119-7.254c-2.266-2.023-4.306-3.195-4.479-2.967
		c-0.196,0.252,1.472,1.838,3.373,4.057c0.491,0.561,0.992,1.166,1.488,1.794c-1.15-1.23-2.43-2.383-3.679-3.279
		c-2.462-1.816-4.648-2.714-4.785-2.47c-0.167,0.278,1.696,1.633,3.785,3.658c2.118,1.998,4.342,4.746,5.684,6.941
		c0.82,1.17,2.303,3.49,2.928,3.735c-1.829-0.348-3.67-0.638-5.519-0.881c-0.005-0.003-0.011-0.005-0.016-0.008
		c0.482-0.43-1.334-3.236-2.58-4.321c-1.995-1.894-5.047-4.089-7.77-5.436c-2.709-1.381-4.982-1.993-5.086-1.729
		c-0.125,0.296,1.891,1.402,4.293,3.065c1.2,0.809,2.478,1.775,3.693,2.762c-5.017-2.518-12.399-3.96-12.517-3.437
		c-0.099,0.325,2.684,1.375,5.903,2.731c-4.366-1.106-8.672-1.508-8.723-1.079c-0.087,0.493,7.046,2.248,11.925,4.332
		c-5.45-1.369-14.619-3.193-14.767-2.613c-0.078,0.309,2.426,1.239,5.599,2.251c-3.289-0.254-5.922-0.332-5.966-0.017
		c-0.047,0.339,2.934,1.061,6.535,1.764c-4.149,0.178-7.765,0.48-7.767,0.845c-0.002,0.318,2.756,0.618,6.215,0.837
		c-3.514,0.479-6.244,0.974-6.22,1.28c0.026,0.331,3.287,0.371,7.256,0.258c-3.804,0.687-6.728,1.338-6.69,1.637
		c0.047,0.358,4.307,0.133,9.212-0.293c-4.289,1.067-7.749,2.063-7.685,2.384c0.073,0.368,4.712-0.227,9.892-1.066
		c-4.078,1.241-7.315,2.358-7.237,2.669c0.118,0.461,7.465-0.985,13.951-2.472c-5.088,1.752-9.755,3.546-9.631,3.942
		c0.175,0.548,11.591-2.425,18.174-4.408c1.952-0.591,5.708-2.224,5.637-2.825c0.73,0.149,1.456,0.313,2.182,0.478
		c-1.291,0.114-3.842,0.868-5.246,1.414c-3.11,1.233-7.317,2.942-10.774,4.255c-3.451,1.345-6.184,2.177-6.135,2.466
		c0.037,0.232,1.682,0.116,4.02-0.367c-1.318,0.533-2.148,0.908-2.129,1.014c0.135,0.6,6.549-0.92,12.44-2.808
		c-1.285,0.531-2.556,1.051-3.741,1.524c-3.589,1.464-6.431,2.42-6.369,2.709c0.063,0.305,3.101-0.133,6.871-1.24
		c0.783-0.223,1.6-0.475,2.428-0.739c-0.252,0.104-0.508,0.211-0.753,0.312c-3.648,1.549-6.523,2.492-6.488,2.747
		c0.051,0.348,3.19-0.092,7.006-1.282c3.834-1.145,8.417-2.844,11.739-4.214c1.959-0.797,5.627-2.872,5.564-3.491
		c0.646,0.205,1.293,0.406,1.935,0.623c-1.198,0.234-4.079,1.597-5.634,2.386c-3.142,1.694-7.513,3.8-11.213,5.221
		c-3.687,1.45-6.679,2.241-6.624,2.548c0.045,0.289,3.195,0.034,7.115-1.073c3.92-1.075,8.531-3.016,11.753-4.756
		c1.838-0.933,5.023-3.386,5.147-4.148c0.708,0.244,1.407,0.512,2.11,0.771c-0.951,0.085-3.844,1.636-5.336,2.527
		c-2.81,1.763-6.712,4.024-10.019,5.645c-3.295,1.645-5.982,2.666-5.898,2.966c0.072,0.279,2.846-0.202,6.282-1.458
		c-3.178,1.673-5.68,2.676-5.615,2.94c0.072,0.311,3.168-0.304,6.873-1.848c3.72-1.496,8.074-3.738,11.187-5.539
		c1.883-1.069,5.341-3.757,5.008-4.28c-0.013-0.021-0.041-0.031-0.066-0.044c1.496,0.589,2.977,1.215,4.448,1.866
		c-1.093,0.182-4.228,1.908-5.841,2.94c-3.119,2.039-7.365,4.782-10.939,6.826c-3.554,2.088-6.485,3.333-6.403,3.614
		c0.084,0.305,3.296-0.455,7.11-2.23c3.831-1.728,8.275-4.304,11.431-6.367c1.787-1.144,4.931-3.846,5.034-4.606
		c0.66,0.295,1.323,0.585,1.978,0.893c-0.805-0.017-4.188,2.226-5.857,3.488c-2.973,2.306-7.042,5.397-10.516,7.678
		c-3.444,2.338-6.372,3.656-6.288,3.93c0.629-0.23,1.243-0.489,1.857-0.75c-0.611,0.267-1.228,0.521-1.857,0.75
		c0.085,0.312,3.34-0.541,7.08-2.594c0.031-0.016,0.062-0.035,0.093-0.051c-3.405,2.121-6.148,3.467-6.042,3.744
		c0.1,0.279,3.374-0.687,7.272-2.681c1.765-0.877,3.648-1.95,5.476-3.075c-1.554,1.066-3.115,2.105-4.573,3.023
		c-3.708,2.385-6.79,3.856-6.69,4.135c0.099,0.295,3.475-0.699,7.46-2.785c2.45-1.252,5.13-2.857,7.588-4.46
		c-6.246,4.468-13.282,9.335-13.109,9.657c0.238,0.424,5.571-2.479,11.097-5.927c-0.795,0.538-1.58,1.064-2.331,1.555
		c-3.666,2.455-6.673,4.055-6.567,4.326c0.113,0.297,3.431-0.841,7.36-2.989c3.946-2.106,8.548-5.065,11.828-7.387
		c1.969-1.37,5.537-4.608,5.231-5.145c0.552,0.313,1.109,0.617,1.656,0.938c-1.134,0.371-4.381,2.735-6.052,4.082
		c-3.199,2.649-7.602,6.179-11.348,8.845c-3.721,2.706-6.832,4.454-6.706,4.73c0.119,0.28,3.543-1.006,7.554-3.428
		c3.428-2.019,7.272-4.769,10.341-7.195c-2.9,2.379-6.306,5.092-9.3,7.261c-3.751,2.775-6.892,4.568-6.768,4.841
		c0.122,0.283,3.582-1.054,7.627-3.545c4.064-2.45,8.726-5.916,11.998-8.646c1.716-1.397,4.569-4.396,5.057-5.498
		c0.623,0.384,1.244,0.771,1.86,1.165c-0.912,0.084-4.61,2.637-6.443,4.078c-3.309,2.648-7.82,6.22-11.61,8.982
		c-3.769,2.795-6.875,4.679-6.746,4.946c0.133,0.282,3.559-1.15,7.609-3.653c4.066-2.467,8.777-5.885,12.115-8.556
		c1.926-1.513,5.317-4.931,5.286-5.665c1.305,0.839,2.599,1.696,3.873,2.579c-1.04,0.248-4.104,2.151-6.084,3.503
		c2.041-1.767,4.551-4.354,4.219-4.749c-0.381-0.453-4.69,2.414-6.731,3.969c-3.368,2.614-7.95,6.157-11.805,8.871
		c-3.827,2.767-7.024,4.499-6.922,4.762c0.687-0.314,1.36-0.653,2.032-0.994c-0.67,0.346-1.345,0.681-2.032,0.994
		c0.108,0.284,3.176-0.818,6.899-2.956c-3.517,2.263-6.216,3.769-6.104,4.02c0.12,0.278,3.73-1.061,8.067-3.443
		c4.352-2.342,9.428-5.643,13.031-8.253c1.989-1.409,5.452-4.567,5.76-5.492c0.659,0.459,1.305,0.933,1.955,1.403
		c-1.206,0.354-4.743,2.699-6.561,4.059c-3.501,2.667-8.276,6.26-12.276,9.043c-1.812,1.28-3.468,2.372-4.728,3.211h2.109
		c1.05-0.535,2.221-1.172,3.455-1.9c4.266-2.479,9.236-5.911,12.766-8.601c1.908-1.426,5.197-4.54,5.609-5.543
		c0.672,0.49,1.337,0.986,2,1.487c-1.001,0.151-4.951,2.792-6.95,4.259c-3.632,2.736-8.622,6.375-12.842,9.124
		c-0.624,0.415-1.228,0.805-1.809,1.175h2.889c1.911-1.052,3.935-2.282,5.915-3.561c-1.74,1.233-3.476,2.454-5.083,3.561h3.039
		c3.84-2.334,7.974-5.092,11.092-7.301c2.042-1.433,5.665-4.565,6.043-5.5c0.586,0.462,1.159,0.939,1.737,1.41
		c-1.133,0.177-5.165,2.52-7.204,3.892c-3.181,2.164-7.292,4.992-11.044,7.5h3.409c3.164-1.912,6.34-3.962,8.868-5.681
		c2.125-1.43,5.928-4.594,6.25-5.485c0.574,0.469,1.148,0.937,1.714,1.414c-1.336,0.359-5.016,2.479-6.932,3.748
		c-2.607,1.746-5.848,3.929-9.002,6.004h3.669c2.366-1.439,4.647-2.899,6.552-4.177c1.993-1.32,5.47-4.173,6.115-5.231
		c0.638,0.541,1.275,1.084,1.904,1.636c-1.08,0.243-4.921,2.887-6.878,4.361c-1.347,1.041-2.883,2.211-4.498,3.411h3.616
		c0.784-0.574,1.529-1.134,2.22-1.668c2.024-1.525,5.515-4.918,5.81-5.873c0.612,0.539,1.211,1.091,1.814,1.639
		c-1.208,0.515-4.646,3.196-6.497,4.628c-0.502,0.411-1.037,0.838-1.593,1.274h3.504c1.903-1.618,4.49-4.474,4.958-5.565
		c0.663,0.606,1.322,1.217,1.974,1.835c-1.029,0.366-3.726,2.293-5.596,3.73h3.123c1.314-1.326,2.523-2.72,2.826-3.392
		c0.356,0.339,0.711,0.68,1.066,1.02v-1.429c-0.191-0.177-0.38-0.356-0.571-0.533c0.209-0.469,0.408-1.373,0.571-2.435v-11.51
		C997.103,120.482,996.628,117.32,995.964,114.563z M926.821,103.354c-0.422-0.027-0.891-0.04-1.38-0.039
		c-0.002-0.018-0.016-0.034-0.024-0.051c0.009-0.005,0.032,0,0.039-0.006c0.18-0.168,0.037-0.533-0.29-0.974
		c0.095,0.059,0.194,0.118,0.284,0.176C926.092,102.856,926.529,103.232,926.821,103.354z M929.265,103.74
		c-0.186-0.015-0.397-0.023-0.626-0.025c-0.067-0.008-0.134-0.019-0.201-0.027c-0.167-0.158-0.68-0.259-1.362-0.316
		c0.2-0.116,0.173-0.66-0.102-1.282C927.761,102.737,928.648,103.416,929.265,103.74z M931.177,104.147
		c-0.341,0.006-0.733,0.031-1.153,0.071c0.062-0.07,0.101-0.136,0.089-0.193c-0.003-0.014-0.018-0.024-0.025-0.037
		C930.451,104.041,930.815,104.09,931.177,104.147z M934.458,104.726c-0.791,0.037-1.859,0.197-2.909,0.408
		c0.554-0.298,0.898-0.563,0.853-0.742c-0.007-0.026-0.031-0.047-0.053-0.069C933.055,104.444,933.755,104.591,934.458,104.726z
		 M938.329,105.361c-0.893-0.197-1.786-0.389-2.684-0.561c0.495-0.148,0.124-2.028-0.499-3.557c0.098,0.157,0.2,0.317,0.291,0.468
		C936.186,102.837,937.619,104.931,938.329,105.361z M940.105,105.967c-0.567,0.049-1.36,0.21-2.196,0.421
		c0.426-0.327,0.683-0.604,0.669-0.78C939.088,105.729,939.599,105.839,940.105,105.967z M942.787,106.696
		c-0.928,0.126-2.395,0.54-3.692,0.977c1.025-0.603,1.811-1.183,1.842-1.492C941.556,106.343,942.171,106.523,942.787,106.696z
		 M945.678,107.549c-0.826,0.035-2.431,0.458-3.888,0.93c0.982-0.608,1.76-1.194,1.898-1.532
		C944.354,107.141,945.017,107.342,945.678,107.549z M953.075,109.74c-0.568-0.214-1.142-0.412-1.713-0.617
		c0.369-0.234,0.661-1.46,0.757-2.743C952.388,107.612,952.731,109.088,953.075,109.74z M953.168,110.182
		c-0.477-0.105-2.052,0.511-3.586,1.227c0.948-0.879,1.645-1.702,1.53-2.003C951.799,109.661,952.486,109.914,953.168,110.182z
		 M955.447,110.674c-0.607-0.244-1.215-0.486-1.825-0.719c0.487-0.603,0.731-3.095,0.502-4.625c0.061,0.361,0.116,0.711,0.165,1.046
		C954.513,107.599,954.982,109.789,955.447,110.674z M959.933,112.58c-0.527-0.237-1.058-0.464-1.588-0.693
		c0.367-0.351,0.629-1.771,0.699-3.128C959.239,110.057,959.568,111.807,959.933,112.58z M961.929,113.509
		c-0.472-0.223-0.939-0.457-1.413-0.674c0.29-0.385,0.515-1.448,0.618-2.57C961.344,111.443,961.628,112.777,961.929,113.509z
		 M962.19,114.189c-0.611-0.06-3.062,1.437-4.917,2.684c1.58-1.486,3.158-3.274,2.93-3.659
		C960.871,113.528,961.529,113.862,962.19,114.189z M964.153,114.574c-0.509-0.254-1.026-0.491-1.539-0.738
		c0.275-0.465,0.469-1.609,0.539-2.792C963.406,112.305,963.786,113.805,964.153,114.574z M964.262,115.217
		c-0.743,0.05-3.202,1.521-5.053,2.752c1.682-1.515,3.369-3.357,3.098-3.723C962.958,114.569,963.615,114.883,964.262,115.217z
		 M966.302,116.315c-0.972,0.227-3.475,1.692-5.286,2.888c1.726-1.493,3.545-3.369,3.467-3.867
		C965.093,115.654,965.696,115.987,966.302,116.315z M968.111,116.63c-0.414-0.225-0.836-0.434-1.253-0.654
		c0.303-0.337,0.551-1.456,0.68-2.676C967.664,114.492,967.861,115.85,968.111,116.63z M968.439,117.516
		c-0.637-0.088-3.332,1.437-5.287,2.693c1.649-1.393,3.361-3.066,3.54-3.683C967.28,116.846,967.857,117.186,968.439,117.516z
		 M970.156,117.783c-0.447-0.253-0.891-0.51-1.341-0.758c0.288-0.476,0.538-1.59,0.682-2.752
		C969.654,115.551,969.884,116.993,970.156,117.783z M970.601,118.747c0.513,0.304,1.026,0.607,1.534,0.918
		c-1.207,0.497-4.09,2.599-5.756,3.936C968.135,122.015,970.373,119.567,970.601,118.747z M972.284,119.002
		c-0.485-0.287-0.975-0.564-1.464-0.845c0.289-0.476,0.527-1.678,0.651-2.933C971.661,116.602,971.96,118.197,972.284,119.002z
		 M974.33,120.249c-0.479-0.295-0.959-0.589-1.441-0.878c0.263-0.39,0.461-1.478,0.567-2.674
		C973.691,117.981,974.011,119.416,974.33,120.249z M976.223,121.432c-0.386-0.247-0.771-0.494-1.159-0.737
		c0.239-0.501,0.382-1.685,0.424-2.942C975.679,119.041,975.943,120.499,976.223,121.432z M983.249,126.243
		c-0.552-0.404-1.11-0.801-1.668-1.196c0.377-0.779,0.693-2.748,0.778-4.503C982.673,122.224,982.953,124.895,983.249,126.243z
		 M985.193,128.743c-1.081,0.235-4.323,2.158-6.376,3.537c2.031-1.699,4.502-4.151,4.643-4.863
		C984.039,127.857,984.621,128.294,985.193,128.743z M987.321,129.338c-0.435-0.342-0.862-0.692-1.301-1.029
		c0.284-0.355,0.586-1.245,0.83-2.313C986.982,127.246,987.14,128.493,987.321,129.338z M991.561,132.796
		c-0.451-0.382-0.904-0.762-1.359-1.139c0.279-0.346,0.589-1.125,0.862-2.075C991.203,130.788,991.373,131.971,991.561,132.796z
		 M995.577,129.96c0.074,1.929,0.248,5.203,0.554,6.848c-0.537-0.491-1.083-0.973-1.628-1.457
		C994.961,134.541,995.426,132.031,995.577,129.96z"/>
</g>
</svg>
