<svg xmlns="http://www.w3.org/2000/svg" xmlns:xlink="http://www.w3.org/1999/xlink" version="1.1" x="0px" y="0px" width="560px" height="800px" viewBox="0 0 560 800" enable-background="new 0 0 560 800" xml:space="preserve"><style>.style0{fill:	#cca770;}</style><g><path d="M160.662 530.137c-1.039 0.05-1.129 11.4 1.3 25.653c2.323 14.3 6.9 31.4 11 43.8 c2.362 7.5 9.3 21.7 11.4 20.908c1.869-0.738-1.859-15.885-4.187-23.247c-4.028-12.191-9.31-28.809-12.91-42.561 C163.475 541 161.7 530.1 160.7 530.137z" class="style0"/><path d="M80.432 165.814c1.152 7.8 5.8 22.9 7.9 22.439c1.962-0.433 0.673-15.979-0.464-23.616 c-2.052-12.674-4.644-29.918-6.027-44.066c-1.529-14.137-1.558-25.165-2.598-25.263c-1.033-0.115-2.91 11.046-2.731 25.5 C76.562 135.3 78.4 153 80.4 165.814z" class="style0"/><path d="M125.285 333.942c-8.445 11.762-17.319 27.114-23.15 38.744c-3.607 6.965-8.698 21.966-6.717 22.8 c1.844 0.8 9.898-12.562 13.446-19.42c5.754-11.478 13.746-26.976 20.905-39.257c7.035-12.357 13.465-21.316 12.68-22.004 C141.678 314.1 133.6 322.1 125.3 333.942z" class="style0"/><path d="M385.573 667.937c-3.397 4.599-9.641 14.315-8.509 15.28c1.218 1 9.521-7.249 12.97-11.922 c5.822-7.675 13.122-18.588 18.177-28.043c5.154-9.416 7.805-17.366 7.089-17.649c-0.714-0.297-4.565 6.903-10.476 15.6 C399.004 650 391.3 660.4 385.6 667.937z" class="style0"/><path d="M35.207 473.635c0.451-0.7-5.115-5.047-12.614-11.942c9.133 6.4 16.3 9.8 16.7 9.2 c0.616-0.946-8.551-7.624-19.059-17.528C13.364 447 6.1 439.1 0 431.448v16.414c3.833 3.9 7.8 7.5 11.6 10.7 C23.753 468.8 34.7 474.5 35.2 473.635z" class="style0"/><path d="M57.29 288.413c15.84 1.2 28.051-0.588 27.96-1.574c-0.044-0.832-7.101-1.098-17.217-2.3 c11.158-0.147 18.97-1.564 18.91-2.343c-0.054-1.128-11.396-1.177-25.712-3.057c-14.346-1.735-31.482-5.908-43.485-10.529 c-4.833-1.538-12.639-4.606-17.745-6.166v4.929c0.461 0.3 0.9 0.7 1.4 1.037c-0.479-0.137-0.958-0.273-1.436-0.407v6.915 c3.172 1.5 6.4 2.8 8.9 3.589C22.396 283.1 41.5 287.4 57.3 288.413z" class="style0"/><path d="M31.54 452.851c1.143 0.7 2.3 1.4 3.4 2.051c0.181 0.1 0.4 0.3 0.5 0.4 c11.146 9 21 14.2 21.5 13.389c0.3-0.45-1.596-2.257-4.749-5.107c1.78 0.7 2.9 0.9 3 0.6 c0.433-0.799-5.885-4.937-14.476-11.194c-0.573-0.553-1.15-1.115-1.733-1.69c-10.05-9.676-21.011-22.735-28.247-32.925 C7.932 414.8 3.4 408.8 0 404.921v10.431c0.343 0.7 0.7 1.3 1 1.928c-0.337-0.365-0.69-0.756-1.049-1.159v11.282 C8.694 436.6 20.7 446.2 31.5 452.851z" class="style0"/><path d="M0 472.359c0.654 0.3 1.1 0.4 1.2 0.242c0.167-0.217-0.268-0.868-1.171-1.9V472.359z" class="style0"/><path d="M15.063 423.256c7.83 10.1 20 22.6 31.3 31.19c11.272 8.7 21.4 13.2 21.8 12.3 c0.537-0.938-8.368-6.985-18.394-16.399c-10.122-9.31-21.237-21.989-28.838-31.777c-3.709-4.488-10.494-12.479-14.064-15.28 c2.283 0.1 4.6 0.1 6.9 0.157c0.849 4 6.1 13.5 9.8 18.054c7.356 9.6 18.6 21.7 29.1 30.1 c10.391 8.6 19.9 13.2 20.4 12.276c0.546-0.919-7.675-6.917-16.81-16.233c-3.691-3.653-7.532-7.804-11.274-12.064 c4.854 4.9 10.1 9.6 15 13.567c9.986 8.1 19 12.4 19.5 11.534c0.086-0.142-0.05-0.415-0.339-0.786 c2.515 1.4 4.2 1.9 4.4 1.551c0.524-0.875-6.762-6.644-14.69-15.643c-1.263-1.394-2.551-2.862-3.846-4.372 c2.509 2.5 5.1 4.8 7.6 6.84c9.339 7.9 18 11.9 18.5 10.986c0.547-0.926-6.853-6.342-14.887-14.89 c-0.153-0.158-0.308-0.323-0.462-0.483c0.834 0.7 1.7 1.4 2.5 2.095c9.001 7.5 17.7 10.7 18.1 9.7 c0.468-0.945-6.866-5.599-14.482-13.684c-3.406-3.471-6.899-7.519-10.227-11.669c5.084 5.4 10.8 10.7 16.5 14.7 c9.479 7 18.1 10.3 18.5 9.368c0.496-0.957-6.92-5.756-15.096-13.477c-8.279-7.601-17.185-18.117-23.236-26.243 c-3.035-3.798-8.744-10.588-11.778-12.678c1.945-0.156 3.888-0.335 5.83-0.517c0.094 3 5.2 11.9 8.8 16 c6.609 7.9 16.5 17.9 25.9 24.71c9.277 7 18 9.9 18.4 8.879c0.391-0.934-6.995-5.313-14.977-12.989 c-1.109-1.026-2.235-2.107-3.367-3.222c2.54 2.1 5.1 4 7.7 5.633c9.486 6.4 18 9 18.4 8.1 c0.396-0.886-5.53-4.363-12.655-10.192c8.887 6 16.8 8.6 17.2 7.644c0.458-0.982-6.477-5.149-14.138-11.985 c-1.058-0.919-2.127-1.891-3.198-2.898c2.235 1.9 4.5 3.6 6.8 5.097c8.673 6 16.7 8.2 17.1 7.2 c0.398-1.003-6.47-4.698-13.785-11.413c-7.444-6.549-15.389-15.809-20.89-22.913c-2.751-3.338-8.078-9.219-10.947-10.885 c2.182-0.346 4.361-0.708 6.536-1.09c-0.113 2.9 4.3 11.2 7.7 14.865c6.152 7.2 15.9 15.9 25.2 21.2 c9.16 5.4 17.2 7.3 17.6 6.333c0.381-1.013-6.697-4.557-14.575-10.755c-6.846-5.231-14.17-12.442-19.811-18.734 c0.191 0.2 0.4 0.4 0.6 0.62c6.424 7.3 16.9 15.4 26.5 20.111c9.515 4.8 17.6 6.6 17.9 5.7 c0.327-0.861-4.586-3.404-11.023-7.516c0.375 0.2 0.8 0.4 1.1 0.523c9.725 4.5 17.9 5.8 18.2 4.9 c0.354-1.071-7.076-4.17-15.618-9.61c-8.636-5.311-17.97-13.358-23.814-20.152c-3.271-3.319-9.064-9.895-11.637-11.137 c2.554-0.574 5.102-1.17 7.642-1.796c-1.461 1.7 3.8 11.2 7.8 14.996c6.432 6.7 16.9 14.3 26.4 18.2 c9.554 4 17.6 4.6 17.8 3.674c0.245-1.075-7.065-3.492-15.365-8.44c-8.392-4.821-17.451-12.413-23.444-18.669 c-3.401-3.211-9.943-9.434-12.391-9.916c2.583-0.643 5.156-1.318 7.724-2.015c0.347 2.9 5.9 10.4 9.7 13.5 c7.07 6.3 17.9 13.6 27.8 17.409c9.844 4.1 18.2 4.3 18.3 3.339c0.179-1.072-7.392-3.155-16.007-8.153 c-8.71-4.8-18.359-12.316-25.096-18.281c-3.155-2.596-8.937-7.052-12.206-8.515c2.207-0.616 4.407-1.252 6.602-1.909 c-1.139 1.9 5.3 10.2 9.5 13.364c6.974 5.7 17.6 12 27.1 15.274c9.468 3.4 17.3 3.6 17.4 2.6 c0.174-1.062-6.997-3.094-15.334-7.5c-8.412-4.262-17.863-10.927-24.468-16.274c-3.527-2.641-10.401-7.391-13.135-7.79 c2.632-0.797 5.255-1.62 7.868-2.477c-0.086 2.5 7.1 10.3 11.7 13.181c8.064 5.6 20.2 11.6 30.8 14.1 c10.632 2.7 19.2 2.2 19.2 1.177c0.075-1.086-7.979-2.396-17.558-6.248c-9.634-3.7-20.599-10.025-28.25-15.302 c-3.791-2.393-10.814-6.665-14.111-7.527c2.152-0.719 4.296-1.462 6.435-2.223c-0.851 2.1 7.7 9.4 12.8 11.6 c8.456 4.3 20.7 8.3 31 9.891c10.28 1.7 18.3 1.4 18.4 0.434c0.108-1.089-7.634-2.648-17.212-5.623 c-2.449-0.731-5.008-1.574-7.594-2.489c5.586 1.5 11.4 2.5 16.7 2.799c10.47 0.8 18.46-0.609 18.414-1.571 c-0.021-1.114-7.91-1.644-17.678-3.71c-9.804-1.932-21.286-5.852-29.194-9.778c-4.397-1.85-12.619-5.72-15.147-5.534 c3.199-1.256 6.384-2.549 9.546-3.903c-0.036 0.029-0.092 0.047-0.118 0.082c-1.387 2 8.5 9.1 14.3 10.8 c9.299 3.3 22.7 5.2 33.4 4.49c10.776-0.519 18.755-2.928 18.593-3.872c-0.161-1.109-8.282-0.611-18.516-1.464 c-10.258-0.707-22.49-3.257-31.057-6.296c-4.763-1.354-13.728-4.396-16.17-3.882c2.516-1.081 5.018-2.195 7.508-3.339 c-0.361 2.2 9.9 6.9 15.4 7.768c9.255 1.9 22.1 2.7 32.5 1.594c10.393-0.94 18.114-3.315 17.935-4.271 c-0.179-1.089-8.054-0.618-18.07-1.06c-4.939-0.157-10.389-0.623-15.698-1.265c19.161-1.872 43.176-11.167 42.563-12.898 c-0.307-1.123-10.288 0.906-22.1 2.846c14.69-4.763 27.909-11.461 27.274-12.8c-0.648-1.593-24.598 6.357-42.578 9.2 c18.331-5.98 48.322-17.447 47.693-19.403c-0.338-1.039-9.288 0.822-20.351 3.68c10.012-5.27 17.781-9.847 17.334-10.839 c-0.482-1.071-10.453 2.276-22.194 6.813c11.728-8.097 21.666-15.579 21.005-16.64c-0.575-0.928-9.118 3.226-19.564 8.9 c9.325-7.807 16.34-14.225 15.712-15.07c-0.682-0.914-10.213 4.919-21.534 12.499c9.788-8.943 17.087-16.169 16.431-16.969 c-0.788-0.954-12.729 7.458-26.189 17.652c10.498-10.928 18.705-20.12 17.932-20.937c-0.885-0.933-13.254 9.254-26.759 21.1 c9.574-11.052 16.912-20.192 16.117-20.952c-1.184-1.122-19.854 16.468-35.967 32.624c11.564-14.37 21.814-28.077 20.731-29 c-1.509-1.272-29.24 28.223-44.74 46.014c-4.608 5.302-12.586 16.989-11.209 18.538c-2.443 0.918-4.894 1.811-7.356 2.7 c3.52-2.609 9.675-9.589 12.797-13.799c6.783-9.264 15.879-21.916 23.523-32.047c7.568-10.213 13.986-17.623 13.315-18.374 c-0.532-0.605-5.087 2.727-10.991 8.394c2.866-3.97 4.563-6.543 4.316-6.818c-1.489-1.495-17.346 14.639-31.009 30.9 c2.764-3.893 5.505-7.723 8.086-11.265c7.752-10.81 14.26-18.779 13.551-19.508c-0.739-0.771-8.766 6.054-17.696 16.2 c-1.855 2.065-3.756 4.261-5.666 6.527c0.533-0.752 1.062-1.496 1.583-2.227c7.767-11.166 14.396-19.157 13.829-19.835 c-0.786-0.918-9.099 6.095-18.01 16.525c-9.043 10.332-19.252 23.642-26.398 33.692c-4.263 5.935-11.213 18.828-9.771 20.4 c-2.261 0.586-4.527 1.149-6.799 1.692c3.045-2.839 8.949-12.102 12.032-17.25c6.031-10.66 14.879-24.766 23.033-35.654 c8.061-10.949 15.306-18.713 14.587-19.507c-0.659-0.759-9.344 5.741-18.708 16.117c-9.424 10.287-19.268 24.349-25.451 35.3 c-3.635 6.068-8.406 19.014-7.375 21.457c-2.546 0.595-5.1 1.159-7.658 1.702c2.55-1.755 8.257-11.781 11.006-17.181 c4.941-10.256 12.144-23.954 18.788-34.705c6.565-10.798 12.504-18.676 11.712-19.393c-0.719-0.681-7.915 5.788-15.612 15.7 c6.19-10.699 11.64-18.174 10.966-18.824c-0.777-0.774-8.648 6.673-16.589 17.928c-8.071 11.143-16.624 25.611-22.375 36.5 c-3.517 6.547-8.649 20.671-6.726 21.583c0.07 0 0.2 0 0.2 0.037c-5.422 1.022-10.867 1.927-16.33 2.7 c2.831-2.48 8.823-13.293 11.63-19.258c5.335-11.621 12.656-27.35 19.304-39.818c6.509-12.558 12.748-21.531 11.996-22.197 c-0.799-0.732-8.745 7.343-16.578 19.469c-7.97 12.02-16.173 27.624-21.57 39.382c-3.123 6.635-7.356 20.371-6.185 22.6 c-2.462 0.349-4.928 0.677-7.396 0.982c2.374-1.44 8.097-14.137 10.639-20.845c4.424-12.131 10.593-28.546 16.518-41.518 c5.731-13.084 11.827-22.264 11.086-22.907c-0.817-0.75-8.714 7.674-15.827 20.474c-0.075 0.131-0.15 0.268-0.226 0.4 c6.037-12.441 11.574-21.384 10.757-21.996c-0.8-0.628-8.547 8.162-16.227 21.076c-3.489 5.716-6.976 12.195-10.203 18.7 c2.538-5.866 5.145-11.666 7.676-16.937c6.415-13.704 12.68-23.608 11.878-24.236c-0.827-0.677-8.817 8.379-16.58 21.7 c-4.822 8.098-9.665 17.637-13.871 26.769c9.974-24.378 21.503-51.335 20.411-51.954c-1.47-0.799-11.683 17.434-21.447 37.6 c1.343-3.052 2.675-6.033 3.972-8.865c6.163-13.829 11.974-23.972 11.171-24.564c-0.871-0.656-8.429 8.711-15.917 22.1 c-7.615 13.329-15.575 30.333-20.862 43.071c-3.243 7.643-7.752 23.803-5.753 24.547c1.6 0.6 7.203-9.712 10.862-17.519 c-2.244 7.067-4.169 15.083-3.548 17.179c-4.632 0.287-9.268 0.502-13.906 0.641c2.61-3.103 7.748-15.975 10.147-22.96 c4.453-13.54 10.792-31.84 16.802-46.429c5.866-14.661 11.706-25.421 10.838-25.993c-0.856-0.596-8.453 9.397-15.68 23.8 c-6.245 12.086-12.378 27.048-16.855 39.677c4.067-12.176 8.993-26.241 13.71-37.967c5.824-14.916 11.674-25.865 10.814-26.428 c-0.871-0.597-8.481 9.607-15.676 24.234c-7.33 14.543-14.536 33.129-19.054 47.041c-2.435 7.203-5.254 21.175-4.647 25.2 c-2.509 0.021-5.017 0.022-7.525 0.002c2.504-1.946 8.574-16.117 11.264-23.642c4.775-13.739 11.35-32.357 17.313-47.306 c5.841-15.006 11.421-26.154 10.56-26.695c-0.525-0.336-3.24 3.07-6.836 8.874c-0.674-0.201-1.72-0.415-3.071-0.658 c0.958-2.042 1.771-3.769 2.37-5.117c1.663-0.189 2.589-0.448 2.587-0.721c0.008-0.265-0.68-0.528-1.929-0.824 c0.415-1.042 0.574-1.659 0.405-1.784c-0.356 0.542-0.695 1.094-1.044 1.64c-0.003-0.001-0.005-0.001-0.008-0.002 c0.35-0.547 0.695-1.096 1.052-1.638c-0.226-0.17-0.901 0.353-1.901 1.464c-0.869-0.172-1.886-0.356-3.034-0.557 c0.64-1.5 0.909-2.393 0.681-2.545c-0.254-0.174-1.145 0.633-2.481 2.232c-2.92-0.504-6.472-1.113-10.432-1.886 c0.387-1.078 0.519-1.715 0.33-1.834c-0.218-0.142-0.851 0.41-1.797 1.543c-1.927-0.387-3.938-0.813-6.01-1.284 c0.485-1.026 0.865-1.877 1.119-2.529c3.35 0.6 6.6 1.2 9.8 1.611c16.034 2.4 28.7 1.6 28.6 0.5 c0.006-0.861-7.935-1.702-19.058-3.91c11.249 0.2 19.167-0.945 19.132-1.733c-0.011-1.13-11.414-1.55-25.754-3.874 c-14.372-2.197-31.465-6.935-43.334-12.055C0.986 278.3 0.5 278.2 0 277.965v11.902c5.327 1.7 11.1 3.3 17.1 4.8 c-0.392 0.244-1.011 0.867-1.814 1.824c-5.152-1.484-10.326-3.124-15.261-4.808v23.026c0.939 0.2 1.9 0.5 2.8 0.7 c-0.21 0.367-0.421 0.735-0.632 1.109c-0.724-0.211-1.452-0.431-2.181-0.65v17.564c0.416-0.934 0.832-1.869 1.244-2.791 c0.388 0.1 0.8 0.2 1.2 0.234c-0.801 1.611-1.6 3.25-2.398 4.898v35.254c4.408-11.47 9.98-25.42 15.5-38.035 c1.028 0.1 2 0.2 2.9 0.309c-6.553 13.403-12.954 28.581-17.394 40.449c-0.326 0.845-0.663 1.786-1.004 2.788v17.83 c2.847-5.446 6.174-13.059 8.056-17.951c4.642-12.395 10.825-28.644 16.681-42.832c0.956-0.046 1.49-0.168 1.514-0.356 c0.03-0.196-0.346-0.44-1.06-0.735c0.673-1.622 1.342-3.222 2.001-4.776c0.193-0.465 0.386-0.926 0.579-1.384 c2.368 0.2 4.5 0.2 6.3 0.266c-8.333 14.732-17.006 33.507-22.682 47.622c-3.192 7.7-7.477 23.158-6.722 26.5 c-1.545-0.073-3.088-0.174-4.631-0.264v2.631c1.503 0.1 3 0.1 4.5 0.184C4.53 406.6 10.7 418 15.1 423.256z M197.869 363.32c0.03 0 0.1 0.1 0.1 0.1c-0.019 0.03-0.04 0.06-0.05 0.09c-0.217 0.8 0.9 1.6 2.6 2.3 c-0.398 0.002-0.791 0.002-1.172-0.003c-2.508 0.024-4.449-0.267-5.544-0.122C195.111 365 196.5 364.2 197.9 363.32z M187.697 368.098c0.266-0.127 0.535-0.249 0.801-0.377c0.777 0.1 2.419-0.492 4.462-1.549c-0.293 0.7 0.8 2.2 2.7 3.5 c-3.451-0.438-7.258-0.789-9.641-0.611C186.525 368.8 187.1 368.5 187.7 368.098z M182.877 369.1 c-0.053 0.315-0.019 0.6 0.1 0.701c0.052 0.1 0.1 0.1 0.2 0.12c-1.225 0.543-2.46 1.061-3.691 1.6 C180.521 370.9 181.7 370 182.9 369.095z M176.774 369.24c-1.049 1.856-1.547 3.236-1.094 3.7 c0.065 0.1 0.2 0.1 0.3 0.118c-2.313 0.959-4.636 1.89-6.968 2.797C171.193 374.3 174.1 371.8 176.8 369.24z M165.479 377.694c-1.039 1.4 3.4 6.1 8 9.398c-0.59-0.286-1.168-0.57-1.727-0.851 c-4.133-1.856-11.856-5.208-14.867-5.318C159.77 379.9 162.6 378.8 165.5 377.694z M156.027 377.2 c-0.66 1.786-0.906 3.102-0.492 3.547c-1.708 0.584-3.423 1.148-5.14 1.706C151.953 381.3 154 379.3 156 377.184z M150.237 375.617c-1.874 3.621-3.11 6.759-2.636 7.713c-2.131 0.673-4.267 1.329-6.41 2 C143.656 383.3 147.2 379.3 150.2 375.617z M140.932 378.202c-1.75 3.578-2.949 6.725-2.714 7.9 c-2.312 0.661-4.63 1.299-6.954 1.914C133.587 386.5 137.5 382.3 140.9 378.202z M114.763 403.2 c-2.977-3.029-6.645-6.684-8.841-8.003c2.004-0.41 4.003-0.841 5.999-1.282C111.353 395.3 112.7 399.3 114.8 403.151z M112.945 383.935c-1.159 4.334-1.686 8.052-0.755 8.644c-2.483 0.52-4.971 1.014-7.464 1.5 C106.282 393.6 109.8 388.9 112.9 383.935z M103.872 395.554c-0.28 2.7 3.5 10.3 7 14.3 c-0.825-0.924-1.613-1.828-2.356-2.701c-2.851-3.098-8.134-8.542-11.128-10.342C99.529 396.4 101.7 396 103.9 395.554z M64.861 401.354c1.931-0.193 3.86-0.395 5.787-0.615c0.091 1.9 1.6 5.5 3.5 9 C71.161 406.6 67.3 402.9 64.9 401.354z M86.558 398.61c-0.313 1.8 1.5 6.3 3.7 10.2 c-2.896-3.363-6.98-7.79-9.453-9.416C82.73 399.2 84.6 398.9 86.6 398.61z M81.478 408.3 c-2.725-2.999-5.96-6.326-8.165-7.92c1.756-0.212 3.513-0.423 5.266-0.657C78.447 401.4 79.7 404.9 81.5 408.337z M70.83 398.948c1.559 0.5 6.417-9.231 9.784-16.823c-1.865 7.173-3.176 15.216-1.834 16 c-5.12 0.623-10.253 1.154-15.394 1.587c2.083-1.598 6.497-10.294 9.602-17.195C70.861 390 69.3 398.5 70.8 398.948z M65.494 382.186c-2.273 7.451-4.13 16.191-3.03 17.564c-2.361 0.194-4.723 0.369-7.086 0.5 C57.775 397.9 62.4 389 65.5 382.186z M54.401 402.266c-0.22 1.6 1.1 5.2 2.9 8.9 c-2.537-3.225-5.582-6.798-7.728-8.603C51.197 402.5 52.8 402.4 54.4 402.266z M46.806 402.8 c0.05 1.9 1.4 5.6 3.1 9.208c-2.752-3.385-6.016-7.109-8.245-8.927C43.344 403 45.1 402.9 46.8 402.771z M42.387 412.817c-3.05-3.629-6.816-7.701-9.226-9.462c1.919-0.052 3.838-0.121 5.757-0.198 C38.973 405.1 40.5 409 42.4 412.817z M41.872 379.236c-2.199 7.809-4.23 19.009-3.398 21.8 c-2.042 0.054-4.084 0.097-6.127 0.123C34.938 397.5 39.5 386.2 41.9 379.236z M30.694 403.4 c-0.027 1.6 1.4 5.1 3.2 8.757c-3.002-3.266-6.522-6.818-8.963-8.667C26.878 403.5 28.8 403.5 30.7 403.41z M26.098 412.807c-2.893-3.366-6.308-7.103-8.818-9.303c1.558 0 3.1 0 4.7 0 C22.191 405.4 23.9 409.1 26.1 412.807z M49.358 306.924c0.927-0.015 1.782-0.043 2.56-0.083 c-0.921 1.189-1.978 2.653-3.126 4.352c-0.445-0.075-0.906-0.152-1.384-0.232C48.145 309.5 48.8 308.1 49.4 306.924z M36.542 306.403c3.668 0.3 7 0.5 9.9 0.523c-0.755 1.022-1.576 2.177-2.45 3.451c-2.551-0.445-5.413-0.97-8.499-1.606 C35.867 307.9 36.2 307.1 36.5 306.403z M47.005 313.92c-0.921 1.445-1.879 3.008-2.859 4.7 c-0.13-0.033-0.267-0.067-0.412-0.101c0.783-1.622 1.531-3.155 2.231-4.588C46.319 313.9 46.7 313.9 47 313.92z M43.023 319.977c0.118-0.012 0.238-0.024 0.348-0.037c-0.773 1.351-1.556 2.766-2.339 4.2 C41.712 322.7 42.4 321.3 43 319.977z M39.277 317.629c-2.013-0.364-4.435-0.793-7.168-1.319 c0.492-1.106 0.968-2.168 1.424-3.184c2.93 0.3 5.7 0.5 8.2 0.656C40.927 315 40.1 316.3 39.3 317.629z M33.659 306.118c-0.42 0.617-0.861 1.282-1.317 1.982c-1.523-0.337-3.088-0.7-4.687-1.093c0.265-0.532 0.522-1.049 0.769-1.546 c0.389 0.1 0.8 0.1 1.2 0.161C30.979 305.8 32.3 306 33.7 306.118z M30.646 297.7 c-0.539 0.582-1.192 1.355-1.938 2.3c-1.847-0.422-3.729-0.879-5.638-1.368c0.55-1.364 0.796-2.184 0.663-2.38 C26.046 296.7 28.4 297.2 30.6 297.656z M25.033 304.959c-0.272 0.391-0.55 0.798-0.831 1.2 c-1.324-0.328-2.667-0.676-4.021-1.036c0.145-0.319 0.287-0.632 0.425-0.936C22.098 304.5 23.6 304.7 25 304.959z M17.535 294.75c1.99 0.5 4 1 6 1.413c-0.368 0.093-1.085 0.789-2.074 2.007c-1.531-0.403-3.075-0.825-4.623-1.262 C17.283 295.8 17.5 295.1 17.5 294.75z M14.091 302.86c1.159 0.3 2.3 0.5 3.5 0.7 c-0.151 0.228-0.303 0.46-0.458 0.697c-1.081-0.3-2.167-0.607-3.258-0.922C13.927 303.2 14 303 14.1 302.86z M6.628 301.053c1.467 0.4 2.9 0.8 4.4 1.104c-0.075 0.11-0.15 0.219-0.226 0.331c-1.418-0.423-2.837-0.858-4.255-1.3 C6.584 301.1 6.6 301.1 6.6 301.053z M4.214 300.412c-0.008 0.01-0.016 0.022-0.024 0 c-0.28-0.089-0.56-0.18-0.84-0.269C3.638 300.3 3.9 300.3 4.2 300.412z M2.781 308.814c0.251-0.505 0.498-0.999 0.738-1.48 c1.185 0.3 2.4 0.6 3.6 0.912c-0.325 0.522-0.653 1.051-0.986 1.596C4.993 309.5 3.9 309.2 2.8 308.814z M3.518 343.785c0.108-0.261 0.217-0.522 0.325-0.783c0.015 0 0 0 0 0 C3.764 343.3 3.6 343.5 3.5 343.785z M3.287 326.071c0.448-0.992 0.891-1.97 1.331-2.936 c0.518 0.1 1 0.2 1.6 0.306c-0.518 0.995-1.038 2.004-1.56 3.028C4.172 326.3 3.7 326.2 3.3 326.071z M4.915 340.824c-0.048-0.014-0.1-0.029-0.149-0.044c1.24-2.981 2.475-5.931 3.691-8.816c0.255 0 0.5 0.1 0.8 0.1 C7.76 334.9 6.3 337.9 4.9 340.824z M8.844 318.335c-0.61-0.158-1.222-0.319-1.838-0.484 c0.208-0.453 0.415-0.902 0.62-1.347c0.66 0.1 1.3 0.3 2 0.429C9.351 317.4 9.1 317.9 8.8 318.335z M11.137 328.357c-0.339-0.096-0.682-0.193-1.029-0.291c0.52-1.224 1.037-2.435 1.546-3.62c0.005-0.013 0.011-0.026 0.016-0.039 c0.487 0.1 1 0.2 1.5 0.235C12.459 325.9 11.8 327.1 11.1 328.357z M12.547 311.7 c-0.785-0.216-1.573-0.435-2.367-0.663c0.298-0.63 0.592-1.248 0.879-1.85c0.876 0.2 1.8 0.4 2.6 0.6 C13.307 310.4 12.9 311.1 12.5 311.712z M15.658 320.052c-0.638-0.154-1.284-0.312-1.935-0.474 c0.251-0.581 0.5-1.153 0.747-1.719c0.484 0.1 1 0.2 1.5 0.256c0.255 0 0.5 0.1 0.8 0.1 C16.342 318.8 16 319.4 15.7 320.052z M17.686 310.63c1.076 0.2 2.1 0.4 3.2 0.6 c-0.466 0.741-0.94 1.505-1.418 2.289c-0.801-0.202-1.609-0.41-2.427-0.628c-0.113-0.028-0.23-0.06-0.343-0.089 C17.038 312.1 17.4 311.3 17.7 310.63z M19.656 330.732c-0.87-0.246-1.813-0.508-2.821-0.788 c0.679-1.528 1.356-3.025 2.028-4.495c1.129 0.1 2.2 0.3 3.3 0.377C21.326 327.4 20.5 329.1 19.7 330.732z M24.176 321.985c-1.094-0.235-2.228-0.483-3.395-0.744c0.344-0.745 0.685-1.478 1.024-2.199c1.277 0.2 2.5 0.3 3.7 0.5 C25.084 320.3 24.6 321.1 24.2 321.985z M23.923 314.597c0.436-0.902 0.863-1.778 1.28-2.629 c0.299 0 0.6 0.1 0.9 0.144c1.152 0.2 2.3 0.4 3.4 0.513c-0.546 0.903-1.107 1.847-1.676 2.8 C26.569 315.2 25.3 314.9 23.9 314.597z M29.166 323.031c0.455-1.058 0.903-2.09 1.343-3.096 c2.696 0.2 5.1 0.3 7.2 0.263c-0.79 1.319-1.591 2.689-2.397 4.105C33.61 323.9 31.5 323.5 29.2 323.031z M17.298 379.5c-2.695 8.858-5.246 20.924-3.562 21.462c1.936 0.6 9.214-15.582 12.3-23.83 c5.009-13.747 11.842-32.412 18.082-47.339c2.485-6.164 4.98-11.627 7.006-15.969c1.411-0.076 2.548-0.19 3.376-0.327 c-2.421 3.986-5.186 8.964-7.93 14.564c-7.303 14.596-14.742 33.132-19.56 46.991c-2.829 7.908-6.436 24.031-5.017 26.1 c-5.322-0.053-10.641-0.192-15.952-0.428C8.602 398.1 14 387 17.3 379.5z" class="style0"/><path d="M15.466 475.703c0.509-0.696-5.445-6.031-13.178-14.339c9.002 6.8 16.1 10.5 16.5 9.8 c0.652-0.923-8.348-7.938-18.614-18.214c-0.071-0.07-0.143-0.144-0.214-0.214v12.546C8.393 472.4 15 476.4 15.5 475.703z " class="style0"/><path d="M23.66 268.632c13.209 3.4 31.7 4.7 46.5 3.5c1.344-0.091 2.657-0.196 3.935-0.311 c0.231 0 0.5 0 0.7 0.039c14.331 0.8 25.336-0.77 25.281-1.736c-0.02-0.541-2.608-0.896-6.838-1.362 c1.826-0.509 2.83-0.956 2.789-1.246c-0.117-0.902-7.663-0.558-18.293-0.604c-0.787-0.113-1.584-0.231-2.392-0.356 c-13.812-1.963-30.342-6.136-42.174-10.163c-5.248-1.545-14.33-4.381-19.227-5.183c1.764-1.148 3.518-2.312 5.268-3.484 c1.975 2.7 13.7 8.3 20.3 10.055c12.25 3.6 29.5 6.7 43.7 6.953c14.218 0.4 25.055-1.795 24.914-2.785 c-0.113-1.075-10.873-0.766-24.512-2.531c-13.656-1.624-30.089-5.4-41.982-8.887c-5.635-1.468-15.812-3.976-20.347-4.158 c1.891-1.281 3.775-2.574 5.648-3.884c3.046 2.8 12.8 7.4 18.5 8.912c11.569 3.5 27.8 6.7 41.2 7.4 c13.461 0.9 23.832-0.975 23.715-1.979c-0.095-1.065-10.272-1.116-23.131-3.323c-5.131-0.802-10.675-1.919-16.202-3.183 c6.798 1.1 13.8 1.9 20.1 2.192c12.82 0.7 22.689-1.069 22.583-2.076c-0.013-0.164-0.281-0.306-0.728-0.437 c2.849-0.354 4.513-0.872 4.463-1.316c-0.087-1.016-9.372-1.429-21.067-4.086c-1.84-0.391-3.743-0.828-5.677-1.294 c3.472 0.5 6.9 0.9 10.2 1.107c12.193 0.9 21.578-0.932 21.445-1.931c-0.098-1.071-9.268-1.131-20.785-3.36 c-0.217-0.038-0.439-0.082-0.657-0.121c1.099 0.1 2.2 0.2 3.3 0.233c11.688 0.8 20.603-1.676 20.36-2.678 c-0.174-1.04-8.844-0.521-19.751-2.619c-4.793-0.82-9.994-2.059-15.122-3.476c7.274 1.4 15 2.3 21.9 2.3 c11.792 0.1 20.66-2.242 20.477-3.228c-0.158-1.066-8.98-0.617-20.128-2.092c-11.162-1.318-24.538-4.632-34.2-7.678 c-4.684-1.303-13.287-3.467-16.97-3.386c1.486-1.265 2.956-2.547 4.424-3.832c1.849 2.4 11.2 6.6 16.5 7.8 c9.981 2.5 23.9 4.9 35.5 4.878c11.604 0.2 20.394-2.517 20.096-3.556c-0.23-0.986-8.781-0.214-19.745-1.766 c-1.5-0.183-3.045-0.401-4.616-0.642c3.267 0.2 6.5 0.2 9.5 0.078c11.424-0.382 19.871-3.266 19.627-4.234 c-0.198-0.95-7.038-0.301-16.227-0.857c10.726-0.324 18.655-2.915 18.431-3.877c-0.203-1.065-8.265-0.384-18.478-1.443 c-1.396-0.126-2.832-0.289-4.29-0.478c2.904 0.2 5.8 0.3 8.5 0.17c10.57-0.175 18.345-3.179 18.047-4.137 c-0.265-1.046-7.996-0.022-17.857-1.186c-9.869-0.953-21.73-3.811-30.348-6.351c-4.181-1.096-11.938-2.746-15.244-2.422 c1.565-1.555 3.117-3.122 4.655-4.702c1.619 2.4 10.1 6.5 15 7.533c9.229 2.3 22.3 3.6 32.8 2.5 c10.591-0.979 18.238-4.193 17.938-5.137c-0.284-1.044-8.097 0.224-18.113-0.19c-7.69-0.209-16.596-1.479-24.296-3.029 c9.289 1.8 21.5 2.1 31.4 0.392c10.547-1.646 18.113-4.943 17.837-5.87c-0.238-0.89-5.711-0.076-13.337 0.4 c0.407-0.076 0.818-0.15 1.217-0.233c10.527-2.031 17.93-5.74 17.612-6.637c-0.339-1.076-8.178 0.76-18.289 1.3 c-10.111 0.748-22.389-0.313-31.104-2.402c-4.595-0.776-13.14-2.718-15.954-2.219c1.724-1.949 3.432-3.912 5.115-5.894 c-0.081 2.2 9.7 6.8 15.1 7.559c9.152 1.7 22 1.7 32.07-0.755c10.106-2.324 16.964-6.537 16.544-7.411 c-0.43-1.015-7.772 1.304-17.398 2.15c-9.626 1.003-21.415 0.149-29.936-1.415c-4.611-0.609-13.504-1.822-15.831-0.811 c1.71-2.023 3.394-4.068 5.06-6.126c1.994 2.2 10.8 5 15.8 5.287c9.396 0.9 22.4 0.5 32.697-2.131 c10.356-2.472 17.301-7.145 16.795-8.005c-0.482-0.974-7.84 1.769-17.751 2.758c-9.872 1.206-22.094 0.759-31.048-0.134 c-4.074-0.258-11.368-0.488-14.878 0.237c1.42-1.779 2.823-3.571 4.209-5.377c0.264 2.2 10.3 5.1 15.5 5.2 c8.963 0.5 21.293-0.511 30.882-3.454c9.666-2.785 16.151-7.219 15.669-8.095c-0.48-0.963-7.484 1.587-16.823 2.9 c-9.315 1.468-20.879 1.596-29.364 1.125c-4.398-0.077-12.737 0.093-15.203 1.364c1.662-2.18 3.302-4.376 4.914-6.593 c1.427 2.1 11.8 4.2 17.2 3.82c9.799-0.203 23.141-2.455 33.28-6.597c10.23-3.993 16.813-9.466 16.245-10.275 c-0.575-0.924-7.872 2.728-17.894 5.211c-9.977 2.638-22.57 3.927-31.862 4.127c-4.471 0.278-12.661 0.924-15.844 2.2 c1.324-1.841 2.626-3.698 3.914-5.565c0.517 2.2 11.7 3.1 17.2 1.962c9.347-1.499 21.657-5.433 30.95-10.143 c9.351-4.609 15.704-9.593 15.199-10.436c-0.55-0.946-7.74 2.321-17.247 5.515c-2.413 0.84-4.982 1.655-7.614 2.4 c5.389-2.079 10.704-4.669 15.157-7.489c8.945-5.497 14.612-11.298 14.011-12.051c-0.669-0.89-7.376 3.297-16.505 7.3 c-9.08 4.172-20.685 7.713-29.394 9.159c-4.618 1.067-13.484 2.726-15.501 4.347c1.841-2.863 3.649-5.749 5.404-8.669 c-0.005 0.028-0.016 0.056-0.016 0.083c0.023 2.4 12.2 2.4 17.9 0.353c9.472-2.767 21.386-9.087 29.714-15.911 c8.434-6.728 13.493-13.351 12.81-14.022c-0.779-0.805-7.073 4.352-15.87 9.65c-8.731 5.43-20.142 10.522-28.867 13.1 c-4.606 1.672-13.536 4.415-15.349 6.261c1.395-2.331 2.761-4.68 4.1-7.046c0.974 2 12.046-0.186 17.045-2.724 c8.591-3.912 19.498-10.801 27.286-17.731c7.877-6.845 12.747-13.29 12.042-13.961c-0.783-0.778-6.892 4.213-15.272 9.7 c-4.097 2.763-8.788 5.575-13.468 8.162c14.44-12.732 28.472-34.325 26.961-35.37c-0.906-0.731-7.811 6.756-16.253 15.2 c9.124-12.46 15.921-25.628 14.623-26.342c-1.458-0.912-16.224 19.552-29.129 32.394c11.363-15.578 28.969-42.429 27.314-43.647 c-0.883-0.645-7.049 6.103-14.347 14.895c5.034-10.133 8.653-18.391 7.71-18.934c-1.018-0.587-7.143 7.963-14.008 18.5 c4.77-13.43 8.449-25.313 7.292-25.787c-1.009-0.416-5.505 7.952-10.649 18.674c2.991-11.788 4.923-21.098 3.919-21.415 c-1.088-0.342-5.402 9.965-10.145 22.737c2.702-12.98 4.391-23.11 3.39-23.374c-1.197-0.312-5.955 13.494-10.902 29.6 c2.116-15.006 3.389-27.257 2.284-27.468c-1.264-0.239-5.33 15.257-9.319 32.803c1.294-14.564 1.894-26.265 0.805-26.416 c-1.617-0.217-6.459 24.969-10.067 47.499c0.965-18.418 1.253-35.529-0.165-35.643c-1.968-0.149-7.19 39.998-9.344 63.5 c-0.633 6.996-0.262 21.1 1.8 21.592c-1.443 2.174-2.909 4.333-4.4 6.473c1.328-4.176 2.232-13.437 2.3-18.678 c0.078-11.481 0.048-27.063 0.316-39.752c0.159-12.711 1.025-22.475 0.042-22.691c-0.785-0.18-2.528 5.185-3.998 13.2 c0-4.897-0.13-7.971-0.492-8.049c-2.082-0.341-5.496 22.016-7.064 43.186c-0.038-4.771-0.057-9.478-0.036-13.858 c-0.041-13.303 0.571-23.573-0.43-23.749c-1.05-0.193-3.564 10.039-4.892 23.458c-0.296 2.76-0.552 5.654-0.774 8.6 c-0.008-0.923-0.015-1.835-0.021-2.733c-0.238-13.599 0.46-23.959-0.396-24.177c-1.174-0.284-3.81 10.268-4.931 23.9 c-1.285 13.671-1.772 30.438-1.685 42.769c0.017 7.3 1.9 21.8 4 22.23c-1.49 1.798-2.998 3.582-4.522 5.4 c0.808-4.084 0.173-15.05-0.34-21.029c-1.349-12.173-2.431-28.79-2.193-42.39c0.128-13.596 1.458-24.131 0.41-24.354 c-0.979-0.229-4.216 10.124-5.735 24.018c-1.62 13.857-1.372 31 0 43.511c0.604 7 4.3 20.3 6.6 21.7 c-1.716 1.973-3.456 3.925-5.214 5.862c1.04-2.915-0.201-14.385-1.132-20.373c-1.997-11.208-4.174-26.531-5.079-39.136 c-0.997-12.598-0.792-22.461-1.854-22.579c-0.981-0.131-3.032 9.312-3.451 21.876c-1.241-12.288-1.197-21.527-2.123-21.659 c-1.083-0.172-3.106 10.472-2.958 24.246c-0.022 13.8 1.5 30.5 3.2 42.716c0.98 7.4 5.1 21.8 7.2 21.4 c0.076-0.014 0.146-0.055 0.214-0.11c-3.798 4.002-7.683 7.923-11.647 11.765c0.844-3.668-0.627-15.942-1.842-22.422 c-2.476-12.545-5.746-29.583-7.653-43.584c-2.073-13.992-2.266-24.919-3.265-25.019c-1.076-0.126-2.792 11.072-2.046 25.5 c0.573 14.4 3.1 31.9 5.6 44.557c1.351 7.2 6 20.8 8.2 21.966c-1.792 1.724-3.599 3.433-5.423 5.1 c1.082-2.557-1.708-16.202-3.574-23.128c-3.513-12.425-8.119-29.346-10.907-43.332c-3.011-13.963-3.441-24.975-4.419-25.062 c-1.101-0.13-2.574 11.323-0.849 25.864c0.017 0.2 0 0.3 0.1 0.494c-2.393-13.643-3.135-24.151-4.156-24.169 c-1.016-0.041-2.153 11.62-0.821 26.586c0.516 6.7 1.5 14 2.7 21.165c-1.375-6.242-2.656-12.471-3.69-18.227 c-2.82-14.866-3.537-26.563-4.554-26.603c-1.067-0.065-2.245 11.954-0.73 27.316c0.83 9.4 2.5 20 4.4 29.8 c-6.181-25.604-12.611-54.209-13.858-54.072c-1.659 0.2 0.7 21 4.6 43.027c-0.698-3.261-1.362-6.458-1.968-9.514 c-3.097-14.82-4.321-26.446-5.319-26.455c-1.09-0.022-1.736 12 0 27.261c1.627 15.3 5.1 33.7 8.3 47.1 c1.844 8.1 7.6 23.8 9.7 23.271c1.646-0.453 0.155-12.091-1.447-20.562c2.317 7 5.4 14.7 7.2 16 c-3.588 2.944-7.221 5.831-10.9 8.659c0.3-4.044-3.067-17.488-5.211-24.556c-4.314-13.585-9.885-32.133-13.551-47.479 c-3.825-15.32-5.387-27.464-6.426-27.419c-1.043 0.018-1.353 12.6 1.2 28.443c2.01 13.5 5.8 29.2 9.6 42 c-3.829-12.253-8.066-26.539-11.105-38.806c-4.008-15.503-5.673-27.804-6.7-27.758c-1.056 0.025-1.254 12.8 1.5 28.8 c2.569 16.1 7.6 35.4 12.1 49.294c2.241 7.3 8.1 20.2 11 23.19c-2.022 1.486-4.055 2.955-6.1 4.4 c0.891-3.043-2.481-18.086-4.705-25.762c-4.17-13.934-9.736-32.879-13.65-48.49c-4.047-15.586-6.048-27.891-7.062-27.825 c-1.068 0.06-0.917 12.8 1.8 28.907c2.622 16.1 7.4 35.5 11.6 49.549c2.335 8.1 8.8 23.3 11.2 24.1 c-4.346 3.072-8.74 6.073-13.185 8.99c0.546-3.621-1.558-15.785-3.312-23.822c3 8.8 8 20 9.7 19.5 c1.932-0.631-1.649-18.027-3.974-26.521c-3.985-14.078-9.369-33.211-13.046-48.967C4.401 149.3 3 136.9 2 136.8 c-1.035-0.02-1.505 11 0.5 25.396c-1.01-5.338-1.823-10.143-2.495-14.044v33.326c2.071 13.5 5 27.6 7.7 38.7 c1.918 8.1 7.5 23.2 10.1 25.409c-2.306 1.503-4.627 2.982-6.957 4.443c0.439-4.26-2.49-18.592-4.483-26.142 C4.409 216.9 2.2 208.7 0 200.251v28.902c2.526 8.1 7.2 19.4 9.5 21.7c-2.42 1.507-4.852 2.992-7.296 4.5 c0.514-2.203-0.698-9.66-2.184-16.883V254.3c0.502 0.8 0.9 1.3 1.3 1.531c-0.436 0.26-0.876 0.51-1.313 0.768v3.289 c0.925-0.557 1.854-1.108 2.776-1.672C5.595 261.5 16.9 267.4 23.7 268.632z M152.573 102.2 c0.052 0 0.1 0 0.2 0.018c0.003 0.031-0.011 0.073-0.003 0.101c0.304 0.8 1.7 0.8 3.5 0.3 c-0.321 0.235-0.64 0.464-0.952 0.683c-2.019 1.487-3.764 2.388-4.566 3.146C151.326 105.2 152 103.7 152.6 102.187z M147.121 112.015c0.142-0.259 0.288-0.515 0.429-0.774c0.711-0.343 1.673-1.814 2.712-3.868c0.185 0.8 2 1.3 4.2 1.3 c-3.054 1.665-6.347 3.608-8.174 5.147C146.578 113.3 146.8 112.7 147.1 112.015z M143.797 115.6 c0.142 0.3 0.3 0.5 0.5 0.498c0.074 0 0.2 0 0.232-0.02c-0.676 1.157-1.374 2.3-2.063 3.4 C142.914 118.4 143.4 117.1 143.8 115.644z M138.933 119.335c0.236 2.1 0.6 3.5 1.3 3.6 c0.088 0 0.18-0.012 0.274-0.052c-1.314 2.132-2.652 4.246-4.012 6.346C137.36 126.7 138.2 123 138.9 119.335z M134.723 132.8c-0.027 1.7 6.4 3 12 2.933c-0.645 0.113-1.281 0.222-1.899 0.3 c-4.415 0.91-12.601 2.699-15.151 4.365C131.389 137.9 133.1 135.4 134.7 132.8z M126.761 137.9 c0.51 1.8 1.1 3 1.7 3.164c-1.043 1.474-2.104 2.935-3.17 4.392C125.844 143.6 126.4 140.9 126.8 137.919z M121.149 140.038c0.6 4 1.4 7.3 2.4 7.797c-1.334 1.793-2.682 3.575-4.05 5.3 C120.285 150.1 120.9 144.8 121.1 140.038z M115.118 147.579c0.675 3.9 1.5 7.2 2.4 8 c-1.488 1.889-2.994 3.763-4.518 5.622C114.013 158.6 114.7 152.9 115.1 147.579z M110.436 191.1 c0.429 0.1 0.9 0.2 1.3 0.276c-0.541-0.111-1.094-0.219-1.621-0.333C110.235 191.1 110.3 191.1 110.4 191.096z M108.501 183.124c-4.181-0.713-9.293-1.531-11.849-1.318c1.384-1.504 2.751-3.022 4.111-4.547 C101.133 178.7 104.6 181.2 108.5 183.124z M95.78 168.608c1.597 4.2 3.3 7.5 4.4 7.5 c-1.709 1.875-3.437 3.732-5.183 5.573C96.018 180.3 96.1 174.5 95.8 168.608z M95.223 183.3 c1.33 2.3 8.8 6.2 14 7.5c-1.202-0.265-2.361-0.535-3.468-0.806c-4.115-0.842-11.576-2.166-15.067-1.881 C92.203 186.6 93.7 185 95.2 183.341z M66.988 210.876c1.452-1.286 2.898-2.58 4.332-3.886 c1.172 1.5 4.5 3.5 8.2 5.247C75.154 211.4 69.9 210.7 67 210.876z M82.966 196 c0.8 1.6 4.9 4.2 9 6.127c-4.302-1.028-10.187-2.228-13.149-2.107C80.206 198.6 81.6 197.3 83 195.96z M77.178 201.554c0.859 1.4 3.9 3.5 7.4 5.258c-3.965-0.837-8.535-1.641-11.256-1.643 C74.593 204 75.9 202.8 77.2 201.554z M68.507 186.064c2.686 6.9 6.3 14.2 7.9 14 c-3.787 3.502-7.638 6.936-11.553 10.297c0.754-2.515-0.757-12.149-2.279-19.562c2.673 7.3 6.4 15.1 7.9 14.6 C71.964 204.9 70.2 194.2 68.5 186.064z M56.283 194.963c2.519 7.4 6.1 15.5 7.8 16 c-1.801 1.539-3.613 3.063-5.439 4.572C59.215 212.2 57.8 202.3 56.3 194.963z M59.041 217.7 c0.739 1.4 3.9 3.6 7.6 5.546c-3.945-1.13-8.505-2.245-11.301-2.452C56.585 219.8 57.8 218.8 59 217.737z M53.179 222.592c1.163 1.5 4.4 3.7 7.9 5.68c-4.212-1.134-9.038-2.243-11.91-2.413 C50.489 224.8 51.8 223.7 53.2 222.592z M47.007 227.521c1.174 1.5 4.7 3.8 8.5 5.8 c-4.597-1.157-10.034-2.255-13.019-2.272C43.981 229.9 45.5 228.7 47 227.521z M35.403 206.4 c2.788 7.6 7.7 17.9 10 19.67c-1.624 1.239-3.255 2.469-4.896 3.686C40.488 225.3 37.5 213.4 35.4 206.396z M40.488 232.539c0.933 1.3 4.1 3.3 7.8 5.205c-4.346-0.891-9.278-1.711-12.34-1.781 C37.436 234.8 39 233.7 40.5 232.539z M33.465 237.744c1.304 1.4 4.9 3.4 8.8 5.1 c-4.316-1.036-9.272-2.068-12.595-2.382C30.937 239.6 32.2 238.7 33.5 237.744z M11.255 252.9 c2.026 2.2 7.9 5.7 13.3 8.241c-5.734-1.16-14.571-3.698-19.248-4.495C7.307 255.4 9.3 254.2 11.3 252.896z M3.976 257.473c0.377 0.2 0.8 0.4 1.1 0.54c-0.381-0.172-0.755-0.359-1.133-0.538 C3.974 257.5 4 257.5 4 257.473z" class="style0"/><path d="M484.121 800.243h7.835c11.802-10.349 22.694-20.482 22.042-21.272 C513.261 778.1 498 789.3 484.1 800.243z" class="style0"/><path d="M519.139 797.852c-0.258-0.261-1.933 0.749-4.639 2.39h3.076 C518.776 798.9 519.4 798.1 519.1 797.852z" class="style0"/><path d="M367.3 799.571c-0.046 0.1 0.2 0.4 0.7 0.671h4.446C369.334 799.6 367.4 799.2 367.3 799.6 z" class="style0"/><path d="M360.484 789.87c-0.299 0.6 8.4 5.5 20.7 9.43c0.958 0.3 1.9 0.6 2.9 0.943h25.311 c-8.978-0.991-18.797-2.634-27.173-4.741C370.01 792.6 360.8 789.1 360.5 789.87z" class="style0"/><path d="M491.719 778.325c7.104-9.129 10.865-17.331 10.205-17.671c-0.695-0.394-5.562 6.907-13.235 15.1 c-7.55 8.332-17.771 17.608-25.56 24.115c-0.121 0.106-0.254 0.224-0.382 0.336h8.499 C478.247 793.9 486 785.9 491.7 778.325z" class="style0"/><path d="M458.035 790.546c7.84-8.345 18.068-20.089 25.805-30.189c7.805-10.056 12.884-18.573 12.228-19.008 c-0.628-0.419-6.764 7.169-15.265 16.478c-8.436 9.368-19.051 20.604-26.848 28.904c-3.218 3.469-8.34 9.658-10.854 13.51h4.333 C451.03 797.4 455.4 793.4 458 790.546z" class="style0"/><path d="M498.438 783.252c7.57-9.286 11.591-17.723 10.936-18.067c-0.692-0.404-5.8 7.107-13.911 15.5 c-6.204 6.589-14.12 13.69-21.215 19.587h8.212C488.166 794.9 493.9 789 498.4 783.252z" class="style0"/><path d="M454.643 785.374c7.814-8.681 17.905-20.976 25.268-31.687c7.474-10.649 11.819-19.84 11.102-20.203 c-0.654-0.346-6.097 7.948-14.265 17.836c-1.084 1.339-2.213 2.712-3.37 4.104c1.133-1.487 2.226-2.965 3.255-4.418 c7.475-10.299 11.422-19.446 10.696-19.779c-0.672-0.327-5.715 7.905-13.821 17.366c-7.985 9.55-18.632 20.515-26.638 28.4 c-4.074 4.14-11.388 12.183-12.773 15.084c-1.388-1.813-2.763-3.638-4.121-5.475c3.15-0.969 12.388-7.854 16.638-12.299 c8.418-8.321 18.716-20.779 25.612-31.953c6.999-11.134 10.612-20.678 9.941-20.972c-0.731-0.349-5.544 8.45-13.209 18.8 c-7.575 10.373-18.075 22.098-26.3 30.233c-4.116 4.306-11.833 12.315-13.438 15.221c-1.223-1.665-2.432-3.341-3.629-5.026 c2.541-0.553 12.001-8.455 16.372-13.146c8.105-8.491 18.518-20.642 25.906-31.437c7.544-10.708 11.479-20.203 10.732-20.521 c-0.666-0.304-5.7 8.26-13.901 18.159c-8.049 9.993-18.771 21.557-26.788 29.957c-4.238 4.549-11.935 13.553-12.853 16.2 c-1.226-1.735-2.437-3.481-3.636-5.236c2.832-1.331 10.986-9.385 14.855-14.079c7.439-8.922 17.11-21.419 24.324-32.13 c7.316-10.654 11.787-19.709 11.067-20.091c-0.643-0.346-6.203 7.812-14.25 17.757c-7.956 10.008-18.04 22.023-25.435 30.9 c-3.708 4.499-10.042 13.236-11.319 16.529c-1.054-1.556-2.098-3.119-3.13-4.691c2.323-0.556 11.357-9.361 15.538-14.36 c7.593-8.987 17.51-21.537 24.994-32.265c7.578-10.662 12.289-19.758 11.555-20.157c-0.621-0.341-6.392 7.817-14.705 17.8 c-8.214 10.026-18.555 22.107-26.113 31.05c-4.023 4.808-11.054 14.437-11.759 17.215c-1.037-1.588-2.064-3.183-3.078-4.787 c2.506-0.767 11.346-9.069 15.491-13.831c7.661-8.719 17.695-20.906 25.296-31.333c7.705-10.357 12.511-19.28 11.746-19.699 c-0.59-0.325-6.418 7.606-14.844 17.25c-3.178 3.711-6.667 7.713-10.191 11.726c3.885-4.832 7.653-9.809 10.879-14.493 c7.477-10.631 11.876-19.743 11.203-20.109c-0.676-0.384-6.198 7.873-14.359 17.737c-8.065 9.935-18.583 21.582-26.459 30 c-4.23 4.658-11.962 13.948-12.625 16.451c-1.09-1.805-2.164-3.621-3.223-5.447c2.638-0.767 11.401-8.273 15.511-12.721 c7.732-8.207 17.723-19.86 25.117-29.984c7.473-10.076 12.1-18.688 11.431-19.086c-0.651-0.399-6.359 7.313-14.521 16.6 c-8.091 9.372-18.436 20.487-26.103 28.629c-3.933 4.252-10.835 12.617-12.011 15.542c-1.017-1.767-2.022-3.542-3.009-5.329 c2.457-0.586 11.327-8.484 15.4-13.122c7.551-8.414 17.235-20.37 24.307-30.747c7.167-10.33 11.507-19.097 10.836-19.475 c-0.601-0.347-5.047 5.97-11.619 14.172c6.309-8.765 9.825-16.116 9.141-16.462c-0.636-0.328-5.86 7.293-13.866 16.2 c-7.879 9.024-18.047 19.664-25.544 27.484c-4.472 4.746-12.857 14.876-11.813 15.96c0.91 0.9 8.111-4.713 13.117-9.404 c-3.942 4.646-9.564 11.889-10.463 14.449c-1.896-3.458-3.73-6.953-5.508-10.479c1.8 0.3 11.383-7.372 15.731-11.854 c7.634-7.73 17.518-18.73 24.829-28.352c7.398-9.572 11.925-17.851 11.247-18.262c-0.641-0.396-6.224 6.955-14.286 15.7 c-7.984 8.847-18.205 19.3-25.773 26.962c-4.141 4.267-11.611 12.983-12.018 15.229c-0.837-1.668-1.66-3.342-2.469-5.024 c2.894-0.915 11.263-7.357 15.257-11.333c7.767-7.548 17.761-18.41 25.028-28.033c7.367-9.561 11.66-17.951 10.979-18.335 c-0.655-0.387-6.018 7.077-14.025 15.821c-6.249 6.965-13.984 14.835-20.745 21.516c6.928-7.102 14.865-16.066 20.854-24.164 c7.181-9.496 11.338-17.809 10.663-18.183c-0.664-0.39-5.904 7.007-13.728 15.695c-7.729 8.761-17.816 18.952-25.357 26.3 c-3.864 3.883-10.743 11.513-11.937 14.251c-1.426-3.133-2.801-6.289-4.126-9.466c1.581-0.248 6.295-4.157 10.275-7.977 c-3.994 4.984-9.027 12.089-8.106 12.959c1.148 1.1 10.411-7.192 14.429-11.844c6.735-7.675 15.432-18.521 21.799-27.936 c6.47-9.361 10.223-17.444 9.503-17.808c-0.656-0.341-5.496 6.835-12.67 15.449c-1.459 1.789-3.006 3.651-4.597 5.5 c10.198-13.074 18.978-25.822 17.966-26.537c-0.768-0.523-14.91 15.945-27.847 30.538c4.693-5.779 9.447-12.114 13.252-17.963 c6.328-9.518 9.734-17.786 9.013-18.114c-0.679-0.328-5.212 7.072-12.221 15.812c-2.675 3.404-5.677 7.032-8.745 10.6 c3.291-4.282 6.457-8.716 9.114-12.902c6.07-9.323 9.379-17.342 8.7-17.669c-0.674-0.343-4.806 6.259-11.099 14.3 c0.063-0.093 0.129-0.188 0.192-0.281c6.18-8.909 9.196-16.909 8.431-17.206c-0.669-0.283-4.777 6.768-11.597 14.9 c-6.682 8.176-15.573 17.639-22.187 24.543c-3.639 3.894-10.23 11.881-10.368 13.895c-0.607-1.746-1.197-3.497-1.771-5.254 c1.874 0.1 9.624-7.253 13.014-11.499c6.049-7.428 13.735-17.978 19.117-27.201c5.497-9.167 8.266-17.085 7.518-17.377 c-0.688-0.282-4.61 6.796-10.827 15.224c-6.111 8.492-14.169 18.496-20.147 25.838c-3.053 3.823-8.289 11.355-8.991 14 c-1.269-3.926-2.458-7.877-3.56-11.85c0.025 0.1 0.1 0.2 0.1 0.247c1.234 1 8.942-7.046 12.142-11.522 c5.375-7.39 12.193-17.8 16.959-26.804c4.883-8.954 7.258-16.617 6.49-16.881c-0.652-0.235-3.837 5.828-8.923 13.4 c4.095-8.365 6.041-15.261 5.354-15.516c-0.735-0.292-4.028 6.229-9.057 14.119c-4.971 7.927-11.718 17.19-16.918 23.8 c-2.7 3.606-7.515 10.706-7.814 12.945c-0.478-1.884-0.939-3.772-1.377-5.665c1.956-0.106 9.002-7.509 11.847-11.909 c5.249-7.684 11.375-18.82 15.13-28.443c3.834-9.612 5.315-17.507 4.595-17.697c-0.763-0.219-3.553 7.133-8.194 16.1 c-4.57 8.976-11.05 19.464-16.162 26.955c-2.414 3.733-6.64 10.685-7.529 13.633c-0.382-1.688-0.748-3.378-1.098-5.072 c1.491 0.5 7.786-8.374 10.336-13.147c4.342-8.032 9.849-19.165 13.759-28.55c4.018-9.329 5.961-17.144 5.094-17.366 c-0.636-0.155-3.779 6.861-8.659 15.67c-0.315 0.585-0.637 1.179-0.963 1.779c0.881-2.01 1.719-3.991 2.485-5.898 c3.794-9.235 5.706-16.798 4.952-17.037c-0.716-0.232-3.884 6.695-8.533 15.379c-1.509 2.872-3.158 5.946-4.842 9.1 c6.331-14.388 11.869-30.196 10.389-30.697c-0.264-0.074-1.419 1.895-3.12 5.096c1.836-5.775 2.561-9.89 1.985-10.046 c-0.718-0.201-3.544 6.485-7.856 14.851c-4.234 8.39-9.667 18.567-13.605 26.102c-1.78 3.456-4.408 9.834-4.985 13 c-0.232-1.92-0.441-3.844-0.629-5.77c1.479 0.4 6.637-8.711 8.654-13.506c6.755-16.112 17.29-44.176 15.952-44.763 c-0.967-0.418-6.724 10.872-12.493 23.251c5.469-15.985 11.055-34.138 9.922-34.558c-0.765-0.28-4.439 7.583-8.654 17.6 c3.489-12.859 6.215-24.407 5.306-24.69c-0.796-0.246-4.221 8.21-8.051 18.757c2.374-12.275 4.061-22.957 3.17-23.169 c-0.746-0.175-3.162 7.036-5.905 16.462c1.337-9.999 2.097-18.238 1.267-18.392c-0.766-0.141-2.738 6.617-4.878 15.4 c0.362-8.798 0.33-15.832-0.474-15.91c-0.921-0.092-2.644 8.956-4.192 19.394c-0.822-9.284-1.857-17.002-2.726-16.972 c-0.805 0.027-1.307 6.684-1.537 15.059c-1.717-8.284-3.405-14.839-4.206-14.724c-1.505 0.2 0.7 23.9 2.7 38 c-3.976-12.881-6.521-31.391-7.791-31.301c-1.097 0.016-1.228 11 0.4 22.304c-2.571-8.482-4.484-15.776-5.331-15.613 c-1.35 0.2 0.3 19.1 5.3 32.49c-2.161-3.317-4.251-6.783-5.969-10.013c-3.567-6.511-5.827-11.897-6.609-11.66 c-0.694 0.2 0.3 6.1 3 13.312c2.684 7.2 7.4 15.5 11.7 21.074c2.392 3.4 8.9 8.7 10.2 7.7 c0.054 2 0.1 4.1 0.2 6.097c-0.455-1.79-5.407-6.753-7.863-9.475c-4.819-4.699-10.51-11.993-14.333-18.577 c-3.911-6.52-6.234-12.079-7.024-11.824c-0.68 0.2 0.3 6.3 3.5 13.619c3.074 7.4 8.7 15.6 13.9 20.7 c2.985 3.3 11 7.5 11.8 5.986c0.015-0.029 0.008-0.072 0.016-0.106c0.134 2.5 0.3 5.1 0.5 7.6 c-0.702-1.74-5.961-5.938-8.627-8.255c-5.192-3.971-11.549-10.319-16.037-16.202c-4.565-5.814-7.495-10.883-8.242-10.533 c-0.654 0.3 1 6 5 12.747c1.931 3.4 4.5 6.9 7.3 10.158c-1.451-1.418-2.847-2.841-4.131-4.227 c-5.107-5.391-8.673-10.026-9.361-9.598c-0.624 0.4 1.8 5.8 6.3 12.104c4.44 6.3 11.1 13.2 16.7 17.4 c3.201 2.7 10.9 5.9 11.9 4.656c0.194 1.7 0.4 3.4 0.6 5.028c-1.65-1.909-6.784-5.179-9.612-6.916 c-6.007-3.359-13.792-8.577-19.399-13.769c-5.69-5.106-9.192-10.029-9.889-9.624c-0.653 0.3 1.8 6.2 7.1 12.4 c5.191 6.2 13.1 12.3 19.5 15.876c3.456 2.1 11 4.3 12.6 3.474c0.285 2 0.6 4 0.9 6 c-1.158-1.686-6.56-4.702-9.468-6.181c-5.711-2.641-13.228-6.742-18.809-10.938c-5.652-4.099-9.346-8.2-9.994-7.737 c-0.619 0.4 2.1 5.6 7.4 10.737c5.247 5.3 13 10.2 19 12.989c3.49 1.8 11.1 3.3 12 1.9 c0.281 1.7 0.6 3.3 0.9 5.01c-2.04-1.694-6.891-4.08-9.646-5.327c-6.165-2.527-14.312-6.482-20.347-10.7 c-6.136-4.09-9.994-8.44-10.648-7.97c-0.63 0.4 2.3 5.9 8.2 11.069c5.782 5.3 14.2 10.1 20.6 12.8 c3.345 1.5 10.1 2.7 12.1 2.018c0.376 1.9 0.8 3.9 1.2 5.79c-1.12-1.469-7.393-3.782-10.638-4.992 c-6.115-1.938-14.119-5.476-20.065-9.476c-6-3.897-9.995-7.965-10.629-7.451c-0.578 0.4 2.4 5.6 8.2 10.6 c5.706 5.1 14.1 9.6 20.7 11.636c3.815 1.4 11.9 1.8 12.5 0.282c0.414 1.9 0.9 3.8 1.3 5.7 c-1.666-1.304-7.928-3.003-11.202-4.092c-6.424-1.663-14.821-5.235-21.172-9.237c-6.406-3.898-10.894-7.822-11.489-7.236 c-0.52 0.5 3 5.5 9.2 10.459c0.232 0.2 0.5 0.4 0.7 0.575c-4.835-2.933-8.131-5.366-8.596-4.868 c-0.502 0.5 3.3 5.3 9.6 10.035c5.785 4.5 13.8 8.5 20.5 10.592c-5.537-1.657-11.733-3.9-16.791-6.414 c-6.692-3.209-11.361-6.753-11.909-6.169c-0.525 0.5 3.4 5.3 9.9 9.591c6.512 4.4 15.5 8.1 22.3 9.8 c3.551 1 10.5 1.3 12.4 0.269c0.457 1.6 0.9 3.1 1.4 4.698c-2.044-1.361-7.692-2.979-10.809-3.716 c-6.517-1.334-15.266-3.586-22.05-6.392c-6.852-2.666-11.551-6.021-12.088-5.429c-0.527 0.5 3.5 5.2 10.4 9 c1.736 1 3.6 2 5.6 2.831c-1.018-0.383-2.015-0.773-2.97-1.176c-7.046-2.856-12.081-6.102-12.583-5.477 c-0.48 0.6 3.8 5 10.7 8.939c-6.201-2.829-10.448-5.63-10.907-5.078c-0.496 0.5 4 5.4 11.4 9.6 c1.933 1.2 4 2.2 6.2 3.255c-1.111-0.388-2.197-0.783-3.241-1.184c-7.708-2.795-13.031-6.271-13.524-5.706 c-0.556 0.6 4.2 5.4 11.9 9.307c7.561 4 17.5 7.3 24.9 9.131c3.884 1 11.4 1.6 13.5 0.6 c0.514 1.4 1 2.7 1.6 4.048c-2.373-1.334-8.754-2.91-12.274-3.686c-7.376-1.365-17.273-3.846-25.029-6.863 c-7.802-2.909-13.414-6.268-13.888-5.625c-0.462 0.6 4.5 5.2 12.3 9.226c4.514 2.4 9.9 4.5 15.1 6.1 c-3.845-0.855-7.676-1.852-11.095-2.981c-7.861-2.417-13.35-5.77-13.824-5.15c-0.507 0.6 4.5 5.3 12.4 8.8 c0.715 0.3 1.5 0.7 2.2 0.979c-0.156-0.05-0.317-0.099-0.472-0.149c-8.305-2.544-14.321-5.691-14.758-5.025 c-0.434 0.6 5.1 5.1 13.4 8.714c2.195 1 4.6 1.9 7 2.804c-1.427-0.367-2.823-0.743-4.162-1.127 c-8.57-2.326-14.784-5.282-15.194-4.648c-0.187 0.3 0.7 1.2 2.5 2.413c-0.341-0.071-0.567-0.072-0.633 0 c-0.42 0.6 5.4 5.2 14 9.204c4.237 2 9.1 3.9 13.9 5.565c-4.054-1.094-8.067-2.29-11.7-3.548 c-9.174-3.025-15.846-6.527-16.279-5.864c-0.425 0.6 5.7 5.4 14.8 9.534c9.032 4.2 20.8 7.7 29.5 9.5 c4.273 1 12.2 1.4 15.2 0.6c0.77 1.5 1.6 3 2.3 4.502c-3.028-1.457-10.554-3.353-14.749-4.351 c-8.987-1.852-21.044-5.093-30.537-8.776c-9.531-3.585-16.459-7.525-16.907-6.862c-0.436 0.6 5.9 5.8 15.3 10.5 c9.382 4.7 21.7 8.7 31 10.622c4.925 1.2 14.5 1.6 16.7 0.469c0.737 1.4 1.5 2.7 2.2 4.1 c-3.481-1.177-10.403-2.478-14.372-3.291c-9.135-1.478-21.393-4.493-31.106-8.008c-0.572-0.199-1.135-0.399-1.689-0.599 c-6.965-3.663-11.779-6.509-12.169-5.96c-0.128 0.2 0.4 0.8 1.4 1.786c-2.926-1.164-4.747-1.834-4.948-1.487 c-0.372 0.6 6.3 5.5 15.9 9.919c0.16 0.1 0.3 0.2 0.5 0.226c0.792 0.5 1.6 1 2.4 1.6 c9.276 5.9 21.8 11.5 31.6 13.851c4.854 1.5 14.3 1.6 17.3 0.446c0.837 1.4 1.7 2.8 2.5 4.2 c-3.214-0.947-11.427-1.819-15.94-2.642c-9.454-1.149-22.108-4.374-32.091-8.224c-10.014-3.745-17.447-7.654-17.874-6.935 c-0.31 0.5 4.3 4.1 11.6 8.105c-7.034-2.73-11.748-5.009-12.066-4.481c-0.402 0.6 7 6 17.7 10.7 c10.714 4.8 24.7 8.7 35.1 10.343c5.128 1 14.7 1.1 18 0.196c0.915 1.4 1.8 2.9 2.8 4.3 c-3.399-0.755-11.441-1.239-15.916-1.893c-9.54-0.776-22.362-3.617-32.522-7.174c-10.183-3.463-17.785-7.15-18.185-6.415 c-0.297 0.5 4.5 4 11.9 7.783c-8.044-2.422-13.535-4.633-13.831-4.068c-0.369 0.7 7.6 5.6 18.9 9.6 c11.248 4.1 25.6 7.5 36.2 9.169c5.262 0.9 15 1.2 18.4 0.419c0.955 1.4 1.9 2.8 2.9 4.1 c-3.734-1.087-11.611-2.17-16.087-2.794c-10.026-1.078-23.551-3.423-34.345-6.454c-10.824-2.918-18.906-6.309-19.265-5.582 c-0.346 0.6 7.2 5.4 18.1 9.341c5.798 2.2 12.5 4.1 19.1 5.558c-6.149-1.109-12.344-2.412-17.882-3.881 c-11.896-2.966-20.637-6.802-21.009-6.094c-0.369 0.6 8 5.8 19.9 9.875c11.835 4.2 26.9 7.3 38.1 8.6 c5.658 0.8 16.2 0.7 19.488-0.345c0.973 1.3 2 2.6 2.9 3.885c-4.093-1.073-12.598-2.098-17.446-2.638 c-10.915-0.942-25.684-2.928-37.469-5.85c-11.83-2.743-20.541-6.475-20.905-5.755c-0.361 0.6 7.9 5.7 19.8 9.6 c9.754 3.3 21.7 5.7 31.9 6.953h23.989c0.611-0.127 1.131-0.266 1.531-0.415c0.108 0.1 0.2 0.3 0.3 0.415h3.461 c-0.387-0.482-0.778-0.961-1.164-1.444C442.399 797.4 450.7 789.9 454.6 785.374z M364.826 604.6 c0.019-0.02 0.028-0.06 0.043-0.087c0.035 0 0.1 0.1 0.1 0.063c-0.128 1.212-0.222 2.386-0.267 3.4 c-0.262-0.774-1.089-1.969-1.893-3.643c-0.129-0.253-0.258-0.515-0.387-0.781C363.459 604.6 364.4 605.1 364.8 604.65z M365.032 614.392c-0.659-1.642-2.136-4.057-3.557-6.21c1.463 0.8 2.8 1.1 3.2 0.639c-0.035 1.7 0.1 3 0.4 3.5 c0.002 0.2 0 0.4 0 0.655C365.074 613.5 365 614 365 614.392z M365.385 616.5 c0.044 0 0.1 0.1 0.1 0.093c0.142 0 0.312-0.011 0.505-0.15c-0.222 1.105-0.396 2.139-0.499 3 C365.484 618.5 365.4 617.5 365.4 616.532z M365.692 622.375c0.047 0.1 0.1 0.1 0.2 0.1 c0.436 0.2 1.19-0.622 2.081-1.928c-0.818 2.621-1.528 5.361-1.824 7.346C365.951 626.1 365.8 624.2 365.7 622.375z M358.275 629.465c-0.355-0.268-0.731-0.568-1.098-0.854c3.665 2 8.3 3.4 8.8 2.224c0.193 2.3 0.4 4.5 0.7 6.8 C365.61 635.6 360.9 631.6 358.3 629.465z M367.237 638.43c0.429 0.1 1.224-0.449 2.202-1.479 c-0.76 2.071-1.382 4.048-1.653 5.47C367.594 641.1 367.4 639.8 367.2 638.43z M368.101 644.5 c0.784 0 2.466-1.814 4.271-4.258c-1.47 3.213-2.93 6.879-3.475 9.184C368.615 647.8 368.4 646.2 368.1 644.546z M369.299 651.713c0.885-0.236 2.586-2.06 4.397-4.399c-1.597 3.597-3.111 7.596-3.394 9.7 C369.95 655.2 369.6 653.5 369.3 651.713z M379.037 667.779c-2.243 3.731-4.245 7.606-4.051 8.8 c-0.504-1.819-0.991-3.643-1.459-5.471C374.209 671.6 376.5 670 379 667.779z M372.76 671.7 c0.36 1.5 0.7 3 1.1 4.42c-1.595-1.029-5.225-2.272-8.211-3.261C368.891 673 372 672.5 372.8 671.7z M361.576 677.385c0.018 0 0 0 0.1 0.016c0.07 0 0.2 0 0.2 0.1 C361.765 677.4 361.7 677.4 361.6 677.385z M365.072 678.339c-0.821-0.208-1.678-0.436-2.56-0.682 c3.796 1 10.1 1 11.761-0.043c0.422 1.6 0.9 3.2 1.3 4.738C373.405 681 368.1 679.2 365.1 678.339z M405.399 713.454c-3.825 3.864-9.916 10.611-11.478 13.52c-0.653-1.372-1.295-2.75-1.93-4.131 C394.095 722.5 400.9 717.5 405.4 713.454z M369.879 691.002c3.355 0.2 6.944-0.097 8.022-0.885 c0.43 1.4 0.9 2.7 1.3 4.089C377.336 693.1 373.1 691.8 369.9 691.002z M379.744 695.8 c0.418 1.2 0.9 2.5 1.3 3.716c-1.781-0.945-5.049-2.006-7.935-2.837C375.949 696.7 378.7 696.4 379.7 695.792z M374.523 701.978c2.977 0.1 5.889-0.047 7.159-0.606c0.486 1.4 1 2.7 1.5 4.1 C381.318 704.3 377.6 703 374.5 701.978z M380.78 695.096c0.903 0.7 5.848-2.827 10.029-6.433 c-3.947 4.72-8.822 11.134-7.993 12.014c0.804 0.8 5.95-2.959 10.251-6.834c-3.604 4.356-7.975 10.186-8.294 12 C383.375 702.3 382 698.7 380.8 695.096z M385.006 706.47c1.221 0.4 6.457-3.756 10.699-7.734 c-3.527 4.292-7.931 10.286-8.717 12.648C386.314 709.8 385.7 708.1 385 706.47z M385.977 712.7 c0.445 1.1 0.9 2.2 1.3 3.318c-1.905-0.839-5.282-1.695-8.263-2.328C382.146 713.7 385 713.3 386 712.668z M388.123 717.879c0.5 1.2 1 2.4 1.5 3.552c-1.939-0.888-5.483-1.84-8.636-2.563 C383.966 718.8 386.8 718.5 388.1 717.879z M382.891 724.107c3.172 0 6.257-0.258 7.558-0.852 c0.577 1.3 1.2 2.6 1.8 3.897C390.249 726.1 386.3 725 382.9 724.107z M392.968 728.8 c0.596 1.3 1.2 2.6 1.8 3.833c-2.026-1.018-5.536-2.195-8.687-3.123C389.112 729.6 391.9 729.4 393 728.802z M388.227 734.927c3.164 0.2 6.2 0.2 7.525-0.282c0.507 1 1 2.1 1.5 3.1 C395.008 736.8 391.4 735.7 388.2 734.927z M393.44 753.031c4.434 0.2 9.479-0.026 11.569-0.762 c0.849 1.5 1.7 3 2.6 4.511C404.253 755.7 397.6 754.3 393.4 753.031z M407.255 757.8 c0.307 0 0.6 0 0.9 0.039c0 0 0 0 0 0.002C407.871 757.8 407.6 757.8 407.3 757.752z M410.49 757.642c1.797-0.12 8.672-5.729 13.522-10.425c-4.029 4.83-9.729 12.494-10.603 15.2 C412.424 760.8 411.5 759.2 410.5 757.642z M406.04 765.823c2.76-0.334 5.086-0.862 6.06-1.484 c0.728 1.2 1.5 2.4 2.2 3.537C412.22 767.2 409.1 766.5 406 765.823z M413.997 777.4 c2.446-0.433 4.485-1.008 5.445-1.613c0.823 1.2 1.7 2.5 2.5 3.701C419.9 778.8 417 778.1 414 777.424z M413.746 788.928c5.237 0.2 11.672-0.336 13.882-1.265c1.075 1.5 2.2 3 3.3 4.5 C426.801 790.9 418.6 789.6 413.7 788.928z M434.847 793.088c2.963-0.965 11.786-7.864 15.962-12.112 c0.943-0.932 1.919-1.917 2.915-2.938c-1.12 1.251-2.206 2.461-3.242 3.611c-3.856 4.365-10.559 12.786-12.035 16 C437.236 796.2 436 794.6 434.8 793.088z" class="style0"/><path d="M488.724 768.381c7.684-9.819 12.171-18.466 11.48-18.852c-0.648-0.379-6.194 7.321-14.509 16.3 c-8.222 9.076-18.916 19.639-26.887 27.322c-1.858 1.833-4.376 4.473-6.695 7.073h7.201c1.278-1.09 2.447-2.145 3.383-3.068 C470.755 789.4 481.1 778.3 488.7 768.381z" class="style0"/><path d="M1.5 782.443v14.916c0.54 1 1.1 1.9 1.7 2.883h7.804c-2.287-4.864-4.668-9.67-6.743-13.588 C3.573 785.4 2.6 783.9 1.5 782.443z" class="style0"/><path d="M243.349 545.892c8.916-4.228 19.683-12.35 26.829-20.404c7.266-7.975 11.215-15.315 10.434-15.869 c-0.897-0.672-6.297 5.415-14.147 12.035c-7.764 6.741-18.227 13.571-26.44 17.467c-4.284 2.378-12.669 6.498-14.167 8.6 c1.01-2.522 1.987-5.057 2.936-7.605c1.273 1.8 11.865-2.086 16.401-5.381c7.865-5.219 17.548-13.745 24.144-21.818 c6.697-8.003 10.489-15.136 9.687-15.687c-0.896-0.645-6.14 5.249-13.546 12.007c-3.609 3.376-7.797 6.893-12.01 10.2 c12.248-14.853 22.694-38.391 21.038-39.184c-1.01-0.578-6.646 7.904-13.642 17.618c7.042-13.744 11.674-27.82 10.279-28.321 c-1.583-0.671-12.933 21.869-23.648 36.588c8.76-17.177 21.905-46.472 20.078-47.413c-0.973-0.497-5.997 7.14-11.815 17 c3.37-10.801 5.64-19.527 4.624-19.914c-1.098-0.419-5.796 8.991-10.908 20.494c2.589-14.015 4.345-26.33 3.128-26.615 c-1.062-0.252-4.18 8.722-7.566 20.122c1.092-12.112 1.53-21.611 0.488-21.766c-1.128-0.166-3.761 10.693-6.427 24.1 c0.618-13.244 0.686-23.513-0.344-23.616c-1.232-0.119-3.749 14.265-6.085 30.986c-0.28-15.151-0.958-27.45-2.082-27.484 c-1.286-0.036-2.854 15.908-4.021 33.863c-1.022-14.585-2.278-26.235-3.377-26.212c-1.631 0.041-2.435 25.675-2.44 48.5 c-1.956-18.339-4.373-35.28-5.792-35.168c-1.967 0.164-0.783 40.6 0.8 64.174c0.48 7 3.1 20.9 5.2 21 c-1.082 2.375-2.188 4.738-3.323 7.086c0.652-4.333 0.082-13.621-0.679-18.807c-1.736-11.35-4.227-26.731-5.966-39.303 c-1.85-12.576-2.537-22.355-3.542-22.413c-0.804-0.053-1.678 5.519-1.858 13.699c-0.773-4.836-1.387-7.85-1.757-7.87 c-2.11-0.008-1.95 22.607-0.155 43.759c-0.791-4.705-1.553-9.35-2.224-13.678c-2.142-13.129-3.159-23.367-4.175-23.383 c-1.068-0.025-1.934 10.476-1.126 23.936c0.144 2.8 0.3 5.7 0.6 8.623c-0.153-0.91-0.304-1.81-0.452-2.695 c-2.382-13.391-3.329-23.731-4.209-23.811c-1.205-0.095-2.141 10.74-1.088 24.418c0.89 13.7 3.1 30.3 5.1 42.5 c1.171 7.2 5.4 21.3 7.5 21.32c-1.188 2.011-2.395 4.01-3.62 5.999c0.153-4.16-2.206-14.888-3.657-20.711 c-3.255-11.807-6.947-28.044-8.859-41.512c-2.021-13.445-2.371-24.059-3.441-24.113c-1.003-0.072-2.564 10.663-1.87 24.6 c0.589 13.9 3.5 30.8 6.9 42.962c1.71 6.9 7.5 19.4 9.9 20.403c-1.383 2.219-2.793 4.421-4.222 6.6 c0.567-3.043-2.47-14.173-4.335-19.939c-3.742-10.752-8.311-25.539-11.195-37.843c-2.974-12.282-4.329-22.054-5.396-22.003 c-0.989 0.025-1.523 9.7 0 22.146c-3.166-11.938-4.582-21.067-5.517-21.052c-1.097 0.001-1.414 10.8 0.9 24.4 c2.151 13.6 6.3 29.9 9.9 41.668c2.131 7.1 8.5 20.7 10.5 20.034c0.073-0.026 0.136-0.078 0.194-0.142 c-3.119 4.551-6.335 9.037-9.643 13.457c0.255-3.755-3.136-15.643-5.36-21.849c-4.426-11.997-10.346-28.305-14.44-41.828 c-4.256-13.489-6.172-24.248-7.175-24.189c-1.083 0.046-1.009 11.4 2 25.492c2.842 14.1 8 31 12.5 43.1 c2.472 6.9 9.2 19.6 11.6 20.391c-1.497 1.986-3.012 3.959-4.545 5.917c0.665-2.695-4.246-15.729-7.182-22.274 c-5.431-11.715-12.651-27.696-17.613-41.065c-5.178-13.313-7.342-24.118-8.321-24.049c-1.108 0.046-0.754 11.6 3.2 25.7 c0.042 0.2 0.1 0.3 0.1 0.479c-4.517-13.093-6.909-23.352-7.921-23.209c-1.01 0.12-0.291 11.8 3.4 26.4 c1.564 6.5 3.7 13.6 6 20.474c-2.344-5.947-4.592-11.895-6.522-17.415c-5.132-14.234-7.687-25.671-8.698-25.55 c-1.064 0.105-0.329 12.2 3.6 27.089c2.302 9.1 5.6 19.3 9.1 28.752c-10.147-24.307-21.014-51.537-22.223-51.205 c-1.605 0.5 4 20.6 11.3 41.759c-1.204-3.11-2.365-6.161-3.446-9.083c-5.398-14.145-8.444-25.431-9.43-25.283 c-1.08 0.1 0.2 12.1 4.4 26.911c4.017 14.8 10.4 32.5 15.6 45.232c3.099 7.7 11.3 22.3 13.3 21.4 c1.554-0.708-1.756-11.964-4.676-20.076c3.4 6.6 7.7 13.6 9.6 14.672c-3.078 3.473-6.21 6.898-9.396 10.3 c-0.342-4.04-5.79-16.784-9.024-23.425c-6.405-12.733-14.836-30.168-20.879-44.743c-6.196-14.524-9.657-26.268-10.675-26.061 c-1.027 0.2 0.6 12.6 5.7 27.898c4.11 13 10.3 27.9 16.1 39.997c-5.716-11.494-12.156-24.932-17.094-36.565 c-6.406-14.675-9.993-26.559-11-26.351c-1.039 0.2 0.8 12.8 6 28.23c5.076 15.5 13.1 33.7 19.7 46.8 c3.361 6.8 11.2 18.7 14.5 21.16c-1.762 1.786-3.537 3.558-5.328 5.314c0.399-3.146-5.306-17.468-8.714-24.696 c-6.318-13.101-14.806-30.929-21.137-45.726c-6.458-14.751-10.376-26.586-11.368-26.361c-1.046 0.2 1.1 12.8 6.4 28.3 c5.133 15.5 13 33.9 19.3 47.089c3.579 7.6 12.4 21.6 14.9 22.049c-3.807 3.72-7.672 7.377-11.6 11 c-0.033-3.662-4.031-15.341-7.032-23c4.345 8.2 11.1 18.5 12.6 17.715c1.808-0.929-4.475-17.541-8.113-25.561 c-6.158-13.272-14.496-31.315-20.615-46.292c-6.32-14.923-9.661-26.946-10.617-26.805c-1.025 0.1 0.2 11.1 4.5 25 c-4.805-13.344-7.715-23.343-8.635-23.162c-1.022 0.2 0.7 13.3 5.3 29.625c4.496 16.4 11.6 35.9 17.6 49.9 c3.175 7.7 11.1 21.7 13.9 23.503c-2.04 1.849-4.098 3.675-6.168 5.486c-0.239-4.276-5.395-17.965-8.555-25.106 c-6.235-13.757-14.591-32.485-20.829-47.999c-6.354-15.472-10.274-27.823-11.281-27.599c-1.029 0.2 1.1 13.2 6.3 29.4 c5.019 16.2 12.7 35.4 19 49.299c3.306 7.5 11.2 20.9 14.3 23.04c-2.152 1.87-4.318 3.721-6.501 5.5 c0.247-3.49-5.567-18.742-8.935-26.544c-6.365-14.249-14.71-33.731-20.668-49.954c-6.114-16.174-9.557-29.14-10.589-28.945 c-1.02 0.2 0.6 13.7 5.5 30.595c2.073 7.4 4.7 15.4 7.6 23.276c-2.747-6.669-5.455-13.309-7.892-19.441 c-6.547-16.009-10.525-28.691-11.421-28.535c-1.161 0.2 1.1 13.7 6.4 30.31c5.15 16.6 12.6 36.6 18.6 51.1 c3.213 7.9 10.9 22.4 13.7 24.449c-1.997 1.607-4.007 3.195-6.027 4.771c0.315-3.859-4.457-19.238-7.495-27.141 c-5.746-14.733-13.673-34.693-19.783-51.098c-6.266-16.359-10.071-29.307-11.014-29.144c-1.113 0.2 0.9 13.9 5.9 30.8 c4.869 17 12.1 37.4 17.8 52.16c3.156 8.2 10.8 23.4 13.6 25.145c-2.006 1.557-4.023 3.098-6.051 4.6 c-0.191-4.767-4.462-18.701-7.232-26.072c-5.566-14.579-13.195-34.342-18.982-50.611c-5.932-16.228-9.467-29.084-10.441-28.923 c-1.088 0.2 0.7 13.7 5.4 30.513c4.532 16.8 11.4 37 17 51.695c2.89 7.7 9.8 21.5 12.8 24.5 c-2.299 1.718-4.61 3.42-6.936 5.1c-0.002-3.822-5.898-18.694-9.323-26.361c-6.569-14.24-15.211-33.706-21.123-49.996 c-6.148-16.237-8.834-29.382-9.818-29.284c-1.095 0.08-0.219 13.9 4.7 30.916c4.718 17 12.7 37.1 19.4 51.5 c3.534 7.9 12.2 22.1 15.2 23.959c-2.267 1.629-4.545 3.242-6.836 4.835c-0.78-4.415-7.137-18.024-10.513-25.327 c-6.951-13.992-15.238-33.568-20.379-50.136c-5.286-16.518-7.586-29.866-8.673-29.741c-0.987 0.083-0.545 13.9 3.5 31.1 c3.924 17.3 11.6 37.7 18.7 52.032c3.486 7.5 12.3 20.4 15.9 22.994c-2.539 1.753-5.093 3.483-7.66 5.2 c-0.501-4.312-6.327-17.789-9.722-24.861c-6.767-13.615-15.575-32.283-21.6-47.978c-6.22-15.634-9.062-28.358-10.063-28.235 c-1.073 0.108-0.031 13.5 5 29.951c0.679 2.3 1.4 4.7 2.2 7.07c-0.87-2.285-1.713-4.534-2.512-6.72 c-6.112-16.208-9.438-29.187-10.425-29.031c-1.075 0.1 0.5 13.8 5.3 30.67c4.723 16.9 12.2 37 18.4 51.5 c3.101 7.5 10.4 20.7 13.7 23.855c-1.615 1.029-3.234 2.052-4.86 3.064c-0.653-4.984-5.482-17.966-8.554-24.882 c-6.332-14.017-14.98-33.017-21.661-48.677c-6.79-15.614-11.31-27.993-12.296-27.733c-1.028 0.3 1.7 13.4 7.3 29.6 c5.468 16.3 13.4 35.8 19.8 49.863c3.142 7.1 10.2 19.5 13.6 22.903c-2.048 1.265-4.104 2.517-6.168 3.8 c-0.966-4.881-6.344-17.103-9.604-23.645c-6.824-13.304-15.867-31.479-22.402-46.672c-3.361-7.605-5.972-14.484-7.864-19.422 v12.226c0.823 2.9 1.8 5.9 2.9 9.109c5.364 15.9 13.8 34.7 20.7 48.176c3.315 6.6 10.8 18 14.4 21.4 c-1.866 1.111-3.738 2.211-5.617 3.302c-1.005-4.192-7.115-15.389-10.551-21.364C16.311 720.4 7.5 704.4 1.5 690.646v15.109 c4.611 10.8 10.3 21.7 15.3 30.049c3.466 6 11.5 15.9 15.2 18.52c-2.028 1.168-4.063 2.323-6.104 3.5 c-1.247-4.305-7.921-15.627-11.632-21.694c-3.975-6.161-8.495-13.588-12.833-21.301v14.628c2.19 3.9 4.4 7.5 6.5 10.7 c3.72 6.1 12.2 16 16.1 18.69c-2.132 1.185-4.271 2.357-6.417 3.516c-0.896-4.372-6.08-14.918-9.456-20.394 c-2.037-3.308-4.321-6.947-6.74-10.743v14.172c0.104 0.2 0.2 0.3 0.3 0.513c3.338 5.4 10.3 14.7 13.8 17.5 c-1.861 0.996-3.725 1.986-5.596 2.963c-1.506-2.697-5.155-7.115-8.562-10.854v8.747c2.074 1.5 4.1 2.7 5.7 3.6 c-1.895 0.978-3.796 1.944-5.701 2.903v4.957c0.096-0.049 0.192-0.097 0.288-0.147c0.71 3.8 4.5 11.3 7.5 15 c2.299 3 5.1 6.4 8.2 9.667h9.624c-4.445-4.833-8.581-9.904-11.865-14.249c-2.762-3.43-7.875-9.385-10.953-11.695 c2.305-1.2 4.602-2.414 6.892-3.642c1.646 3.7 8.7 11.6 13.5 15.038c6.251 4.9 14.6 10.1 23 14.547h13.058 c-10.872-5.83-22.96-13.887-31.499-20.529c-4.235-3.031-11.705-8.434-15.687-10.332c1.655-0.897 3.304-1.804 4.95-2.716 c2.586 3.9 12 11.7 18.1 14.582c12.168 6.6 29.9 12.6 44.8 15.449c14.859 2.9 26.6 3.2 26.7 2.2 c0.143-1.107-11.233-3.241-25.4-7.416c-14.205-4.065-30.975-10.695-42.559-16.941c-5.339-2.492-14.319-7.444-19.064-9.332 c1.929-1.08 3.853-2.167 5.77-3.267c2.626 3.5 13.6 11.1 20.2 13.864c12.908 6 31.5 11.8 47 14.2 c15.532 2.6 27.7 2.1 27.8 1.179c0.066-0.998-9.552-2.291-22.282-5.32c1.003 0.1 2 0.2 3 0.3 c15.967 1.7 28.3 0.1 28.25-0.78c-0.012-1.152-12.222-1.485-27.457-4.496c-15.277-2.782-33.249-8.956-45.612-15.225 c-5.891-2.545-15.942-7.891-20.792-9.661c1.759-1.055 3.511-2.121 5.259-3.195c3.254 3.3 15.7 9.9 23.1 12 c14.355 4.8 34.6 8.7 51.2 9.663c16.645 1.1 29.497-0.192 29.464-1.149c-0.006-1.119-12.753-1.701-28.892-4.152 c-16.17-2.291-35.589-6.93-49.47-11.533c-6.344-1.819-17.379-5.385-22.868-6.403c1.859-1.154 3.709-2.323 5.555-3.498 c3.635 3.3 16.7 9.6 24.4 11.436c15.103 4.4 36.3 7.7 53.7 7.742c17.378 0.3 30.639-2.058 30.536-3.006 c-0.086-1.121-13.359-0.699-30.252-2.318c-16.914-1.413-37.303-5.421-51.919-9.677c-6.626-1.621-18.119-4.91-23.889-5.828 c1.44-0.928 2.882-1.854 4.314-2.795c3.521 2.9 16.8 8.2 24.3 9.84c14.669 3.7 35.1 6.8 51.9 6.9 c16.862 0.3 29.695-2.551 29.516-3.533c-0.15-1.079-12.914-0.121-29.23-1.792c-16.337-1.422-36.076-5.345-50.436-8.917 c-6.43-1.43-17.746-3.841-23.445-4.261c1.827-1.215 3.648-2.44 5.461-3.677c3.732 2.8 17.2 7.5 24.8 9 c14.892 3.2 35.5 5.9 52.5 5.679c16.985 0.1 29.894-2.945 29.703-3.928c-0.165-1.067-13.012 0.011-29.51-1.403 c-7.719-0.546-16.204-1.59-24.546-2.863c9.017 1 18.4 1.5 26.8 1.232c15.55-0.356 27.319-3.067 27.157-4.038 c-0.141-1.086-11.951-0.289-27.058-1.296c-15.118-0.848-33.426-3.769-46.708-6.778c-5.992-1.16-16.53-3.222-21.777-3.467 c1.842-1.325 3.677-2.661 5.503-4.01c3.96 2.5 16.6 6.4 23.7 7.525c14.323 2.5 34.1 4.5 50.3 4.1 c16.213-0.157 28.551-2.994 28.366-3.989c-0.13-0.852-8.105-0.428-19.437-0.851c11.141-1.568 18.778-3.961 18.618-4.733 c-0.19-1.114-11.516 0.272-26.042 0.242c-14.539 0.101-32.166-1.878-44.694-5.06c-6.005-1.122-16.492-4.02-21.165-4.543 c1.813-1.405 3.617-2.823 5.412-4.253c3.877 2.6 16.1 6.7 23.1 7.628c14.078 2.4 33.6 3.6 49.4 2.1 c15.831-1.312 27.606-5.011 27.361-5.97c-0.174-0.814-7.185 0.037-17.364 0.448c10.995-1.907 18.485-4.54 18.303-5.3 c-0.232-1.105-11.439 0.637-25.872 1.042c-14.44 0.552-32.02-0.862-44.603-3.53c-6.127-0.923-17.003-3.402-21.523-3.597 c1.709-1.422 3.41-2.855 5.1-4.302c3.297 2.8 15.4 6.8 22.3 6.987c13.582 1.3 31.989-0.403 46.421-3.879 c1.313-0.302 2.593-0.613 3.837-0.929c0.23-0.025 0.466-0.045 0.694-0.072c14.279-1.463 24.897-4.761 24.689-5.707 c-0.105-0.531-2.717-0.473-6.967-0.265c1.723-0.791 2.644-1.391 2.557-1.671c-0.258-0.872-7.655 0.659-18.158 2.3 c-0.795 0.013-1.601 0.022-2.418 0.026c-13.949 0.243-30.931-1.267-43.249-3.376c-5.427-0.697-14.842-2.063-19.804-2.082 c1.561-1.412 3.109-2.839 4.651-4.273c2.377 2.4 14.8 6.1 21.6 6.727c12.664 1.6 30.1 1.9 44.207-0.028 c14.109-1.813 24.457-5.729 24.162-6.684c-0.281-1.043-10.858 0.961-24.604 1.372c-13.742 0.553-30.565-0.58-42.858-2.146 c-5.796-0.56-16.242-1.429-20.748-0.893c1.665-1.564 3.321-3.138 4.964-4.727c3.446 2.3 13.8 5.2 19.7 5.9 c11.97 1.6 28.5 2.3 41.9 0.839c13.433-1.243 23.379-4.726 23.105-5.7c-0.262-1.036-10.319 0.52-23.365 0.4 c-5.193 0.018-10.844-0.209-16.502-0.585c6.89 0 13.93-0.263 20.236-1.016c12.77-1.334 22.236-4.638 21.971-5.616 c-0.039-0.161-0.329-0.259-0.796-0.317c2.755-0.799 4.327-1.573 4.207-2.004c-0.247-0.99-9.48 0.069-21.448-0.708 c-1.879-0.095-3.827-0.226-5.811-0.381c3.511-0.032 6.957-0.19 10.201-0.51c12.188-1.002 21.16-4.328 20.871-5.293 c-0.266-1.042-9.331 0.346-21.055-0.035c-0.22-0.003-0.446-0.011-0.668-0.016c1.101-0.077 2.19-0.167 3.252-0.284 c11.67-1.044 20.08-4.908 19.682-5.859c-0.336-1-8.816 0.882-19.917 0.533c-4.863-0.053-10.194-0.455-15.481-1.044 c7.402 0.2 15.213-0.104 22.033-1.204c11.667-1.723 20.047-5.476 19.711-6.422c-0.324-1.028-8.964 0.809-20.206 1.1 c-11.23 0.462-24.961-0.698-34.983-2.181c-4.831-0.547-13.668-1.325-17.291-0.663c1.267-1.484 2.517-2.982 3.763-4.482 c2.205 2.1 12.1 4.7 17.5 5.093c10.256 0.9 24.4 1 35.786-0.783c11.494-1.611 19.741-5.706 19.283-6.685 c-0.383-0.937-8.704 1.176-19.777 1.375c-1.51 0.056-3.07 0.086-4.66 0.095c3.255-0.332 6.436-0.799 9.41-1.426 c11.22-2.182 19.106-6.363 18.712-7.28c-0.346-0.907-6.997 0.814-16.159 1.717c10.541-2.014 17.961-5.825 17.588-6.739 c-0.369-1.019-8.222 0.926-18.474 1.493c-1.398 0.096-2.842 0.162-4.311 0.206c2.899-0.258 5.733-0.641 8.394-1.17 c10.41-1.842 17.612-6.036 17.167-6.935c-0.427-0.991-7.899 1.241-17.82 1.649c-9.896 0.617-22.06-0.332-30.971-1.479 c-4.302-0.422-12.222-0.827-15.435 0.016c1.299-1.783 2.585-3.575 3.854-5.378c1.982 2.1 11 4.9 16 5.1 c9.472 0.8 22.5 0 32.791-2.735c10.303-2.639 17.347-7.02 16.901-7.906c-0.445-0.986-7.96 1.5-17.915 2.7 c-7.626 1.008-16.619 1.16-24.467 0.846c9.455 0.3 21.605-1.343 31.026-4.565c10.155-3.291 17.105-7.741 16.687-8.613 c-0.376-0.841-5.651 0.827-13.113 2.459c0.39-0.14 0.784-0.277 1.165-0.423c10.074-3.668 16.799-8.499 16.343-9.335 c-0.505-1.009-7.956 2.042-17.846 4.22c-9.866 2.336-22.157 3.226-31.093 2.541c-4.654-0.041-13.391-0.609-16.101 0.3 c1.394-2.195 2.769-4.401 4.117-6.624c0.272 2.2 10.7 5.2 16.1 5.075c9.304 0.2 22.024-1.783 31.548-5.81 c9.612-3.891 15.719-9.134 15.166-9.931c-0.585-0.935-7.469 2.515-16.841 4.87c-9.347 2.51-21.123 3.529-29.784 3.3 c-4.65 0.126-13.622 0.333-15.761 1.699c1.369-2.268 2.709-4.553 4.029-6.848c2.309 1.8 11.5 3.2 16.4 2.7 c9.427-0.557 22.239-3.011 31.95-7.267c9.836-4.076 15.956-9.788 15.32-10.557c-0.63-0.886-7.463 2.985-17.092 5.5 c-9.557 2.75-21.697 4.239-30.68 4.771c-4.064 0.388-11.303 1.313-14.654 2.584c1.121-1.981 2.223-3.972 3.307-5.974 c0.604 2.1 11 3.5 16.2 2.728c8.929-0.921 20.945-3.867 29.949-8.288c9.105-4.277 14.808-9.679 14.194-10.468 c-0.626-0.875-7.14 2.749-16.155 5.514c-8.966 2.921-20.365 4.873-28.818 5.748c-4.355 0.618-12.562 2.103-14.797 3.7 c1.297-2.415 2.569-4.842 3.811-7.286c1.737 1.8 12.3 2.2 17.6 1.052c9.644-1.748 22.463-6.078 31.821-11.77 c9.471-5.559 15.107-12.002 14.419-12.712c-0.714-0.822-7.343 3.937-16.846 7.971c-9.436 4.181-21.666 7.442-30.811 9.1 c-4.371 0.981-12.356 2.911-15.305 4.628c1.016-2.027 2.009-4.066 2.986-6.113c0.853 2.1 12 1.2 17.264-0.774 c8.993-2.956 20.527-8.785 28.96-14.903c8.506-6.028 13.992-11.952 13.36-12.706c-0.692-0.847-7.276 3.515-16.16 8.2 c-2.25 1.211-4.658 2.421-7.135 3.599c4.993-2.904 9.832-6.301 13.784-9.789c7.964-6.84 12.644-13.464 11.932-14.112 c-0.801-0.774-6.763 4.42-15.139 9.853c-8.307 5.554-19.207 10.883-27.578 13.686c-4.392 1.783-12.884 4.822-14.62 6.7 c1.366-3.118 2.695-6.253 3.967-9.413c-0.001 0.028-0.006 0.058-0.003 0.085C226.027 550.7 238.1 548.8 243.3 545.892z M234.145 525.352c0.053 0 0.1 0 0.163-0.008c0.008 0 0 0.1 0 0.1c0.425 0.7 1.8 0.5 3.509-0.237 c-0.282 0.284-0.561 0.562-0.837 0.829c-1.759 1.788-3.339 2.953-4.012 3.827C233.385 528.5 233.8 527 234.1 525.352z M230.314 535.917c0.099-0.278 0.203-0.554 0.301-0.832c0.648-0.451 1.366-2.056 2.067-4.248c0.302 0.7 2.1 1 4.4 0.6 c-2.757 2.129-5.701 4.57-7.261 6.379C229.974 537.2 230.1 536.6 230.3 535.917z M227.604 540 c0.186 0.3 0.4 0.4 0.6 0.412c0.075 0 0.151-0.02 0.226-0.056c-0.485 1.249-0.993 2.488-1.492 3.7 C227.175 542.9 227.4 541.5 227.6 540.026z M44.716 766.669c-5.474-2.332-11.9-5.047-15.54-6.052 c1.823-1.057 3.64-2.123 5.452-3.199C36.109 759.7 40.2 763.4 44.7 766.669z M55.803 739.9 c-0.46-4.813-5.34-18.505-8.358-25.77c-0.82-1.923-1.679-3.944-2.563-6.033c0.826 1.7 1.6 3.4 2.4 5 c3.478 7.3 11.7 19.9 15.1 22.459C60.223 737 58 738.5 55.8 739.904z M91.201 739.5 c-6.497-1.229-17.556-3.156-23.301-3.403c2.048-1.415 4.087-2.844 6.117-4.287C76.434 734 84.4 737.4 91.2 739.505z M95.913 724.697c-4.092-0.454-8.155-0.793-11.05-0.804c1.606-1.204 3.205-2.418 4.798-3.64 C90.623 721.4 93 723.1 95.9 724.697z M111.155 713.355c-4.235-0.513-8.5-0.941-11.461-0.993 c1.46-1.179 2.92-2.359 4.368-3.554C105.034 710 107.8 711.7 111.2 713.355z M103.25 705.7 c0.047-3.779-3.883-16.066-6.919-24c4.143 8.1 10.5 18.3 12.7 19.236C107.126 702.6 105.2 704.1 103.2 705.718z M111.933 702.158c0.001-0.001 0.002-0.002 0.003-0.002c0.4 0.1 0.8 0.2 1.2 0.4 C112.732 702.4 112.3 702.3 111.9 702.158z M132.849 702.522c-5.845-0.24-14.972-1.35-19.717-1.399 c1.767-1.531 3.523-3.077 5.268-4.635C120.75 698.3 127.1 700.9 132.8 702.522z M134.903 646.8 c3.956 7.1 10.4 16.4 13 17.842c-1.408 1.48-2.824 2.952-4.252 4.413C142.907 664.6 138.1 653.4 134.9 646.758z M134.619 681.306c1.112-1.091 2.219-2.187 3.32-3.29c1.509 1.2 5.3 2.6 9.5 3.7 C143.006 681.3 137.9 681.1 134.6 681.306z M140.061 675.874c1.339-1.36 2.669-2.729 3.991-4.106 c1.133 1.2 4.6 2.7 8.5 3.916C148.095 675.5 143.1 675.5 140.1 675.874z M145.76 670 c1.322-1.392 2.632-2.796 3.937-4.204c1.401 1.3 5.2 3 9.3 4.392C154.252 669.8 148.7 669.5 145.8 669.988z M151.532 663.807c1.17-1.279 2.325-2.573 3.48-3.866c1.39 1.3 4.9 3 8.7 4.4 C159.335 663.9 154.4 663.5 151.5 663.807z M168.421 658.498c-4.074-0.493-8.753-0.873-11.547-0.637 c1.063-1.205 2.112-2.423 3.161-3.639C160.985 655.5 164.5 657.1 168.4 658.498z M159.32 652.1 c0.014-3.38-2.984-12.942-5.605-19.951c3.651 6.9 8.5 14.4 10.3 14.578C162.434 648.6 160.9 650.3 159.3 652.121z M164.573 646.047c0.347-2.602-2.667-11.877-5.339-18.956c3.798 6.8 8.7 13.9 10.1 13.2 c1.442-0.761-1.972-11.068-4.948-18.822c3.743 6.4 8.5 13 10 12.603C171.169 638.1 167.9 642.1 164.6 646.047z M166.799 646.192c1.231-1.5 2.455-3.005 3.664-4.521c1.389 1.3 5 2.8 8.9 3.9 C174.949 645.4 169.7 645.6 166.8 646.192z M172.123 639.561c1.095-1.39 2.189-2.78 3.266-4.183 c1.072 1.3 4.5 2.8 8.1 4.028C179.449 639.2 174.8 639.1 172.1 639.561z M190.072 633.6 c-4.41-0.335-10.411-0.591-13.317-0.004c1.164-1.535 2.323-3.074 3.465-4.625C181.266 630.4 185.7 632.3 190.1 633.569z M188.555 599.908c2.239 3.9 4.5 6.9 5.6 6.655c-1.391 2.121-2.804 4.228-4.237 6.3 C190.64 611.4 189.8 605.6 188.6 599.908z M206.578 619.799c0.435 0 0.9 0 1.3 0.1 c-0.547-0.024-1.105-0.043-1.639-0.072C206.374 619.8 206.5 619.8 206.6 619.799z M201.773 619.5 c-4.196-0.181-11.773-0.31-15.175 0.522c1.261-1.814 2.505-3.638 3.734-5.472c1.679 2.1 9.7 4.8 15 5.2 C204.095 619.7 202.9 619.6 201.8 619.493z M203.409 612.233c-4.241-0.043-9.419-0.044-11.908 0.6 c1.129-1.704 2.239-3.419 3.341-5.139C195.441 609.1 199.3 610.9 203.4 612.233z M204.441 589.9 c0.537-2.751 0.354-8.518-0.112-13.807c1.287 3.8 2.7 6.8 3.7 7.542C206.844 585.7 205.7 587.8 204.4 589.896z M209.517 580.928c0.309-3.183 0.048-8.501-0.424-13.239c1.229 3.9 2.6 7 3.6 7.3 C211.638 577 210.6 579 209.5 580.928z M214.019 572.408c0.274-1.933 0.345-4.725 0.281-7.697 c0.793 1.7 1.5 2.8 2.2 2.86C215.658 569.2 214.8 570.8 214 572.408z M233.661 559.4 c-0.619 0.214-1.23 0.421-1.824 0.617c-4.216 1.596-12.016 4.655-14.271 6.703c1.302-2.755 2.559-5.532 3.788-8.321 C221.602 560.1 228.1 560.3 233.7 559.401z M222.503 554.613c0.49-2.664 0.78-6.475 0.882-10.175 c0.567 2.1 1.2 3.4 1.8 3.37c0.089-0.002 0.176-0.041 0.263-0.095C224.502 550 223.5 552.3 222.5 554.613z" class="style0"/></g></svg>