<?xml version="1.0" encoding="utf-8"?>
<!-- Generator: Adobe Illustrator 17.0.0, SVG Export Plug-In . SVG Version: 6.00 Build 0)  -->
<!DOCTYPE svg PUBLIC "-//W3C//DTD SVG 1.1//EN" "http://www.w3.org/Graphics/SVG/1.1/DTD/svg11.dtd">
<svg version="1.1" id="Layer_1" xmlns="http://www.w3.org/2000/svg" xmlns:xlink="http://www.w3.org/1999/xlink" x="0px" y="0px"
	 width="200px" height="200px" viewBox="0 0 200 200" enable-background="new 0 0 200 200" xml:space="preserve">
<g>
	<path d="M38.105,67.29V31.424h15.457c1.751,0,3.368,0.363,4.85,1.087c1.482,0.724,2.754,1.667,3.814,2.828
		c1.061,1.162,1.894,2.493,2.501,3.99c0.606,1.499,0.909,3.005,0.909,4.521c0,1.584-0.286,3.124-0.858,4.622
		c-0.573,1.5-1.373,2.829-2.4,3.991c-1.027,1.162-2.273,2.088-3.738,2.778c-1.465,0.691-3.074,1.036-4.825,1.036h-5.86V67.29H38.105
		z M47.955,47.691h5.203c0.606,0,1.17-0.278,1.692-0.833c0.522-0.557,0.782-1.558,0.782-3.006c0-1.482-0.303-2.492-0.909-3.03
		c-0.605-0.539-1.212-0.808-1.818-0.808h-4.951L47.955,47.691L47.955,47.691z"/>
	<path d="M35.478,117.254V81.388h9.85v14.65l11.921-14.65h10.103L54.32,97.452l13.943,19.801H57.957l-9.446-14.295l-3.183,3.637
		v10.659L35.478,117.254L35.478,117.254z"/>
	<path d="M67.126,141.298H56.821v27.278H46.97v-27.278H36.615v-8.588h30.511V141.298z"/>
</g>
<g>
	<path d="M82.175,67.29l13.386-35.866h7.981l13.336,35.866h-10.406l-2.172-7.022h-9.548L92.63,67.29H82.175z M99.552,41.679
		l-3.334,12.022h6.516L99.552,41.679z"/>
	<path d="M115.389,81.388v35.866h-9.851V103.21H93.515v14.044h-9.85V81.388h9.85v13.235h12.023V81.388H115.389z"/>
	<path d="M112.308,159.989v8.587H86.746V132.71h25.106v8.588H96.598v5.051h13.032v7.981H96.598v5.658L112.308,159.989
		L112.308,159.989z"/>
</g>
<g>
	<path d="M131.448,67.29V31.424h16.468c1.75,0,3.367,0.363,4.849,1.087c1.482,0.724,2.754,1.667,3.815,2.828
		c1.06,1.162,1.894,2.493,2.5,3.99c0.606,1.499,0.909,3.005,0.909,4.521c0,2.089-0.455,4.033-1.364,5.835
		c-0.909,1.801-2.172,3.275-3.789,4.42l8.083,13.184h-11.113l-6.82-11.012h-3.688V67.29H131.448z M141.298,47.691h6.213
		c0.606,0,1.17-0.337,1.692-1.01c0.522-0.673,0.783-1.617,0.783-2.829c0-1.245-0.304-2.197-0.909-2.853
		c-0.606-0.657-1.213-0.985-1.819-0.985h-5.961L141.298,47.691L141.298,47.691z"/>
	<path d="M147.108,117.506c-2.56,0-4.892-0.522-6.996-1.566c-2.104-1.043-3.907-2.416-5.405-4.117
		c-1.499-1.699-2.66-3.645-3.485-5.834s-1.239-4.446-1.239-6.769c0-2.357,0.43-4.63,1.289-6.82c0.859-2.189,2.062-4.117,3.613-5.784
		c1.549-1.667,3.375-2.997,5.479-3.99c2.106-0.993,4.42-1.491,6.946-1.491c2.56,0,4.892,0.523,6.998,1.567
		c2.104,1.044,3.907,2.424,5.405,4.142c1.497,1.717,2.652,3.671,3.459,5.859c0.809,2.19,1.213,4.429,1.213,6.719
		c0,2.358-0.43,4.622-1.289,6.794c-0.857,2.172-2.044,4.092-3.561,5.759c-1.515,1.668-3.333,3.005-5.455,4.016
		C151.957,117.001,149.633,117.506,147.108,117.506z M139.986,99.321c0,1.212,0.142,2.383,0.43,3.511
		c0.286,1.128,0.731,2.13,1.339,3.005c0.605,0.876,1.363,1.584,2.272,2.122s1.97,0.807,3.183,0.807c1.245,0,2.324-0.278,3.233-0.833
		c0.909-0.556,1.649-1.279,2.222-2.172c0.573-0.892,1.001-1.91,1.289-3.056c0.286-1.144,0.43-2.306,0.43-3.485
		c0-1.213-0.152-2.383-0.456-3.511s-0.749-2.122-1.339-2.98c-0.589-0.859-1.339-1.549-2.248-2.071
		c-0.909-0.522-1.97-0.783-3.181-0.783c-1.247,0-2.316,0.27-3.209,0.808c-0.891,0.54-1.633,1.255-2.222,2.147
		c-0.589,0.892-1.027,1.903-1.313,3.03C140.128,96.989,139.986,98.142,139.986,99.321z"/>
	<path d="M134.125,168.576V132.71h9.851v27.279h16.266v8.587L134.125,168.576L134.125,168.576z"/>
</g>
<polygon fill="#CCA770" points="192.058,8.025 192.058,192.058 7.942,192.058 7.942,191.849 -0.058,199.837 -0.058,200.058 
	200.058,200.058 200.058,0.038 "/>
<polygon fill="#CCA770" points="7.942,7.942 192.058,7.942 192.058,8.025 200.058,0.038 200.058,-0.058 -0.058,-0.058 
	-0.058,199.837 7.942,191.849 "/>
</svg>
