<?xml version="1.0" encoding="utf-8"?>
<!-- Generator: Adobe Illustrator 17.0.0, SVG Export Plug-In . SVG Version: 6.00 Build 0)  -->
<!DOCTYPE svg PUBLIC "-//W3C//DTD SVG 1.1//EN" "http://www.w3.org/Graphics/SVG/1.1/DTD/svg11.dtd">
<svg version="1.1" id="Layer_1" xmlns="http://www.w3.org/2000/svg" xmlns:xlink="http://www.w3.org/1999/xlink" x="0px" y="0px"
	 width="50px" height="63.25px" viewBox="0 0 50 63.25" enable-background="new 0 0 50 63.25" xml:space="preserve">
<g>
	<path fill="#FFFFFF" d="M24.65,0.81c-12.527,0-22.682,10.155-22.682,22.682S24.65,62.12,24.65,62.12s22.682-26.101,22.682-38.628
		S37.176,0.81,24.65,0.81z M24.65,31.593c-4.474,0-8.101-3.627-8.101-8.101s3.627-8.101,8.101-8.101s8.101,3.627,8.101,8.101
		S29.123,31.593,24.65,31.593z"/>
	<path d="M24.65,63.355l-0.612-0.704c-0.934-1.076-22.88-26.476-22.88-39.159C1.158,10.539,11.696,0,24.65,0
		s23.492,10.539,23.492,23.492c0,12.683-21.946,38.083-22.88,39.159L24.65,63.355z M24.65,1.62c-12.06,0-21.872,9.812-21.872,21.872
		c0,10.945,18.268,33.114,21.872,37.379c3.604-4.265,21.872-26.435,21.872-37.379C46.521,11.432,36.71,1.62,24.65,1.62z
		 M24.65,32.403c-4.913,0-8.911-3.997-8.911-8.911s3.997-8.911,8.911-8.911c4.913,0,8.911,3.997,8.911,8.911
		S29.562,32.403,24.65,32.403z M24.65,16.201c-4.02,0-7.291,3.27-7.291,7.291s3.27,7.291,7.291,7.291s7.291-3.27,7.291-7.291
		S28.67,16.201,24.65,16.201z"/>
</g>
</svg>
