<?xml version="1.0" encoding="utf-8"?>
<!-- Generator: Adobe Illustrator 17.0.0, SVG Export Plug-In . SVG Version: 6.00 Build 0)  -->
<!DOCTYPE svg PUBLIC "-//W3C//DTD SVG 1.1//EN" "http://www.w3.org/Graphics/SVG/1.1/DTD/svg11.dtd">
<svg version="1.1" id="Layer_1" xmlns="http://www.w3.org/2000/svg" xmlns:xlink="http://www.w3.org/1999/xlink" x="0px" y="0px"
	 width="997.4px" height="142.2px" viewBox="0 0 997.4 142.2" enable-background="new 0 0 997.4 142.2" xml:space="preserve">
<path fill="#CCA770" d="M583.198,71.199c0.823-1.13,2.121-3.635,1.796-3.84c-0.303-0.19-2.08,1.947-2.889,3.059
	c-1.321,1.866-3.144,4.382-4.734,6.352c-1.571,1.987-2.943,3.392-2.823,3.534c0.117,0.144,1.748-1.04,3.535-2.905
	C579.885,75.555,581.86,73.09,583.198,71.199z"/>
<path fill="#CCA770" d="M251.678,113.954c1.866-0.47,5.668-1.213,5.744-1.842c0.078-0.843-4.205-1.28-6.26-0.765
	c-3.42,0.63-7.825,2.418-10.989,4.512c-3.199,2.057-5.21,4.196-4.994,4.456c0.245,0.311,2.636-1.272,5.91-2.813
	C244.344,115.912,248.528,114.536,251.678,113.954z"/>
<path fill="#CCA770" d="M387.57,96.193c-2.448-1.439-6.902-5.056-6.459-5.701c0.411-0.6,5.456,1.942,7.866,3.36
	c3.977,2.408,9.414,5.618,13.976,8.001c4.538,2.431,8.238,3.938,8.129,4.3c-0.102,0.363-4.103-0.522-8.946-2.549
	C397.279,101.629,391.6,98.634,387.57,96.193z"/>
<path fill="#CCA770" d="M298.459,45.836c-1.95-2.065-5.217-6.781-4.613-7.277c0.563-0.461,4.697,3.387,6.616,5.422
	c3.146,3.422,7.472,8.023,11.188,11.584c3.679,3.601,6.811,6.079,6.606,6.397c-0.199,0.319-3.795-1.647-7.878-4.943
	C306.267,53.764,301.648,49.305,298.459,45.836z"/>
<path fill="#CCA770" d="M489.612,95.055c-1.322,1.47-3.821,4.567-4.43,4.333c-0.803-0.333,0.855-4.435,2.309-6.054
	c2.214-2.805,5.952-5.947,9.373-7.817c3.404-1.919,6.313-2.719,6.446-2.398c0.165,0.37-2.421,1.784-5.393,4.019
	C494.909,89.333,491.652,92.472,489.612,95.055z"/>
<path fill="#CCA770" d="M619.938,110.613c-0.99-0.582-2.79-2.044-2.611-2.305c0.167-0.242,2.206,0.785,3.18,1.358
	c1.608,0.974,3.806,2.272,5.65,3.235c1.834,0.983,3.33,1.592,3.286,1.738c-0.041,0.147-1.659-0.211-3.616-1.03
	C623.862,112.81,621.567,111.6,619.938,110.613z"/>
<path fill="#CCA770" d="M676.308,84.693c-0.788-0.835-2.109-2.741-1.864-2.941c0.227-0.186,1.899,1.369,2.674,2.192
	c1.272,1.383,3.021,3.243,4.523,4.684c1.487,1.455,2.754,2.458,2.67,2.586c-0.081,0.129-1.533-0.666-3.185-1.998
	C679.465,87.899,677.597,86.096,676.308,84.693z"/>
<path fill="#CCA770" d="M808.52,96.561c-0.534,0.594-1.545,1.847-1.791,1.752c-0.324-0.134,0.345-1.793,0.933-2.448
	c0.895-1.133,2.406-2.405,3.789-3.16c1.376-0.775,2.552-1.099,2.606-0.969c0.067,0.15-0.979,0.721-2.18,1.624
	C810.661,94.247,809.345,95.516,808.52,96.561z"/>
<path fill="#CCA770" d="M166.026,100.766c0.794,1.811,2.585,5.365,2.121,5.823c-0.635,0.594-3.687-2.608-4.563-4.6
	c-1.642-3.174-2.962-7.875-3.256-11.763c-0.344-3.892,0.127-6.872,0.473-6.861c0.406,0.002,0.626,2.941,1.437,6.57
	C162.998,93.58,164.515,97.842,166.026,100.766z"/>
<path fill="#CCA770" d="M166.853,31.204c-1.561,0.071-4.656,0.686-4.606,1.113c0.046,0.398,3.153,0.457,4.689,0.388
	c2.554-0.149,6.023-0.313,8.854-0.301c2.832-0.016,5.018,0.201,5.059-0.002c0.043-0.203-2.13-0.8-5.005-1.059
	C172.971,31.055,169.44,31.053,166.853,31.204z"/>
<path fill="#CCA770" d="M175.045,47.214c-0.265-1.055-0.685-3.204-1.041-3.246c-0.476-0.045-0.723,2.377-0.432,3.538
	c0.357,1.934,1.367,4.423,2.55,6.211c1.162,1.808,2.372,2.945,2.519,2.823c0.175-0.138-0.719-1.49-1.591-3.34
	C176.151,51.36,175.374,48.995,175.045,47.214z"/>
<g>
	<path fill="#CCA770" d="M970.71,0.343c1.799,2.794,2.711,4.9,2.464,5.042c-0.312,0.191-2.041-2.104-4.66-5.042H970.71z"/>
	<path fill="#CCA770" d="M960.846,0.343h3.161c1.249,2.009,2.392,4.057,3.326,6.003c2.585,5.277,3.854,9.639,3.505,9.775
		c-0.402,0.165-2.338-3.888-5.321-8.782C964.157,5.073,962.538,2.657,960.846,0.343z"/>
	<path fill="#CCA770" d="M852.494,100.156c0.143,0.375,3.989-0.678,8.896-2.234c-4.745,2.336-8.557,4.411-8.383,4.817
		c0.162,0.375,3.684-0.741,8.119-2.363c-3.936,2.409-6.996,4.478-6.795,4.851c0.228,0.428,4.674-1.465,9.671-3.837
		c-3.803,3.067-6.865,5.773-6.596,6.141c0.247,0.344,3.299-1.387,7.013-3.733c-3.106,3.166-5.476,5.819-5.192,6.134
		c0.535,0.591,10.196-7.26,15.761-12.261c-4.447,5.488-11.755,11.992-11.346,12.518c0.327,0.474,5.149-2.677,9.601-6.696
		c-2.946,3.6-5.57,6.567-5.25,6.887c0.465,0.542,8.259-5.747,12.6-11.832c-0.816,1.917-1.721,3.851-2.629,5.548
		c-1.794,3.452-3.479,6.008-3.147,6.279c0.286,0.244,2.583-1.888,4.914-5.2c2.367-3.28,4.597-7.763,5.766-11.235
		c0.792-2.053,1.184-6.485,0.349-6.693c0.005-0.007,0.01-0.012,0.015-0.019c2.026-1.438,4.011-2.924,5.95-4.471
		c-0.583,0.678-0.886,4.333-1.123,6.219c-0.213,3.418-1.123,8.039-2.375,11.709c-1.198,3.684-2.551,6.439-2.181,6.662
		c0.315,0.203,2.329-2.215,4.098-5.885c0.913-1.832,1.702-3.987,2.292-6.149c-0.194,1.048-0.407,2.072-0.637,3.038
		c-0.857,3.796-1.835,6.701-1.448,6.875c0.346,0.162,2.019-2.488,3.428-6.279c1.45-3.774,2.484-8.681,2.692-12.348
		c0.225-2.2-0.61-6.596-1.486-6.543c0.69-0.588,1.39-1.16,2.067-1.76c-0.366,1.239-0.298,4.461-0.228,6.224
		c0.29,3.595,0.29,8.506-0.334,12.462c-0.562,3.968-1.685,6.928-1.305,7.112c0.334,0.186,2.188-2.571,3.324-6.676
		c1.198-4.076,1.54-9.317,1.232-13.108c-0.087-2.154-1.336-6.117-2.193-6.471c0.813-0.729,1.61-1.472,2.404-2.22
		c-0.414,0.959-0.145,4.244,0.06,5.96c0.518,3.256,0.925,7.725,0.726,11.38c-0.136,3.658-0.842,6.461-0.453,6.609
		c0.358,0.153,1.813-2.527,2.505-6.369c0.758-3.817,0.661-8.618,0.114-12.058c-0.252-2.062-1.847-5.897-2.682-5.769
		c0.661-0.622,1.312-1.252,1.961-1.888c-0.153,1.368,0.225,4.202,0.489,5.781c0.7,3.42,1.353,8.122,1.278,11.98
		c0.01,3.863-0.758,6.814-0.363,6.962c0.351,0.162,1.881-2.704,2.426-6.8c0.625-4.067,0.264-9.116-0.47-12.706
		c-0.32-1.91-1.777-5.243-2.685-5.892c0.748-0.743,1.506-1.477,2.237-2.237c-0.392,0.789,0.455,4.316,0.888,6.134
		c0.939,3.227,1.736,7.744,1.728,11.498c0.053,3.75-0.552,6.674-0.143,6.802c0.353,0.128,1.709-2.687,2.208-6.679
		c0.557-3.975,0.036-8.942-0.976-12.409c-0.501-2.096-2.721-5.756-3.549-5.51c0.717-0.746,1.406-1.515,2.106-2.275
		c-0.107,1.075,1,4.345,1.486,6.105c1.15,3.282,2.045,7.979,2.157,11.912c0.172,3.926-0.228,7.025,0.201,7.112
		c0.358,0.087,1.498-2.917,1.866-7.061c0.017-0.169,0.024-0.353,0.039-0.528c0.136,2.98,0.039,5.154,0.395,5.209
		c0.368,0.07,1.344-2.98,1.561-7.117c0.286-4.125-0.419-9.24-1.619-12.81c-0.528-1.934-2.585-5.132-3.607-5.57
		c0.574-0.654,1.14-1.317,1.702-1.983c0.002,1.331,0.813,4.202,1.31,5.781c1.176,3.302,2.452,7.894,2.953,11.75
		c0.557,3.849,0.375,6.916,0.789,6.984c0.378,0.08,1.314-2.999,1.273-7.127c0.017-4.12-1.009-9.095-2.254-12.568
		c-0.583-1.857-2.513-4.967-3.508-5.478c0.559-0.668,1.109-1.348,1.658-2.026c-0.034,1.247,0.92,4.231,1.52,5.834
		c1.322,3.227,2.893,7.693,3.65,11.465c0.84,3.762,0.748,6.785,1.164,6.846c0.382,0.077,1.235-3.043,0.884-7.129
		c-0.068-1.051-0.208-2.15-0.402-3.261c0.131,0.554,0.252,1.101,0.353,1.634c0.813,3.9,0.869,7.039,1.288,7.076
		c0.38,0.048,1.065-3.111,0.767-7.26c0.576,3.52,0.598,6.183,0.973,6.221c0.382,0.056,1.162-3.319,0.859-7.744
		c-0.063-1.181-0.208-2.428-0.412-3.687c0.157,0.603,0.305,1.196,0.436,1.772c1.034,4.171,1.072,7.502,1.462,7.553
		c0.411,0.075,1.123-3.428,0.578-7.899c-0.46-4.461-1.91-9.743-3.285-13.495c-0.688-1.992-2.665-5.444-3.665-6.057
		c0.443-0.625,0.871-1.264,1.307-1.895c0.094,1.404,1.285,4.682,1.98,6.456c1.559,3.609,3.365,8.642,4.316,12.898
		c1.009,4.246,1.186,7.669,1.603,7.688c0.387,0.031,0.959-3.486,0.436-8.032c-0.269-2.668-0.932-5.626-1.755-8.381
		c0.75,1.924,1.438,3.88,1.944,5.698c1.242,4.127,1.382,7.495,1.791,7.521c0.01-0.973-0.053-1.939-0.128-2.9
		c0.085,0.961,0.136,1.927,0.128,2.9c0.397,0.053,1.005-3.486,0.23-7.964c-0.063-0.419-0.148-0.852-0.23-1.283
		c0.027,0.094,0.058,0.191,0.085,0.283c1.314,4.357,1.702,7.894,2.118,7.892c0.392,0.012,0.741-3.684-0.102-8.354
		c-0.203-1.249-0.491-2.556-0.83-3.876c0.257,0.729,0.503,1.448,0.726,2.142c1.489,4.411,2.014,7.976,2.409,7.971
		c0.174,0.002,0.303-0.69,0.324-1.808c0.07,0.177,0.138,0.298,0.203,0.298c0.392,0.002,0.685-3.878-0.092-8.799
		c-0.349-2.435-0.939-5.1-1.639-7.676c0.704,2.079,1.356,4.171,1.866,6.115c1.36,4.875,1.782,8.802,2.196,8.797
		c0.392,0.005,0.704-4.072-0.172-9.233c-0.801-5.161-2.709-11.283-4.5-15.611c-0.83-2.152-2.999-5.752-4.185-6.802
		c0.433-0.777,0.871-1.552,1.293-2.334c0.24,1.733,1.615,5.577,2.406,7.703c1.815,4.452,3.924,10.646,5.088,15.853
		c1.22,5.195,1.527,9.361,1.946,9.361c0.387,0.015,0.821-4.256,0.09-9.726c-0.671-5.468-2.537-11.99-4.408-16.577
		c-0.93-2.491-3.568-6.783-4.686-7.427c0.387-0.731,0.755-1.472,1.133-2.205c0.494,1.849,1.958,5.272,2.767,7.25
		c2.021,4.408,4.287,10.625,5.589,15.877c0.082,0.317,0.155,0.617,0.232,0.927c0.433,4.081,0.605,7.008,0.956,7.018
		c0.114,0.005,0.245-0.431,0.368-1.147c0.349,1.619,0.591,2.619,0.799,2.607c0.375-0.017,0.549-4.328-0.329-9.828
		c-0.015-0.094-0.034-0.194-0.048-0.288c-0.005-0.496-0.01-0.99-0.029-1.511c-0.14-5.759-1.348-12.827-3.186-17.792
		c-0.753-2.573-3.503-6.722-4.863-7.654c0.375-0.782,0.753-1.561,1.118-2.348c0.518,1.668,2.542,5.51,3.503,7.72
		c2.258,4.452,4.546,10.9,5.783,16.369c1.29,5.451,1.757,9.828,2.196,9.804c0.305-0.007,0.533-3.108,0.148-7.432
		c0.869,3.873,1.256,6.609,1.578,6.594c0.385-0.005,0.593-4.788-0.496-10.854c-1.034-6.066-3.425-13.261-5.737-18.296
		c-1.068-2.53-3.813-6.732-5.183-7.906c0.358-0.818,0.719-1.634,1.065-2.455c0.656,1.692,2.796,5.343,3.82,7.49
		c2.445,4.379,4.95,10.789,6.367,16.25c1.465,5.444,2.077,9.828,2.513,9.789c0.305-0.017,0.428-3.135-0.097-7.465
		c1.29,4.202,1.939,7.25,2.271,7.214c0.392-0.029,0.223-4.941-1.341-11.034c-1.477-6.107-4.195-13.314-6.57-18.434
		c-1.13-2.566-3.854-6.918-5.197-8.143c0.327-0.825,0.634-1.658,0.949-2.486c0.61,1.937,2.447,5.703,3.483,7.841
		c2.457,4.679,5.381,11.251,7.211,16.834c1.888,5.563,2.769,10.07,3.19,10.014c0.38-0.036,0.22-4.72-1.201-10.586
		c-0.738-3.193-1.883-6.686-3.174-9.988c1.324,3.023,2.578,6.127,3.563,8.991c2.179,6.045,3.06,10.968,3.476,10.925
		c0.387-0.027,0.223-5.166-1.496-11.53c-1.627-6.376-4.691-13.846-7.376-19.112c-1.305-2.711-4.452-7.289-5.848-8.385
		c0.283-0.809,0.566-1.615,0.84-2.426c0.724,2.091,2.764,6.105,3.946,8.378c2.774,5.025,6.219,12.036,8.385,18.017
		c2.259,5.95,3.174,10.83,3.595,10.779c0.385-0.031,0.184-5.13-1.627-11.418c-1.714-6.306-4.95-13.648-7.787-18.782
		c-1.38-2.658-4.689-7.09-6.117-8.109c0.213-0.637,0.404-1.281,0.612-1.922c0.915,2.067,3.307,6.064,4.58,8.393
		c3.057,5.054,6.599,12.297,8.819,18.499c2.297,6.173,3.464,11.191,3.895,11.111c0.366-0.056-0.085-5.263-1.927-11.75
		c-1.76-6.504-5.113-14.132-8.272-19.356c-1.225-2.234-3.941-5.546-5.747-7.199h-2.757c-0.138,0.46-0.276,0.92-0.419,1.38
		c-0.666-0.404-2.147-0.908-3.859-1.38h-39.3c-0.172,0.07-0.266,0.138-0.259,0.194c0.053,0.387,5.108,0.182,11.593,0.951
		c6.487,0.69,14.367,2.125,20.148,3.302c2.99,0.566,8.613,1.399,10.283,1.157c-0.385,1.133-0.779,2.261-1.184,3.389
		c-1.348-1.089-7.025-3.096-10.196-3.65c-6.078-1.237-14.507-2.084-21.382-1.828c-6.889,0.201-12.099,1.414-12.031,1.791
		c0.061,0.421,5.297-0.051,12.019,0.278c6.725,0.271,14.895,1.421,20.835,2.629c3.072,0.535,8.785,1.552,10.53,1.406
		c-0.368,1.019-0.731,2.043-1.116,3.057c-0.942-0.942-7.163-2.764-10.494-3.302c-6.061-1.051-14.389-2.038-21.244-2.106
		c-6.863-0.16-12.145,0.898-12.065,1.314c0.061,0.378,5.258,0.073,11.961,0.753c6.698,0.588,14.861,1.881,20.857,2.922
		c3.222,0.518,9.39,1.242,10.811,0.857c-0.397,1.041-0.808,2.075-1.225,3.111c-1.416-0.845-7.286-2.041-10.453-2.355
		c-6.054-0.637-14.316-1.198-21.084-1.215c-6.773-0.075-12.019,0.62-11.975,1.043c0.036,0.38,5.209,0.421,11.888,1.024
		c6.679,0.542,14.851,1.428,20.874,2.058c3.045,0.303,8.698,0.508,10.494,0.102c-0.37,0.915-0.755,1.823-1.138,2.731
		c-0.934-0.85-7.378-2.21-10.77-2.571c-6.127-0.683-14.486-1.339-21.339-1.467c-6.853-0.189-12.186,0.414-12.147,0.852
		c0.034,0.37,5.267,0.501,12.029,1.215c6.761,0.651,15.037,1.627,21.135,2.309c3.256,0.346,9.458,0.598,10.903,0.102
		c-0.387,0.915-0.765,1.832-1.169,2.74c-1.026-0.867-7.24-2.3-10.537-2.716c-6.03-0.792-14.263-1.605-21.021-1.871
		c-6.756-0.332-12.043,0.179-12.002,0.634c0.031,0.351,5.183,0.576,11.84,1.428c2.581,0.305,5.386,0.663,8.204,1.031
		c-3.28-0.288-6.589-0.487-9.608-0.523c-6.809-0.153-12.06,0.591-12.024,0.99c0.029,0.407,5.236,0.402,11.91,1.077
		c6.679,0.612,14.817,1.794,20.796,2.755c3.266,0.484,9.559,1.135,10.833,0.69c-0.467,1.002-0.944,2-1.428,2.994
		c-1.109-0.925-6.918-2.547-10.053-3.038c-5.829-0.971-13.817-1.92-20.38-2.186c-6.567-0.315-11.665,0.184-11.644,0.593
		c0.017,0.399,5.04,0.634,11.474,1.469c6.439,0.787,14.297,2.048,20.08,3.011c2.987,0.47,8.61,1.031,10.252,0.697
		c-0.472,0.959-0.939,1.917-1.428,2.869c-0.939-0.896-6.981-2.462-10.198-2.883c-5.865-0.833-13.897-1.559-20.477-1.61
		c-6.587-0.107-11.67,0.562-11.639,0.966c0.024,0.366,4.139,0.46,9.688,0.937c-5.713-0.201-10.01,0.409-9.961,0.811
		c0.044,0.373,4.885,0.424,11.111,1.3c6.226,0.796,13.825,2.118,19.417,3.101c3.341,0.557,10.097,1.242,10.38,0.504
		c-0.506,0.934-0.997,1.874-1.52,2.801c-0.421-0.884-6.538-2.798-9.748-3.382c-5.592-1.068-13.266-2.162-19.586-2.537
		c-6.325-0.428-11.251,0.017-11.232,0.431c0.015,0.395,4.844,0.68,11.019,1.627c6.18,0.893,13.713,2.295,19.257,3.353
		c3.055,0.557,8.998,1.261,10.123,0.794c-0.479,0.847-0.971,1.69-1.465,2.53c-1.259-0.995-6.485-2.75-9.375-3.328
		c-5.553-1.179-13.195-2.36-19.506-2.716c-6.311-0.419-11.218,0.162-11.186,0.571c0.022,0.399,4.837,0.554,10.98,1.489
		c4.875,0.692,10.574,1.767,15.468,2.764c-5.122-0.949-11.36-1.794-16.652-2.038c-6.229-0.356-11.06,0.259-11.026,0.663
		c0.024,0.402,4.774,0.525,10.838,1.397c6.069,0.809,13.45,2.227,18.862,3.355c2.806,0.547,8.1,1.31,9.664,1.041
		c-0.443,0.719-0.91,1.423-1.365,2.135c0.027-0.823-6.19-2.416-9.358-2.803c-5.306-0.692-12.566-1.314-18.521-1.339
		c-5.962-0.085-10.576,0.639-10.525,1.058c0.044,0.385,4.58,0.399,10.421,1.007c1.189,0.111,2.44,0.242,3.711,0.382
		c-8.652-0.622-16.737-0.724-16.751-0.075c-0.002,0.487,11.307,1.84,21.443,3.215c-3.893-0.358-8.044-0.581-11.709-0.53
		c-5.989,0.022-10.583,0.951-10.516,1.36c0.056,0.392,4.599,0.206,10.448,0.707c2.288,0.174,4.774,0.426,7.265,0.714
		c-2.852-0.186-5.737-0.278-8.361-0.213c-5.829,0.077-10.286,0.978-10.23,1.368c0.048,0.392,4.115,0.271,9.443,0.651
		c-0.046,0-0.094-0.002-0.14-0.002c-5.681-0.092-10.044,0.93-9.949,1.351c0.073,0.373,4.34,0.104,9.85,0.717
		c5.51,0.523,12.222,1.632,17.158,2.498c2.75,0.448,8.129,0.985,9.066,0.462c-0.581,0.77-1.179,1.523-1.772,2.28
		c-0.593-0.83-5.977-2.055-8.792-2.292c-4.999-0.467-11.835-0.733-17.419-0.385c-5.594,0.281-9.85,1.387-9.758,1.796
		c0.077,0.382,4.304,0.024,9.787,0.271c5.48,0.182,12.186,0.772,17.127,1.232c2.542,0.213,7.306,0.293,8.705-0.172
		c-1.327,1.682-2.682,3.341-4.076,4.965c0.022-0.031,0.048-0.061,0.051-0.094c0.065-0.823-5.677-1.837-8.56-1.924
		c-4.786-0.184-11.307-0.114-16.616,0.438c-5.323,0.487-9.351,1.69-9.242,2.099c0.087,0.351,3.658-0.024,8.441-0.031
		c-4.827,0.658-8.393,1.818-8.303,2.191c0.087,0.404,3.888-0.063,8.79-0.177c4.902-0.148,10.903,0.087,15.309,0.414
		c2.312,0.121,6.684,0.148,7.855-0.344c-0.668,0.741-1.324,1.494-2.004,2.22c-0.62-0.821-5.894-1.728-8.64-1.682
		c-4.875-0.044-11.51,0.54-16.797,1.711c-5.304,1.135-9.172,2.794-9.044,3.164c0.128,0.397,4.142-0.535,9.385-1.121
		c5.241-0.629,11.697-0.869,16.449-0.828c2.321-0.039,6.563-0.225,8.119-0.695c-0.62,0.656-1.259,1.295-1.891,1.937
		c-0.31-0.767-5.921-0.93-8.722-0.649c-4.764,0.453-11.218,1.305-16.444,2.341c-5.234,0.973-9.204,2.406-9.046,2.849
		c0.119,0.322,4.089-0.356,9.349-0.801c0.351-0.034,0.719-0.068,1.082-0.102c-1.14,0.203-2.259,0.416-3.319,0.641
		c-5.127,1.043-8.978,2.418-8.862,2.815c0.109,0.38,4.047-0.261,9.184-0.772c1.69-0.182,3.51-0.358,5.352-0.533
		c-8.109,1.443-16.606,3.643-16.393,4.432c0.044,0.136,1.254,0.061,3.137-0.131c-3.055,0.886-5.062,1.772-4.962,2.07
		c0.121,0.37,3.856-0.349,8.758-0.913c4.887-0.605,10.903-1.208,15.333-1.692c1.992-0.23,5.466-0.93,7.056-1.598
		c-0.753,0.646-1.506,1.29-2.271,1.92c-0.291-0.753-5.73-0.339-8.395,0.179c-8.986,1.76-24.275,5.362-24.142,6.117
		c0.099,0.545,6.71-0.247,13.791-1.351c-8.562,2.285-18.112,5.151-17.964,5.769c0.102,0.414,4.609-0.283,10.182-1.36
		c-6.621,2.234-12.452,4.42-12.309,4.897c0.126,0.419,4.817-0.562,10.533-1.973C857.483,97.319,852.327,99.706,852.494,100.156z
		 M943.477,2.42c-0.312,0.973-0.644,1.941-0.968,2.91c-1.3-1.009-6.855-2.83-9.918-3.408c-0.685-0.138-1.404-0.278-2.142-0.414
		c0.874,0.123,1.724,0.244,2.53,0.358C936.011,2.272,941.64,2.732,943.477,2.42z M942.252,10.057
		c0.339-0.908,0.683-1.816,1.009-2.728c0.663,2.128,2.496,6.091,3.607,8.407C945.401,13.393,943.293,10.728,942.252,10.057z
		 M939.485,17.082c0.303-0.726,0.598-1.455,0.893-2.186c0.293,1.089,0.828,2.588,1.414,4.093
		C940.877,18.041,940.027,17.317,939.485,17.082z M936.643,23.625c0.307-0.671,0.593-1.348,0.891-2.021
		c0.312,1.106,0.903,2.675,1.525,4.227C938.108,24.727,937.198,23.867,936.643,23.625z M934.184,26.269
		c-0.61-0.75-5.045-2.101-8.492-2.837c3.275,0.346,8.289,0.593,9.707,0.198C935.007,24.514,934.593,25.39,934.184,26.269z
		 M933.445,30.229c0.411-0.813,0.821-1.627,1.22-2.447c0.489,1.772,1.82,5.091,2.498,7.265
		C935.97,33.035,934.375,30.912,933.445,30.229z M909.911,54.974c2.961,0.315,6.776,0.552,7.458,0.102
		c-0.576,0.796-1.143,1.598-1.733,2.384C915.665,56.864,912.698,55.741,909.911,54.974z M911.509,52.48
		c2.946,0.298,6.756,0.499,7.662,0.097c-0.554,0.796-1.13,1.573-1.699,2.36C917.563,54.337,914.431,53.216,911.509,52.48z
		 M925.672,42.442c-0.404,0.683-0.821,1.358-1.235,2.033c-0.779-0.823-4.936-2.314-7.991-3.089
		C919.241,41.926,923.942,42.609,925.672,42.442z M929.219,36.14c0.114-0.675-4.43-2.152-7.921-2.961
		c3.171,0.361,7.962,0.695,9.342,0.339C930.182,34.402,929.693,35.267,929.219,36.14z M928.478,39.406
		c0.305-0.528,0.605-1.058,0.908-1.588c0.252,1.273,0.847,3.154,1.421,4.788C929.977,41.151,929.071,39.847,928.478,39.406z
		 M926.742,42.318c0.387-0.641,0.77-1.285,1.15-1.929c0.143,1.179,0.658,3.067,1.179,4.725
		C928.205,43.773,927.294,42.616,926.742,42.318z M925.062,45.034c0.402-0.634,0.806-1.266,1.198-1.905
		c0.121,1.15,0.76,3.215,1.392,4.953C926.726,46.683,925.699,45.414,925.062,45.034z M925.922,50.43
		c-0.893-1.278-1.881-2.433-2.515-2.815c0.375-0.571,0.738-1.15,1.106-1.726C924.685,46.988,925.309,48.83,925.922,50.43z
		 M921.753,50.069c0.353-0.518,0.721-1.026,1.068-1.549c0.191,1.075,0.804,2.796,1.397,4.277
		C923.31,51.439,922.322,50.275,921.753,50.069z M921.218,49.525c-0.595-0.617-3.65-1.52-6.458-2.135
		c3.082,0.264,7.206,0.382,7.899-0.119C922.177,48.021,921.71,48.781,921.218,49.525z M919.354,52.299
		c-0.218-0.634-3.527-1.711-6.487-2.397c2.878,0.281,6.734,0.448,8.02,0.111C920.378,50.779,919.877,51.546,919.354,52.299z
		 M918.088,55.228c0.45-0.61,0.91-1.21,1.353-1.825c0.046,1.135,0.533,3.137,1.019,4.778
		C919.64,56.83,918.701,55.603,918.088,55.228z M918.568,60.352c-0.821-1.256-1.745-2.367-2.326-2.641
		c0.424-0.552,0.828-1.116,1.244-1.673C917.587,57.089,918.081,58.837,918.568,60.352z M914.276,60.178
		c0.482-0.6,0.966-1.196,1.438-1.803c0.051,1.138,0.753,3.401,1.331,5.052C916.118,61.873,914.927,60.362,914.276,60.178z
		 M907.771,67.777c0.545-0.595,1.097-1.186,1.634-1.791c0,0.98,0.516,2.934,0.963,4.551
		C909.459,69.084,908.352,67.823,907.771,67.777z M904.254,66.191c2.251-0.111,4.488-0.366,4.984-0.787
		c-0.637,0.741-1.288,1.465-1.939,2.193C907.251,67.172,905.917,66.637,904.254,66.191z M896.905,74.487
		c2.009-0.351,4.161-0.85,5.156-1.322c-0.651,0.654-1.305,1.305-1.968,1.946C899.718,74.799,898.439,74.594,896.905,74.487z
		 M894.232,77.113c1.799-0.293,3.784-0.719,4.955-1.147c-0.617,0.588-1.23,1.181-1.859,1.757
		C897.101,77.38,895.813,77.186,894.232,77.113z M893.634,79.365c1.116-0.271,2.15-0.576,2.847-0.869
		c-0.518,0.465-1.051,0.913-1.573,1.373C894.816,79.65,894.341,79.486,893.634,79.365z M891.957,82.642
		c0.949-0.76,1.881-1.544,2.81-2.329c-0.569,0.949-0.951,4.306-1.135,6.095c-0.015,0.235-0.034,0.487-0.051,0.733
		C893.363,84.954,892.63,82.509,891.957,82.642z M888.391,85.141c-0.058-0.237-0.627-0.336-1.465-0.344
		c1.368-0.404,2.726-0.881,3.679-1.329c-0.743,0.595-1.477,1.206-2.234,1.786C888.384,85.216,888.401,85.177,888.391,85.141z
		 M885.702,86.825c0.518-0.215,0.997-0.428,1.402-0.634c-0.392,0.293-0.789,0.576-1.184,0.864c0-0.019,0.012-0.041,0.007-0.058
		C885.905,86.922,885.818,86.869,885.702,86.825z M882.756,89.655c0.767-0.491,1.31-0.93,1.409-1.22
		c0.075-0.051,0.145-0.107,0.22-0.157c0.269-0.145,0.511-0.286,0.721-0.419c-0.523,0.765-1.147,2.116-1.67,3.367
		C883.371,90.323,883.063,89.667,882.756,89.655z M880.865,90.74c0.576-0.305,1.121-0.61,1.6-0.905
		c-0.269,0.327-0.549,1.038-1.06,1.905c-0.07,0.123-0.15,0.257-0.225,0.385c0.111-0.721,0.053-1.242-0.264-1.327
		c-0.012-0.002-0.036,0.017-0.051,0.017C880.867,90.791,880.875,90.761,880.865,90.74z"/>
	<path fill="#CCA770" d="M953.349,0.544c-0.048-0.063-0.111-0.136-0.162-0.201h6.48c2.442,3.571,4.8,7.654,6.437,11.404
		c2.513,5.568,3.575,10.179,3.217,10.29c-0.37,0.126-1.842-3.404-4.277-7.916c0.16,0.392,0.329,0.789,0.472,1.176
		c2.244,5.815,2.881,10.595,2.532,10.671c-0.433,0.111-1.779-4.435-4.43-9.845C961.046,10.675,956.936,4.553,953.349,0.544z"/>
	<path fill="#CCA770" d="M951.337,5.037c-0.755-1.259-1.874-3.036-2.871-4.694h3.026c0.915,1.082,1.75,2.188,2.3,3.103
		c3.222,4.904,6.72,12.094,8.744,18.24c2.089,6.127,2.878,11.077,2.515,11.162c-0.421,0.109-1.912-4.611-4.444-10.416
		C958.132,16.598,954.45,9.781,951.337,5.037z"/>
</g>
<path fill="#CCA770" d="M58.065,32.381c-2.448,1.439-6.902,5.056-6.459,5.701c0.411,0.6,5.456-1.942,7.866-3.36
	c3.976-2.408,9.414-5.618,13.976-8.001c4.538-2.431,8.238-3.938,8.129-4.3c-0.102-0.363-4.103,0.522-8.946,2.549
	C67.774,26.946,62.094,29.94,58.065,32.381z"/>
<path fill="#CCA770" d="M84.829,51.157c-1.322-1.47-3.821-4.567-4.43-4.333c-0.803,0.333,0.855,4.435,2.309,6.054
	c2.214,2.805,5.952,5.947,9.373,7.817c3.404,1.919,6.313,2.719,6.446,2.398c0.165-0.37-2.421-1.784-5.393-4.019
	C90.127,56.881,86.87,53.741,84.829,51.157z"/>
<g>
	<path fill="#CCA770" d="M-0.206,0.432c0.088-0.093,0.173-0.184,0.267-0.28h3.171C1.946,0.946,0.698,1.66-0.208,2.084V0.432H-0.206z
		"/>
	<path fill="#CCA770" d="M-0.206,28.688c0.087,0.809,0.184,1.602,0.291,2.37c0.731,5.894,2.103,10.321,1.734,10.461
		c-0.427-1.228-0.785-2.474-1.136-3.72c0.339,1.25,0.713,2.492,1.136,3.72c-0.208,0.089-1.089-1.556-2.024-4.26V28.688z"/>
	<path fill="#CCA770" d="M1.578,33.99c1.355,6,3.46,10.313,3.791,10.165c-0.436-1.229-0.825-2.472-1.181-3.72
		c0.368,1.246,0.741,2.493,1.181,3.72c0.363-0.145-1.058-4.592-1.894-10.529c-0.436-2.792-0.754-5.899-0.98-8.971
		c0.375,3.289,0.954,6.669,1.736,9.626c1.384,5.459,3.294,9.393,3.624,9.258c0.372-0.138-0.866-4.241-1.734-9.654
		C5.197,28.48,4.746,21.782,4.732,16.852c-0.076-2.217-0.203-6.125-0.543-7.989C4.81,9.409,5.428,9.961,6.057,10.5
		c-0.574,1.596-0.925,6.374-0.738,8.984c0.273,5.258,1.171,12.39,2.616,18.073c1.368,5.71,3.368,9.834,3.704,9.689
		c-0.401-1.147-0.764-2.303-1.1-3.467c0.347,1.161,0.695,2.321,1.1,3.467c0.29-0.114-0.503-2.913-1.271-6.941
		c1.455,3.801,2.916,6.32,3.175,6.201c0.378-0.157-1.028-4.042-2.193-9.172C10.136,32.211,9.408,25.83,9.517,21.15
		c-0.091-2.218,0.083-6.164-0.113-7.846c0.644,0.527,1.299,1.043,1.95,1.561c-0.618,1.564-1.051,6.228-0.829,8.782
		c0.288,5.164,1.45,12.142,3.242,17.598c1.745,5.481,4.003,9.337,4.322,9.173c-0.472-1.075-0.91-2.161-1.317-3.258
		c0.419,1.094,0.839,2.186,1.317,3.258c0.275-0.128-0.599-2.554-1.572-6.129c1.566,3.737,3.107,6.193,3.36,6.067
		c0.372-0.171-1.151-3.985-2.462-9.046c-1.364-5.051-2.288-11.37-2.365-16.028c-0.17-2.243-0.176-6.294-0.476-7.897
		c0.642,0.49,1.295,0.968,1.946,1.45c-0.716,1.362-1.176,5.985-0.675,8.436c0.646,4.897,2.731,11.257,5.127,16.07
		c0.213,0.437,0.424,0.847,0.635,1.259c0.029,0.084,0.056,0.175,0.084,0.26c1.673,4.921,3.696,8.402,4.013,8.251
		c0.179-0.081-0.057-1.01-0.476-2.499c0.414,0.536,0.712,0.839,0.803,0.785c0.286-0.162-0.85-2.652-2.27-6.207
		c-0.071-0.29-0.144-0.568-0.214-0.867c-1.215-4.903-2.057-11.02-2.31-15.538c-0.195-1.986-0.477-5.447-0.877-7.189
		c0.632,0.442,1.259,0.892,1.897,1.326c-0.642,1.018-0.948,5.71-0.629,8.17c0.456,4.6,1.757,10.795,3.589,15.6
		c1.782,4.833,4.001,8.168,4.314,7.986c0.345-0.184-1.218-3.754-2.477-8.573c-1.307-4.805-2.269-10.835-2.713-15.299
		c-0.272-2.1-0.815-5.87-1.372-7.405c0.688,0.462,1.388,0.91,2.084,1.362c-0.521,1.383-0.742,5.301-0.488,7.437
		c0.409,4.353,1.504,10.236,3.093,14.843c1.526,4.64,3.56,7.868,3.882,7.693c-0.406-0.893-0.783-1.798-1.132-2.713
		c0.36,0.91,0.721,1.82,1.132,2.713c0.344-0.176-1.019-3.6-2.023-8.216c-0.426-1.828-0.802-3.836-1.126-5.859
		c0.544,2.431,1.218,4.886,1.993,7.047c1.505,4.399,3.437,7.472,3.761,7.299c0.055-0.027,0.057-0.158,0.039-0.333
		c0.507,0.912,0.915,1.427,1.056,1.35c-0.37-0.884-0.7-1.778-1.002-2.682c0.313,0.9,0.631,1.798,1.002,2.682
		c0.329-0.168-0.792-3.34-1.486-7.627c-0.118-0.67-0.229-1.372-0.334-2.084c0.296,1.236,0.629,2.442,1.004,3.56
		c1.341,4.22,3.241,7.118,3.558,6.938c-0.369-0.805-0.708-1.62-1.02-2.444c0.323,0.82,0.645,1.642,1.02,2.444
		c0.347-0.178-0.877-3.266-1.692-7.434c-0.019-0.088-0.035-0.183-0.053-0.271c0.119,0.393,0.237,0.784,0.368,1.159
		c1.313,4.034,3.358,6.689,3.661,6.472c-0.431-0.8-0.811-1.619-1.158-2.448c0.359,0.826,0.727,1.649,1.158,2.448
		c0.326-0.199-1.025-3.04-1.801-6.986c-0.375-1.721-0.661-3.636-0.881-5.55c0.519,2.632,1.264,5.361,2.204,7.68
		c1.552,3.978,3.555,6.632,3.862,6.437c0.337-0.198-1.012-3.098-2.028-7.041c-1.072-3.927-1.774-8.866-2.063-12.523
		c-0.2-1.766-0.646-4.989-1.181-6.19c0.635,0.332,1.265,0.671,1.904,0.994c-0.558,0.939-0.683,4.651-0.383,6.595
		c0.503,3.696,1.608,8.685,3.174,12.567c1.499,3.927,3.612,6.505,3.921,6.264c0.3-0.211-1.12-2.977-2.086-6.868
		c-0.143-0.533-0.281-1.087-0.414-1.651c0.382,1.127,0.804,2.218,1.268,3.221c1.679,3.784,3.793,6.228,4.085,6.014
		c0.292-0.195-0.851-2.402-1.91-5.557c1.563,3.553,3.505,5.86,3.798,5.655c0.329-0.212-0.993-2.827-2.023-6.4
		c-0.147-0.485-0.286-0.989-0.42-1.504c0.326,1.002,0.688,1.971,1.091,2.866c1.492,3.524,3.556,5.727,3.837,5.497
		c-0.424-0.656-0.811-1.33-1.168-2.017c0.369,0.682,0.739,1.363,1.168,2.017c0.316-0.231-1.077-2.688-2.024-6.156
		c-1.019-3.442-1.669-7.813-1.986-11.051c-0.204-1.583-0.718-4.461-1.289-5.476c0.749,0.321,1.497,0.641,2.252,0.949
		c-0.599,0.856-0.834,4.264-0.507,6.049c0.488,3.407,1.81,7.96,3.62,11.352c1.766,3.422,3.882,5.555,4.158,5.325
		c0.312-0.237-1.174-2.688-2.393-6.106c-1.061-2.847-1.896-6.351-2.416-9.319c0.004,0.019,0.006,0.039,0.011,0.057
		c0.567,3.468,2.216,7.996,4.249,11.276c1.983,3.318,4.117,5.41,4.39,5.192c0.267-0.201-0.76-1.952-1.947-4.47
		c0.088,0.138,0.171,0.285,0.261,0.418c2.11,3.258,4.359,5.24,4.618,5.013c0.316-0.26-1.364-2.642-2.934-5.957
		c-1.623-3.293-2.933-7.559-3.414-10.769c-0.367-1.664-0.88-4.845-1.435-5.685c0.91,0.322,1.814,0.656,2.73,0.959
		c-0.789,0.157-1.028,4.145-0.526,6.093c0.675,3.302,2.412,7.629,4.604,10.664c2.151,3.078,4.496,4.808,4.732,4.548
		c0.282-0.282-1.492-2.432-3.082-5.55c-1.643-3.095-2.955-7.169-3.586-10.242c-0.436-1.688-1.275-4.967-1.941-5.447
		c0.936,0.308,1.88,0.583,2.822,0.87c-0.467,0.93-0.216,4.316,0.353,6.032c0.959,3.282,2.863,7.605,5.152,10.688
		c2.236,3.141,4.746,4.839,4.966,4.552c-0.562-0.548-1.091-1.122-1.593-1.716c0.512,0.587,1.025,1.172,1.593,1.716
		c0.262-0.295-1.658-2.392-3.334-5.586c-1.745-3.15-3.252-7.314-4.168-10.442c-0.471-1.417-1.394-3.919-2.117-4.983
		c0.811,0.242,1.625,0.477,2.441,0.703c-0.744,0.258-0.391,4.118,0.301,5.93c1.048,3.077,3.061,7.079,5.35,9.899
		c2.247,2.867,4.615,4.442,4.844,4.162c0.258-0.292-1.548-2.298-3.255-5.255c-1.757-2.928-3.369-6.794-4.362-9.705
		c-0.578-1.505-1.788-4.332-2.549-4.943c0.982,0.27,1.963,0.537,2.951,0.783c-0.553,0.666,0.144,4.48,1.012,6.295
		c1.398,3.262,3.964,7.436,6.73,10.278c2.729,2.893,5.459,4.36,5.654,4.06c0.232-0.318-1.983-2.273-4.177-5.3
		c-2.239-2.992-4.38-7.045-5.709-10.138c-0.711-1.485-2.059-4.173-2.9-5.035c0.82,0.2,1.649,0.367,2.473,0.55
		c-0.747,0.338,0.481,4.328,1.625,6.047c1.771,2.935,4.762,6.534,7.604,9.014c2.816,2.514,5.351,3.97,5.566,3.687
		c0.244-0.313-1.829-2.284-4.191-5.041c-0.61-0.697-1.233-1.449-1.849-2.229c1.429,1.528,3.02,2.961,4.572,4.075
		c3.059,2.257,5.776,3.373,5.946,3.069c0.208-0.345-2.108-2.029-4.703-4.546c-2.632-2.483-5.396-5.898-7.063-8.625
		c-1.019-1.454-2.862-4.337-3.638-4.641c2.273,0.432,4.56,0.793,6.858,1.095c0.006,0.004,0.014,0.006,0.02,0.01
		c-0.599,0.534,1.658,4.021,3.206,5.369c2.479,2.354,6.272,5.081,9.655,6.755c3.366,1.716,6.191,2.477,6.32,2.149
		c0.155-0.368-2.35-1.742-5.335-3.809c-1.491-1.005-3.079-2.206-4.589-3.432c6.234,3.129,15.408,4.921,15.554,4.271
		c0.123-0.404-3.335-1.709-7.335-3.394c5.425,1.374,10.776,1.874,10.84,1.341c0.108-0.613-8.756-2.793-14.819-5.383
		c6.772,1.701,18.166,3.968,18.35,3.247c0.097-0.384-3.015-1.54-6.958-2.797c4.087,0.316,7.359,0.413,7.414,0.021
		c0.058-0.421-3.646-1.318-8.121-2.192c5.156-0.221,9.649-0.596,9.652-1.05c0.003-0.395-3.425-0.768-7.723-1.04
		c4.367-0.595,7.759-1.21,7.729-1.591c-0.032-0.411-4.085-0.461-9.017-0.321c4.727-0.854,8.361-1.663,8.313-2.034
		c-0.058-0.445-5.352-0.165-11.447,0.364c5.33-1.326,9.629-2.564,9.55-2.962c-0.091-0.457-5.855,0.282-12.292,1.325
		c5.068-1.542,9.09-2.93,8.993-3.317c-0.147-0.573-9.276,1.224-17.336,3.072c6.323-2.177,12.122-4.406,11.968-4.899
		c-0.217-0.681-14.404,3.013-22.584,5.478c-2.426,0.734-7.093,2.764-7.005,3.51c-0.907-0.185-1.809-0.389-2.711-0.594
		c1.604-0.142,4.774-1.079,6.519-1.757c3.865-1.532,9.092-3.656,13.388-5.287c4.288-1.671,7.685-2.705,7.624-3.064
		c-0.046-0.288-2.09-0.144-4.995,0.456c1.638-0.662,2.669-1.128,2.646-1.26c-0.168-0.746-8.138,1.143-15.459,3.489
		c1.597-0.66,3.176-1.306,4.649-1.894c4.46-1.819,7.992-3.007,7.914-3.366c-0.078-0.379-3.853,0.165-8.538,1.541
		c-0.973,0.277-1.988,0.59-3.017,0.918c0.313-0.129,0.631-0.262,0.936-0.388c4.533-1.925,8.106-3.097,8.062-3.414
		c-0.063-0.432-3.964,0.114-8.706,1.593c-4.764,1.423-10.459,3.534-14.587,5.237c-2.434,0.99-6.992,3.569-6.914,4.338
		c-0.803-0.255-1.607-0.505-2.405-0.774c1.489-0.291,5.069-1.985,7.001-2.965c3.904-2.105,9.336-4.722,13.934-6.488
		c4.582-1.802,8.3-2.785,8.231-3.166c-0.056-0.359-3.97-0.042-8.841,1.333c-4.871,1.336-10.601,3.748-14.605,5.91
		c-2.284,1.159-6.242,4.208-6.396,5.155c-0.88-0.303-1.748-0.636-2.622-0.958c1.182-0.106,4.777-2.033,6.631-3.14
		c3.492-2.191,8.341-5,12.45-7.015c4.095-2.044,7.434-3.313,7.329-3.686c-0.09-0.347-3.537,0.251-7.806,1.812
		c3.949-2.079,7.058-3.325,6.977-3.653c-0.09-0.386-3.937,0.378-8.541,2.296c-4.623,1.859-10.033,4.645-13.902,6.883
		c-2.34,1.328-6.637,4.669-6.223,5.319c0.016,0.026,0.051,0.039,0.082,0.055c-1.859-0.732-3.699-1.51-5.527-2.319
		c1.358-0.226,5.254-2.371,7.258-3.653c3.876-2.534,9.152-5.942,13.593-8.482c4.416-2.595,8.059-4.142,7.957-4.491
		c-0.104-0.379-4.096,0.565-8.835,2.771c-4.761,2.147-10.283,5.348-14.205,7.912c-2.221,1.422-6.128,4.779-6.255,5.724
		c-0.82-0.367-1.644-0.727-2.458-1.11c1,0.021,5.204-2.766,7.278-4.334c3.694-2.866,8.751-6.707,13.068-9.541
		c4.28-2.905,7.918-4.543,7.814-4.884c-0.782,0.286-1.545,0.608-2.308,0.932c0.759-0.332,1.526-0.647,2.308-0.932
		c-0.106-0.388-4.15,0.672-8.798,3.223c-0.039,0.02-0.077,0.043-0.116,0.063c4.231-2.636,7.64-4.308,7.508-4.652
		c-0.124-0.347-4.193,0.854-9.036,3.332c-2.193,1.09-4.533,2.423-6.805,3.821c1.931-1.325,3.871-2.616,5.683-3.757
		c4.608-2.964,8.438-4.792,8.313-5.138c-0.123-0.367-4.318,0.869-9.27,3.461c-3.044,1.556-6.375,3.55-9.429,5.542
		c7.762-5.552,16.505-11.6,16.29-12c-0.296-0.527-6.923,3.081-13.79,7.365c0.988-0.669,1.963-1.322,2.897-1.932
		c4.556-3.051,8.292-5.039,8.16-5.376c-0.14-0.369-4.264,1.045-9.146,3.714c-4.903,2.617-10.622,6.294-14.698,9.179
		c-2.447,1.702-6.881,5.726-6.5,6.393c-0.686-0.389-1.378-0.767-2.058-1.166c1.409-0.461,5.444-3.399,7.521-5.072
		c3.975-3.292,9.447-7.678,14.102-10.991c4.624-3.363,8.49-5.535,8.333-5.878c-0.148-0.348-4.403,1.25-9.387,4.26
		c-4.26,2.509-9.036,5.926-12.85,8.941c3.604-2.956,7.836-6.328,11.557-9.023c4.661-3.448,8.564-5.676,8.41-6.016
		c-0.152-0.352-4.451,1.31-9.478,4.405c-5.05,3.044-10.843,7.352-14.909,10.744c-2.132,1.736-5.678,5.463-6.284,6.832
		c-0.774-0.477-1.546-0.958-2.311-1.448c1.133-0.104,5.729-3.277,8.006-5.068c4.112-3.291,9.718-7.729,14.427-11.161
		c4.684-3.473,8.543-5.814,8.383-6.146c-0.165-0.35-4.423,1.429-9.455,4.539c-5.053,3.066-10.907,7.313-15.055,10.632
		c-2.393,1.88-6.607,6.127-6.569,7.04c-1.622-1.043-3.23-2.108-4.813-3.205c1.292-0.308,5.1-2.673,7.56-4.353
		c-2.536,2.196-5.655,5.41-5.243,5.901c0.473,0.563,5.828-3,8.364-4.932c4.185-3.248,9.879-7.651,14.669-11.024
		c4.756-3.438,8.728-5.591,8.602-5.917c-0.854,0.39-1.69,0.811-2.525,1.235c0.833-0.43,1.671-0.846,2.525-1.235
		c-0.134-0.353-3.947,1.016-8.573,3.673c4.37-2.812,7.724-4.684,7.585-4.995c-0.149-0.345-4.635,1.318-10.024,4.278
		c-5.408,2.91-11.716,7.012-16.193,10.256c-2.472,1.751-6.775,5.675-7.158,6.825c-0.819-0.57-1.622-1.159-2.429-1.743
		c1.499-0.44,5.894-3.354,8.153-5.044c4.35-3.314,10.284-7.779,15.255-11.237c2.252-1.591,4.31-2.948,5.875-3.99h-2.621
		c-1.305,0.665-2.76,1.456-4.293,2.361c-5.301,3.081-11.477,7.345-15.864,10.688c-2.371,1.772-6.458,5.642-6.97,6.888
		c-0.835-0.609-1.661-1.225-2.485-1.848c1.244-0.188,6.152-3.469,8.636-5.292c4.513-3.4,10.714-7.922,15.958-11.338
		c0.775-0.516,1.526-1,2.248-1.46h-3.59c-2.375,1.307-4.89,2.836-7.35,4.425c2.162-1.532,4.319-3.049,6.316-4.425h-3.776
		c-4.772,2.9-9.909,6.328-13.783,9.073c-2.537,1.781-7.04,5.673-7.509,6.835c-0.728-0.574-1.44-1.167-2.158-1.752
		c1.408-0.22,6.418-3.131,8.952-4.836c3.953-2.689,9.061-6.203,13.724-9.32h-4.236c-3.932,2.376-7.878,4.923-11.02,7.059
		c-2.641,1.777-7.366,5.709-7.767,6.816c-0.713-0.583-1.427-1.164-2.13-1.757c1.66-0.446,6.233-3.081,8.614-4.657
		c3.24-2.17,7.267-4.882,11.186-7.461h-4.559c-2.94,1.788-5.775,3.602-8.142,5.191c-2.477,1.64-6.797,5.186-7.599,6.5
		c-0.793-0.672-1.584-1.347-2.366-2.033c1.342-0.302,6.115-3.588,8.547-5.419c1.674-1.294,3.583-2.747,5.589-4.239h-4.493
		c-0.974,0.713-1.9,1.409-2.759,2.073c-2.515,1.895-6.853,6.111-7.22,7.298c-0.76-0.67-1.505-1.356-2.254-2.037
		c1.501-0.64,5.773-3.971,8.073-5.751c0.624-0.511,1.289-1.041,1.98-1.583h-4.354C7.8,2.157,4.585,5.706,4.004,7.062
		C3.18,6.309,2.361,5.55,1.551,4.782c1.279-0.455,4.63-2.849,6.954-4.635H4.624c-1.633,1.648-3.135,3.38-3.512,4.215
		C0.67,3.94,0.229,3.517-0.212,3.094V4.87c0.237,0.22,0.472,0.442,0.71,0.662c-0.26,0.583-0.507,1.706-0.71,3.026v14.303
		C0.163,26.635,0.753,30.564,1.578,33.99z M87.499,47.919c0.524,0.034,1.107,0.05,1.715,0.048c0.003,0.022,0.02,0.042,0.03,0.063
		c-0.011,0.006-0.04,0-0.048,0.007c-0.224,0.209-0.046,0.662,0.36,1.21c-0.118-0.073-0.241-0.147-0.353-0.219
		C88.404,48.538,87.861,48.071,87.499,47.919z M84.461,47.439c0.231,0.019,0.493,0.029,0.778,0.031
		c0.083,0.01,0.166,0.024,0.25,0.034c0.208,0.196,0.845,0.322,1.692,0.393c-0.249,0.144-0.215,0.82,0.127,1.593
		C86.33,48.686,85.228,47.842,84.461,47.439z M82.086,46.934c0.424-0.007,0.911-0.039,1.433-0.088
		c-0.077,0.087-0.126,0.169-0.111,0.24c0.004,0.017,0.022,0.03,0.031,0.046C82.988,47.065,82.535,47.004,82.086,46.934z
		 M78.008,46.214c0.983-0.046,2.31-0.245,3.615-0.507c-0.688,0.37-1.116,0.7-1.06,0.922c0.009,0.032,0.039,0.058,0.066,0.086
		C79.752,46.564,78.882,46.382,78.008,46.214z M73.198,45.425c1.11,0.245,2.219,0.483,3.335,0.697
		c-0.615,0.184-0.154,2.52,0.62,4.42c-0.122-0.195-0.249-0.394-0.362-0.582C75.861,48.561,74.08,45.959,73.198,45.425z
		 M70.991,44.672c0.705-0.061,1.69-0.261,2.729-0.523c-0.529,0.406-0.849,0.751-0.831,0.969
		C72.255,44.968,71.62,44.831,70.991,44.672z M67.658,43.766c1.153-0.157,2.976-0.671,4.588-1.214
		c-1.274,0.749-2.25,1.47-2.289,1.854C69.188,44.205,68.424,43.981,67.658,43.766z M64.066,42.706
		c1.026-0.043,3.021-0.569,4.831-1.156c-1.22,0.756-2.187,1.484-2.359,1.904C65.711,43.213,64.887,42.963,64.066,42.706z
		 M54.874,39.983c0.706,0.266,1.419,0.512,2.129,0.767c-0.459,0.291-0.821,1.814-0.941,3.409
		C55.728,42.628,55.302,40.794,54.874,39.983z M54.758,39.434c0.593,0.13,2.55-0.635,4.456-1.525
		c-1.178,1.092-2.044,2.115-1.901,2.489C56.46,40.082,55.606,39.767,54.758,39.434z M51.926,38.823
		c0.754,0.303,1.51,0.604,2.268,0.893c-0.605,0.749-0.908,3.846-0.624,5.747c-0.076-0.449-0.144-0.884-0.205-1.3
		C53.087,42.644,52.504,39.923,51.926,38.823z M46.352,36.454c0.655,0.295,1.315,0.577,1.973,0.861
		c-0.456,0.436-0.782,2.201-0.869,3.887C47.214,39.59,46.806,37.415,46.352,36.454z M43.872,35.3
		c0.587,0.277,1.167,0.568,1.756,0.838c-0.36,0.478-0.64,1.799-0.768,3.194C44.599,37.867,44.246,36.21,43.872,35.3z M43.547,34.455
		c0.759,0.075,3.805-1.786,6.11-3.335c-1.963,1.847-3.924,4.068-3.641,4.547C45.186,35.276,44.369,34.861,43.547,34.455z
		 M41.108,33.976c0.632,0.316,1.275,0.61,1.912,0.917c-0.342,0.578-0.583,1.999-0.67,3.469
		C42.036,36.796,41.564,34.932,41.108,33.976z M40.973,33.177c0.923-0.062,3.979-1.89,6.279-3.42
		c-2.09,1.883-4.187,4.172-3.85,4.626C42.593,33.983,41.777,33.592,40.973,33.177z M38.438,31.813
		c1.208-0.282,4.318-2.103,6.569-3.589c-2.145,1.855-4.405,4.186-4.308,4.805C39.94,32.634,39.191,32.221,38.438,31.813z
		 M36.19,31.422c0.514,0.28,1.039,0.539,1.557,0.813c-0.376,0.419-0.685,1.809-0.845,3.325C36.745,34.078,36.5,32.391,36.19,31.422z
		 M35.782,30.321c0.792,0.109,4.14-1.786,6.57-3.346c-2.049,1.731-4.177,3.81-4.399,4.577
		C37.222,31.153,36.505,30.731,35.782,30.321z M33.648,29.989c0.555,0.314,1.107,0.634,1.666,0.942
		c-0.358,0.591-0.669,1.976-0.847,3.42C34.272,32.762,33.986,30.971,33.648,29.989z M33.095,28.791
		c-0.637-0.378-1.275-0.754-1.906-1.141c1.5-0.618,5.082-3.23,7.153-4.891C36.16,24.73,33.379,27.772,33.095,28.791z M31.004,28.474
		c0.603,0.357,1.212,0.701,1.819,1.05c-0.359,0.591-0.655,2.085-0.809,3.645C31.778,31.456,31.407,29.474,31.004,28.474z
		 M28.462,26.924c0.595,0.367,1.192,0.732,1.791,1.091c-0.327,0.485-0.573,1.837-0.705,3.323
		C29.256,29.743,28.858,27.96,28.462,26.924z M26.109,25.454c0.48,0.307,0.958,0.614,1.44,0.916
		c-0.297,0.623-0.475,2.094-0.527,3.656C26.785,28.426,26.457,26.614,26.109,25.454z M17.378,19.476
		c0.686,0.502,1.379,0.995,2.073,1.486c-0.468,0.968-0.861,3.415-0.967,5.596C18.094,24.47,17.746,21.151,17.378,19.476z
		 M14.963,16.369c1.343-0.292,5.372-2.682,7.923-4.395c-2.524,2.111-5.594,5.158-5.77,6.043
		C16.397,17.47,15.674,16.927,14.963,16.369z M12.318,15.63c0.541,0.425,1.071,0.86,1.617,1.279
		c-0.353,0.441-0.728,1.547-1.031,2.874C12.74,18.23,12.543,16.68,12.318,15.63z M7.05,11.333c0.56,0.475,1.123,0.947,1.689,1.415
		c-0.347,0.43-0.732,1.398-1.071,2.578C7.494,13.828,7.283,12.358,7.05,11.333z M2.059,14.857c-0.092-2.397-0.308-6.465-0.688-8.51
		c0.667,0.61,1.346,1.209,2.023,1.811C2.825,9.165,2.247,12.284,2.059,14.857z"/>
</g>
</svg>
