<svg xmlns="http://www.w3.org/2000/svg" xmlns:xlink="http://www.w3.org/1999/xlink" version="1.1" id="Layer_1" x="0px" y="0px" width="560px" height="800px" viewBox="0 0 560 800" enable-background="new 0 0 560 800" xml:space="preserve"><style>.style0{fill:	#cca770;}</style><g><path d="M144.488 622.75c6.112 0.1 18.35-1.518 18.265-3.198c-0.081-1.564-12.196-2.571-18.213-2.679 c-10.006-0.052-23.594-0.276-34.647-1.032c-11.063-0.642-19.544-2.037-19.753-1.25c-0.221 0.8 8.1 3.7 19.3 5.4 C120.558 621.8 134.3 622.7 144.5 622.75z" class="style0"/><path d="M371.478 160.232c4.041 6.1 13 17.9 14.7 16.985c1.784-1.01-4.533-14.664-8.641-20.878 c-6.677-10.396-16.602-24-25.761-34.256c-9.068-10.358-17.474-17.056-18.132-16.32c-0.673 0.7 6.3 8.5 14.2 19.5 C355.782 136.1 364.9 150 371.5 160.232z" class="style0"/><path d="M434.804 744.663c1.139 4.7 4 13.9 5.3 13.714c1.323-0.228 0.448-10.045-0.711-14.785 c-1.818-7.887-4.93-18.471-8.309-26.821c-3.301-8.393-7.003-14.382-7.571-14.073c-0.576 0.3 2 6.7 4.4 15.2 C430.453 726.3 433 736.9 434.8 744.663z" class="style0"/><path d="M405.399 545.437c2.26 0.9 9.86-15.164 12.39-23.57c4.378-13.887 9.213-33.134 11.595-49.162 c2.542-16.024 2.268-28.687 1.105-28.727c-1.167-0.06-2.983 12.148-6.961 27.556c-3.819 15.444-9.476 34.121-13.798 47.8 C407.237 527.6 403.3 544.6 405.4 545.437z" class="style0"/><path d="M462.466 399.153c11.096-0.665 24.538-2.814 34.29-4.972c5.896-1.224 17.297-5.456 16.85-7.052 c-0.418-1.484-12.276 0.187-18.08 1.394c-9.624 2.13-22.726 4.875-33.509 6.558c-10.768 1.793-19.219 2.301-19.248 3.1 C442.727 399 451.4 399.9 462.5 399.153z" class="style0"/><path d="M536.168 216.473c-7.838 13.375-15.027 23.13-14.205 23.803c0.687 0.6 9.344-8.098 18.459-21.057 c7.206-10.028 14.369-22.736 19.578-34.225v-18.643c-1.017 2.484-1.976 4.843-2.774 6.7 C552.326 186.1 544.1 203.2 536.2 216.473z" class="style0"/><path d="M539.892 236.291c0.649 0.6 9.193-7.565 17.461-20.381c0.515-0.773 1.025-1.565 1.53-2.372 c-5.368 11.19-10.156 19.058-9.381 19.605c0.56 0.4 5.099-4.564 10.497-12.698V198.57c-2.156 5.184-4.528 10.228-7.014 14.8 C546.102 226.4 539 235.6 539.9 236.291z" class="style0"/><path d="M543.187 54c-0.792 0.7 6 10.1 12.5 23.576c1.455 2.9 2.9 6 4.3 9.174V74.931 C552.19 61.8 543.9 53.4 543.2 54z" class="style0"/><path d="M520.288 58.142c-0.742 0.6 6.1 10.7 13.3 24.669c7.306 13.9 15.3 31.4 21.1 44.4 c1.352 3 3.4 7 5.4 10.87v-16.33c-5.782-12.776-14.054-28.868-22.068-41.499 C529.494 66.7 521.1 57.5 520.3 58.142z" class="style0"/><path d="M534.446 60.976c-0.781 0.7 5.9 9.7 12.4 22.614c4.654 8.9 9.3 19.5 13.2 29.221V96.486 c-2.766-5.434-5.737-10.722-8.77-15.427C543.366 68.5 535.1 60.3 534.4 60.976z" class="style0"/><path d="M551.098 127.016c-6.594-13.122-16.229-30.618-24.982-44.39c-8.671-13.835-16.689-23.706-17.502-23.108 c-0.781 0.6 5.7 11.3 13.1 25.651c7.563 14.3 16.4 32 23 45.08c3.268 6.4 10 17.7 13.2 21.2 c-1.719 0.595-3.442 1.178-5.166 1.755c-0.379-4.336-5.758-17.614-9.416-24.367c-7.011-13.239-17.37-30.813-27.024-44.404 c-9.531-13.696-18.685-22.982-19.438-22.278c-0.705 0.6 6.9 10.8 15.2 25.045c1.135 1.9 2.3 3.9 3.5 5.9 c-1.292-2.021-2.59-3.989-3.886-5.868c-9.108-13.543-18.385-22.33-19.106-21.602c-0.69 0.7 7 10.4 14.8 24.3 c7.981 13.8 16.5 31.5 22.5 44.617c3.19 6.7 9.7 19.1 12.5 22.034c-2.796 0.873-5.6 1.724-8.411 2.5 c0.222-4.22-3.997-18.383-7.478-25.462c-6.31-13.808-16.775-31.703-27.192-44.936c-10.323-13.339-20.226-21.898-20.876-21.22 c-0.742 0.7 7.7 10.4 16.8 24.177c9.153 13.7 18.6 31.5 24.8 45.006c3.372 6.9 9.6 19.7 12.4 22.9 c-2.545 0.739-5.097 1.456-7.654 2.155c0.454-3.304-4.892-18.181-8.615-25.515c-6.654-13.506-16.697-31.405-26.441-45.062 c-9.572-13.807-19.271-22.733-19.984-21.973c-0.66 0.7 7.4 10.5 15.7 24.749c8.488 14.1 17.7 32.1 24.3 45.5 c3.611 7.1 11.1 20.4 13.9 22.637c-2.63 0.712-5.267 1.401-7.909 2.07c-0.354-3.998-6.459-17.37-10.408-24.099 c-7.466-12.893-18.254-30.051-27.973-43.462c-9.607-13.508-18.541-22.886-19.319-22.187c-0.701 0.6 6.7 10.9 15.1 25 c8.546 14 18.6 31.4 26 44.259c3.783 6.5 11.5 17.9 14.9 20.92c-2.338 0.584-4.681 1.152-7.029 1.7 c0.354-3.042-6.267-17.806-10.444-25.045c-7.477-13.108-18.219-30.585-27.841-44.328c-9.5-13.827-18.379-23.513-19.183-22.804 c-0.684 0.6 6.6 11.1 14.9 25.547c8.454 14.3 18.4 32.1 25.9 45.141c4.017 7 12.5 19.7 15.6 21.8 c-2.37 0.549-4.743 1.083-7.123 1.596c0.181-3.357-5.921-17.664-9.829-24.755c-7.124-13.071-17.377-30.53-26.585-44.281 c-9.076-13.846-17.705-23.569-18.547-22.833c-0.651 0.6 6.3 11.1 14.2 25.483c3.068 5.5 6.3 11.4 9.6 17.4 c-4.107-6.81-8.44-13.541-12.659-19.492c-9.507-13.692-18.543-23.009-19.28-22.359c-0.761 0.6 6.8 10.9 15 25.1 c8.411 14.1 17.8 31.9 24.5 45.11c3.745 7.1 11.5 20.6 14.2 22.459c-2.654 0.517-5.315 1.01-7.981 1.5 c0.24-3.516-4.938-17.379-8.483-24.29c-6.476-12.931-16.106-30.102-25.039-43.47c-8.841-13.443-17.174-22.813-17.948-22.183 c-0.767 0.6 6 10.9 13.6 24.82c7.72 13.9 16.5 31.2 23 44.061c3.381 6.6 10.4 18.6 13.4 21.3 c-2.574 0.445-5.152 0.873-7.736 1.273c0.377-3.217-5.224-17.383-9.014-24.333c-6.805-12.805-16.935-29.74-26.315-42.832 c-9.281-13.186-17.928-22.279-18.678-21.637c-0.683 0.6 5 8.7 11.9 20.216c-7.77-11.452-15.065-18.911-15.783-18.24 c-0.675 0.6 6.2 10.3 13.4 23.857c7.395 13.5 15.7 30.4 21.8 42.883c3.745 7.5 12.2 22 14 21.3 c1.536-0.678-2.088-11.815-5.525-19.909c3.858 6.8 10.1 16.7 12.8 18.937c-4.991 0.758-10 1.424-15.021 2 c1.129-2.126-3.901-16.988-7.368-24.171c-5.945-12.602-14.835-29.357-23.201-42.405c-8.267-13.131-16.243-22.233-17.036-21.597 c-0.759 0.6 5.6 10.6 12.7 24.145c7.135 13.5 15.2 30.4 21.1 42.929c3.297 6.8 10.5 19.6 13 21.2 c-2.366 0.272-4.735 0.523-7.106 0.755c0.164-3.905-3.905-16.815-6.929-23.372c-5.667-12.683-14.343-29.508-22.728-42.503 c-8.267-13.089-16.48-21.958-17.242-21.307c-0.755 0.6 5.9 10.4 12.9 23.868c5.634 10.6 11.7 23.4 16.8 34.5 c-5.499-11.476-12.796-24.987-19.91-35.77c-8.271-12.836-16.451-21.508-17.198-20.859c-0.762 0.6 5.8 10.2 12.9 23.5 c7.144 13.2 15 29.8 20.5 42.152c2.968 6.4 9.1 18 11.9 20.66c-4.394 0.335-8.794 0.599-13.196 0.8 c0.375-2.042-2.249-9.417-5.08-15.865c4.241 7 10.6 16.2 12 15.45c1.812-0.904-4.071-15.71-7.904-22.601 c-6.274-11.496-15.503-26.752-24.036-38.572c-8.422-11.919-16.502-20.004-17.259-19.297c-0.699 0.6 5.8 9.6 13 22.1 c1.512 2.5 3.1 5.2 4.6 7.981c-11.251-18.047-22.734-34.242-24.041-33.34c-0.968 0.7 12.6 25 24.5 47 c-4.891-8.2-10.425-16.72-15.793-23.881c-8.674-11.818-17.13-19.565-17.843-18.843c-0.694 0.7 6.2 9.4 13.7 21.7 c2.921 4.7 6 9.9 9 15.222c-3.707-5.852-7.651-11.62-11.522-16.667c-8.552-11.422-16.753-18.942-17.445-18.269 c-0.71 0.7 5.4 8.5 12.4 19.687c-0.084-0.116-0.169-0.238-0.253-0.354c-8.005-11.371-16.311-18.531-17.006-17.741 c-0.636 0.7 6 8.7 12.8 20.515c6.901 11.7 14.4 26.5 19.8 37.543c3.075 6.1 9.8 17.5 12.1 18.6 c-2.362-0.039-4.723-0.1-7.083-0.182c0.879-2.248-4.501-14.794-8.118-20.745c-6.279-10.561-15.597-24.47-24.333-35.018 c-8.617-10.662-16.933-17.488-17.614-16.716c-0.643 0.7 6.2 8.5 13.6 19.753c7.534 11.1 16 25.2 22.2 35.7 c3.251 5.3 10 15 12.9 17.015c-5.239-0.201-10.472-0.508-15.695-0.927c0.083-0.005 0.159-0.02 0.222-0.058 c1.724-1.054-4.543-13.876-8.524-19.704c-6.531-9.732-16.063-22.534-24.806-32.244c-8.632-9.829-16.814-16.069-17.47-15.26 c-0.571 0.7 5.3 7.2 12.2 16.672c-8.27-8.62-15.717-14.004-16.327-13.289c-0.675 0.8 5.7 7.6 13 17.1 c7.356 9.5 15.5 21.7 21.2 30.881c3.14 4.8 9.5 13.7 12.1 15.117c-2.471-0.255-4.939-0.53-7.403-0.836 c0.728-2.411-5.081-14.156-9.124-19.52c-6.94-9.71-17.652-21.997-27.586-30.763c-9.887-8.856-18.742-14.12-19.289-13.337 c-0.6 0.8 7 7.4 15.7 16.952c8.796 9.5 18.6 21.9 25.3 31.35c3.43 4.6 9.9 12.7 13.1 15.1 c-2.2-0.284-4.397-0.588-6.591-0.914c1.208-1.595-6.653-13.07-11.277-18.245c-7.76-8.771-18.74-20.312-28.32-29.159 c-9.464-8.952-18.021-14.738-18.67-13.792c-0.467 0.7 6.6 7.6 15.1 17.338c0.565 0.6 1.1 1.3 1.7 1.9 c-2.032-1.948-4.049-3.83-6.008-5.594c-9.45-8.642-17.717-14.278-18.337-13.476c-0.595 0.8 6.4 7.6 14.8 17.1 c2.794 3.1 5.8 6.4 8.8 9.823c-14.538-13.969-31.135-27.609-32.391-26.047c-0.206 0.3 1.7 2.5 4.8 6 c-6.146-4.757-10.783-7.445-11.224-6.82c-0.558 0.8 6.2 7.1 14.4 16.01c8.238 8.8 18.1 19.8 25.4 27.9 c3.372 3.7 9.9 9.6 13.5 11.742c-2.412-0.567-4.817-1.162-7.216-1.784c1.145-1.601-7.566-11.835-12.451-16.378 c-16.427-15.24-45.583-40.301-46.88-38.948c-0.93 1 10.1 12.9 22.5 25.298c-16.842-13.635-36.242-28.366-37.247-27.187 c-0.674 0.8 7.2 8.7 17.3 18.163c-13.95-9.871-26.656-18.247-27.398-17.276c-0.647 0.8 8 8.7 19 18 c-13.737-8.271-25.859-15.012-26.507-14.032c-0.539 0.8 7.1 6.9 17.2 14.37c-11.453-6.018-21.041-10.567-21.593-9.635 c-0.508 0.9 6.8 6.2 16.4 12.649c-10.437-4.315-18.922-7.377-19.371-6.443c-0.517 1.1 9.6 7.1 21.5 13.6 c-11.544-3.103-21.296-5.26-21.644-4.199c-0.323 1 7.5 4.5 17.5 8.49c-10.735-1.585-19.373-2.442-19.588-1.426 c-0.398 1.9 29.1 9.7 47 13.522c-17.266-0.89-40.683-5.987-41.135-4.417c-0.465 1.3 12.7 6.3 27 9.3 c-11.35-0.644-20.978-1.555-21.155-0.463c-0.405 1.7 23.2 8.1 41.5 7.895c-4.947 1.14-10.044 2.129-14.691 2.8 c-9.414 1.425-16.898 1.773-16.958 2.82c-0.073 0.9 7.5 2.4 17.4 2.228c9.899-0.042 21.979-2.092 30.531-4.777 c5.154-1.381 14.357-6.897 13.753-8.894c2.474 0.8 5 1.6 7.4 2.404c-2.357-0.24-10.517 3.535-14.879 5.3 c-7.784 3.732-19.078 7.371-28.694 9.072c-9.578 1.836-17.297 2.183-17.337 3.247c-0.058 0.9 7.7 2.4 17.9 1.8 c10.215-0.459 22.644-3.551 31.093-7.603c5.293-2.139 13.929-9.887 12.422-11.599c-0.028-0.03-0.083-0.042-0.12-0.065 c3.122 1 6.3 1.9 9.4 2.725c-2.406 0.079-9.78 4.561-13.747 6.75c-7.072 4.503-17.52 9.36-26.584 12.2 c-9.015 2.934-16.412 4.229-16.32 5.283c0.053 0.9 7.7 1.4 17.546-0.37c4.934-0.831 10.33-2.37 15.455-4.318 c-2.347 1.123-4.676 2.176-6.912 3.111c-8.744 3.773-15.899 6.025-15.687 7.043c0.178 0.9 7.8 0.4 17.362-2.265 c9.555-2.566 20.751-7.593 28.308-12.464c4.604-2.686 11.939-10.464 10.857-12.286c2.107 0.5 4.2 1 6.3 1.5 c-3.027 1.146-9.228 5.887-12.567 8.528c-6.694 5.753-16.411 12.83-25.137 17.294c-8.658 4.602-16.131 6.65-15.952 7.7 c0.112 0.9 8.2 0.6 17.999-3.043c9.793-3.504 20.651-10.376 27.705-16.448c4.075-3.228 10.065-11.276 9.733-13.626 c2.553 0.5 5.1 1.1 7.7 1.547c-2.542 0.651-8.555 5.829-11.619 8.678c-5.699 5.715-13.952 12.96-21.467 17.8 c-7.429 5-13.996 7.641-13.725 8.626c0.215 0.9 7.611-0.055 16.209-4.218c8.644-4.002 18-11.109 24.017-17.148 c3.672-3.423 8.879-11.939 7.617-13.575c2.138 0.4 4.3 0.8 6.4 1.138c-2.94 1.711-7.951 6.5-10.669 9.3 c-5.762 6.31-14.116 14.38-21.858 19.789c-7.631 5.588-14.572 8.316-14.294 9.311c0.188 0.9 8.06-0.174 16.947-4.996 c8.945-4.622 18.414-12.611 24.46-19.234c3.294-3.363 7.752-10.962 7.787-13.742c2.495 0.4 5 0.8 7.5 1.1 c-2.263 0.702-7.814 7.237-10.703 10.611c-5.03 6.51-12.82 14.591-20.259 19.989c-7.34 5.509-14 8.526-13.66 9.5 c0.257 0.9 7.777-0.488 16.393-5.256c8.664-4.622 17.747-12.811 23.144-19.809c3.392-3.969 7.404-13.512 5.856-14.946 c2.462 0.3 4.9 0.6 7.4 0.927c-2.305 1.432-7.113 8.225-9.868 11.688c-4.835 7.004-12.839 15.543-20.459 21.4 c-7.519 5.997-14.224 9.672-13.781 10.647c0.344 0.8 7.928-1.239 16.657-6.481c0.335-0.194 0.672-0.403 1.008-0.607 c-5.665 4.531-10.048 7.427-9.653 8.207c0.393 0.8 7.832-1.639 16.33-7.166c8.57-5.379 17.677-14.144 23.01-21.659 c0.157-0.196 0.315-0.418 0.473-0.638c-4.693 6.508-10.881 14.052-16.818 19.68c-6.815 6.646-13.142 10.706-12.68 11.6 c0.387 0.9 7.83-1.721 15.936-7.747c8.172-5.902 16.538-15.102 21.617-22.564c2.822-3.817 6.189-12.079 5.79-14.814 c2.092 0.1 4.2 0.3 6.3 0.371c-2.541 1.862-6.979 7.951-9.241 11.381c-4.48 7.262-11.049 16.806-17.42 23.7 c-6.232 7.078-12.345 11.258-11.868 12.165c0.398 0.9 7.798-1.943 15.379-8.524c1.982-1.647 3.957-3.51 5.881-5.495 c-0.911 1.059-1.822 2.084-2.729 3.059c-6.546 7.227-12.676 11.86-12.144 12.741c0.452 0.8 7.699-2.376 15.485-8.951 c-6.141 6.221-11.387 10.101-10.924 10.898c0.441 0.8 8.24-2.482 16.557-9.458c2.24-1.82 4.485-3.888 6.676-6.092 c-0.957 1.167-1.911 2.301-2.855 3.382c-6.765 8.052-13.298 12.93-12.835 13.773c0.448 0.9 8.4-2.715 16.458-10.234 c8.164-7.338 16.522-17.817 21.967-25.941c2.946-4.226 6.921-13.095 6.702-15.962c1.855-0.023 3.71-0.05 5.565-0.099 c-2.653 2.27-7.365 9.261-9.851 13.157c-4.897 8.282-12.248 19.109-19.301 27.12c-6.943 8.114-13.463 13.392-12.898 14.2 c0.497 0.8 8.276-3.128 16.52-10.708c4.889-4.376 9.8-9.943 14.058-15.541c-2.725 4.254-5.615 8.429-8.483 12 c-6.377 8.401-12.835 13.535-12.298 14.38c0.464 0.9 8.343-3.035 16.088-11.023c0.721-0.714 1.438-1.464 2.153-2.231 c-0.129 0.167-0.259 0.339-0.388 0.503c-6.726 8.88-13.168 14.74-12.559 15.559c0.54 0.8 8.357-3.844 16.381-12.238 c2.175-2.202 4.351-4.651 6.473-7.223c-1.071 1.556-2.139 3.073-3.192 4.516c-6.58 9.296-12.88 15.477-12.297 16.3 c0.246 0.3 1.757-0.352 3.993-1.907c-0.236 0.38-0.337 0.652-0.241 0.777c0.564 0.8 8.66-4.231 17.277-12.857 c4.325-4.203 8.753-9.22 12.845-14.326c-3.105 4.4-6.315 8.706-9.432 12.527c-7.688 9.716-14.848 16.208-14.24 17 c0.554 0.8 9.07-4.474 18.016-13.644c9.056-9.021 18.42-21.613 24.402-31.395c3.049-4.72 7.025-14.144 7.421-18.034 c2.154-0.263 4.306-0.544 6.455-0.838c-3.09 3.005-8.692 11.233-11.743 15.845c-6.193 10.008-15.412 23.1-24.033 32.9 c-8.52 9.899-16.32 16.506-15.719 17.337c0.528 0.8 9.604-4.507 19.375-13.835c9.854-9.206 20.065-22.297 26.444-32.607 c3.582-5.415 8.269-16.802 7.95-19.965c1.98-0.281 3.958-0.571 5.933-0.879c-2.952 3.673-7.572 11.437-10.301 15.9 c-5.807 10.351-14.843 23.786-23.359 33.934c-0.493 0.602-0.981 1.19-1.466 1.77c-7.483 6.774-13.033 11.317-12.544 12 c0.154 0.2 1.153-0.094 2.765-0.892c-2.692 3.01-4.302 4.908-3.973 5.304c0.574 0.7 9.354-5.146 18.968-14.809 c0.163-0.16 0.326-0.329 0.489-0.491c0.972-0.726 1.955-1.471 2.958-2.255c11.192-8.573 23.438-21.149 30.609-31.939 c3.986-5.17 8.224-16.522 8.153-20.609c2.078-0.383 4.152-0.781 6.223-1.193c-2.558 3.453-7.229 12.96-10.21 18 c-5.552 10.88-15.016 24.699-24.054 35.025c-8.926 10.41-16.91 17.639-16.233 18.47c0.452 0.6 6.878-3.373 14.859-10.349 c-6.389 7.269-11.213 11.941-10.717 12.557c0.562 0.8 10.329-5.724 20.759-16.623c10.513-10.785 21.297-25.882 27.931-37.713 c3.455-5.739 7.8-17.171 8.176-21.604c2.128-0.471 4.253-0.954 6.373-1.452c-2.408 3.762-6.536 13.233-9.298 18.3 c-5.141 11.147-14.216 25.338-22.98 36.007c-8.66 10.738-16.453 18.268-15.744 19.074c0.474 0.6 6.81-3.636 14.628-10.922 c-6.464 8.62-11.548 14.258-10.997 14.864c0.623 0.7 10.092-6.678 19.898-18.549c9.956-11.718 20.295-27.483 27.003-39.553 c3.445-5.926 8.13-17.572 8.628-22.007c2.087-0.541 4.169-1.097 6.248-1.664c-2.956 4.018-7.733 13.028-10.458 18.1 c-5.719 11.6-14.506 26.857-22.916 38.52c-8.286 11.75-15.934 19.989-15.216 20.742c0.62 0.7 9.655-6.364 19.211-17.627 c5.208-6.013 10.445-13.239 15.093-20.494c-4.046 6.917-8.347 13.803-12.558 19.825c-8.818 13.02-17.291 21.856-16.603 22.6 c0.612 0.7 10.543-7.003 20.653-19.572c10.27-12.405 20.637-29.231 27.182-42.129c3.469-6.458 7.98-19.223 8.177-23.624 c1.996-0.599 3.988-1.21 5.977-1.832c-3.097 4.457-8.081 14.248-10.869 19.848c-5.947 12.731-14.85 29.644-23.565 42.5 c-8.519 13.039-16.855 21.886-16.149 22.641c0.617 0.7 10.414-7.029 20.249-19.67c10.006-12.472 19.871-29.455 25.939-42.466 c3.263-6.544 7.271-19.468 7.245-23.792c1.55-0.494 3.096-1.004 4.641-1.513c-2.772 4.806-7.214 15.254-9.978 21.1 c-5.595 13.33-14.823 30.772-23.891 44.099c-8.902 13.435-17.147 22.977-16.371 23.711c0.639 0.6 10.287-7.749 20.47-20.738 c10.332-12.853 20.592-30.475 26.376-44.247c2.524-5.362 5.057-14.849 5.88-20.894v-7.616c-0.05 0.018-0.1 0.036-0.151 0.1 C559.343 146.2 554.4 133.6 551.1 127.016z M284.946 159.642c-0.361 0.044-0.734 0.084-1.112 0.1 c1.605-0.824 2.56-1.694 2.272-2.447c-0.012-0.025-0.048-0.046-0.066-0.07c0.041-0.035 0.076-0.073 0.103-0.116 c1.403 0.7 2.8 1.3 4 1.838C289.121 158.9 287.3 159.4 284.9 159.642z M288.883 162.9 c1.654-1.393 2.533-2.927 2.183-3.579c2.036 0.8 3.6 1.2 4.4 1.014c0.264 0.1 0.5 0.2 0.8 0.3 c0.61 0.3 1.2 0.5 1.7 0.745C295.663 161.4 292.1 162.1 288.9 162.909z M300.664 161.9 c0.071-0.034 0.133-0.076 0.176-0.133c0.116-0.151 0.124-0.381 0.043-0.674c1.233 0.8 2.4 1.4 3.4 1.9 C303.093 162.6 301.9 162.3 300.7 161.882z M307.836 164.089c0.092-0.031 0.172-0.073 0.227-0.137 c0.385-0.454-0.224-1.706-1.402-3.354c2.792 2.1 5.8 4.2 8 5.431C312.404 165.4 310.1 164.8 307.8 164.089z M313.106 176.148c-0.48 0.309-1.006 0.63-1.513 0.946c3.977-3.551 7.712-8.459 6.571-9.653c2.807 0.8 5.6 1.5 8.4 2.2 C323.778 170 316.8 174 313.1 176.148z M327.874 169.312c0.346-0.461-0.019-1.68-0.822-3.3 c2.155 1.8 4.3 3.4 5.8 4.393C331.222 170.1 329.5 169.7 327.9 169.312z M335.627 171 c0.352-0.949-1.132-3.788-3.266-7.019c3.215 3.2 7 6.6 9.5 8.226C339.791 171.8 337.7 171.4 335.6 170.968z M344.771 172.682c0.099-1.174-1.35-4.025-3.363-7.228c3.624 3.5 7.8 7.1 10.1 8.3 C349.273 173.4 347 173.1 344.8 172.682z M368.414 168.05c3.492 4.3 7.3 8.4 8.8 8.7 c-2.402-0.194-4.801-0.41-7.198-0.651C370.817 175.5 369.9 172 368.4 168.05z M368.627 186.4 c1.538-3.848 2.432-7.798 1.734-9.061c1.936 0.2 3.9 0.4 5.8 0.609C374.232 179.4 371.1 183.2 368.6 186.384z M374.966 189.51c-0.613 0.899-1.266 1.831-1.952 2.786c2.845-4.143 5.668-11.705 5.137-14.188 c2.092 0.2 4.2 0.4 6.3 0.516C381.788 180.6 377.3 186.3 375 189.51z M392.338 189.3 c1.686-3.965 2.945-8.406 2.471-10.051c1.835 0.1 3.7 0.1 5.5 0.208C398.145 181.2 394.7 185.8 392.3 189.303z M400.583 187.93c1.299-3.423 2.167-6.851 1.874-8.396c1.68 0 3.4 0.1 5 0.1 C405.575 181.4 402.9 184.8 400.6 187.93z M407.605 188.55c1.473-3.526 2.54-7.114 2.426-8.889 c1.849 0 3.7 0 5.547-0.002C413.401 181.4 410.1 185.2 407.6 188.55z M402.1 178 c1.192-0.845-0.856-8.308-3.339-14.894c3.944 6.8 9.5 15.5 10.9 14.902c1.371-0.595-0.931-8.449-3.695-15.33 c3.627 6.2 8.7 14 10.8 15.271C411.898 178 407 178.1 402.1 177.98z M417.675 177.9 c0.901-1.407-1.733-9.473-4.629-16.281c3.606 6.1 8.9 14.1 11.4 16.062C422.172 177.8 419.9 177.8 417.7 177.903z M423.683 188.219c1.349-3.701 2.225-7.293 1.86-8.752c1.526-0.047 3.052-0.093 4.578-0.158 C428.273 181.2 425.8 184.9 423.7 188.219z M430.805 188.193c1.239-3.595 2.101-7.2 1.947-9.013 c1.649-0.08 3.298-0.159 4.946-0.258C435.774 180.9 433.1 184.7 430.8 188.193z M435.055 156.5 c2.968 6.3 8.4 16.6 11.2 19.749c-1.931 0.181-3.864 0.346-5.798 0.5C440.963 174 437.9 163.6 435.1 156.459z M437.95 188.221c1.419-3.81 2.446-7.644 2.304-9.472c1.819-0.121 3.638-0.248 5.456-0.392 C443.611 180.3 440.5 184.5 437.9 188.221z M445.868 186.755c1.389-3.616 2.365-7.058 2.176-8.595 c1.806-0.153 3.611-0.316 5.415-0.491C451.341 179.7 448.4 183.4 445.9 186.755z M453.331 186.6 c1.668-3.712 2.945-7.371 2.978-9.188c1.472-0.153 2.942-0.316 4.412-0.484C458.572 179.2 455.7 183.1 453.3 186.571z M477.435 188.274c2.253-5.231 4.148-11.427 4.182-14.269c2.194-0.357 4.383-0.729 6.57-1.117 C485.387 176.4 480.8 183.8 477.4 188.274z M489.211 173.718c0.156-0.363 0.303-0.73 0.454-1.096 c0.001 0 0 0 0.003-0.001C489.516 173 489.4 173.4 489.2 173.718z M490.505 169.8 c0.648-2.217-3.077-12.97-6.594-20.882c4.04 7 10.8 17.2 13.6 19.451C495.164 168.8 492.8 169.3 490.5 169.772z M498.397 178.739c0.815-3.471 1.204-6.506 0.884-7.953c1.748-0.354 3.491-0.725 5.234-1.099 C502.783 171.9 500.5 175.3 498.4 178.739z M515.877 174.27c0.557-3.137 0.764-5.846 0.457-7.27 c1.854-0.445 3.706-0.899 5.554-1.365C520.166 167.8 518 171 515.9 174.27z M529.621 179.6 c2.507-6.236 4.742-14.206 4.597-17.277c2.278-0.635 4.551-1.286 6.819-1.951C537.786 164.8 532.6 174.1 529.6 179.644z M543.935 156.064c0.145-3.994-4.276-17.662-7.55-24.565c-0.707-1.547-1.463-3.157-2.254-4.807c1.013 1.9 2 3.7 2.9 5.5 c3.557 6.6 10.7 18.4 14 21.571C548.7 154.5 546.3 155.3 543.9 156.064z" class="style0"/><path d="M266.947 774.951c-7.135 4.352-16.717 8.192-23.91 10.599c-3.221 1.189-8.89 3.488-11.359 5.2 c-0.315-2.001-0.641-4.001-0.98-5.998c3.161-0.289 10.768-3.563 14.456-6.222c7.743-5.125 17.322-13.45 23.919-21.321 c6.694-7.795 10.522-14.782 9.89-15.202c-0.702-0.496-5.665 5.521-12.907 12.341c-7.159 6.911-16.75 14.38-24.182 19.3 c-3.293 2.377-9.139 6.555-11.527 9.025c-0.252-1.446-0.513-2.89-0.777-4.333c3.542-0.936 11.652-5.954 15.267-9.749 c7.869-7.359 16.771-18.979 22.539-29.263c5.855-10.249 8.955-18.83 8.274-19.146c-0.782-0.38-5.184 7.493-11.786 16.9 c-6.53 9.484-15.592 20.226-23.083 27.232c-3.168 3.327-9.056 8.731-11.627 11.767c-0.319-1.693-0.644-3.385-0.981-5.075 c3.269-1.06 11.572-7.261 15.261-11.489c7.642-8.044 16.56-20.293 22.17-31.19c5.748-10.838 8.468-19.946 7.764-20.214 c-0.72-0.296-4.065 6.482-9.456 15.123c0.337-0.705 0.661-1.407 0.97-2.104c5.242-11.366 7.128-20.87 6.439-21.063 c-0.854-0.277-4.132 8.66-10.139 19.167c-5.849 10.595-14.872 22.338-22.573 29.914c-3.343 3.72-9.788 9.817-12.3 13 c-0.343-1.562-0.695-3.121-1.054-4.679c3.282-1.572 11.24-9.148 14.614-14.045c7.087-9.42 15.015-23.383 19.858-35.44 c4.969-12.016 7.183-21.838 6.468-22.051c-0.828-0.273-4.424 8.999-10.242 20.312c-5.708 11.376-13.957 24.57-20.804 33.7 c-2.919 4.235-8.294 11.501-10.409 15.303c-0.391-1.66-0.795-3.317-1.205-4.972c3.342-1.865 11.214-9.993 14.508-15.189 c6.997-10.066 14.692-24.926 19.051-37.737c4.519-12.769 6.088-23.144 5.362-23.304c-0.849-0.215-3.833 9.695-9.225 21.8 c-5.244 12.144-13.268 26.211-20.041 35.95c-2.843 4.492-8.126 12.166-10.237 16.2c-0.328-1.295-0.654-2.589-0.994-3.881 c3.007-1.884 10.197-10.346 13.295-15.486c6.344-9.928 13.77-24.233 18.009-36.652c4.431-12.374 5.489-22.57 4.719-22.681 c-0.834-0.157-3.296 9.51-8.582 21.148c-5.107 11.715-12.907 25.323-19.111 35.044c-2.653 4.395-7.244 12.155-8.969 16.3 c-0.444-1.651-0.897-3.3-1.36-4.947c2.962-2.073 9.821-10.813 12.769-16.058c6.057-10.208 13.153-24.792 17.229-37.364 c4.261-12.533 5.248-22.815 4.474-22.918c-0.829-0.143-3.223 9.615-8.365 21.451c-2.32 5.567-5.198 11.575-8.21 17.4 c2.981-6.412 5.684-13.219 7.559-19.472c3.599-11.576 4.518-20.942 3.761-21.064c-0.837-0.166-3.181 8.757-7.676 19.7 c-4.381 10.957-11.084 23.757-16.605 32.821c-2.345 4.138-6.485 11.411-7.969 15.226c-0.522-1.69-1.052-3.377-1.596-5.061 c2.853-2.297 8.861-10.665 11.451-15.659c5.411-9.957 11.784-24.055 15.523-36.107c3.91-12.016 4.878-21.835 4.097-21.945 c-0.662-0.115-2.331 5.887-5.46 14.157c1.609-8.622 1.742-14.865 1.132-14.939c-0.87-0.137-2.659 8.575-6.288 19.3 c-3.536 10.765-9.375 23.295-14.836 31.76c-2.32 4.157-7.065 11.184-8.612 14.507c-0.588-1.688-1.188-3.373-1.798-5.054 c2.906-2.211 8.914-10.25 11.37-15.168c5.278-9.8 10.992-23.912 13.84-35.94c2.962-12.021 3.154-21.637 2.384-21.694 c-0.645-0.073-1.76 5.324-3.985 12.948c1.322-8.598 1.241-14.793 0.633-14.847c-0.874-0.103-2.37 8.608-5.655 19.4 c-3.178 10.804-8.588 23.44-13.683 32.072c-2.203 4.297-6.735 11.716-8.002 15.006c-0.626-1.615-1.262-3.228-1.911-4.836 c2.863-1.749 8.863-9.678 10.691-14.714c4.32-9.715 7.646-23.731 8.662-35.256c0.102-1.039 0.186-2.049 0.261-3.041 c0.04-0.184 0.086-0.372 0.125-0.555c2.465-10.912 2.665-19.574 1.915-19.656c-0.419-0.054-1.026 1.896-1.927 5.1 c-0.157-1.468-0.371-2.303-0.599-2.308c-0.708-0.026-1.414 5.818-2.815 13.982c-0.188 0.591-0.381 1.189-0.581 1.8 c-3.285 10.365-8.617 22.535-13.233 31.111c-1.862 3.836-5.209 10.451-6.455 14.113c-0.656-1.503-1.325-3.001-2.001-4.497 c2.332-1.171 8.158-9.426 10.334-14.29c4.337-8.954 8.914-21.787 10.957-32.664c2.164-10.873 1.841-19.49 1.062-19.509 c-0.841-0.051-1.986 8.26-5.096 18.517c-3.004 10.289-8.018 22.435-12.228 31.128c-1.853 4.142-5.089 11.643-5.812 15.1 c-0.742-1.618-1.494-3.232-2.259-4.841c2.52-1.986 7.3-8.886 9.229-13.075c4.145-8.448 8.75-20.474 11.015-30.717 c2.418-10.232 2.314-18.444 1.527-18.483c-0.831-0.064-2.178 7.752-5.528 17.353c-1.276 3.841-2.848 7.959-4.53 12 c1.737-5.081 3.265-10.355 4.274-15.201c2.186-9.765 2.095-17.578 1.307-17.625c-0.129-0.011-0.273 0.179-0.432 0.5 c0.094-2.233-0.088-3.587-0.435-3.605c-0.792-0.063-2.303 7.02-5.849 15.668c-0.537 1.364-1.117 2.771-1.724 4.2 c0.849-2.602 1.587-5.186 2.156-7.662c2.286-9.252 2.057-16.706 1.272-16.733c-0.836-0.062-2.061 6.979-5.254 15.5 c-0.057 0.162-0.119 0.327-0.178 0.49c0.216-0.832 0.421-1.66 0.598-2.473c2.127-8.88 1.36-16.052 0.559-15.995 c-0.822 0-1.537 6.732-4.552 14.845c-1.247 3.579-2.867 7.418-4.616 11.177c2.005-5.413 3.701-11.264 4.582-16.576 c1.624-9.046 0.932-16.169 0.151-16.155c-0.84-0.016-1.629 6.823-4.195 15.203c-2.448 8.411-6.714 18.266-10.298 25.3 c-1.606 3.437-4.376 9.776-4.782 12.613c-0.782-1.306-1.58-2.603-2.38-3.898c2.083-1.11 6.479-7.765 8.11-11.665 c3.233-7.346 6.816-17.746 8.308-26.63c1.664-8.891 0.687-16-0.15-15.904c-0.788 0.05-1.293 6.722-3.895 15 c-0.333 1.129-0.699 2.289-1.087 3.466c0.563-2.487 1.008-4.953 1.283-7.305c1.175-8.83 0.043-15.694-0.731-15.631 c-0.756 0.03-1.136 5.371-2.744 12.362c1.13-8.287 0.157-14.714-0.611-14.665c-0.844 0.019-1.358 6.304-3.485 14 c-0.276 1.056-0.586 2.139-0.919 3.236c0.529-2.206 0.95-4.394 1.22-6.491c1.224-8.147-0.086-14.51-0.86-14.404 c-0.838 0.069-1.045 6.143-3.207 13.574c-2.001 7.463-5.723 16.214-8.783 22.511c-1.381 3.076-3.647 8.829-3.819 11.4 c-0.996-1.404-2.002-2.801-3.02-4.188c2.07-0.927 6.313-6.894 7.716-10.528c2.934-6.801 5.628-16.644 6.122-24.902 c0.609-8.267-0.878-14.558-1.643-14.448c-0.839 0.084-0.868 6.253-2.474 13.898c-1.287 6.589-3.791 14.195-6.236 20.3 c0.083-0.206 0.167-0.413 0.234-0.608c2.86-7.001 4.926-17.166 4.883-25.469c0.091-8.319-1.471-14.558-2.219-14.466 c-0.715 0.069-0.793 4.38-1.439 10.297c-0.006-0.323-0.01-0.648-0.023-0.965c-0.208-8.353-2.107-14.52-2.838-14.391 c-0.87 0.123-0.467 6.384-1.314 14.231c-0.724 7.868-3.119 17.169-5.844 23.6c-1.187 3.432-3.778 9.751-3.756 12 c-1.284-1.585-2.581-3.159-3.896-4.717c1.675 0.4 6.52-6.535 7.778-10.631c2.474-6.818 4.152-16.712 3.542-24.748 c-0.487-8.067-2.844-13.88-3.57-13.669c-0.836 0.2 0 6.142-0.584 13.65c-0.467 7.528-2.638 16.48-4.936 22.8 c-1.067 3.485-3.152 10.206-2.643 12.083c-1.342-1.582-2.703-3.146-4.078-4.698c1.91-1.248 5.214-7.678 6.095-11.44 c1.929-7.102 3.298-17.176 2.565-25.407c-0.569-8.278-3.268-14.217-3.994-13.939c-0.811 0.2 0.4 6.254-0.162 14 c-0.342 7.743-2.257 17.081-4.094 23.848c-0.723 3.101-1.837 8.68-1.728 11.469c-1.193-1.329-2.398-2.646-3.615-3.951 c1.688 0.2 5.297-7.199 6.054-11.248c1.537-6.825 2.344-16.433 1.314-24.182c-0.898-7.788-3.473-13.343-4.208-13.085 c-0.802 0.2 0.3 6 0.1 13.303c-0.069 7.349-1.457 16.254-2.909 22.716c-0.626 3.376-1.567 9.82-0.901 11.9 c-1.466-1.563-2.948-3.111-4.45-4.639c1.774-0.804 4.715-8.494 5.159-12.737c1.104-7.558 1.088-18.103-0.793-26.43 c-1.755-8.376-5.115-14.14-5.81-13.808c-0.784 0.3 1.1 6.4 1.7 14.424c0.745 8 0.1 17.854-0.923 25 c-0.361 3.475-0.917 9.857-0.38 12.458c-1.253-1.261-2.52-2.509-3.797-3.746c1.738-0.052 3.9-8.555 3.735-12.926 c0.05-7.378-1.393-17.345-3.818-25.094c-2.341-7.78-5.355-13.304-6.068-13.024c-0.798 0.3 0.8 6.2 2 14 c0.335 2 0.6 4 0.9 6.157c-0.905-4.407-2.212-8.823-3.807-12.606c-3.076-7.582-6.806-12.684-7.462-12.319 c-0.77 0.4 1.6 6.1 3.5 13.63c2.04 7.5 3.3 16.9 3.3 23.771c0.228 3.7 0.4 10.8 1.4 12.5 c-1.983-1.801-3.988-3.578-6.026-5.319c0.033 0 0.1 0 0.1 0.054c1.848 0.3 3.417-9.1 2.571-13.708 c-0.91-7.636-4.236-17.607-8.411-24.886c-4.087-7.348-8.528-12.088-9.132-11.649c-0.719 0.5 2.4 6 5.4 13.4 c3.052 7.4 5.5 16.8 6.3 23.869c0.7 3.8 1.7 11.1 2.9 12.636c-1.629-1.387-3.277-2.754-4.942-4.102 c1.649-0.46 1.422-9.263 0.112-13.44c-1.902-7.106-5.796-16.376-10.122-23.253c-4.249-6.935-8.577-11.507-9.183-11.051 c-0.699 0.5 2.4 5.8 5.5 12.988c1.597 3.5 3.2 7.5 4.5 11.398c-7.931-12.735-22.723-26.294-23.72-25.268 c-0.678 0.6 4.2 6.9 9.6 14.452c-8.405-8.615-17.653-15.532-18.369-14.626c-0.889 1 12.9 15 21.2 26.6 c-10.514-10.737-28.89-27.722-30.039-26.605c-0.609 0.6 3.8 6.2 9.6 12.943c-7.142-5.172-13.024-9.016-13.562-8.36 c-0.582 0.7 5.2 6.5 12.4 13.147c-9.71-5.393-18.371-9.748-18.884-8.919c-0.45 0.7 5.4 5.3 13 10.6 c-8.676-3.814-15.585-6.496-15.957-5.765c-0.403 0.8 7 5.4 16.2 10.721c-9.63-3.745-17.2-6.346-17.532-5.611 c-0.394 0.9 9.6 6.3 21.4 12.191c-11.262-3.555-20.519-6.11-20.823-5.288c-0.346 0.9 11 6.1 24 11.4 c-11.03-2.867-19.95-4.833-20.206-4.015c-0.375 1.2 18.4 8.2 35.2 13.845c-14.035-3.11-27.152-5.531-27.422-4.456 c-0.367 1.5 29.8 10.7 47.6 15.344c5.296 1.4 16.2 2.9 16.8 1.421c1.486 1.4 3 2.8 4.4 4.2 c-3.039-1.557-10.042-3.443-14.062-4.169c-8.815-1.536-20.797-3.515-30.516-5.352c-9.75-1.756-17.144-3.677-17.436-2.949 c-0.239 0.6 3.7 2.6 9.7 4.776c-3.763-0.629-6.148-0.926-6.255-0.658c-0.53 1.6 16.2 7.1 32.3 11 c-3.675-0.584-7.298-1.175-10.663-1.754c-10.231-1.678-18.046-3.469-18.311-2.722c-0.283 0.8 7.3 4 17.4 6.8 c2.083 0.6 4.3 1.2 6.5 1.702c-0.71-0.113-1.412-0.224-2.103-0.336c-10.484-1.565-18.357-3.433-18.635-2.803 c-0.37 0.9 7.4 4.2 17.8 6.867c10.343 2.7 23.2 5.3 32.7 6.792c5.619 0.9 17 1.3 17.601-0.214 c1.191 1.4 2.4 2.8 3.5 4.164c-3.035-1.146-11.546-2.067-16.208-2.442c-9.531-0.528-22.442-1.832-32.866-3.763 c-10.434-1.846-18.361-4.223-18.667-3.446c-0.302 0.7 7.2 4.5 17.7 7.496c10.443 3 23.7 5 33.4 5.6 c5.495 0.4 16.187-0.701 17.537-2.266c1.296 1.6 2.6 3.2 3.8 4.761c-2.107-1.174-11.083-1.695-15.806-1.749 c-8.872 0.094-20.93-0.202-30.735-1.127c-9.812-0.853-17.367-2.278-17.594-1.477c-0.227 0.7 6.8 3.5 16.4 5.5 c-9.613-0.625-16.718-1.848-16.939-1.152c-0.272 0.8 7.7 3.7 18.3 5.39c10.573 1.8 23.6 2.8 33.3 3 c5.789 0.2 17.428-1.104 17.4-2.763c-0.001-0.06-0.024-0.12-0.057-0.18c2.588 3.4 5.1 6.9 7.5 10.5 c-2.711-1.121-12.335-1.568-17.472-1.466c-9.961 0.291-23.478 0.615-34.485 0.28c-11.022-0.205-19.445-1.462-19.651-0.706 c-0.235 0.8 8.2 3.6 19.3 4.849c11.151 1.4 24.9 1.7 35 1.453c5.714-0.112 16.772-1.904 17.943-3.502 c1.095 1.6 2.2 3.2 3.2 4.827c-1.826-1.161-12.673-0.769-18.237-0.226c-10.003 1.103-23.601 2.468-34.71 2.8 c-11.12 0.519-19.64-0.565-19.832 0.175c-0.241 0.8 8.4 3.4 19.8 3.977c0.117 0 0.2 0 0.4 0 c-10.776 0.083-18.936-0.692-19.082 0.09c-0.162 0.8 8.7 3.1 20.3 4.049c5.199 0.5 10.9 0.7 16.6 0.7 c-4.975 0.255-9.928 0.439-14.485 0.493c-11.789 0.257-20.873-0.696-21.034 0.081c-0.187 0.8 8.9 3.3 20.9 4.1 c7.323 0.6 15.7 0.7 23.5 0.435c-20.476 1.46-43.289 2.726-43.344 3.702c-0.05 1.3 16.2 2.1 33.7 2 c-2.599 0.117-5.145 0.217-7.574 0.29c-11.79 0.475-20.883-0.078-21.019 0.688c-0.157 0.8 9 2.9 21 3.5 c11.942 0.7 26.6 0.4 37.296-0.317c6.46-0.377 19.305-2.813 19.135-4.467c-0.137-1.324-9.274-1.674-15.992-1.531 c5.712-0.876 11.976-2.302 13.226-3.46c1.802 3.1 3.6 6.3 5.3 9.492c-3.07-0.75-13.837 0.11-19.545 0.8 c-10.997 1.57-25.97 3.468-38.238 4.314c-12.268 0.971-21.803 0.611-21.902 1.415c-0.121 0.8 9.5 2.7 22 2.7 c10.6 0.2 23.171-0.704 33.54-1.943c-9.911 1.368-21.437 2.789-31.258 3.548c-12.432 1.088-22.102 0.787-22.198 1.6 c-0.116 0.8 9.6 2.6 22.3 2.572c12.691 0.1 28.165-1.298 39.444-2.952c5.873-0.789 16.607-3.65 19.24-5.481 c0.882 1.7 1.8 3.5 2.6 5.255c-2.225-1.076-14.221-0.418-20.407 0.305c-11.247 1.414-26.525 3.257-39.027 4.3 c-12.501 1.108-22.216 1.064-22.296 1.852c-0.091 0.8 9.7 2.4 22.5 2.301c12.72 0.1 28.238-1.156 39.584-2.581 c6.501-0.758 19.01-3.811 19.986-5.528c1.803 3.7 3.5 7.5 5.2 11.29c-2.713-0.885-12.334-0.831-18.737-0.516 c7.119-1.18 16.429-3.569 16.223-4.931c-0.237-1.566-14.069-1.05-20.897-0.354c-11.334 1.253-26.733 2.933-39.316 3.7 c-12.593 0.963-22.304 0.446-22.438 1.187c-0.149 0.8 8.2 2.6 19.6 2.91c-11.05 0.236-19.159-0.097-19.254 0.6 c-0.114 0.8 10 2.8 23.2 3.422c13.197 0.7 29.4 0.3 41.25-0.612c6.482-0.432 18.76-2.783 20.823-4.46 c0.859 2 1.7 3.9 2.5 5.919c-3.218-0.885-14.611-0.476-20.671 0.085c-11.711 1.19-27.621 2.712-40.63 3.5 c-13.008 0.852-23.104 0.681-23.189 1.48c-0.096 0.8 10.1 2.5 23.3 2.676c13.191 0.3 29.323-0.574 41.131-1.776 c6.347-0.585 18.229-3.096 20.56-4.809c0.847 2.1 1.7 4.1 2.5 6.18c-2.516-1.049-15.227-0.541-21.827 0 c-12.106 1.163-28.571 2.49-42.035 2.863c-13.466 0.5-23.899-0.176-24.011 0.635c-0.126 0.8 10.3 3 24 3.5 c5.978 0.3 12.5 0.3 19.1 0.195c-5.609 0.373-11.187 0.725-16.321 1.003c-13.452 0.861-23.808 0.65-23.915 1.4 c-0.139 0.9 10.4 2.6 24 2.805c13.578 0.3 30.184-0.247 42.373-1.062c6.632-0.412 19.228-2.479 21.474-4.081 c0.691 1.9 1.4 3.8 2 5.637c-2.772-1.191-15.318-1.484-21.911-1.203c-12.311 0.586-29.024 1.486-42.66 1.9 c-13.641 0.566-24.151 0.162-24.264 0.899c-0.137 0.9 10.5 2.8 24.2 3.258c13.754 0.6 30.6 0.4 42.957-0.213 c6.853-0.291 19.994-2.198 21.946-3.782c0.652 1.9 1.3 3.7 1.9 5.618c-3.569-1.042-14.923-1.348-21.056-1.132 c-12.152 0.491-28.646 1.219-42.101 1.455c-13.461 0.353-23.836-0.228-23.958 0.531c-0.142 0.8 10.3 2.9 23.9 3.6 c13.566 0.8 30.2 0.8 42.4 0.26c6.399-0.225 18.349-1.878 21.274-3.391c0.699 2.1 1.4 4.3 2 6.4 c-2.824-0.948-15.274-0.285-21.789 0.341c-12.15 1.317-28.677 2.867-42.179 3.189c-13.521 0.51-23.899-0.77-24.071-0.019 c-0.213 0.8 10.2 3.6 24 4.179c13.748 0.7 30.567-0.174 42.85-1.505c6.718-0.647 19.377-3.488 21.466-5.256 c0.641 2.1 1.3 4.2 1.9 6.251c-3.455-0.52-15.087 0.797-21.32 1.477c-12.062 1.66-28.581 2.921-42.097 2.6 c-13.515-0.197-23.947-1.812-24.124-0.978c-0.184 0.7 10.1 3.8 23.9 5.128c13.75 1.4 30.8 0.8 43.093-0.929 c6.435-0.703 18.103-4.01 20.929-6.02c0.665 2.3 1.3 4.6 1.9 6.948c-3.31-0.701-14.712 0.257-20.779 1 c-11.738 1.618-27.716 3.489-40.806 4.043c-13.094 0.712-23.199-0.348-23.357 0.423c-0.187 0.8 10 3.4 23.4 3.7 c1.872 0.1 3.8 0.1 5.8 0.111c-1.904 0.076-3.774 0.139-5.586 0.187c-13.491 0.49-23.904-0.276-24.035 0.5 c-0.156 0.8 10.3 3.1 24 3.666c13.663 0.7 30.4 0.2 42.651-0.812c6.288-0.436 17.853-2.551 21.023-4.196 c0.359 1.4 0.7 2.9 1.1 4.351c-3.844-0.755-14.633-0.412-20.505 0.14c-11.927 1.197-28.11 2.867-41.338 3.9 c-13.221 1.139-23.488 1.404-23.54 2.197c-0.057 0.8 10.3 2 23.7 1.959c13.392 0 29.751-1.016 41.743-2.22 c6.005-0.565 16.918-2.727 20.305-4.386c0.426 1.8 0.8 3.7 1.2 5.489c-3.846-0.498-14.21 0.44-19.852 1.2 c-11.523 1.737-27.194 3.904-40.041 4.959c-12.841 1.183-22.824 0.884-22.923 1.668c-0.119 0.8 10 2.6 23.1 2.5 c13.105-0.005 29.072-1.542 40.719-3.298c5.734-0.798 15.978-3.488 19.363-5.348c0.357 1.7 0.7 3.3 1 5 c-3.346-0.299-13.135 1.435-18.402 2.489c-10.424 2.339-24.717 4.935-36.513 5.905c-11.788 1.138-21.003 0.527-21.12 1.4 c-0.138 0.8 9.1 2.9 21.3 2.793c12.153 0.1 26.937-1.925 37.591-4.317c5.315-1.063 14.635-4.542 17.466-6.661 c0.359 1.8 0.7 3.6 1 5.37c-3.49-0.147-13.511 1.971-18.914 3.206c-10.722 2.723-25.449 5.784-37.64 7 c-12.181 1.418-21.727 0.874-21.832 1.711c-0.132 0.8 9.5 2.8 22.1 2.436c12.584-0.195 27.835-2.679 38.788-5.466 c5.419-1.237 14.833-5.033 17.814-7.281c0.346 1.9 0.7 3.7 1 5.613c-3.452-0.424-12.53 0.787-17.414 1.9 c-20.026 4.64-54.102 13.884-53.734 15.466c0.364 1.6 35.028-5.099 55.051-9.741c4.833-1.12 13.388-3.971 16.393-5.871 c0.274 1.6 0.5 3.2 0.8 4.876c-3.384 0.628-10.479 3.632-14.321 5.584c-5.614 2.928-12.609 6.556-19.453 9.899h12.615 c3.435-1.593 6.686-3.194 9.541-4.683c3.585-1.82 9.296-5.713 12-8.331c0.269 1.8 0.5 3.5 0.8 5.3 c-2.627 0.746-7.968 4.265-10.639 6.575c-0.436 0.377-0.885 0.769-1.341 1.168h16.592c-0.016-0.116-0.03-0.233-0.047-0.349 c2.497 0.5 6.4 0.4 8.7 0.008c11.672-1.916 31.493-6.504 31.226-8.107c-0.261-1.601-20.501 0.39-32.173 2.3 c-2.29 0.375-5.989 1.552-8.218 2.769c-0.181-1.243-0.364-2.486-0.553-3.728c2.957 0.4 9.449-0.506 12.919-1.786 c7.507-2.509 17.386-7.199 24.372-12.741c7.143-5.405 10.704-11.548 10.035-11.963C278.674 765.9 274.2 770.8 266.9 774.951z M104.853 559.119c0.018-0.038 0.029-0.079 0.035-0.122c0.024 0 0.1 0 0.1 0.015c0.648-0.132 0.832-1.176 0.696-2.651 c0.14 0.3 0.3 0.6 0.4 0.824c0.884 1.7 1.4 3.2 1.8 3.914C106.987 560.5 105.9 559.8 104.9 559.119z M111.706 564.572c-0.181-0.142-0.359-0.287-0.54-0.429c-0.172-0.59-1.18-1.519-2.625-2.581c0.606-0.045 1.282-1.329 1.519-3.087 c0.888 2.6 2 5.3 2.9 6.948C112.6 565.2 112.2 564.9 111.7 564.572z M114.517 567.3 c0.02-0.055 0.022-0.116 0.015-0.181c0.803 0.7 1.6 1.4 2.4 2.029c-0.808-0.483-1.783-1-2.848-1.522 C114.307 567.5 114.5 567.4 114.5 567.268z M116.28 571.807c1.659 0.1 2.795-0.038 2.94-0.504 c0.021-0.066 0.014-0.14-0.005-0.218c1.47 1.3 2.9 2.6 4.4 3.9C121.732 574 119 572.8 116.3 571.807z M126.082 576.767c1.329 0.3 3.086-4.482 3.797-8.799c0.004 0.5 0 1 0 1.464c0.133 3.5 0.5 10.1 1.4 12.2 C129.593 580 127.8 578.4 126.1 576.767z M131.649 582.67c0.999 1 2 2 3 3 c-1.36-0.683-3.405-1.428-5.616-2.119C130.477 583.4 131.5 583.1 131.6 582.67z M136.207 587.3 c1.207 1.3 2.4 2.5 3.6 3.799c-2.274-1.019-6.268-2.146-9.885-2.974C133.085 588.2 135.7 588 136.2 587.313z M134.93 593.743c3.104-0.015 5.717-0.265 6.487-0.85c1.261 1.4 2.5 2.8 3.7 4.2 C143.258 596 139 594.7 134.9 593.743z M148.609 611.311c3.428-0.688 6.207-1.606 6.299-2.461 c1.221 1.6 2.4 3.1 3.6 4.7C157.644 612.6 153.1 611.8 148.6 611.311z M155.889 608.6 c1.183-0.072 3.526-2.429 5.515-5.187c-1.087 3.127-2.373 6.956-2.536 8.947C157.886 611.1 156.9 609.8 155.9 608.58z M159.861 613.632c1.954-0.724 5.951-6.006 7.57-9.8c-0.36 0.895-0.719 1.758-1.072 2.578c-1.179 3.062-3.155 8.634-3.377 11.3 C161.953 616.4 160.9 615 159.9 613.632z M180.051 629.444c-1.182 3.223-2.41 7.165-2.652 9.4 c-0.805-1.286-1.616-2.569-2.439-3.844C176.24 634.3 178.3 632 180.1 629.444z M173.821 633.3 c-0.755-1.154-1.511-2.309-2.28-3.453c1.199-0.476 3.193-2.585 4.992-4.991C175.379 627.8 174.2 631.2 173.8 633.296z M167.98 624.669c1.349-0.395 3.872-3.221 5.877-6.133c-1.348 3.185-3.029 7.568-3.309 9.9 C169.699 627.1 168.8 625.9 168 624.669z M158.52 634.519c5.655-1.177 11.727-3.041 11.787-4.239 c2.205 3.4 4.3 6.8 6.4 10.204c-1.836-0.903-9.436-0.979-15.33-0.763c5.983-1.111 12.437-2.972 12.246-4.184 C173.449 634.3 165 634.2 158.5 634.519z M163.789 645.059c5.99-0.988 12.737-2.712 13.316-3.955 c0.951 1.6 1.9 3.2 2.8 4.769C177.427 645 169.6 644.9 163.8 645.059z M181.649 645.9 c1.171-0.388 3.274-2.576 5.245-5.138c-1.378 2.892-2.822 6.254-3.34 8.379C182.927 648 182.3 646.9 181.6 645.866z M184.623 650.988c1.323-0.691 3.442-2.874 5.387-5.314c-1.415 3.096-2.891 6.666-3.39 8.9 C185.963 653.3 185.3 652.2 184.6 650.988z M169.895 662.578c6.215-1.164 14.739-3.616 16.405-5.165 c0.744 1.4 1.5 2.8 2.2 4.237C185.07 661.1 175.6 661.9 169.9 662.578z M187.624 656.4 c1.328-0.706 3.533-3.104 5.548-5.763c-1.48 3.385-3.023 7.423-3.42 9.715C189.052 659 188.3 657.7 187.6 656.374z M190.643 662.03c1.148-0.545 3.103-2.735 4.997-5.288c-1.244 3.226-2.508 6.912-2.955 9.3 C192.013 664.7 191.3 663.3 190.6 662.03z M193.741 668.098c1.244-0.822 3.217-3.317 5.055-6.105 c-1.351 3.185-2.781 6.861-3.45 9.375C194.816 670.3 194.3 669.2 193.7 668.098z M205.117 693.3 c0-0.001-0.001-0.002-0.001-0.003c0.186-0.266 0.376-0.529 0.559-0.797C205.494 692.8 205.3 693 205.1 693.303z M202.533 687.117c1.954-1.274 5.413-5.312 8.046-9.175c-1.628 4.258-4.715 10.725-5.93 14.2 C203.957 690.5 203.3 688.8 202.5 687.117z M186.143 699.754c7.028-1.044 16.117-3.193 17.368-4.618 c0.707 1.8 1.4 3.6 2.1 5.466C202.81 699.6 192.8 699.5 186.1 699.754z M209.615 704.9 c-0.508-1.371-1.018-2.742-1.541-4.109c1.143-0.415 3.074-2.02 5.12-4.111C211.764 699.7 210.4 702.7 209.6 704.879z M214.451 718.698c-0.49-1.485-0.99-2.968-1.498-4.448c1.121-0.414 2.906-1.749 4.835-3.515 C216.436 713.6 215.2 716.6 214.5 718.698z M197.95 743.916c-1.624 0.128-3.331 0.261-5.093 0.4 c1.491-0.178 2.939-0.362 4.321-0.553c6.223-0.768 17.637-3.719 20.34-5.576c0.528 2 1 4 1.5 6 C215.392 743.3 204.1 743.5 197.9 743.916z M219.258 734.26c-0.537-1.864-1.086-3.726-1.648-5.583 c2.192-1.25 6.73-6.305 9.947-10.785C225.036 722.4 220.9 730.1 219.3 734.26z M226.742 764.1 c2.027-0.536 5.786-2.649 9.339-5.155c-3.082 3.464-6.683 7.538-8.33 9.977C227.423 767.3 227.1 765.7 226.7 764.132z M225.09 799.865c1.441-1.574 2.832-3.277 3.762-4.692c0.135 1 0.3 2 0.4 3 C228.18 798.3 226.6 799 225.1 799.865z M229.369 777.218c0.187-0.127 0.371-0.255 0.557-0.383 c-0.183 0.131-0.372 0.256-0.557 0.385C229.369 777.2 229.4 777.2 229.4 777.218z" class="style0"/><path d="M506.249 460.611c-12.31 3.652-22.047 5.688-21.954 6.474c0.085 0.8 10.2 0.2 22.931-2.498 c12.739-2.578 28.045-6.94 39.126-10.668c3.259-1.062 7.972-3.034 11.888-4.957v-4.246c-4.499 0.968-10.127 2.54-13.714 3.7 C533.535 452.1 518.6 457.1 506.2 460.611z" class="style0"/><path d="M514.319 476.305c-12.981 3.516-23.165 5.417-23.114 6.15c0.057 0.9 10.7 0.4 23.993-2.151 c13.348-2.401 29.466-6.305 41.221-9.563c0.567-0.154 1.178-0.331 1.82-0.526v-5.905c-1.223 0.292-2.369 0.58-3.359 0.8 C543.182 468.4 527.3 472.9 514.3 476.305z" class="style0"/><path d="M496.239 487.107c0.048 0.8 10.5 0.6 23.72-1.719c12.284-2.003 26.938-5.336 38.281-8.319v-5.984 c-11.458 3.094-26.6 7.227-39.101 10.293C506.284 484.6 496.2 486.4 496.2 487.107z" class="style0"/><path d="M508.065 466.89c-12.828 3.414-22.997 5.038-22.929 5.841c0.053 0.8 10.5 0.6 23.796-1.84 c5.81-1.009 12.13-2.402 18.364-3.968c-5.307 1.581-10.589 3.134-15.461 4.519c-12.735 3.758-22.73 5.812-22.68 6.5 c0.064 0.9 10.6 0.2 23.645-2.529c13.115-2.642 28.942-6.813 40.474-10.252c1.435-0.42 3.151-0.993 4.964-1.648v-5.619 c-1.657 0.39-3.262 0.793-4.69 1.179c1.508-0.586 3.108-1.254 4.69-1.953v-5.09c-3.737 0.944-7.656 2.07-10.417 2.9 C536.446 458.7 520.9 463.6 508.1 466.89z" class="style0"/><path d="M556.409 433.148c-0.569-1.453-13.744 2.057-20.152 4.213c-10.615 3.673-25.042 8.642-36.956 12.2 c-11.888 3.668-21.33 5.288-21.297 6.029c0.03 0.8 8.5 0.7 19.444-1.47c-10.564 2.635-18.427 4.081-18.36 4.8 c0.065 0.8 10.2 0.5 23.039-1.769c12.839-2.165 28.296-6.107 39.494-9.575c4.751-1.415 12.575-4.691 16.619-7.055v-2.587 c-3.863 0.359-11.214 2.104-16.341 3.536C548.48 438.7 556.9 434.4 556.4 433.148z" class="style0"/><path d="M504.041 502.678c-0.005 0.3 1.7 0.6 4.5 0.738c-1.588 3.341-5.015 15.112-10.757 29.2 c-6.619 16.854-15.674 37.172-22.363 52.118c-3.948 9.031-10.726 27.716-8.689 28.728c1.772 0.9 9.125-10.801 13.863-20.017 c-3.242 8.617-7.538 21.747-7.519 25.845c-4.451-3.948-8.831-7.982-13.148-12.086c2.777-0.581 12.442-16.344 16.332-24.9 c6.929-14.887 15.397-35.574 20.905-52.989c5.656-17.389 7.884-31.476 6.711-31.715c-1.113-0.237-5.318 13.066-12.319 29.7 c-6.859 16.655-16.085 36.735-22.955 51.492c-3.703 8.141-9.869 24.254-9.375 27.769c-2.03-1.938-4.044-3.893-6.043-5.865 c3.66-2.796 12.283-16.217 15.94-23.901c7.211-14.696 15.906-35.242 21.35-52.636c5.618-17.357 7.457-31.484 6.292-31.682 c-1.13-0.217-4.963 13.136-11.907 29.656c-5.348 13.094-12.35 28.231-18.571 41.181c6.245-13.634 12.977-30.431 17.378-45.006 c5.387-17.17 7.071-31.117 5.919-31.305c-1.143-0.217-4.836 12.978-11.548 29.326c-6.541 16.402-15.709 36.041-22.682 50.4 c-3.517 7.481-9.419 21.824-9.741 26.351c-3.617-3.726-7.174-7.511-10.671-11.351c2.132-1.2 6.832-9.139 10.536-16.565 c-3.144 9.123-6.676 21.769-4.926 22.537c2.186 1 11.156-15.534 14.507-24.202c5.679-14.351 12.535-34.214 16.804-50.855 c4.443-16.616 5.67-30.03 4.459-30.181c-1.107-0.151-4.342 12.525-10.167 28.437c-1.166 3.29-2.42 6.727-3.721 10.2 c7.859-23.798 13.865-46.41 12.062-46.914c-1.359-0.353-13.103 30.283-24.087 57.638c3.738-10.613 7.28-22.05 9.716-32.311 c4.16-16.767 4.799-30.267 3.607-30.368c-1.133-0.121-3.818 12.717-9.344 28.724c-2.075 6.207-4.501 12.898-7.033 19.6 c2.504-7.77 4.753-15.692 6.404-23.003c3.894-16.358 4.52-29.455 3.388-29.574c-1.133-0.145-3.654 11.353-8.499 26.1 c0.042-0.164 0.088-0.332 0.13-0.495c4.261-15.825 4.481-28.745 3.241-28.78c-1.097-0.062-3.353 12.063-8.945 27 c-5.348 15.037-13.184 33.031-19.083 46.223c-3.186 7.369-8.482 22.028-7.697 25.035c-1.746-2.168-3.471-4.353-5.177-6.552 c2.699-0.899 10.003-15.232 12.664-22.996c4.828-13.651 10.397-32.578 13.361-48.444c3.157-15.845 3.067-28.523 1.854-28.558 c-1.122-0.051-3.102 12.018-7.66 27.178c-4.374 15.196-10.75 33.536-15.52 47.028c-2.393 6.979-6.007 20.334-5.664 24.5 c-3.769-4.896-7.438-9.867-10.997-14.912c0.067 0.1 0.1 0.1 0.2 0.157c2.255 0.8 9.139-14.579 11.415-22.579 c3.889-13.254 8.292-31.54 10.492-46.78c2.391-15.229 1.871-27.344 0.644-27.328c-1.048-0.003-2.494 10.247-5.859 23.7 c1.57-13.989 0.829-24.794-0.279-24.807c-1.195-0.041-2.562 10.915-5.703 24.705c-3.04 13.813-7.927 30.429-11.951 42.5 c-2 6.481-5.228 18.981-4.547 22.378c-1.633-2.429-3.244-4.872-4.826-7.334c2.732-1.159 8.988-15.276 10.796-22.983 c3.559-13.607 6.608-32.574 7.055-48.181c0.563-15.632-1.348-27.621-2.469-27.525c-1.197 0.077-1.426 11.96-3.483 27 c-1.934 15.1-5.819 33.326-9.281 46.589c-1.535 6.538-4.01 18.58-3.776 23.233c-1.401-2.207-2.783-4.425-4.143-6.658 c2.355-0.109 6.818-15.882 8.018-23.971c2.091-13.641 4.261-32.288 5.048-47.635c0.969-15.322-0.244-27.433-1.59-27.308 c-0.984 0.103-1.886 11.688-4.347 26.709c-0.151 0.993-0.307 2.003-0.464 3.023c0.231-3.309 0.416-6.555 0.534-9.659 c0.699-15.075-0.431-26.812-1.625-26.768c-1.137 0.034-2.12 11.506-4.316 26.231c-0.686 4.856-1.468 10.069-2.282 15.3 c1.686-23.7 1.521-49.016-0.84-48.975c-0.414 0.028-1.055 3.419-1.846 8.84c-0.327-9.153-1.389-15.379-2.288-15.307 c-1.124 0.08-1.743 11.033-3.622 25.135c-1.754 14.095-4.307 31.346-6.077 44.073c-0.773 5.815-1.268 16.218-0.473 21.1 c-1.306-2.611-2.58-5.238-3.826-7.88c2.314-0.171 5.012-15.776 5.442-23.626c1.413-26.369 2.12-71.672-0.083-71.825 c-1.589-0.103-4.036 18.895-5.945 39.449c-0.354-25.534-1.644-54.212-3.47-54.233c-1.231-0.009-2.458 13.051-3.379 29.4 c-1.581-20.077-3.578-37.899-5.017-37.839c-1.258 0.054-1.828 13.833-1.91 30.792c-2.869-18.677-5.906-34.738-7.282-34.586 c-1.151 0.131-0.918 11.623-0.024 26.434c-3.188-14.911-6.299-27.023-7.559-26.82c-1.163 0.189-0.529 10.8 0.9 24.3 c-3.963-12.705-7.589-22.699-8.774-22.401c-1.358 0.3 0.8 14.1 3.9 29.735c-5.896-12.794-11.297-23.252-12.519-22.767 c-1.132 0.4 1.5 10.2 5.5 22.213c-6.66-10.916-12.399-19.386-13.481-18.814c-2.03 1.1 13.1 33.7 23.2 52.8 c-12.215-16.308-25.259-41.357-27.021-40.582c-1.554 0.6 3.8 16.3 11.9 31.535c-7.976-10.763-14.413-20.17-15.534-19.507 c-1.841 0.9 10.2 27.1 24.1 43.523c-4.763-3.62-9.503-7.49-13.592-11.212c-8.39-7.45-14.349-13.965-15.342-13.23 c-0.889 0.6 3.5 8.6 11.1 17.407c7.504 8.9 18.5 18.3 27.4 24.046c5.137 3.6 17.1 7.8 18.4 5.7 c1.112 2.9 2.3 5.7 3.4 8.557c-1.56-2.316-11.133-6.859-16.014-9.482c-9.25-4.235-21.063-11.718-29.854-19.143 c-8.886-7.289-15.022-14.018-16.015-13.252c-0.865 0.6 3.7 8.8 11.9 17.599c8.119 8.9 20.3 17.8 30.3 22.4 c5.929 3.2 19.5 5.2 19.9 2.502c0.006-0.048-0.024-0.106-0.031-0.158c1.485 3.6 3 7.1 4.6 10.6 c-1.886-2.12-11.506-5.417-16.48-7.358c-9.411-3.009-21.689-8.807-31.07-14.895c-9.456-5.951-16.206-11.673-17.091-10.795 c-0.787 0.7 4.6 8.1 13.6 15.61c4.473 3.8 9.9 7.6 15.6 10.739c-2.787-1.279-5.497-2.594-8.03-3.913 c-10.012-5.073-17.446-9.854-18.208-8.895c-0.696 0.9 5.5 7.4 15.1 14.014c9.53 6.7 22.5 13.1 32.6 16.2 c5.905 2.1 18.5 2.9 19.3 0.567c1.131 2.3 2.3 4.6 3.5 6.835c-3.32-1.877-12.29-3.917-17.2-4.949 c-10.259-1.723-23.995-5.187-34.618-9.721c-10.697-4.37-18.187-9.594-18.973-8.663c-0.76 0.8 5.6 7.9 16.3 14 c10.559 6.2 25 10.9 35.8 12.685c5.996 1.3 17.8 0.6 19.68-1.462c1.431 2.7 2.9 5.4 4.4 8.1 c-2.507-1.811-11.73-3.352-16.621-3.978c-9.472-0.851-22.258-2.861-32.336-5.993c-10.131-2.957-17.475-6.913-18.162-5.924 c-0.675 0.9 5.8 6.9 16 11.498c10.144 4.8 23.6 7.9 33.6 8.818c5.869 0.7 17.507-0.963 18.037-3.339 c1.251 2.2 2.5 4.5 3.8 6.678c-3.766-1.372-11.883-2.298-16.44-2.671c-10.06-0.459-23.668-1.939-34.405-4.871 c-10.815-2.697-18.52-6.924-19.211-5.923c-0.7 0.9 6.2 7.2 17.3 11.58c10.932 4.6 25.3 7.2 35.9 7.6 c5.529 0.4 15.772-1.247 18.317-3.311c1.519 2.6 3.1 5.1 4.6 7.638c-2.342-1.52-12.446-1.619-17.68-1.69 c-9.688 0.355-22.882-0.606-33.38-3.272c-10.524-2.492-18.279-6.248-18.92-5.193c-0.607 0.9 6.3 6.7 17.1 10.9 c10.72 4.4 25 6.4 35.4 6.02c6.153 0.1 17.82-3.485 17.95-5.968c1.553 2.5 3.1 4.9 4.7 7.4 c-3.035-1.007-12.813-0.239-18.026-0.122c-9.989 0.904-23.758 0.094-34.833-2.369c-11.101-2.286-19.485-5.587-20.035-4.45 c-0.497 0.9 7.1 6.2 18.4 10.197c0.428 0.2 0.9 0.3 1.3 0.455c-8.375-1.713-14.303-3.499-14.711-2.552 c-0.455 1 7.4 5.9 18.8 9.383c11.334 3.7 26.1 5.3 37 4.504c0.296-0.006 0.616-0.03 0.935-0.053 c-9.433 0.658-20.932 0.744-30.505-0.389c-11.158-1.16-19.606-3.828-20.089-2.718c-0.486 1 7.5 5.8 19 8.6 c11.508 2.9 26.1 3.6 36.7 2.56c5.584-0.323 15.606-3.505 17.781-5.928c1.45 2 2.9 4 4.4 6 c-3.602-0.897-12.464-0.324-17.275 0.214c-9.954 1.42-23.552 2.668-34.635 2.128c-11.109-0.306-19.504-2.69-19.967-1.574 c-0.484 1 7.6 5.6 19.3 7.499c2.986 0.6 6.2 0.9 9.4 1.182c-1.645-0.026-3.262-0.078-4.828-0.164 c-11.481-0.478-20.299-2.535-20.696-1.389c-0.403 1 8 5.2 19.8 7.273c-10.265-0.87-17.735-2.695-18.107-1.674 c-0.427 1 8.5 5.6 21.1 7.861c3.337 0.7 6.9 1.1 10.6 1.452c-1.779 0.013-3.525 0.005-5.216-0.035 c-12.393-0.054-21.737-2.291-22.152-1.236c-0.498 1.1 8.8 5.6 21.7 7.186c12.802 1.9 28.6 1.5 40.1 0.3 c6.048-0.519 17.078-3.608 19.509-5.969c1.42 1.7 2.8 3.3 4.3 4.965c-4.056-0.69-13.94 0.315-19.344 1 c-11.193 1.812-26.541 3.319-39.115 2.974c-12.584-0.169-22.281-2.092-22.628-0.937c-0.361 1.1 9.1 5.1 22.2 6.9 c7.65 1.1 16.4 1.4 24.7 1.011c-5.907 0.741-11.868 1.271-17.309 1.405c-12.417 0.561-21.936-1.416-22.296-0.292 c1.331 0.3 2.7 0.6 4 0.935c-1.339-0.28-2.675-0.588-4.006-0.935c-0.431 1.1 9 5.3 22.1 6.3 c1.19 0.1 2.4 0.2 3.6 0.268c-0.248 0.009-0.502 0.021-0.748 0.028c-13.114 0.606-23.279-0.809-23.561 0.4 c-0.308 1.1 9.8 4.7 23.4 5.605c3.635 0.3 7.5 0.4 11.4 0.415c-2.217 0.204-4.396 0.38-6.496 0.5 c-13.381 1.052-23.729 0.008-23.99 1.119c-0.127 0.5 1.6 1.3 4.7 2.178c-0.522 0.073-0.844 0.186-0.885 0.4 c-0.281 1.1 10.4 4.7 24.7 5.95c7.068 0.7 15 1 22.7 0.828c-6.326 0.506-12.646 0.847-18.457 0.9 c-14.597 0.365-25.875-1.223-26.152-0.059c-0.292 1.1 10.9 4.8 25.9 6.025c14.999 1.4 33.5 0.4 46.834-1.578 c6.574-0.798 18.106-4.305 21.928-6.879c1.863 1.8 3.7 3.5 5.6 5.214c-5.051-0.532-16.727 0.601-23.204 1.3 c-13.733 1.94-32.542 3.464-47.928 3.055c-15.389-0.25-27.255-2.332-27.554-1.16c-0.316 1.1 11.3 5.3 27.1 7.1 c15.769 2 35.3 1.4 49.47-0.643c7.605-0.84 21.451-5.183 24.075-7.857c1.748 1.6 3.5 3.2 5.3 4.7 c-5.553 0.096-16.068 1.769-22.129 2.631c-13.753 2.547-32.734 4.496-48.347 4.437c-0.916 0.008-1.818 0.009-2.709 0 c-11.777-1.668-20.077-3.268-20.353-2.288c-0.093 0.3 1 1 2.9 1.832c-4.756-0.168-7.689-0.194-7.799 0.4 c-0.218 1.1 11.7 4.6 27.7 6.009c0.267 0 0.5 0 0.8 0.073c1.39 0.3 2.8 0.7 4.3 1 c16.203 3.7 36.8 5.3 52 3.633c7.688-0.289 21.164-5.012 24.812-8.159c1.914 1.6 3.8 3.2 5.8 4.7 c-5.056 0.288-17.188 3.227-24.03 4.354c-14.04 3.177-33.691 5.028-49.858 4.63c-16.158-0.233-28.726-2.012-28.968-0.771 c-0.193 0.9 8.2 3.7 20.6 5.651c-11.401-0.305-19.27-1.149-19.453-0.235c-0.26 1.1 13 5 30.7 6.3 c17.695 1.4 39.499-0.232 55.216-3.147c7.803-1.199 21.432-5.885 25.73-8.888c2.031 1.6 4.1 3.1 6.1 4.7 c-5.222 0.657-16.913 4.06-23.616 5.407c-13.972 3.751-33.667 6.235-49.938 6.344c-16.255 0.255-28.951-1.123-29.146 0.1 c-0.167 0.9 8.4 3.4 20.9 5.01c-12.681 0.647-21.621 0.295-21.754 1.251c-0.192 1.1 13.7 4.1 31.8 4 c18.12 0.2 40.193-2.347 56.182-5.375c7.964-1.349 22.044-5.89 26.436-8.783c2.063 1.5 4.1 2.9 6.2 4.4 c-5.868 0.354-17.63 2.822-24.317 4.212c-14.817 3.569-35.261 7.117-52.165 8.297c-16.889 1.357-30.118 0.646-30.259 1.9 c-0.167 1.1 13 3.9 30.5 4.104c9.372 0.2 19.866-0.525 29.941-1.787c-9.315 1.552-18.794 2.85-27.423 3.6 c-18.44 1.834-32.833 0.824-33.002 2.021c-0.198 1.1 14.3 4.3 33.3 3.943c18.979-0.055 42.034-3.355 58.65-7.156 c8.465-1.729 23.426-7.271 27.56-10.411c2.047 1.4 4.1 2.7 6.2 4.031c-6.372 0.556-18.997 3.427-26.171 5.1 c-16.014 4.216-38.044 8.907-56.304 10.748c-18.232 2.118-32.53 1.241-32.682 2.451c-0.186 1.1 14.2 4.1 33.1 3.5 c18.841-0.345 41.659-4.219 58.018-8.535c8.387-1.98 23.113-8.097 27.009-11.381c1.617 1 3.2 2 4.9 3.1 c-6.443 1.115-19.254 4.97-26.644 6.886c-16.29 4.986-39.045 9.783-57.951 11.622c-18.88 2.07-33.739 1.8-33.818 3.1 c-0.026 0.3 1 0.7 2.9 1.042c0.565 2.5 2.1 7.6 3.2 13.852c1.678 8.7 3 19.5 3.9 27.5 c0.552 4.4 2.1 12.9 3.4 14.163c-1.448-0.546-2.89-1.106-4.327-1.679c1.039-1.192 0.496-10.118-0.418-14.587 c-1.536-7.901-4.206-18.538-7.26-26.974c-2.956-8.481-6.574-14.528-7.165-14.203c-0.552 0.3 1.9 6.6 4 15.2 c2.19 8.5 4.3 19.1 5.8 26.905c0.821 4 2.9 11.4 4.2 13.349c-3.186-1.282-6.345-2.629-9.473-4.043 c0.052 0 0.1 0 0.1 0.013c1.296-0.269 0.267-9.561-0.898-14.035c-1.875-7.446-4.922-17.447-8.165-25.368 c-3.149-7.97-6.814-13.627-7.398-13.273c-0.503 0.3 1.7 5.6 3.9 12.989c-3.193-7.144-6.594-12.111-7.129-11.805 c-0.584 0.3 1.9 6 4.2 13.443c2.439 7.5 4.8 16.8 6.3 23.738c0.87 3.7 2.8 10.6 4.1 12 c-1.467-0.703-2.928-1.419-4.38-2.153c0.982-1.326-0.002-9.852-1.309-14.054c-2.132-7.522-6.02-17.468-10.207-25.07 c-4.138-7.647-8.434-12.851-8.944-12.49c-0.552 0.4 2.7 6.1 6 13.934c3.331 7.8 6.6 17.6 8.7 24.9 c1.109 3.6 3.3 10 4.7 12.194c-1.294-0.662-2.581-1.335-3.862-2.021c1.097-0.716-1.212-9.531-2.918-13.745 c-2.845-7.124-7.064-16.669-11.014-24.243c-3.856-7.613-7.853-13.073-8.462-12.633c-0.442 0.3 2.4 6.1 5.4 14 c0.207 0.5 0.4 1 0.6 1.579c-0.822-1.65-1.649-3.257-2.468-4.778c-3.916-7.419-7.767-12.723-8.327-12.365 c-0.535 0.3 2.2 6.1 5.3 13.783c1.041 2.5 2.1 5.2 3.2 7.997c-5.875-11.829-13.093-23.91-14.213-23.225 c-0.19 0.1 0.5 1.9 1.6 4.756c-2.737-4.292-5.002-6.976-5.413-6.688c-0.516 0.4 2.3 5.8 5.4 13.1 c3.134 7.2 6.8 16.2 9.5 22.826c1.27 3 4 8.1 5.7 10.22c-1.362-0.883-2.713-1.782-4.055-2.696 c1.06-0.734-2.048-8.971-4.056-12.852c-6.759-13.03-19.195-34.932-20.294-34.384c-0.79 0.4 3.4 10.2 8.3 20.6 c-7.37-12.132-16.075-25.506-16.955-25.002c-0.592 0.3 2.5 6.9 6.7 15.032c-6.419-9.172-12.401-17.146-13.073-16.712 c-0.587 0.4 3 7.1 7.8 15.289c-6.641-8.138-12.625-14.976-13.242-14.515c-0.514 0.4 2.8 5.8 7.4 12.7 c-5.732-6.244-10.638-11.169-11.184-10.717c-0.504 0.4 2.8 5.3 7.3 11.416c-5.481-4.969-10.036-8.734-10.52-8.257 c-0.555 0.5 4.4 6.5 10.3 13.143c-6.432-4.466-11.969-7.953-12.417-7.376c-0.416 0.5 3.6 4.4 8.9 9.1 c-6.269-3.351-11.406-5.79-11.763-5.212c-0.668 1.1 15.8 12.4 26 18.73c-10.45-4.368-23.762-12.689-24.388-11.821 c-0.58 0.7 6.4 6.7 14.6 11.741c-6.856-2.907-12.592-5.598-12.942-4.964c-0.625 1 12.5 10.1 23.8 14 c-3.303-0.391-6.664-0.909-9.673-1.538c-6.12-1.203-10.812-2.644-11.08-2.012c-0.249 0.6 4.1 3.1 10.2 5.2 c6.114 2.2 14 3.6 19.9 3.807c3.483 0.3 10.378-1.078 10.447-2.443c1.341 1.1 2.7 2.1 4.1 3.1 c-1.4-0.669-7.267-0.146-10.345-0.027c-5.625 0.58-13.394 0.326-19.7-0.752c-6.312-0.986-11.149-2.479-11.409-1.832 c-0.236 0.5 4.2 3.2 10.7 5.07c6.4 2 14.7 2.8 20.9 2.188c3.737-0.148 10.775-3.016 10.225-4.405 c-0.011-0.025-0.042-0.044-0.06-0.067c1.713 1.3 3.4 2.5 5.2 3.761c-1.501-0.484-7.04 0.649-9.969 1.1 c-5.357 1.212-12.874 1.897-19.084 1.626c-6.208-0.185-11.055-1.022-11.231-0.352c-0.169 0.6 4.5 2.6 10.9 3.7 c3.226 0.6 6.9 0.8 10.5 0.755c-1.696 0.173-3.365 0.307-4.95 0.39c-6.227 0.393-11.136 0.199-11.231 0.9 c-0.093 0.6 4.7 2 11.2 2.443c6.46 0.5 14.475-0.093 20.212-1.425c3.433-0.638 9.676-3.812 9.412-5.174 c1.187 0.8 2.4 1.5 3.6 2.3c-2.12 0.037-6.992 1.589-9.635 2.479c-5.4 2.067-12.957 4.282-19.325 5.1 c-6.356 0.923-11.418 0.533-11.532 1.2c-0.137 0.6 4.9 2.2 11.8 2.104c6.814 0 15.029-1.831 20.721-4.015 c3.227-1.089 8.7-4.727 9.015-6.25c1.454 0.9 2.9 1.8 4.4 2.652c-1.711-0.16-6.564 1.702-9.084 2.8 c-4.778 2.263-11.469 4.906-17.18 6.247c-5.687 1.44-10.32 1.616-10.371 2.283c-0.072 0.6 4.7 1.6 10.9 1 c6.216-0.556 13.556-2.869 18.602-5.262c3.021-1.299 8.115-5.398 7.699-6.686c1.23 0.7 2.5 1.4 3.7 2.1 c-2.191 0.405-6.341 2.25-8.629 3.356c-4.948 2.617-11.885 5.745-17.855 7.368c-5.941 1.758-10.824 1.905-10.873 2.6 c-0.09 0.6 5 1.7 11.6 0.668c6.538-0.872 14.143-3.704 19.336-6.451c2.775-1.345 7.204-5.045 7.841-6.751 c1.45 0.8 2.9 1.6 4.4 2.352c-1.551-0.068-6.419 2.734-8.946 4.176c-4.541 2.902-11.132 6.162-16.913 7.8 c-5.744 1.774-10.518 2.161-10.528 2.847c-0.037 0.6 4.9 1.4 11.3 0.384c6.365-0.934 13.776-3.975 18.652-7.096 c2.969-1.698 7.554-6.694 6.916-7.921c1.444 0.8 2.9 1.5 4.4 2.207c-1.738 0.373-6.205 3.499-8.67 5 c-4.53 3.25-11.354 6.745-17.355 8.688c-5.963 2.035-10.91 2.818-10.853 3.518c0.027 0.6 5.2 1 11.705-0.313 c0.249-0.046 0.503-0.1 0.756-0.151c-4.495 1.541-7.839 2.357-7.767 2.926c0.059 0.6 5.2 0.7 11.654-0.808 c6.474-1.422 14.028-4.812 18.979-8.267c0.14-0.086 0.287-0.188 0.433-0.289c-4.333 2.975-9.817 6.259-14.723 8.4 c-5.672 2.591-10.471 3.695-10.39 4.363c0.049 0.6 5.2 0.7 11.54-1.253c6.344-1.832 13.538-5.655 18.32-9.133 c2.584-1.73 6.488-6.08 6.846-7.854c1.259 0.6 2.5 1.1 3.8 1.618c-1.979 0.586-6.062 3.36-8.215 5 c-4.368 3.487-10.53 7.919-15.992 10.786c-5.408 2.986-10.102 4.212-10.009 4.877c0.054 0.6 5.2 0.5 11.368-1.855 c1.586-0.577 3.216-1.289 4.841-2.088c-0.796 0.451-1.585 0.882-2.359 1.283c-5.635 3.008-10.439 4.51-10.306 5.2 c0.097 0.6 5.3 0.2 11.528-2.095c-5.163 2.478-9.255 3.71-9.146 4.304c0.087 0.6 5.6 0.3 12.301-2.17 c1.784-0.627 3.626-1.406 5.464-2.28c-0.848 0.508-1.687 0.996-2.508 1.454c-5.952 3.469-11.059 5.032-10.96 5.7 c0.072 0.7 5.8 0.2 12.412-2.671c6.657-2.719 14.128-7.333 19.283-11.138c2.751-1.954 7.164-6.544 7.663-8.361 c1.149 0.4 2.3 0.8 3.5 1.17c-2.138 0.813-6.589 4.082-8.984 5.935c-4.851 4.024-11.778 9.074-17.899 12.5 c-6.076 3.468-11.264 5.281-11.104 5.932c0.127 0.6 5.795-0.098 12.555-2.949c3.982-1.617 8.242-3.964 12.106-6.474 c-2.621 2.021-5.327 3.956-7.896 5.554c-5.79 3.77-10.908 5.507-10.763 6.147c0.095 0.6 5.816-0.026 12.358-3.239 c0.602-0.281 1.211-0.585 1.821-0.899c-0.116 0.074-0.234 0.152-0.35 0.224c-6.111 3.988-11.38 6.177-11.185 6.8 c0.158 0.6 6.003-0.522 12.808-3.924c1.828-0.877 3.712-1.905 5.589-3.022c-1.005 0.723-1.999 1.422-2.967 2.1 c-6.049 4.232-11.246 6.641-11.172 7.278h1.754c0.336-0.069 0.711-0.158 1.125-0.27c-0.13 0.103-0.22 0.193-0.273 0.27h2.491 c2.473-0.545 6.5-1.844 10.959-3.952c3.596-1.635 7.437-3.749 11.089-5.993c-2.888 2.026-5.819 3.972-8.586 5.6 c-2.801 1.744-5.421 3.174-7.542 4.306h6.076c0.986-0.421 2.004-0.88 3.047-1.388c7.579-3.56 16.138-9.253 21.99-13.963 c2.924-2.236 7.46-7.168 8.565-9.479c1.387 0.3 2.8 0.6 4.2 0.911c-2.57 1.17-7.844 5.005-10.745 7.2 c-6.032 4.802-14.612 10.836-22.098 14.979c-1.115 0.632-2.199 1.218-3.244 1.767h7.357c7.41-3.533 15.334-8.638 20.884-13.057 c3.406-2.547 8.814-8.532 9.317-10.553c1.283 0.3 2.6 0.5 3.9 0.77c-2.633 1.612-7.198 5.378-9.859 7.5 c-5.687 4.939-13.88 10.988-21.202 15.339h10.201c6.997-2.851 14.17-6.673 19.323-10.509c3.602-2.306 8.725-8.369 9.585-10.905 c1.366 0.2 2.7 0.4 4.1 0.641c-2.341 1.563-7.324 6.393-10.284 8.862c-4.096 3.851-9.705 8.167-15.403 11.911h12.045 c3.999-2.759 7.737-5.639 10.791-8.293c3.4-2.775 8.607-8.863 9.82-11.513c1.416 0.2 2.8 0.4 4.3 0.5 c-2.316 1.787-6.957 6.714-9.788 9.25c-3.157 3.214-7.287 6.744-11.674 10.043h10.36c3.064-2.358 5.929-4.708 8.392-6.864 c3.435-2.892 8.899-9.038 10.188-11.662c1.406 0.1 2.8 0.2 4.2 0.355c-2.711 1.824-7.65 6.323-10.461 8.9 c-2.967 2.868-6.576 6.109-10.393 9.296h13.723c1.946-1.668 3.77-3.305 5.409-4.853c3.568-3.215 9.172-10.089 10.267-12.759 c1.363 0.1 2.7 0.1 4.1 0.192c-2.896 2.063-8.134 6.999-11.092 9.835c-2.328 2.347-5.013 4.943-7.876 7.584h6.753 c1.589-1.464 3.085-2.901 4.44-4.269c3.459-3.314 8.789-10.397 9.729-13.068c1.065 0 2.1 0.1 3.2 0.1 c-2.772 2.351-7.822 7.81-10.822 10.812c-1.862 2.032-3.995 4.211-6.287 6.432h6.605c1.104-1.098 2.153-2.182 3.118-3.234 c3.469-3.476 8.419-11.031 9.286-13.961c1.361 0 2.7 0.1 4.1 0.067c-2.59 2.314-7.306 7.773-10.093 10.8 c-1.698 1.995-3.644 4.143-5.735 6.34h6.355c1.04-1.115 2.027-2.213 2.931-3.278c3.002-3.247 7.111-9.993 8.186-13.192v-33.219 c-0.175-1.34-0.359-2.689-0.557-4.039c0.186-0.095 0.372-0.196 0.557-0.292v-8.329c-0.594 0.379-1.187 0.762-1.782 1.1 c-0.413-2.275-0.857-4.498-1.331-6.611c-0.048-0.226-0.1-0.443-0.149-0.666c1.1-0.433 2.185-0.875 3.263-1.32v-9.388 c-0.478-0.898-0.837-1.367-0.994-1.301c-0.198 0.075-0.125 0.8 0.1 2.128c-1.449 0.676-2.922 1.349-4.424 2 c-0.256-0.843-0.509-1.63-0.759-2.375c2.104-0.859 4.13-1.732 6.072-2.611v-16.951c-3.258 1.643-6.419 3.224-8.913 4.3 c-4.37 2.291-9.378 4.579-14.72 6.743c-0.362-0.611-0.632-0.932-0.763-0.876c-0.123 0.05-0.103 0.5 0 1.2 c-0.847 0.339-1.698 0.677-2.56 1.009c-0.432-0.717-0.752-1.087-0.893-1.02c-0.133 0.06-0.09 0.5 0.1 1.3 c-1.929 0.735-3.886 1.451-5.866 2.142c-1.692-3.521-3.023-5.577-3.315-5.431c-0.326 0.1 0.4 2.4 1.5 6.1 c-1.016 0.345-2.035 0.681-3.058 1.011c-1.091-2.772-2.118-4.946-2.893-6.317c8.696-1.902 17.017-4.184 24.06-6.631 c4.89-1.473 11.807-4.767 17.347-7.989v-6.162c-6.393 1.785-14.714 4.551-20.058 6.162c-12.487 4.33-29.014 8.74-44.424 11.8 c-0.47-0.887-0.812-1.348-0.964-1.287c-0.148 0.055-0.119 0.6 0 1.467c-1.274 0.246-2.538 0.48-3.792 0.7 c-0.305-0.566-0.538-0.865-0.664-0.821c-0.118 0.04-0.139 0.375-0.088 0.953c-1.786 0.316-3.555 0.616-5.283 0.9 c-0.244 0.04-0.485 0.079-0.727 0.119c-0.855-1.922-1.493-2.993-1.726-2.904c-0.227 0.083-0.067 1.2 0.3 3.1 c-0.446 0.071-0.892 0.142-1.333 0.21c-0.867-1.986-1.544-3.086-1.799-2.976c-0.212 0.09-0.032 1.2 0.3 3.2 c-0.733 0.111-1.454 0.218-2.169 0.322c-0.586-1.625-1.107-2.855-1.5-3.579c18.583-0.775 40.188-4.566 55.854-9.357 c8.55-2.224 23.119-9.419 27.136-13.169c0.277 0.2 0.6 0.3 0.8 0.51v-4.88c-1.805-1.09-3.602-2.192-5.396-3.3 c1.354-1.343 3.306-4.246 5.396-7.793V652.72c-3.12 8.424-6.84 19.894-7.208 24.397c-2.501-1.557-4.99-3.134-7.47-4.726 c3.204-2.477 10.337-13.402 14.678-21.611V631.21c-1.996 4.318-3.938 8.429-5.746 12.195c-3.691 7.966-10.005 23.135-10.5 28 c-2.899-1.874-5.784-3.771-8.651-5.694c3.99-2.982 13.633-17.483 17.418-25.973c2.487-5.179 5.032-11.069 7.479-17.316v-22.087 c-4.749 12.813-10.223 25.621-15.113 35.811c-3.666 8.224-10.572 23.55-11.378 28.503c-2.588-1.748-5.162-3.517-7.724-5.306 c3.335-2.081 12.775-18.142 16.609-27.043c5.826-13.094 12.578-30.352 17.605-46.583v-20.188c-0.755 2.288-1.565 4.654-2.451 7.1 c-6.368 18.319-15.741 40.235-22.875 56.27c-3.716 8.632-10.087 25.364-10.031 29.642c-2.628-1.844-5.24-3.713-7.839-5.601 c3.353-3.335 10.859-18.948 13.975-27.599c6.046-16.484 13.448-39.193 18.262-58.108c1.019-3.859 1.901-7.559 2.653-11.011 c2.256-0.829 5.104-1.962 8.307-3.29v-4.023c-2.913 1.608-5.535 3.095-7.686 4.371c0.566-2.769 1.041-5.344 1.422-7.662 c1.069-0.239 2.155-0.493 3.271-0.781c0.984-0.239 1.985-0.503 2.993-0.778v-4.61c-1.405 0.515-2.792 1.006-4.149 1.5 c-0.501 0.177-0.993 0.343-1.485 0.51c0.262-1.96 0.434-3.637 0.516-4.959c0.133-0.031 0.263-0.057 0.397-0.088 c1.542-0.339 3.122-0.725 4.722-1.146v-4.753c-1.971 0.698-3.915 1.355-5.797 1.947c-2.168 0.717-4.252 1.345-6.207 1.9 c0.338-2.147 0.569-3.975 0.694-5.428c3.646-0.862 7.467-1.888 11.31-3.007v-5.272c-4.745 1.685-9.469 3.292-13.866 4.7 c-1.327 0.432-2.622 0.838-3.881 1.222c0.384-3.085 0.359-4.892-0.085-4.963c-0.392-0.063-1.283 2.079-2.642 5.8 c-1.968 0.576-3.811 1.091-5.486 1.551c0.405-2.335 0.718-4.433 0.946-6.255c2.14-0.422 4.415-0.909 6.78-1.46 c5.757-1.303 12.039-2.934 18.234-4.676v-5.515c-6.561 2.171-13.248 4.349-19.3 6.234c-1.845 0.589-3.629 1.144-5.334 1.7 c0.168-2.396 0.075-3.775-0.264-3.828c-0.397-0.069-1.087 1.595-2.087 4.544c-2.414 0.731-4.622 1.388-6.547 2 c0.387-2.24 0.64-4.102 0.76-5.506c3.022-0.344 6.39-0.828 9.958-1.48c7.196-1.243 15.173-3.042 22.815-4.999v-11.114 c-8.184 2.866-17.003 5.745-24.838 7.874c-8.361 2.38-15.592 3.694-19.424 4.535c0.465-3.943 0.461-6.296 0.007-6.373 c-1.032-0.188-4.135 11.045-9.309 26.05c3.778-13.127 5.27-23.834 4.981-27.053c4.377 0.1 10.955-0.077 18.448-1.057 c9.578-1.173 20.496-3.678 30.137-6.576v-5.927c-9.75 3.266-20.998 6.478-30.811 8.5 C514.402 501.1 504 501.8 504 502.678z M344.059 439.639c1.956 0.8 3.5 1 3.9 0.2 c0.013-0.029 0.005-0.078 0.013-0.112c0.062 0 0.1 0 0.2 0.006c0.434 1.8 0.9 3.5 1.4 5 c-0.766-0.969-2.553-2.248-4.548-4.222C344.696 440.3 344.4 440 344.1 439.639z M345.018 446.6 c2.508 0.4 4.6 0.1 4.888-0.722c0.818 2.4 1.6 4.2 2.4 4.722c0.114 0.3 0.2 0.6 0.3 0.9 c0.198 0.8 0.4 1.5 0.6 2.101C351.468 451.6 348.1 448.9 345 446.583z M354.832 456.5 c0.085 0 0.2 0.1 0.3 0.059c0.225-0.009 0.439-0.175 0.642-0.47c0.247 1.7 0.5 3.2 0.8 4.6 C355.982 459.2 355.4 457.9 354.8 456.476z M358.243 464.635c0.097 0.1 0.2 0.1 0.3 0.1 c0.701 0 1.376-1.49 1.98-3.799c0.17 4.1 0.6 8.4 1.1 11.374C360.494 469.8 359.4 467.2 358.2 464.635z M351.297 478.502c-0.642-0.201-1.329-0.436-1.998-0.656c6.214 0.9 13.5 0.6 13.697-1.329 c1.425 3.1 2.9 6.2 4.4 9.298C364.879 483.6 356.1 480.2 351.3 478.502z M368.625 486.7 c0.679-0.035 1.507-1.284 2.368-3.233c-0.027 3.3 0.1 6.5 0.4 8.609C370.48 490.3 369.5 488.5 368.6 486.72z M376.593 501.561c-1.229-2.178-2.433-4.37-3.621-6.571c1.125-0.397 2.577-3.881 3.893-8.25 C376.41 492 376.2 498 376.6 501.561z M378.315 504.563c1.138-0.795 2.627-4.258 4.01-8.496 c-0.441 5.926-0.558 12.4 0.1 15.453C381.022 509.2 379.7 506.9 378.3 504.563z M400.34 522.5 c-1.288 6.428-2.158 12.934-1.291 14.541c-1.635-2.321-3.249-4.657-4.838-7.01C395.42 530.3 397.9 526.9 400.3 522.481z M393.411 531.236c1.264 1.9 2.5 3.8 3.8 5.724c-2.793-0.652-8.593-0.574-13.346-0.46 C388.543 535 392.8 532.8 393.4 531.236z M385.848 544.599c-1.276 0.122-2.613 0.234-3.995 0.3 c5.898-0.548 14.875-3.694 16.722-6.048c1.407 2 2.8 4.1 4.3 6.078C399.038 544.1 390.6 544.3 385.8 544.599z M461.094 574.088c-3.472 7.443-8.685 20.099-9.437 25.037c-1.62-1.613-3.228-3.238-4.826-4.873 C449.68 592.7 456.8 582.1 461.1 574.088z M410.102 554.831c1.307 1.7 2.6 3.4 4 5.1 c-3.254-0.622-9.984-0.247-14.931 0.197C403.998 558.7 409 556.5 410.1 554.831z M406.597 566.6 c4.08-1.405 7.839-3.205 9.016-4.635c1.227 1.6 2.5 3.1 3.7 4.634C416.318 566.2 411.1 566.3 406.6 566.604z M411.331 573.431c4.304-1.325 8.358-3.065 9.88-4.507c1.382 1.7 2.8 3.4 4.2 5 C422.186 573.3 416.3 573.2 411.3 573.431z M416.752 560.475c1.664 0.4 6.878-7.04 10.97-14.256 c-3.211 8.723-6.875 20.309-5.25 21.139c1.573 0.8 6.95-7.215 11.095-14.907c-2.883 7.963-6.114 18.388-5.686 21.3 C424.089 569.4 420.4 565 416.8 560.475z M428.567 574.52c1.953-0.246 7.272-8.713 11.253-16.47 c-2.826 7.884-6.036 18.631-5.969 22.413C432.073 578.5 430.3 576.5 428.6 574.52z M433.084 582.8 c1.194 1.3 2.4 2.7 3.6 4.027c-3.133-0.224-8.364 0.274-12.922 0.889C428.125 586.2 432 584.3 433.1 582.825z M438.781 589.138c1.316 1.4 2.6 2.9 4 4.284c-3.211-0.278-8.74 0.173-13.594 0.7 C433.341 592.6 437.3 590.6 438.8 589.138z M444.829 595.606c1.481 1.6 3 3.1 4.5 4.6 c-3.308-0.463-9.506-0.127-14.785 0.412C439.034 599.1 443.3 597.1 444.8 595.606z M441.812 606.7 c4.322-1.469 8.175-3.181 9.424-4.511c1.501 1.5 3 3 4.5 4.534C452.364 606.3 446.8 606.4 441.8 606.728z M447.607 613.347c4.619-1.289 8.896-2.892 10.567-4.232c1.249 1.2 2.5 2.4 3.8 3.6 C458.209 612.6 452.6 612.9 447.6 613.347z M380.864 724.991c1.172-0.153 1.953-0.479 1.942-1.007 c-0.002-0.018-0.02-0.039-0.025-0.057c0.033-0.012 0.063-0.028 0.089-0.049c0.713 0.7 1.4 1.4 2.1 2 c-0.64-0.248-1.857-0.357-3.369-0.74C381.344 725.1 381.1 725.1 380.9 724.991z M383.282 728 c1.328-0.493 2.209-1.245 2.138-1.724c1.08 0.9 2 1.6 2.5 1.591c0.142 0.1 0.3 0.2 0.4 0.3 c0.312 0.3 0.6 0.6 0.9 0.835C387.789 728.6 385.4 728.3 383.3 728.047z M390.773 730 c0.052-0.005 0.099-0.018 0.138-0.043c0.105-0.068 0.161-0.208 0.175-0.406c0.593 0.7 1.2 1.4 1.7 2 C392.104 731 391.4 730.5 390.8 730.019z M394.708 732.966c0.063 0 0.122-0.007 0.17-0.034 c0.338-0.195 0.239-1.102-0.123-2.378c1.249 1.9 2.6 3.9 3.8 5.126C397.233 734.8 396 733.9 394.7 732.966z M395.291 741.568c-0.364 0.084-0.76 0.166-1.142 0.249c3.237-1.31 6.626-3.51 6.187-4.499c1.562 1.1 3.1 2.2 4.7 3.2 C403.222 740.2 398.1 741.1 395.3 741.568z M405.909 740.618c0.315-0.208 0.36-1.04 0.223-2.217 c0.925 1.6 1.9 3.1 2.6 4.002C407.81 741.8 406.9 741.2 405.9 740.618z M410.323 743.4 c0.427-0.508 0.14-2.586-0.461-5.05c1.279 2.7 2.9 5.6 4 7.177C412.708 744.8 411.5 744.1 410.3 743.354z M415.582 746.433c0.321-0.702 0.058-2.781-0.475-5.201c1.46 3 3.2 6.1 4.4 7.4 C418.191 747.9 416.9 747.2 415.6 746.433z M431.186 748.806c1.196 3.4 2.6 6.8 3.5 7.3 c-1.438-0.651-2.87-1.315-4.294-1.993C431.024 753.9 431.3 751.6 431.2 748.806z M427.262 760.2 c1.8-2.033 3.224-4.27 3.073-5.204c1.146 0.6 2.3 1.1 3.5 1.661C432.264 757.1 429.5 758.8 427.3 760.158z M430.48 763.488c-0.577 0.418-1.186 0.849-1.82 1.286c2.671-1.925 6.084-5.964 6.305-7.613c1.248 0.6 2.5 1.1 3.8 1.7 C436.651 759.5 432.7 762 430.5 763.488z M470.309 708.561c1.107-0.019 2.232-0.054 3.366-0.096 c0.041 0.8 0.2 2.1 0.5 3.797c-0.896 0.127-1.777 0.25-2.638 0.367c-0.625-1.743-1.2-3.127-1.661-4.058 C470.033 708.6 470.2 708.6 470.3 708.561z M474.842 756.397c0.436 4.5 1.5 12.1 2.5 14.7 c-1.231-0.316-2.459-0.641-3.686-0.974C474.61 768.5 475 761.4 474.8 756.397z M471.432 730.2 c0.284 0 0.6 0.1 0.9 0.107c0.795 6.4 1.5 13.3 2 19.435C473.677 743.7 472.7 736.7 471.4 730.207z M464.851 756.497c1.066 5.3 2.9 12.3 4 12.185c1.318-0.157 0.964-10.588 0.125-15.684 c-1.327-8.476-3.643-19.924-6.291-29.1c-0.652-2.349-1.345-4.536-2.027-6.492c1.524 0.1 3.2 0.1 5 0.1 c0.349 2 0.7 4.1 1 6.402c1.492 9.7 2.6 21.7 3.3 30.534c0.425 4.6 1.6 13.1 2.8 15.4 c-2.784-0.765-5.555-1.575-8.313-2.429C465.158 766.2 465.2 761.1 464.9 756.497z M468.421 717.5 c0.664-0.005 1.34-0.013 2.031-0.025c0.381 2.2 0.8 4.7 1.1 7.283c0.154 1.1 0.3 2.2 0.4 3.3 c-0.356 0.055-0.693 0.109-1.008 0.161c-0.347-1.683-0.707-3.338-1.092-4.917C469.458 721.2 468.9 719.3 468.4 717.527z M468.892 708.596c0.125 1 0.4 2.5 0.7 4.293c-0.881 0.117-1.74 0.229-2.575 0.337c-0.66-1.896-1.283-3.455-1.802-4.582 C466.44 708.6 467.7 708.6 468.9 708.596z M464.008 708.646c0.188 1.2 0.5 2.8 0.9 4.9 c-1.987 0.252-3.807 0.479-5.44 0.689c-1.147-2.914-2.155-4.95-2.737-5.692C459.022 708.6 461.5 708.6 464 708.646z M456.216 708.477c-0.036 0.7 0.4 2.9 1.1 5.992c-0.227 0.031-0.447 0.061-0.663 0.1 c-0.659-2.423-1.277-4.518-1.818-6.144C455.308 708.4 455.8 708.5 456.2 708.477z M457.819 739.1 c-1.202-6.138-2.731-12.616-4.457-18.219c-0.458-1.541-0.937-3.001-1.421-4.378c0.61 0.1 1.4 0.3 2.5 0.4 C455.364 723.4 456.7 731.5 457.8 739.149z M453.225 708.326c0.196 1.7 0.5 4 0.9 6.6 c-1.118 0.186-1.98 0.364-2.554 0.543c-1.149-3.147-2.293-5.742-3.21-7.518C449.864 708.1 451.5 708.2 453.2 708.326z M445.367 719.782c-1.579-5.728-3.629-10.364-5.034-12.814c0.615 0.1 1.3 0.2 2 0.3 c0.564 2.5 1.9 7.2 3.1 12.769C445.419 720 445.4 719.9 445.4 719.782z M448.887 720.3 c-1.719-5.591-3.692-10.209-5.068-12.818c0.932 0.1 1.9 0.2 3 0.34c0.672 2.8 2.1 7.9 3.3 13.9 c0.756 3.6 1.5 7.4 2.2 11.367C451.314 728.7 450.2 724.3 448.9 720.302z M444.984 761.5 c1.113 0.5 2.2 0.9 3.4 1.347c-1.734 0.62-4.852 2.697-7.097 4.305C443.154 765.1 444.9 762.7 445 761.55z M449.637 763.416c1.026 0.4 2.1 0.8 3.1 1.171c-1.568 0.64-4.012 2.178-6.101 3.6 C448.184 766.4 449.5 764.4 449.6 763.416z M450.818 770.114c1.688-1.849 3.14-3.825 3.462-4.945 c1.137 0.4 2.3 0.8 3.4 1.226C455.976 767 453.1 768.6 450.8 770.114z M449.762 762.4 c0.922-0.257 1.31-5.312 1.235-9.922c0.922 5.1 2.4 11.7 3.4 11.607c0.977-0.064 1.295-5.416 1.112-10.27 c0.864 4.6 2.3 10.5 3.3 11.804C455.791 764.6 452.8 763.5 449.8 762.379z M457.389 717.2 c0.187 0 0.4 0 0.6 0.039c0.478 2.2 1 4.7 1.5 7.407c0.369 1.9 0.7 3.9 1.1 5.9 C459.525 725.9 458.4 721.2 457.4 717.225z M459.382 765.776c0.867-0.669 1.027-6.225 0.746-11.063 c0.869 4.6 2.4 10.6 3.5 12.42C462.183 766.7 460.8 766.2 459.4 765.776z M460.806 773.5 c1.65-1.984 2.985-4.005 3.082-4.985c0.951 0.3 1.9 0.6 2.9 0.915C465.181 770.2 462.8 771.9 460.8 773.465z M468.398 769.898c1.035 0.3 2.1 0.6 3.1 0.935c-1.617 0.773-4.138 2.547-6.301 4.2 C466.762 773.1 468.1 771 468.4 769.898z M473.118 771.291c1.149 0.3 2.3 0.7 3.5 1 c-1.715 0.711-4.59 2.62-6.966 4.366C471.32 774.6 472.8 772.4 473.1 771.291z M478.052 772.7 c1.148 0.3 2.3 0.6 3.4 0.895c-1.747 0.759-4.396 2.39-6.69 3.924C476.466 775.5 477.8 773.6 478.1 772.651z M479.452 779.007c1.849-1.92 3.446-3.894 3.869-5.007c0.941 0.2 1.9 0.5 2.8 0.7 C484.308 775.6 481.7 777.4 479.5 779.007z M483.64 772.581c1.166-1.061 1.352-11.338 0.802-16.534 c-0.559-5.777-1.482-12.853-2.663-19.785c0.135 0 0.3 0 0.4 0.015c0.978 7.4 1.8 15 2.5 21.2 c0.655 5.4 2.7 16.3 3.9 16.212c1.097-0.078 1.325-7.747 0.996-13.498c0.877 5 2.5 12.5 3.7 14.5 C490.101 774 486.9 773.3 483.6 772.581z M488.617 730.598c1.024-0.049 2.075-0.112 3.148-0.186 c0.073 0.5 0.1 0.9 0.2 1.401c-1.011 0.224-1.979 0.436-2.904 0.638C488.927 731.8 488.8 731.2 488.6 730.598z M494.208 774.83c0.944-1.9 0.623-11.874-0.177-16.998c-0.92-6.339-2.358-14.17-4.082-21.711c0.849-0.049 1.732-0.109 2.65-0.18 c0.369 2.5 0.7 5.1 1.1 7.677c-0.171 0.128-0.259 0.245-0.243 0.352c0.012 0.1 0.1 0.2 0.3 0.2 c0.735 5.5 1.4 10.9 2 15.433c0.625 4.8 2.3 13.8 3.6 16.113C497.574 775.5 495.9 775.2 494.2 774.83z M495.545 731.009c-0.067-0.299-0.135-0.595-0.203-0.891c0.598-0.056 1.201-0.116 1.809-0.181c0.041 0.2 0.1 0.4 0.1 0.7 C496.69 730.7 496.1 730.9 495.5 731.009z M498.111 735.412c0.348 2.1 0.7 4.2 1 6.3 c-0.476 0.135-0.923 0.266-1.346 0.391c-0.392-2.171-0.809-4.347-1.248-6.493C497.047 735.5 497.6 735.5 498.1 735.412z M493.939 785.387c2.547-2.728 5.085-6.129 5.735-7.874c1.431 0.3 2.9 0.5 4.3 0.8 C501.464 779.8 497 783.4 493.9 785.387z M504.419 779.016c0.176-0.189 0.348-0.383 0.523-0.575c0.001 0 0 0 0 0 C504.769 778.6 504.6 778.8 504.4 779.016z M500.216 775.919c0.925-2.115 0.798-11.808 0.141-16.854 c-0.524-4.353-1.267-9.416-2.163-14.611c0.422-0.012 0.867-0.029 1.338-0.052c0.817 5.5 1.5 10.8 2.1 15.4 c0.728 5.2 2.6 15.2 3.8 17C503.714 776.5 502 776.2 500.2 775.919z M502.016 734.9 c0.104-0.014 0.207-0.028 0.312-0.043c0.3 1.9 0.6 3.8 0.9 5.673c-0.001 0-0.001 0-0.002 0 C502.844 738.7 502.4 736.8 502 734.921z M506.09 776.869c0.89-1.224 0.971-8.678 0.552-14.335 c0.947 5.2 2.8 13 4.1 14.996C509.17 777.3 507.6 777.1 506.1 776.869z M506.113 734.3 c0.217-0.035 0.435-0.071 0.653-0.107c0.309 1.7 0.6 3.4 0.9 5.135c-0.158 0.043-0.317 0.086-0.473 0.1 C506.861 737.7 506.5 736 506.1 734.309z M508.973 784.144c1.27-1.96 2.181-3.745 2.304-4.708 c1.156 0.2 2.3 0.3 3.5 0.48C513.189 780.9 511.1 782.5 509 784.144z M511.586 777.7 c0.854-2.03 0.256-12.201-0.586-17.439c-0.765-4.908-1.78-10.698-2.939-16.588c0.127-0.016 0.257-0.032 0.385-0.049 c1.115 6.3 2.2 12.6 3.1 17.813c0.936 5.2 3.4 14.9 4.8 16.853C514.748 778.1 513.2 777.9 511.6 777.651z M510.485 733.554c0.413-0.073 0.825-0.144 1.242-0.221c0.303 1.5 0.6 3.1 0.9 4.633c-0.345 0.097-0.689 0.194-1.028 0.3 C511.241 736.7 510.9 735.1 510.5 733.554z M517.074 778.325c0.891-1.798 0.073-12.365-0.901-17.754 c-0.913-5.192-2.125-11.356-3.495-17.587c0.294-0.045 0.592-0.092 0.891-0.139c1.318 7 2.6 14 3.6 19.8 c0.907 4.8 3.1 13.6 4.6 16.199C520.214 778.7 518.6 778.5 517.1 778.325z M520.74 785.3 c1.037-1.811 1.764-3.436 1.89-4.381c1.242 0.1 2.5 0.3 3.7 0.387C524.82 782.2 522.8 783.7 520.7 785.254z M529.021 779.477c1.011-1.937 1.004-12.293 0.331-17.639c-0.163-1.43-0.352-2.941-0.562-4.499 c0.697-0.167 1.435-0.354 2.214-0.564c0.25 2.2 0.5 4.3 0.6 6.203c0.563 5 1.6 14.3 2.6 16.9 C532.485 779.7 530.8 779.6 529 779.477z M528.027 791.607c2.925-3.291 6.066-7.711 6.655-9.637 c1.545 0.1 3.1 0.2 4.6 0.305C536.343 784.3 531.1 788.9 528 791.607z M542.068 780.2 c0.972-2.431 1.27-11.837 0.777-16.817c-0.094-1.11-0.204-2.27-0.327-3.462c0.204 1.4 0.4 2.7 0.6 4 c0.741 4.8 2.6 13.7 3.9 16.402C545.342 780.4 543.7 780.3 542.1 780.233z M548.164 780.4 c0.725-2.757 0.345-12.134-0.417-17.108c-0.506-3.52-1.158-7.49-1.923-11.62c0.273-0.112 0.549-0.227 0.824-0.343 c0.58 4.7 1.1 9.2 1.6 13.137c0.599 4.7 2.2 13.1 3.5 15.993C550.546 780.5 549.4 780.4 548.2 780.417z M553.641 748.256c0.565 5.9 1 11.7 1.4 16.561c0.092 1.1 0.2 2.4 0.4 3.8 c-0.293 0.286-0.444 0.517-0.387 0.681c0.033 0.1 0.2 0.2 0.5 0.248c0.516 4.2 1.3 8.9 2 10.9 c-1.497 0.007-2.995 0.005-4.492-0.006c0.698-2.928 0.469-11.806-0.143-16.581c-0.522-4.285-1.229-9.249-2.06-14.362 C551.776 749.1 552.7 748.7 553.6 748.256z M551.862 732.765c0.366 2.6 0.7 5.4 1 8.2 c-1.066 0.641-2.129 1.27-3.185 1.882c-0.539-2.979-1.111-5.925-1.707-8.747c1.295-0.455 2.582-0.92 3.859-1.398 C551.856 732.7 551.9 732.7 551.9 732.765z M550.167 722.072c0.146 0.8 0.3 1.7 0.5 2.6 c-1.438 0.621-2.889 1.236-4.357 1.841c-0.228-0.919-0.457-1.815-0.685-2.666C547.136 723.2 548.7 722.7 550.2 722.072z M545.854 745.023c-0.402 0.221-0.805 0.443-1.204 0.658c-0.671-3.269-1.4-6.551-2.175-9.715c0.699-0.224 1.397-0.457 2.094-0.689 C545.002 738.4 545.4 741.7 545.9 745.023z M543.059 724.742c0.141 0.9 0.3 1.9 0.4 2.9 c-0.97 0.388-1.943 0.77-2.917 1.147c-0.276-0.984-0.556-1.944-0.84-2.869C540.85 725.5 542 725.1 543.1 724.742z M541.03 780.188c-1.917-0.08-3.834-0.176-5.75-0.288c1.07-2.553 1.601-12.219 1.02-17.354c-0.187-2.214-0.461-4.605-0.806-7.091 c0.601-0.191 1.213-0.389 1.84-0.598c0.325 3.2 0.6 6.2 0.8 8.973C538.652 768.7 539.9 777.7 541 780.188z M536.904 726.827c0.207 1 0.4 2 0.6 3.099c-0.09 0.034-0.18 0.069-0.269 0.102c-0.271-1.044-0.552-2.062-0.841-3.039 C536.576 726.9 536.7 726.9 536.9 726.827z M535.276 738.126c0.569 3.8 1.1 7.8 1.5 11.7 c-0.684 0.349-1.353 0.687-2.005 1.016c-0.659-3.928-1.482-7.988-2.444-11.939C533.318 738.7 534.3 738.4 535.3 738.126z M533.538 727.888c0.207 1.1 0.4 2.2 0.6 3.282c-1.185 0.427-2.366 0.842-3.542 1.247c-0.337-1.139-0.685-2.255-1.045-3.34 C530.884 728.7 532.2 728.3 533.5 727.888z M530.538 752.978c-0.777 0.384-1.515 0.748-2.208 1.1 c-0.643-4.355-1.445-9.007-2.382-13.591c0.833-0.185 1.675-0.383 2.52-0.585C529.283 744.3 530 748.7 530.5 752.978z M526.337 729.971c0.29 1.2 0.6 2.4 0.8 3.594c-0.861 0.283-1.719 0.562-2.568 0.83c-0.3-1.266-0.611-2.508-0.931-3.728 C524.566 730.4 525.5 730.2 526.3 729.971z M523.976 756.319c-1.481 0.83-2.277 1.419-2.17 1.8 c0.079 0.3 0.9 0.3 2.4 0.145c0.173 1.4 0.3 2.8 0.5 4.16c0.654 5.2 2.3 15 3.6 17 c-1.779-0.142-3.557-0.301-5.335-0.472c0.666-2.543-0.142-12.139-1.088-17.162c-1.051-5.758-2.5-12.725-4.145-19.628 c1.383-0.25 2.801-0.522 4.249-0.818C522.708 746.4 523.4 751.6 524 756.319z M520.272 731.5 c0.245 1.3 0.5 2.6 0.7 4.002c-1.57 0.482-3.108 0.941-4.604 1.378c-0.367-1.44-0.741-2.862-1.12-4.255 C516.918 732.3 518.6 731.9 520.3 731.511z M515.776 712.096c0.361 1.5 1 3.8 1.8 6.8 c-1.971 0.614-3.945 1.203-5.912 1.752c-1.036-2.977-2.016-5.436-2.8-7.144C511.158 713.1 513.5 712.6 515.8 712.096z M507.504 713.733c0.381 1.8 1 4.4 1.7 7.559c-0.634 0.168-1.264 0.331-1.895 0.5 c-0.887-2.921-1.768-5.492-2.556-7.565C505.669 714.1 506.6 713.9 507.5 713.733z M502.895 714.5 c0.458 2.2 1 4.9 1.7 7.937c-0.418 0.099-0.832 0.192-1.248 0.287c-0.827-3.024-1.672-5.712-2.442-7.902 C501.536 714.7 502.2 714.6 502.9 714.529z M501.44 729.435c0.009 0.1 0 0.1 0 0.2 c-0.227 0.056-0.451 0.111-0.676 0.166c-0.02-0.081-0.039-0.164-0.06-0.245C500.968 729.5 501.2 729.5 501.4 729.435z M498.901 715.147c0.437 2.3 1 5.1 1.5 8.237c-0.428 0.09-0.858 0.181-1.283 0.267c-0.878-3.057-1.794-5.826-2.651-8.167 C497.295 715.4 498.1 715.3 498.9 715.147z M494.257 715.782c0.552 2.4 1.2 5.3 1.8 8.5 c-0.691 0.138-1.377 0.271-2.054 0.399c-0.837-3.244-1.713-6.157-2.524-8.572C492.412 716 493.3 715.9 494.3 715.782z M489.341 716.338c0.469 2.5 1 5.5 1.6 8.905c-1.229 0.215-2.425 0.414-3.589 0.601c-0.023-0.08-0.045-0.163-0.068-0.243 c-0.904-3.278-1.859-6.273-2.762-8.829C486.099 716.7 487.7 716.5 489.3 716.338z M482.1 717 c0.413 1.9 0.9 4 1.3 6.27c-0.585-2.275-1.21-4.372-1.825-6.235C481.771 717 481.9 717 482.1 716.962z M481.435 730.76c0.157 1.1 0.3 2.2 0.5 3.298c-0.165 0.04-0.329 0.08-0.485 0.119c-0.206-1.151-0.418-2.294-0.638-3.422 C480.994 730.8 481.2 730.8 481.4 730.76z M479.179 717.157c0.511 2.6 1.1 5.7 1.6 9 c0.034 0.2 0.1 0.4 0.1 0.643c-0.285 0.04-0.569 0.08-0.847 0.119c-0.158-0.733-0.318-1.459-0.481-2.169 c-0.606-2.741-1.266-5.276-1.917-7.522C478.12 717.2 478.6 717.2 479.2 717.157z M479.775 756.5 c0.522 4.9 2.1 14.4 3.3 15.946c-1.519-0.356-3.035-0.725-4.549-1.106c0.965-2.372 1.311-11.232 0.896-15.944 c-0.546-7.181-1.682-16.376-3.269-24.792c0.253 0 0.5 0 0.8 0.039C478.077 739.4 479.1 749 479.8 756.511z M475.044 717.366c0.391 2.4 0.8 5.1 1.2 8.005c0.095 0.7 0.2 1.4 0.3 2.039c-0.324 0.044-0.642 0.087-0.951 0.1 c-0.238-1.146-0.483-2.274-0.738-3.368c-0.54-2.428-1.135-4.696-1.733-6.737C473.748 717.4 474.4 717.4 475 717.366z M537.436 673.047c-6.425 0.363-18.771 2.688-26.022 4.163c7.537-2.433 16.441-6.419 19.112-8.867 C532.818 669.9 535.1 671.5 537.4 673.047z M464.243 636.459c6.437-1.905 13.476-4.862 16.076-6.974 c1.977 1.7 4 3.4 6 5.107C480.977 634.7 470.8 636.1 464.2 636.459z M486.305 636.1 c0.446-0.133 0.89-0.276 1.335-0.415c0.001 0 0 0 0 0.003C487.197 635.9 486.8 636 486.3 636.146z M490.854 634.342c2.496-1.085 9.425-12.568 13.937-21.72c-3.276 8.924-7.486 22.734-7.376 27 C495.215 637.9 493 636.1 490.9 634.342z M488.685 648.251c3.757-1.88 6.799-3.816 7.868-5.197 c1.639 1.3 3.3 2.6 4.9 3.911C498.183 647.1 493.4 647.6 488.7 648.251z M498.661 640.6 c3.177-2.368 11.531-18.682 15.006-27.57c6.465-16.308 14.542-38.76 20.051-57.469c0.827-2.71 1.58-5.343 2.263-7.869 c0.701 0 1.525-0.016 2.478-0.072c-1.112 3.219-2.329 6.664-3.65 10.258c-6.587 18.451-15.154 40.907-21.359 57.5 c-3.278 8.89-8.384 26.173-7.973 30.486C503.194 644.1 500.9 642.3 498.7 640.57z M518.267 659.6 c-3.239 0.056-7.781 0.497-12.353 1.068c3.261-1.862 5.87-3.717 6.928-5.068C514.644 657 516.5 658.3 518.3 659.643z M541.561 565.495c-6.228 18.293-14.463 40.525-20.47 56.925c-2.987 8.29-7.554 23.948-7.695 29.3 c-2.292-1.677-4.573-3.371-6.842-5.082c3.022-1.974 11.398-19.103 14.804-28.346c6.232-16.656 13.958-39.564 19.147-58.642 c1.25-4.441 2.319-8.677 3.212-12.572c1.299-0.174 2.688-0.391 4.153-0.654C546.174 551.7 544.1 558.3 541.6 565.495z M550.953 536.898c-0.522 1.506-1.138 3.405-1.847 5.626c-1.649 0.516-3.225 0.982-4.691 1.398c0.465-2.165 0.87-4.2 1.212-6.069 C547.304 537.6 549.1 537.3 551 536.898z M539.901 530.4c1.525-0.294 3.112-0.63 4.745-1.006 c-0.571 1.591-1.245 3.576-2.021 5.886c-1.407 0.373-2.702 0.703-3.871 0.999C539.214 534.1 539.6 532.2 539.9 530.4z M538.23 538.649c1.016-0.058 2.135-0.147 3.357-0.275c-0.715 2.134-1.5 4.468-2.353 6.963c-1.083 0.288-2.03 0.541-2.836 0.8 C537.09 543.5 537.7 541 538.2 538.649z M531.761 531.696c1.429-0.175 2.991-0.398 4.657-0.672 c-0.691 1.932-1.465 4.108-2.32 6.481c-1.07 0.321-1.666 0.575-1.648 0.789c0.007 0.2 0.5 0.3 1.2 0.4 c-1.609 4.454-3.485 9.536-5.619 14.965c-2.634 6.899-5.563 14.37-8.535 21.876c3.069-8.855 5.898-17.855 8.105-26.163 C529.418 542.9 530.8 536.8 531.8 531.696z M530.063 523.186c-0.642 1.997-1.373 4.306-2.192 6.9 c-3.245 0.885-5.189 1.461-5.155 1.81c0.026 0.3 1.7 0.4 4.5 0.276c-1.485 4.586-3.235 9.838-5.265 15.4 c-6.42 18.245-15.461 40.174-22.366 56.216c-3.65 8.782-9.924 25.939-9.594 29.84c-2.47-2.014-4.923-4.052-7.359-6.112 c3.364-2.434 12.014-17.578 15.6-26c6.827-15.616 15.114-37.286 20.483-55.458c2.562-8.442 4.408-16.117 5.534-21.937 C525.951 523.9 527.9 523.6 530.1 523.186z M513.789 512.328c3.901 0.2 11.591-0.258 20.532-2.04 c1.814-0.34 3.68-0.729 5.572-1.152c-1.813 0.487-3.595 0.956-5.326 1.397c-9.671 2.566-17.822 4.069-21.248 5 C513.5 514.4 513.7 513.3 513.8 512.328z M508.475 537.693c2.158-8.015 3.701-15.331 4.658-21.047 c1.949 0.1 5.6 0.1 10.345-0.416c-0.655 1.613-1.462 3.79-2.416 6.411c-2.727 0.862-4.309 1.458-4.259 1.8 c0.044 0.3 1.3 0.3 3.6 0.144c-1.93 5.327-4.379 12.123-7.319 19.57c-6.744 17.456-15.81 38.541-22.577 54 c-3.427 8.039-8.988 23.437-9.19 28.226c-2.344-1.995-4.675-4.007-6.986-6.045c3.198-2.084 11.802-17.84 15.238-26.513 C495.996 578 503.7 556.1 508.5 537.693z" class="style0"/><path d="M555.727 382.97c0.248-2.684 0.395-5.328 0.402-7.83c0.18-9.386-1.663-16.497-2.423-16.352 c-0.816 0.122-0.459 7.153-1.661 16.078c-0.02 0.168-0.043 0.34-0.064 0.509c0.026-0.847 0.043-1.686 0.036-2.506 c0.108-8.994-2.19-15.717-2.948-15.487c-0.79 0.179-0.01 6.802-1.139 15.253c-0.418 3.71-1.138 7.751-1.999 11.7 c0.747-5.636 1.101-11.627 0.79-16.922c-0.41-9.044-2.627-15.736-3.375-15.553c-0.81 0.168-0.078 6.909-0.718 15.5 c-0.519 8.613-2.47 19.01-4.38 26.55c-0.794 3.651-2.073 10.345-1.846 13.158c-1.036-1.085-2.085-2.157-3.135-3.227 c1.759-1.52 4.532-8.871 5.25-12.973c1.505-7.762 2.681-18.533 2.179-27.393c-0.338-8.904-2.826-15.52-3.609-15.246 c-0.746 0.2 0.2 6.739-0.485 15.211c-0.074 1.157-0.173 2.352-0.289 3.566c-0.001-2.512-0.111-4.977-0.359-7.297 c-0.795-8.739-3.378-15.086-4.108-14.857c-0.72 0.2 0.1 5.4 0.1 12.474c-0.72-8.207-3.055-14.169-3.782-13.955 c-0.807 0.2 0.1 6.352-0.293 14.226c-0.035 1.075-0.097 2.183-0.178 3.309c0.028-2.234-0.044-4.428-0.243-6.502 c-0.599-8.093-3.243-13.92-3.965-13.65c-0.79 0.2 0.3 6.129-0.123 13.738c-0.296 7.606-1.965 16.823-3.533 23.5 c-0.656 3.255-1.58 9.276-1.183 11.792c-1.263-1.132-2.533-2.255-3.814-3.366c1.787-1.341 4.562-7.998 5.118-11.795 c1.337-7.173 1.78-17.216 0.456-25.256c-1.216-8.074-4.016-13.794-4.727-13.522c-0.788 0.3 0.5 6.2 0.7 13.9 c0.199 6.61-0.55 14.462-1.565 20.869c0.035-0.216 0.071-0.434 0.092-0.635c1.222-7.349 0.992-17.564-0.859-25.531 c-1.725-8.012-4.585-13.665-5.283-13.413c-0.672 0.2 0.2 4.4 0.9 10.206c-0.077-0.309-0.151-0.62-0.232-0.922 c-2.02-7.979-5.188-13.49-5.861-13.206c-0.809 0.3 0.9 6.2 1.8 13.958c1.018 7.7 0.7 17.173-0.472 23.9 c-0.393 3.556-1.505 10.191-0.999 12.325c-1.578-1.243-3.167-2.473-4.771-3.682c1.705 0.1 4.84-7.699 5.156-11.908 c0.892-7.089 0.347-16.959-1.989-24.546c-2.226-7.643-5.756-12.714-6.408-12.354c-0.759 0.4 1.3 5.9 2.4 13.2 c1.192 7.3 1.1 16.4 0.2 23.006c-0.266 3.581-0.805 10.5 0.1 12.183c-1.633-1.227-3.282-2.433-4.941-3.625 c1.563-1.615 3.336-8.512 3.362-12.318c0.306-7.243-0.574-17.219-3.071-24.966c-2.35-7.829-6.237-12.946-6.874-12.52 c-0.725 0.4 1.7 5.9 2.9 13.483c1.359 7.5 1.6 16.9 1.3 23.802c-0.019 3.1 0.1 8.7 0.8 11.4 c-1.435-1.016-2.88-2.019-4.334-3.008c1.656-0.219 3.52-8.07 3.365-12.125c-0.011-6.891-1.328-16.297-4.006-23.517 c-2.56-7.286-6.243-12.061-6.894-11.653c-0.717 0.4 1.5 5.7 3 12.766c1.535 7.1 2.1 15.9 2.2 22.5 c0.134 3.4 0.6 9.8 1.7 11.597c-1.749-1.182-3.51-2.346-5.286-3.487c1.53-1.159 2.679-9.187 2.18-13.36 c-0.586-7.501-2.899-17.628-6.52-25.217c-3.511-7.665-7.995-12.47-8.59-11.999c-0.683 0.5 2.4 5.9 4.8 13.5 c2.461 7.5 4 17.1 4.6 24.239c0.41 3.4 1.3 9.7 2.3 12.051c-1.478-0.939-2.967-1.861-4.463-2.771 c1.658-0.429 1.883-9.068 0.772-13.232c-1.56-7.098-5.117-16.359-9.135-23.275c-3.944-6.964-8.043-11.614-8.667-11.19 c-0.701 0.5 2.1 5.8 5 12.976c0.749 1.8 1.5 3.7 2.2 5.722c-1.83-4.036-4.048-7.993-6.404-11.281 c-4.606-6.614-9.302-10.702-9.852-10.208c-0.653 0.6 2.9 5.5 6.3 12.327c3.597 6.8 6.8 15.5 8.3 22.1 c1.027 3.5 2.7 10.3 4 11.703c-2.297-1.298-4.61-2.569-6.948-3.797c0.035 0 0.1 0 0.1 0 c1.839-0.123 1.3-9.486-0.517-13.729c-2.538-7.138-7.905-15.992-13.502-22.074c-5.527-6.168-10.826-9.754-11.31-9.201 c-0.583 0.6 3.6 5.2 8.1 11.739c4.546 6.5 8.9 15 11.3 21.549c1.5 3.5 4 10.3 5.5 11.5 c-1.868-0.978-3.748-1.932-5.641-2.864c1.484-0.801-0.652-9.208-2.821-12.936c-3.376-6.412-9.136-14.469-14.79-20.133 c-5.593-5.736-10.747-9.185-11.23-8.616c-0.562 0.6 3.5 5.1 8.1 11.278c2.297 3 4.7 6.5 6.8 10 c-10.394-10.506-27.558-20.309-28.292-19.106c-0.52 0.7 5.5 5.7 12.4 11.786c-9.951-6.445-20.342-11.075-20.832-10.048 c-0.635 1.2 15.7 11.6 26.1 20.9c-12.439-8.023-33.793-20.337-34.654-19.014c-0.455 0.7 5 5.1 12 10.3 c-7.988-3.412-14.476-5.823-14.85-5.077c-0.405 0.8 6.4 5.1 14.8 9.922c-10.503-3.065-19.772-5.362-20.084-4.454 c-0.275 0.8 6.3 3.9 14.8 7.34c-9.166-1.774-16.387-2.845-16.586-2.062c-0.215 0.8 7.9 3.7 17.9 6.8 c-10.067-1.5-17.906-2.349-18.065-1.57c-0.186 0.9 10.6 4 23.2 7.053c-11.594-0.962-21.043-1.399-21.156-0.543 c-0.127 1 11.9 3.4 25.6 5.7c-11.22-0.351-20.218-0.297-20.286 0.545c-0.095 1.2 19.4 3.9 36.9 5.6 c-14.16 0.07-27.289 0.602-27.314 1.694c-0.027 1.5 31 3.8 49.1 4.369c5.39 0.2 16.216-0.729 16.471-2.3 c1.73 1 3.4 2 5.2 3.088c-3.259-0.834-10.397-1.12-14.417-0.941c-8.803 0.445-20.744 1.154-30.481 1.5 c-9.749 0.437-17.271 0.203-17.393 0.966c-0.103 0.6 4.1 1.7 10.3 2.482c-3.752 0.215-6.108 0.45-6.152 0.7 c-0.17 1.6 17.1 3.2 33.4 3.514c-3.657 0.239-7.267 0.461-10.626 0.638c-10.194 0.617-18.092 0.599-18.183 1.4 c-0.102 0.8 7.9 2.3 18.2 2.717c2.128 0.1 4.4 0.2 6.6 0.215c-0.707 0.047-1.406 0.092-2.093 0.1 c-10.412 0.78-18.383 0.701-18.512 1.367c-0.166 0.9 8 2.5 18.6 2.726c10.534 0.4 23.4 0 32.854-0.59 c5.6-0.334 16.646-2.438 16.862-4.04c1.444 1.1 2.9 2.1 4.3 3.231c-3.165-0.439-11.543 0.53-16.102 1.2 c-9.271 1.569-21.958 3.13-32.393 3.545c-10.426 0.5-18.559-0.056-18.684 0.757c-0.133 0.8 7.9 2.8 18.7 3.3 c10.691 0.6 23.836-0.313 33.347-1.928c5.375-0.773 15.397-4.2 16.353-5.998c1.588 1.2 3.2 2.5 4.7 3.7 c-2.28-0.669-11.016 0.786-15.565 1.764c-8.502 2.023-20.15 4.366-29.772 5.614c-9.612 1.318-17.18 1.595-17.224 2.4 c-0.057 0.8 7.3 1.9 16.9 1.679c-9.371 1.494-16.463 1.867-16.523 2.583c-0.085 0.8 8.2 1.9 18.7 1.2 c10.546-0.588 23.306-2.5 32.596-4.361c5.603-1.075 16.502-4.858 16.114-6.445c-0.014-0.058-0.049-0.11-0.094-0.16 c3.234 2.7 6.4 5.5 9.5 8.41c-2.848-0.486-12.191 1.182-17.104 2.398c-9.506 2.449-22.421 5.706-33.067 7.8 c-10.633 2.204-18.999 2.833-19.032 3.603c-0.049 0.8 8.6 1.7 19.6 0.447c11.02-1.073 24.287-3.742 33.905-6.222 c5.465-1.353 15.697-5.483 16.474-7.273c1.4 1.3 2.8 2.6 4.2 3.931c-2.007-0.717-12.342 2.022-17.569 3.8 c-9.369 3.239-22.135 7.513-32.731 10.265c-10.57 2.922-18.99 3.736-19.014 4.489c-0.051 0.8 8.8 1.5 19.861-0.487 c0.114-0.018 0.232-0.04 0.346-0.059c-10.334 2.428-18.342 3.461-18.311 4.244c0.013 0.8 9 1.1 20.413-0.54 c5.095-0.689 10.643-1.75 16.103-2.995c-4.724 1.328-9.442 2.584-13.807 3.63c-11.27 2.815-20.203 3.879-20.189 4.7 c-0.003 0.8 9.3 1.2 20.968-0.642c7.159-1.049 15.186-2.783 22.663-4.7c-19.352 5.864-40.992 12.05-40.832 13 c0.236 1.3 16.048-1.484 32.782-5.426c-2.471 0.679-4.895 1.33-7.213 1.929c-11.222 3.025-20.079 4.475-20.042 5.2 c0.031 0.8 9.3 0.8 20.892-1.235c11.628-1.918 25.612-5.411 35.759-8.43c6.124-1.769 17.933-6.909 17.409-8.46 c-0.42-1.242-9.273 0.413-15.696 2.013c5.297-2.086 11.004-4.82 11.952-6.205c2.414 2.6 4.8 5.3 7.1 8 c-3.112-0.052-13.268 3.12-18.591 5.074c-10.222 3.904-24.193 8.99-35.794 12.475c-11.574 3.605-20.812 5.337-20.732 6.1 c0.059 0.8 9.7 0.5 21.747-2.166c10.223-2.133 22.106-5.724 31.797-9.174c-9.223 3.474-19.986 7.35-29.255 10.2 c-11.706 3.754-21.061 5.571-20.98 6.356c0.066 0.8 9.8 0.4 22.027-2.398c12.212-2.676 26.774-7.384 37.249-11.429 c5.47-2.037 15.158-7.124 17.289-9.457c1.228 1.5 2.4 3 3.6 4.481c-2.372-0.549-13.753 2.697-19.538 4.7 c-10.496 3.809-24.772 8.908-36.564 12.595c-11.768 3.788-21.111 5.862-21.015 6.637c0.093 0.8 9.9 0.1 22.075-2.682 c12.231-2.718 26.875-7.263 37.464-11.104c6.08-2.144 17.432-7.803 17.996-9.665c1.935 2.4 3.8 4.9 5.7 7.366v-3.12 c-0.12-0.153-0.237-0.308-0.358-0.461c0.116-0.143 0.235-0.307 0.358-0.483v-68.003c-0.386 2.394-0.606 8.19-1.771 15.1 C556.25 380 556 381.5 555.7 382.97z M444.818 341.689c0.009-0.04 0.01-0.082 0.007-0.125 c0.024-0.004 0.1 0 0.077-0.002c0.594-0.268 0.543-1.311 0.091-2.698c0.195 0.2 0.4 0.5 0.6 0.7 c1.229 1.5 2 2.8 2.6 3.362C447.16 342.5 446 342.1 444.8 341.689z M452.59 345.4 c-0.205-0.097-0.407-0.198-0.612-0.294c-0.294-0.53-1.464-1.203-3.084-1.908c0.572-0.175 0.942-1.556 0.787-3.297 c1.412 2.3 3 4.7 4.3 6.041C453.574 345.8 453.1 345.6 452.6 345.435z M455.877 347.4 c0.007-0.057-0.004-0.117-0.025-0.177c0.917 0.5 1.8 1 2.7 1.43c-0.881-0.288-1.931-0.572-3.068-0.842 C455.731 347.7 455.9 347.6 455.9 347.412z M458.56 351.388c1.614-0.274 2.677-0.645 2.715-1.125 c0.005-0.068-0.017-0.138-0.052-0.208c1.692 0.9 3.4 1.8 5 2.796C464.267 352.3 461.4 351.8 458.6 351.388z M469.056 354.017c1.335-0.035 1.989-4.978 1.73-9.28c0.11 0.5 0.2 1 0.3 1.404c0.896 3.4 2.6 9.6 4 11.4 C473.134 356.4 471.1 355.2 469.1 354.017z M475.69 358.476c1.175 0.7 2.3 1.5 3.5 2.2 c-1.455-0.36-3.582-0.63-5.857-0.812C474.723 359.4 475.6 358.9 475.7 358.476z M475.21 364.1 c3.064-0.637 5.532-1.42 5.871-2.165c1.433 0.9 2.9 1.9 4.3 2.869C482.947 364.3 478.9 364.1 475.2 364.108z M481.255 368.399c2.979-0.69 5.435-1.5 6.046-2.23c1.513 1.1 3 2.1 4.5 3.2 C489.749 368.8 485.3 368.5 481.3 368.399z M498.223 382.295c3.143-1.408 5.613-2.895 5.515-3.737 c1.512 1.2 3 2.5 4.5 3.727C507.191 381.6 502.7 381.8 498.2 382.295z M508.303 381 c-1.219-0.999-2.447-1.984-3.681-2.963c1.121-0.327 2.858-3.101 4.168-6.185C508.427 375.1 508 379.1 508.3 381.048z M514.207 373.719c-0.465 3.198-1.149 8.982-0.772 11.637c-1.29-1.106-2.589-2.2-3.897-3.283c1.72-1.121 4.408-7.067 5.137-11.064 C514.524 371.9 514.4 372.9 514.2 373.719z M532.379 392.864c-0.433 3.353-0.754 7.409-0.492 9.6 c-1.054-1.06-2.112-2.116-3.181-3.161C529.784 398.4 531.2 395.7 532.4 392.864z M527.999 389.2 c-0.468 3.078-0.884 6.617-0.766 8.703c-0.977-0.944-1.954-1.889-2.943-2.821C525.338 394.4 526.8 391.9 528 389.219z M519.743 390.907c1.21-0.673 3.017-3.938 4.309-7.172c-0.601 3.354-1.261 7.93-1.031 10.2 C521.934 392.9 520.8 391.9 519.7 390.907z M527.561 400.112c-0.469-1.16-8.606 0.647-14.76 2.3 c5.176-2.362 10.603-5.476 10.4-6.64c2.851 2.7 5.7 5.5 8.4 8.402c-1.961-0.467-9.278 1.115-14.893 2.6 C522.213 404.4 528 401.2 527.6 400.112z M520.159 411.408c5.539-2.255 11.645-5.381 11.93-6.701 c1.259 1.3 2.5 2.6 3.7 3.968C533.253 408.4 525.7 409.9 520.2 411.408z M540.029 411 c-0.838-0.906-1.687-1.802-2.536-2.698c1.041-0.628 2.584-3.188 3.919-6.079C540.718 405.3 540.1 408.8 540 410.99z M541.465 412.564c1.121-0.952 2.68-3.511 4.018-6.278c-0.685 3.283-1.325 7.034-1.328 9.2 C543.266 414.5 542.4 413.5 541.5 412.564z M529.842 426.908c5.717-2.472 13.372-6.685 14.635-8.536 c1.021 1.2 2 2.4 3 3.59C544.097 422.2 535.1 425 529.8 426.908z M548.427 420.4 c-0.96-1.118-1.931-2.227-2.906-3.333c1.122-0.967 2.718-3.752 4.074-6.745C548.911 413.9 548.3 418.1 548.4 420.418z M552.48 425.227c-0.935-1.128-1.877-2.25-2.826-3.367c0.984-0.774 2.385-3.304 3.649-6.169 C552.811 419.1 552.4 422.9 552.5 425.227z M556.207 429.806c-0.747-0.934-1.498-1.865-2.255-2.791 c1.016-1.061 2.368-3.888 3.526-6.966C556.874 423.4 556.3 427.2 556.2 429.806z" class="style0"/><path d="M500.007 496.752c-0.024 0.8 10.6 1.2 23.98-1.217c10.972-1.873 23.684-5.269 34.253-8.614v-6.042 c-10.731 3.619-23.909 7.825-35.105 10.647C510.257 495 500 496 500 496.752z" class="style0"/><path d="M550.747 800h7.493v-11.221c-1.392 2.164-2.807 4.385-3.919 6 C553.277 796.4 552.1 798.2 550.7 800z" class="style0"/></g></svg>